ISO-10303-21;
HEADER;
FILE_DESCRIPTION(('Open CASCADE Model'),'2;1');
FILE_NAME('Open CASCADE Shape Model','2026-10-01T17:02:36',('Author'),(
    'Open CASCADE'),'Open CASCADE STEP processor 7.8','Open CASCADE 7.8'
  ,'Unknown');
FILE_SCHEMA(('AUTOMOTIVE_DESIGN { 1 0 10303 214 1 1 1 1 }'));
ENDSEC;
DATA;
#1 = APPLICATION_PROTOCOL_DEFINITION('international standard',
  'automotive_design',2000,#2);
#2 = APPLICATION_CONTEXT(
  'core data for automotive mechanical design processes');
#3 = SHAPE_DEFINITION_REPRESENTATION(#4,#10);
#4 = PRODUCT_DEFINITION_SHAPE('','',#5);
#5 = PRODUCT_DEFINITION('design','',#6,#9);
#6 = PRODUCT_DEFINITION_FORMATION('','',#7);
#7 = PRODUCT('Open CASCADE STEP translator 7.8 13',
  'Open CASCADE STEP translator 7.8 13','',(#8));
#8 = PRODUCT_CONTEXT('',#2,'mechanical');
#9 = PRODUCT_DEFINITION_CONTEXT('part definition',#2,'design');
#10 = SHAPE_REPRESENTATION('',(#11,#15,#19),#23);
#11 = AXIS2_PLACEMENT_3D('',#12,#13,#14);
#12 = CARTESIAN_POINT('',(0.,0.,0.));
#13 = DIRECTION('',(0.,0.,1.));
#14 = DIRECTION('',(1.,0.,-0.));
#15 = AXIS2_PLACEMENT_3D('',#16,#17,#18);
#16 = CARTESIAN_POINT('',(0.,0.,0.));
#17 = DIRECTION('',(0.,0.,1.));
#18 = DIRECTION('',(1.,0.,-0.));
#19 = AXIS2_PLACEMENT_3D('',#20,#21,#22);
#20 = CARTESIAN_POINT('',(0.,0.,0.));
#21 = DIRECTION('',(0.,0.,1.));
#22 = DIRECTION('',(1.,0.,-0.));
#23 = ( GEOMETRIC_REPRESENTATION_CONTEXT(3) 
GLOBAL_UNCERTAINTY_ASSIGNED_CONTEXT((#27)) GLOBAL_UNIT_ASSIGNED_CONTEXT(
(#24,#25,#26)) REPRESENTATION_CONTEXT('Context #1',
  '3D Context with UNIT and UNCERTAINTY') );
#24 = ( LENGTH_UNIT() NAMED_UNIT(*) SI_UNIT(.MILLI.,.METRE.) );
#25 = ( NAMED_UNIT(*) PLANE_ANGLE_UNIT() SI_UNIT($,.RADIAN.) );
#26 = ( NAMED_UNIT(*) SI_UNIT($,.STERADIAN.) SOLID_ANGLE_UNIT() );
#27 = UNCERTAINTY_MEASURE_WITH_UNIT(LENGTH_MEASURE(2.E-07),#24,
  'distance_accuracy_value','confusion accuracy');
#28 = PRODUCT_RELATED_PRODUCT_CATEGORY('part',$,(#7));
#29 = SHAPE_DEFINITION_REPRESENTATION(#30,#36);
#30 = PRODUCT_DEFINITION_SHAPE('','',#31);
#31 = PRODUCT_DEFINITION('design','',#32,#35);
#32 = PRODUCT_DEFINITION_FORMATION('','',#33);
#33 = PRODUCT('Open CASCADE STEP translator 7.8 13.1',
  'Open CASCADE STEP translator 7.8 13.1','',(#34));
#34 = PRODUCT_CONTEXT('',#2,'mechanical');
#35 = PRODUCT_DEFINITION_CONTEXT('part definition',#2,'design');
#36 = ADVANCED_BREP_SHAPE_REPRESENTATION('',(#11,#37),#1536);
#37 = MANIFOLD_SOLID_BREP('',#38);
#38 = CLOSED_SHELL('',(#39,#224,#297,#443,#447,#538,#708,#775,#976,#1174
    ,#1425,#1474,#1532));
#39 = ADVANCED_FACE('',(#40),#55,.T.);
#40 = FACE_BOUND('',#41,.T.);
#41 = EDGE_LOOP('',(#42,#77,#118,#141,#168,#169,#203));
#42 = ORIENTED_EDGE('',*,*,#43,.F.);
#43 = EDGE_CURVE('',#44,#46,#48,.T.);
#44 = VERTEX_POINT('',#45);
#45 = CARTESIAN_POINT('',(241.4,-17.415587349,16.155843373599));
#46 = VERTEX_POINT('',#47);
#47 = CARTESIAN_POINT('',(241.4,-15.,14.3));
#48 = SURFACE_CURVE('',#49,(#54,#66),.PCURVE_S1.);
#49 = CIRCLE('',#50,2.5);
#50 = AXIS2_PLACEMENT_3D('',#51,#52,#53);
#51 = CARTESIAN_POINT('',(241.4,-15.,16.8));
#52 = DIRECTION('',(1.,0.,0.));
#53 = DIRECTION('',(-0.,0.,1.));
#54 = PCURVE('',#55,#60);
#55 = CYLINDRICAL_SURFACE('',#56,2.5);
#56 = AXIS2_PLACEMENT_3D('',#57,#58,#59);
#57 = CARTESIAN_POINT('',(236.4,-15.,16.8));
#58 = DIRECTION('',(1.,0.,0.));
#59 = DIRECTION('',(-0.,0.,1.));
#60 = DEFINITIONAL_REPRESENTATION('',(#61),#65);
#61 = LINE('',#62,#63);
#62 = CARTESIAN_POINT('',(0.,5.));
#63 = VECTOR('',#64,1.);
#64 = DIRECTION('',(1.,0.));
#65 = ( GEOMETRIC_REPRESENTATION_CONTEXT(2) 
PARAMETRIC_REPRESENTATION_CONTEXT() REPRESENTATION_CONTEXT('2D SPACE',''
  ) );
#66 = PCURVE('',#67,#72);
#67 = SPHERICAL_SURFACE('',#68,2.5);
#68 = AXIS2_PLACEMENT_3D('',#69,#70,#71);
#69 = CARTESIAN_POINT('',(241.4,-15.,16.8));
#70 = DIRECTION('',(0.,0.,1.));
#71 = DIRECTION('',(1.,0.,-0.));
#72 = DEFINITIONAL_REPRESENTATION('',(#73),#76);
#73 = B_SPLINE_CURVE_WITH_KNOTS('',1,(#74,#75),.UNSPECIFIED.,.F.,.F.,(2,
    2),(1.831398718542,3.14159265359),.PIECEWISE_BEZIER_KNOTS.);
#74 = CARTESIAN_POINT('',(4.712388980385,-0.260602391747));
#75 = CARTESIAN_POINT('',(4.712388980385,-1.570796326795));
#76 = ( GEOMETRIC_REPRESENTATION_CONTEXT(2) 
PARAMETRIC_REPRESENTATION_CONTEXT() REPRESENTATION_CONTEXT('2D SPACE',''
  ) );
#77 = ORIENTED_EDGE('',*,*,#78,.F.);
#78 = EDGE_CURVE('',#79,#44,#81,.T.);
#79 = VERTEX_POINT('',#80);
#80 = CARTESIAN_POINT('',(238.18476713559,-15.,19.3));
#81 = SURFACE_CURVE('',#82,(#87,#100),.PCURVE_S1.);
#82 = ELLIPSE('',#83,4.162072716401,2.5);
#83 = AXIS2_PLACEMENT_3D('',#84,#85,#86);
#84 = CARTESIAN_POINT('',(241.4,-15.,16.8));
#85 = DIRECTION('',(0.600662259011,-0.206002030462,0.772507614232));
#86 = DIRECTION('',(0.799502877168,0.154768229748,-0.580380861556));
#87 = PCURVE('',#55,#88);
#88 = DEFINITIONAL_REPRESENTATION('',(#89),#99);
#89 = B_SPLINE_CURVE_WITH_KNOTS('',8,(#90,#91,#92,#93,#94,#95,#96,#97,
    #98),.UNSPECIFIED.,.F.,.F.,(9,9),(2.880990261843,4.712388965155),
  .PIECEWISE_BEZIER_KNOTS.);
#90 = CARTESIAN_POINT('',(6.252776074689E-14,1.784767135595));
#91 = CARTESIAN_POINT('',(0.228924837914,1.588488025637));
#92 = CARTESIAN_POINT('',(0.457849675828,1.584780079115));
#93 = CARTESIAN_POINT('',(0.686774513739,1.789313603717));
#94 = CARTESIAN_POINT('',(0.915699351657,2.196250231575));
#95 = CARTESIAN_POINT('',(1.144624189568,2.775532928605));
#96 = CARTESIAN_POINT('',(1.373549027484,3.476463814668));
#97 = CARTESIAN_POINT('',(1.602473865398,4.238232151271));
#98 = CARTESIAN_POINT('',(1.831398703312,4.999999949321));
#99 = ( GEOMETRIC_REPRESENTATION_CONTEXT(2) 
PARAMETRIC_REPRESENTATION_CONTEXT() REPRESENTATION_CONTEXT('2D SPACE',''
  ) );
#100 = PCURVE('',#101,#106);
#101 = CYLINDRICAL_SURFACE('',#102,2.5);
#102 = AXIS2_PLACEMENT_3D('',#103,#104,#105);
#103 = CARTESIAN_POINT('',(241.4,-15.,16.8));
#104 = DIRECTION('',(-0.2784097012,-0.247475289956,0.928032337335));
#105 = DIRECTION('',(0.957826285221,0.,0.287347885566));
#106 = DEFINITIONAL_REPRESENTATION('',(#107),#117);
#107 = B_SPLINE_CURVE_WITH_KNOTS('',8,(#108,#109,#110,#111,#112,#113,
    #114,#115,#116),.UNSPECIFIED.,.F.,.F.,(9,9),(2.880990261843,
    4.712388965155),.PIECEWISE_BEZIER_KNOTS.);
#108 = CARTESIAN_POINT('',(2.806883632933,3.215232864405));
#109 = CARTESIAN_POINT('',(3.035808470847,3.411511974363));
#110 = CARTESIAN_POINT('',(3.264733308753,3.415219920881));
#111 = CARTESIAN_POINT('',(3.493658146697,3.210686396283));
#112 = CARTESIAN_POINT('',(3.722582984548,2.803749768416));
#113 = CARTESIAN_POINT('',(3.951507822529,2.224467071395));
#114 = CARTESIAN_POINT('',(4.180432660409,1.523536185328));
#115 = CARTESIAN_POINT('',(4.409357498332,0.761767848729));
#116 = CARTESIAN_POINT('',(4.638282336246,5.067854402796E-08));
#117 = ( GEOMETRIC_REPRESENTATION_CONTEXT(2) 
PARAMETRIC_REPRESENTATION_CONTEXT() REPRESENTATION_CONTEXT('2D SPACE',''
  ) );
#118 = ORIENTED_EDGE('',*,*,#119,.F.);
#119 = EDGE_CURVE('',#120,#79,#122,.T.);
#120 = VERTEX_POINT('',#121);
#121 = CARTESIAN_POINT('',(236.4,-15.,19.3));
#122 = SEAM_CURVE('',#123,(#127,#134),.PCURVE_S1.);
#123 = LINE('',#124,#125);
#124 = CARTESIAN_POINT('',(236.4,-15.,19.3));
#125 = VECTOR('',#126,1.);
#126 = DIRECTION('',(1.,0.,0.));
#127 = PCURVE('',#55,#128);
#128 = DEFINITIONAL_REPRESENTATION('',(#129),#133);
#129 = LINE('',#130,#131);
#130 = CARTESIAN_POINT('',(6.28318530718,-0.));
#131 = VECTOR('',#132,1.);
#132 = DIRECTION('',(0.,1.));
#133 = ( GEOMETRIC_REPRESENTATION_CONTEXT(2) 
PARAMETRIC_REPRESENTATION_CONTEXT() REPRESENTATION_CONTEXT('2D SPACE',''
  ) );
#134 = PCURVE('',#55,#135);
#135 = DEFINITIONAL_REPRESENTATION('',(#136),#140);
#136 = LINE('',#137,#138);
#137 = CARTESIAN_POINT('',(0.,-0.));
#138 = VECTOR('',#139,1.);
#139 = DIRECTION('',(0.,1.));
#140 = ( GEOMETRIC_REPRESENTATION_CONTEXT(2) 
PARAMETRIC_REPRESENTATION_CONTEXT() REPRESENTATION_CONTEXT('2D SPACE',''
  ) );
#141 = ORIENTED_EDGE('',*,*,#142,.T.);
#142 = EDGE_CURVE('',#120,#120,#143,.T.);
#143 = SURFACE_CURVE('',#144,(#149,#156),.PCURVE_S1.);
#144 = CIRCLE('',#145,2.5);
#145 = AXIS2_PLACEMENT_3D('',#146,#147,#148);
#146 = CARTESIAN_POINT('',(236.4,-15.,16.8));
#147 = DIRECTION('',(1.,0.,0.));
#148 = DIRECTION('',(-0.,0.,1.));
#149 = PCURVE('',#55,#150);
#150 = DEFINITIONAL_REPRESENTATION('',(#151),#155);
#151 = LINE('',#152,#153);
#152 = CARTESIAN_POINT('',(0.,0.));
#153 = VECTOR('',#154,1.);
#154 = DIRECTION('',(1.,0.));
#155 = ( GEOMETRIC_REPRESENTATION_CONTEXT(2) 
PARAMETRIC_REPRESENTATION_CONTEXT() REPRESENTATION_CONTEXT('2D SPACE',''
  ) );
#156 = PCURVE('',#157,#162);
#157 = PLANE('',#158);
#158 = AXIS2_PLACEMENT_3D('',#159,#160,#161);
#159 = CARTESIAN_POINT('',(236.4,-15.,16.8));
#160 = DIRECTION('',(1.,0.,0.));
#161 = DIRECTION('',(-0.,0.,1.));
#162 = DEFINITIONAL_REPRESENTATION('',(#163),#167);
#163 = CIRCLE('',#164,2.5);
#164 = AXIS2_PLACEMENT_2D('',#165,#166);
#165 = CARTESIAN_POINT('',(0.,0.));
#166 = DIRECTION('',(1.,0.));
#167 = ( GEOMETRIC_REPRESENTATION_CONTEXT(2) 
PARAMETRIC_REPRESENTATION_CONTEXT() REPRESENTATION_CONTEXT('2D SPACE',''
  ) );
#168 = ORIENTED_EDGE('',*,*,#119,.T.);
#169 = ORIENTED_EDGE('',*,*,#170,.F.);
#170 = EDGE_CURVE('',#171,#79,#173,.T.);
#171 = VERTEX_POINT('',#172);
#172 = CARTESIAN_POINT('',(241.4,-12.58441265099,17.444156626401));
#173 = SURFACE_CURVE('',#174,(#179,#191),.PCURVE_S1.);
#174 = ELLIPSE('',#175,4.162072716401,2.5);
#175 = AXIS2_PLACEMENT_3D('',#176,#177,#178);
#176 = CARTESIAN_POINT('',(241.4,-15.,16.8));
#177 = DIRECTION('',(0.600662259011,-0.206002030462,0.772507614232));
#178 = DIRECTION('',(0.799502877168,0.154768229748,-0.580380861556));
#179 = PCURVE('',#55,#180);
#180 = DEFINITIONAL_REPRESENTATION('',(#181),#190);
#181 = B_SPLINE_CURVE_WITH_KNOTS('',7,(#182,#183,#184,#185,#186,#187,
    #188,#189),.UNSPECIFIED.,.F.,.F.,(8,8),(1.57079623664,2.880990261843
    ),.PIECEWISE_BEZIER_KNOTS.);
#182 = CARTESIAN_POINT('',(4.972991281977,5.0000003));
#183 = CARTESIAN_POINT('',(5.160161857006,4.377173532494));
#184 = CARTESIAN_POINT('',(5.347332432035,3.754347365836));
#185 = CARTESIAN_POINT('',(5.534503007063,3.167155249423));
#186 = CARTESIAN_POINT('',(5.721673582093,2.651253754029));
#187 = CARTESIAN_POINT('',(5.908844157122,2.237138027613));
#188 = CARTESIAN_POINT('',(6.096014732151,1.94524633135));
#189 = CARTESIAN_POINT('',(6.28318530718,1.784767135595));
#190 = ( GEOMETRIC_REPRESENTATION_CONTEXT(2) 
PARAMETRIC_REPRESENTATION_CONTEXT() REPRESENTATION_CONTEXT('2D SPACE',''
  ) );
#191 = PCURVE('',#101,#192);
#192 = DEFINITIONAL_REPRESENTATION('',(#193),#202);
#193 = B_SPLINE_CURVE_WITH_KNOTS('',7,(#194,#195,#196,#197,#198,#199,
    #200,#201),.UNSPECIFIED.,.F.,.F.,(8,8),(1.57079623664,2.880990261843
    ),.PIECEWISE_BEZIER_KNOTS.);
#194 = CARTESIAN_POINT('',(1.49668960773,-3.000000248221E-07));
#195 = CARTESIAN_POINT('',(1.683860182759,0.622826467506));
#196 = CARTESIAN_POINT('',(1.871030757789,1.245652634164));
#197 = CARTESIAN_POINT('',(2.058201332817,1.832844750576));
#198 = CARTESIAN_POINT('',(2.245371907847,2.348746245971));
#199 = CARTESIAN_POINT('',(2.432542482875,2.762861972387));
#200 = CARTESIAN_POINT('',(2.619713057904,3.05475366865));
#201 = CARTESIAN_POINT('',(2.806883632933,3.215232864405));
#202 = ( GEOMETRIC_REPRESENTATION_CONTEXT(2) 
PARAMETRIC_REPRESENTATION_CONTEXT() REPRESENTATION_CONTEXT('2D SPACE',''
  ) );
#203 = ORIENTED_EDGE('',*,*,#204,.F.);
#204 = EDGE_CURVE('',#46,#171,#205,.T.);
#205 = SURFACE_CURVE('',#206,(#211,#218),.PCURVE_S1.);
#206 = CIRCLE('',#207,2.5);
#207 = AXIS2_PLACEMENT_3D('',#208,#209,#210);
#208 = CARTESIAN_POINT('',(241.4,-15.,16.8));
#209 = DIRECTION('',(1.,0.,0.));
#210 = DIRECTION('',(-0.,0.,1.));
#211 = PCURVE('',#55,#212);
#212 = DEFINITIONAL_REPRESENTATION('',(#213),#217);
#213 = LINE('',#214,#215);
#214 = CARTESIAN_POINT('',(0.,5.));
#215 = VECTOR('',#216,1.);
#216 = DIRECTION('',(1.,0.));
#217 = ( GEOMETRIC_REPRESENTATION_CONTEXT(2) 
PARAMETRIC_REPRESENTATION_CONTEXT() REPRESENTATION_CONTEXT('2D SPACE',''
  ) );
#218 = PCURVE('',#67,#219);
#219 = DEFINITIONAL_REPRESENTATION('',(#220),#223);
#220 = B_SPLINE_CURVE_WITH_KNOTS('',1,(#221,#222),.UNSPECIFIED.,.F.,.F.,
  (2,2),(3.14159265359,4.972991372132),.PIECEWISE_BEZIER_KNOTS.);
#221 = CARTESIAN_POINT('',(7.853981633974,-1.570796326795));
#222 = CARTESIAN_POINT('',(7.853981633974,0.260602391747));
#223 = ( GEOMETRIC_REPRESENTATION_CONTEXT(2) 
PARAMETRIC_REPRESENTATION_CONTEXT() REPRESENTATION_CONTEXT('2D SPACE',''
  ) );
#224 = ADVANCED_FACE('',(#225),#67,.T.);
#225 = FACE_BOUND('',#226,.T.);
#226 = EDGE_LOOP('',(#227,#228,#229,#264));
#227 = ORIENTED_EDGE('',*,*,#43,.T.);
#228 = ORIENTED_EDGE('',*,*,#204,.T.);
#229 = ORIENTED_EDGE('',*,*,#230,.F.);
#230 = EDGE_CURVE('',#231,#171,#233,.T.);
#231 = VERTEX_POINT('',#232);
#232 = CARTESIAN_POINT('',(243.79456571305,-15.,17.518369713916));
#233 = SURFACE_CURVE('',#234,(#239,#257),.PCURVE_S1.);
#234 = CIRCLE('',#235,2.5);
#235 = AXIS2_PLACEMENT_3D('',#236,#237,#238);
#236 = CARTESIAN_POINT('',(241.4,-15.,16.8));
#237 = DIRECTION('',(-0.2784097012,-0.247475289956,0.928032337335));
#238 = DIRECTION('',(0.957826285221,0.,0.287347885566));
#239 = PCURVE('',#67,#240);
#240 = DEFINITIONAL_REPRESENTATION('',(#241),#256);
#241 = B_SPLINE_CURVE_WITH_KNOTS('',7,(#242,#243,#244,#245,#246,#247,
    #248,#249,#250,#251,#252,#253,#254,#255),.UNSPECIFIED.,.F.,.F.,(8,6,
    8),(0.,0.748344848943,1.496689697886),.UNSPECIFIED.);
#242 = CARTESIAN_POINT('',(6.28318530718,0.291456794478));
#243 = CARTESIAN_POINT('',(6.391327044184,0.317913488546));
#244 = CARTESIAN_POINT('',(6.501471795022,0.340615016152));
#245 = CARTESIAN_POINT('',(6.613590366651,0.358972601362));
#246 = CARTESIAN_POINT('',(6.727427437031,0.372464423276));
#247 = CARTESIAN_POINT('',(6.842417137909,0.380698228888));
#248 = CARTESIAN_POINT('',(6.957820461821,0.383524491433));
#249 = CARTESIAN_POINT('',(7.188086950519,0.378500142621));
#250 = CARTESIAN_POINT('',(7.302949609224,0.370649584058));
#251 = CARTESIAN_POINT('',(7.416857776757,0.357529967309));
#252 = CARTESIAN_POINT('',(7.529162413422,0.339431405154));
#253 = CARTESIAN_POINT('',(7.639477949972,0.316849916734));
#254 = CARTESIAN_POINT('',(7.7477139128,0.290366172574));
#255 = CARTESIAN_POINT('',(7.853981633974,0.260602391747));
#256 = ( GEOMETRIC_REPRESENTATION_CONTEXT(2) 
PARAMETRIC_REPRESENTATION_CONTEXT() REPRESENTATION_CONTEXT('2D SPACE',''
  ) );
#257 = PCURVE('',#101,#258);
#258 = DEFINITIONAL_REPRESENTATION('',(#259),#263);
#259 = LINE('',#260,#261);
#260 = CARTESIAN_POINT('',(0.,0.));
#261 = VECTOR('',#262,1.);
#262 = DIRECTION('',(1.,0.));
#263 = ( GEOMETRIC_REPRESENTATION_CONTEXT(2) 
PARAMETRIC_REPRESENTATION_CONTEXT() REPRESENTATION_CONTEXT('2D SPACE',''
  ) );
#264 = ORIENTED_EDGE('',*,*,#265,.F.);
#265 = EDGE_CURVE('',#44,#231,#266,.T.);
#266 = SURFACE_CURVE('',#267,(#272,#290),.PCURVE_S1.);
#267 = CIRCLE('',#268,2.5);
#268 = AXIS2_PLACEMENT_3D('',#269,#270,#271);
#269 = CARTESIAN_POINT('',(241.4,-15.,16.8));
#270 = DIRECTION('',(-0.2784097012,-0.247475289956,0.928032337335));
#271 = DIRECTION('',(0.957826285221,0.,0.287347885566));
#272 = PCURVE('',#67,#273);
#273 = DEFINITIONAL_REPRESENTATION('',(#274),#289);
#274 = B_SPLINE_CURVE_WITH_KNOTS('',7,(#275,#276,#277,#278,#279,#280,
    #281,#282,#283,#284,#285,#286,#287,#288),.UNSPECIFIED.,.F.,.F.,(8,6,
    8),(4.638282351476,5.460733829328,6.28318530718),.UNSPECIFIED.);
#275 = CARTESIAN_POINT('',(4.712388980385,-0.260602391747));
#276 = CARTESIAN_POINT('',(4.82918011545,-0.227891181719));
#277 = CARTESIAN_POINT('',(4.943594370414,-0.191217664489));
#278 = CARTESIAN_POINT('',(5.055779771743,-0.151409843614));
#279 = CARTESIAN_POINT('',(5.166197380564,-0.109345599246));
#280 = CARTESIAN_POINT('',(5.275481084784,-6.5890662882E-02));
#281 = CARTESIAN_POINT('',(5.384327632714,-2.188599725017E-02));
#282 = CARTESIAN_POINT('',(5.602506183665,6.551683452047E-02));
#283 = CARTESIAN_POINT('',(5.711838003464,0.108915494208));
#284 = CARTESIAN_POINT('',(5.822093214633,0.151160914534));
#285 = CARTESIAN_POINT('',(5.933927169393,0.191401141902));
#286 = CARTESIAN_POINT('',(6.047902709086,0.228767867681));
#287 = CARTESIAN_POINT('',(6.164334577409,0.262380163341));
#288 = CARTESIAN_POINT('',(6.28318530718,0.291456794478));
#289 = ( GEOMETRIC_REPRESENTATION_CONTEXT(2) 
PARAMETRIC_REPRESENTATION_CONTEXT() REPRESENTATION_CONTEXT('2D SPACE',''
  ) );
#290 = PCURVE('',#101,#291);
#291 = DEFINITIONAL_REPRESENTATION('',(#292),#296);
#292 = LINE('',#293,#294);
#293 = CARTESIAN_POINT('',(0.,0.));
#294 = VECTOR('',#295,1.);
#295 = DIRECTION('',(1.,0.));
#296 = ( GEOMETRIC_REPRESENTATION_CONTEXT(2) 
PARAMETRIC_REPRESENTATION_CONTEXT() REPRESENTATION_CONTEXT('2D SPACE',''
  ) );
#297 = ADVANCED_FACE('',(#298),#101,.T.);
#298 = FACE_BOUND('',#299,.T.);
#299 = EDGE_LOOP('',(#300,#323,#355,#396,#438,#439,#440,#441,#442));
#300 = ORIENTED_EDGE('',*,*,#301,.T.);
#301 = EDGE_CURVE('',#231,#302,#304,.T.);
#302 = VERTEX_POINT('',#303);
#303 = CARTESIAN_POINT('',(241.99456571305,-16.6,23.518369713916));
#304 = SEAM_CURVE('',#305,(#309,#316),.PCURVE_S1.);
#305 = LINE('',#306,#307);
#306 = CARTESIAN_POINT('',(243.79456571305,-15.,17.518369713916));
#307 = VECTOR('',#308,1.);
#308 = DIRECTION('',(-0.2784097012,-0.247475289956,0.928032337335));
#309 = PCURVE('',#101,#310);
#310 = DEFINITIONAL_REPRESENTATION('',(#311),#315);
#311 = LINE('',#312,#313);
#312 = CARTESIAN_POINT('',(6.28318530718,-0.));
#313 = VECTOR('',#314,1.);
#314 = DIRECTION('',(0.,1.));
#315 = ( GEOMETRIC_REPRESENTATION_CONTEXT(2) 
PARAMETRIC_REPRESENTATION_CONTEXT() REPRESENTATION_CONTEXT('2D SPACE',''
  ) );
#316 = PCURVE('',#101,#317);
#317 = DEFINITIONAL_REPRESENTATION('',(#318),#322);
#318 = LINE('',#319,#320);
#319 = CARTESIAN_POINT('',(0.,-0.));
#320 = VECTOR('',#321,1.);
#321 = DIRECTION('',(0.,1.));
#322 = ( GEOMETRIC_REPRESENTATION_CONTEXT(2) 
PARAMETRIC_REPRESENTATION_CONTEXT() REPRESENTATION_CONTEXT('2D SPACE',''
  ) );
#323 = ORIENTED_EDGE('',*,*,#324,.F.);
#324 = EDGE_CURVE('',#325,#302,#327,.T.);
#325 = VERTEX_POINT('',#326);
#326 = CARTESIAN_POINT('',(241.81162934232,-17.70581467116,
    23.168604890387));
#327 = SURFACE_CURVE('',#328,(#333,#340),.PCURVE_S1.);
#328 = CIRCLE('',#329,2.5);
#329 = AXIS2_PLACEMENT_3D('',#330,#331,#332);
#330 = CARTESIAN_POINT('',(239.6,-16.6,22.8));
#331 = DIRECTION('',(-0.2784097012,-0.247475289956,0.928032337335));
#332 = DIRECTION('',(0.957826285221,0.,0.287347885566));
#333 = PCURVE('',#101,#334);
#334 = DEFINITIONAL_REPRESENTATION('',(#335),#339);
#335 = LINE('',#336,#337);
#336 = CARTESIAN_POINT('',(0.,6.465291950098));
#337 = VECTOR('',#338,1.);
#338 = DIRECTION('',(1.,0.));
#339 = ( GEOMETRIC_REPRESENTATION_CONTEXT(2) 
PARAMETRIC_REPRESENTATION_CONTEXT() REPRESENTATION_CONTEXT('2D SPACE',''
  ) );
#340 = PCURVE('',#341,#346);
#341 = SPHERICAL_SURFACE('',#342,2.5);
#342 = AXIS2_PLACEMENT_3D('',#343,#344,#345);
#343 = CARTESIAN_POINT('',(239.6,-16.6,22.8));
#344 = DIRECTION('',(0.,0.,1.));
#345 = DIRECTION('',(1.,0.,-0.));
#346 = DEFINITIONAL_REPRESENTATION('',(#347),#354);
#347 = B_SPLINE_CURVE_WITH_KNOTS('',5,(#348,#349,#350,#351,#352,#353),
  .UNSPECIFIED.,.F.,.F.,(6,6),(5.809098132641,6.28318530718),
  .PIECEWISE_BEZIER_KNOTS.);
#348 = CARTESIAN_POINT('',(5.819537698179,0.147981460749));
#349 = CARTESIAN_POINT('',(5.909486758266,0.180774756325));
#350 = CARTESIAN_POINT('',(6.000535032872,0.212092750221));
#351 = CARTESIAN_POINT('',(6.093046895531,0.241361497633));
#352 = CARTESIAN_POINT('',(6.187272233326,0.267991822281));
#353 = CARTESIAN_POINT('',(6.28318530718,0.291456794478));
#354 = ( GEOMETRIC_REPRESENTATION_CONTEXT(2) 
PARAMETRIC_REPRESENTATION_CONTEXT() REPRESENTATION_CONTEXT('2D SPACE',''
  ) );
#355 = ORIENTED_EDGE('',*,*,#356,.F.);
#356 = EDGE_CURVE('',#357,#325,#359,.T.);
#357 = VERTEX_POINT('',#358);
#358 = CARTESIAN_POINT('',(237.38837065767,-15.49418532883,
    22.431395109613));
#359 = SURFACE_CURVE('',#360,(#365,#378),.PCURVE_S1.);
#360 = ELLIPSE('',#361,2.585043466065,2.5);
#361 = AXIS2_PLACEMENT_3D('',#362,#363,#364);
#362 = CARTESIAN_POINT('',(239.6,-16.6,22.8));
#363 = DIRECTION('',(-0.364393483306,-0.458626747528,0.81048065725));
#364 = DIRECTION('',(0.290875735791,0.770720009173,0.566905612769));
#365 = PCURVE('',#101,#366);
#366 = DEFINITIONAL_REPRESENTATION('',(#367),#377);
#367 = B_SPLINE_CURVE_WITH_KNOTS('',8,(#368,#369,#370,#371,#372,#373,
    #374,#375,#376),.UNSPECIFIED.,.F.,.F.,(9,9),(1.570795411044,
    4.712388990313),.PIECEWISE_BEZIER_KNOTS.);
#368 = CARTESIAN_POINT('',(2.6675045633,6.465292552304));
#369 = CARTESIAN_POINT('',(3.060203760709,6.207049988603));
#370 = CARTESIAN_POINT('',(3.452902958114,5.94880525965));
#371 = CARTESIAN_POINT('',(3.845602155534,5.75126712304));
#372 = CARTESIAN_POINT('',(4.238301352918,5.674978206171));
#373 = CARTESIAN_POINT('',(4.631000550358,5.75126684221));
#374 = CARTESIAN_POINT('',(5.023699747748,5.948804768977));
#375 = CARTESIAN_POINT('',(5.416398945161,6.207049392926));
#376 = CARTESIAN_POINT('',(5.809098142569,6.465291956627));
#377 = ( GEOMETRIC_REPRESENTATION_CONTEXT(2) 
PARAMETRIC_REPRESENTATION_CONTEXT() REPRESENTATION_CONTEXT('2D SPACE',''
  ) );
#378 = PCURVE('',#379,#384);
#379 = CYLINDRICAL_SURFACE('',#380,2.5);
#380 = AXIS2_PLACEMENT_3D('',#381,#382,#383);
#381 = CARTESIAN_POINT('',(239.6,-16.6,22.8));
#382 = DIRECTION('',(-0.426401432711,-0.639602149067,0.639602149067));
#383 = DIRECTION('',(-2.775557561563E-17,0.707106781187,0.707106781187)
  );
#384 = DEFINITIONAL_REPRESENTATION('',(#385),#395);
#385 = B_SPLINE_CURVE_WITH_KNOTS('',8,(#386,#387,#388,#389,#390,#391,
    #392,#393,#394),.UNSPECIFIED.,.F.,.F.,(9,9),(1.570795411044,
    4.712388990313),.PIECEWISE_BEZIER_KNOTS.);
#386 = CARTESIAN_POINT('',(1.360739671973,-6.022061853628E-07));
#387 = CARTESIAN_POINT('',(1.753438869381,0.258241961495));
#388 = CARTESIAN_POINT('',(2.146138066791,0.516486690447));
#389 = CARTESIAN_POINT('',(2.538837264186,0.714024827025));
#390 = CARTESIAN_POINT('',(2.931536461618,0.790313743936));
#391 = CARTESIAN_POINT('',(3.324235659009,0.714025107859));
#392 = CARTESIAN_POINT('',(3.716934856425,0.516487181122));
#393 = CARTESIAN_POINT('',(4.109634053833,0.258242557172));
#394 = CARTESIAN_POINT('',(4.502333251242,-6.5291771989E-09));
#395 = ( GEOMETRIC_REPRESENTATION_CONTEXT(2) 
PARAMETRIC_REPRESENTATION_CONTEXT() REPRESENTATION_CONTEXT('2D SPACE',''
  ) );
#396 = ORIENTED_EDGE('',*,*,#397,.F.);
#397 = EDGE_CURVE('',#302,#357,#398,.T.);
#398 = SURFACE_CURVE('',#399,(#404,#411),.PCURVE_S1.);
#399 = CIRCLE('',#400,2.5);
#400 = AXIS2_PLACEMENT_3D('',#401,#402,#403);
#401 = CARTESIAN_POINT('',(239.6,-16.6,22.8));
#402 = DIRECTION('',(-0.2784097012,-0.247475289956,0.928032337335));
#403 = DIRECTION('',(0.957826285221,0.,0.287347885566));
#404 = PCURVE('',#101,#405);
#405 = DEFINITIONAL_REPRESENTATION('',(#406),#410);
#406 = LINE('',#407,#408);
#407 = CARTESIAN_POINT('',(0.,6.465291950098));
#408 = VECTOR('',#409,1.);
#409 = DIRECTION('',(1.,0.));
#410 = ( GEOMETRIC_REPRESENTATION_CONTEXT(2) 
PARAMETRIC_REPRESENTATION_CONTEXT() REPRESENTATION_CONTEXT('2D SPACE',''
  ) );
#411 = PCURVE('',#341,#412);
#412 = DEFINITIONAL_REPRESENTATION('',(#413),#437);
#413 = B_SPLINE_CURVE_WITH_KNOTS('',8,(#414,#415,#416,#417,#418,#419,
    #420,#421,#422,#423,#424,#425,#426,#427,#428,#429,#430,#431,#432,
    #433,#434,#435,#436),.UNSPECIFIED.,.F.,.F.,(9,7,7,9),(0.,
    0.666876369763,1.667190924407,2.667505479051),.UNSPECIFIED.);
#414 = CARTESIAN_POINT('',(6.28318530718,0.291456794478));
#415 = CARTESIAN_POINT('',(6.367508093604,0.312086222349));
#416 = CARTESIAN_POINT('',(6.453023702061,0.330478843335));
#417 = CARTESIAN_POINT('',(6.539720013276,0.346375521372));
#418 = CARTESIAN_POINT('',(6.627511331825,0.359534705743));
#419 = CARTESIAN_POINT('',(6.716225257954,0.369752636215));
#420 = CARTESIAN_POINT('',(6.805610179046,0.376879390278));
#421 = CARTESIAN_POINT('',(6.895363380719,0.380830772487));
#422 = CARTESIAN_POINT('',(7.119904372871,0.382743956009));
#423 = CARTESIAN_POINT('',(7.254770617546,0.376722425116));
#424 = CARTESIAN_POINT('',(7.388747428471,0.363491816973));
#425 = CARTESIAN_POINT('',(7.520767677529,0.343361826967));
#426 = CARTESIAN_POINT('',(7.650062365603,0.317022915229));
#427 = CARTESIAN_POINT('',(7.776447824595,0.285355422603));
#428 = CARTESIAN_POINT('',(7.900081547844,0.249299608237));
#429 = CARTESIAN_POINT('',(8.142687182616,0.17033663101));
#430 = CARTESIAN_POINT('',(8.261659027695,0.127429401004));
#431 = CARTESIAN_POINT('',(8.378717304425,8.205845920227E-02));
#432 = CARTESIAN_POINT('',(8.494536969235,3.520554546288E-02));
#433 = CARTESIAN_POINT('',(8.609905654992,-1.217661817737E-02));
#434 = CARTESIAN_POINT('',(8.725639892194,-5.914491382049E-02));
#435 = CARTESIAN_POINT('',(8.842511141508,-0.104735707882));
#436 = CARTESIAN_POINT('',(8.961130351769,-0.147981460749));
#437 = ( GEOMETRIC_REPRESENTATION_CONTEXT(2) 
PARAMETRIC_REPRESENTATION_CONTEXT() REPRESENTATION_CONTEXT('2D SPACE',''
  ) );
#438 = ORIENTED_EDGE('',*,*,#301,.F.);
#439 = ORIENTED_EDGE('',*,*,#230,.T.);
#440 = ORIENTED_EDGE('',*,*,#170,.T.);
#441 = ORIENTED_EDGE('',*,*,#78,.T.);
#442 = ORIENTED_EDGE('',*,*,#265,.T.);
#443 = ADVANCED_FACE('',(#444),#157,.F.);
#444 = FACE_BOUND('',#445,.T.);
#445 = EDGE_LOOP('',(#446));
#446 = ORIENTED_EDGE('',*,*,#142,.F.);
#447 = ADVANCED_FACE('',(#448),#341,.T.);
#448 = FACE_BOUND('',#449,.T.);
#449 = EDGE_LOOP('',(#450,#501,#502,#503));
#450 = ORIENTED_EDGE('',*,*,#451,.T.);
#451 = EDGE_CURVE('',#452,#325,#454,.T.);
#452 = VERTEX_POINT('',#453);
#453 = CARTESIAN_POINT('',(239.6,-14.83223304703,24.567766952966));
#454 = SURFACE_CURVE('',#455,(#460,#494),.PCURVE_S1.);
#455 = CIRCLE('',#456,2.5);
#456 = AXIS2_PLACEMENT_3D('',#457,#458,#459);
#457 = CARTESIAN_POINT('',(239.6,-16.6,22.8));
#458 = DIRECTION('',(0.426401432711,0.639602149067,-0.639602149067));
#459 = DIRECTION('',(0.,0.707106781187,0.707106781187));
#460 = PCURVE('',#341,#461);
#461 = DEFINITIONAL_REPRESENTATION('',(#462),#493);
#462 = B_SPLINE_CURVE_WITH_KNOTS('',8,(#463,#464,#465,#466,#467,#468,
    #469,#470,#471,#472,#473,#474,#475,#476,#477,#478,#479,#480,#481,
    #482,#483,#484,#485,#486,#487,#488,#489,#490,#491,#492),
  .UNSPECIFIED.,.F.,.F.,(9,7,7,7,9),(0.,0.291934813082,0.583869626164,
    1.167739252329,1.780852065866),.UNSPECIFIED.);
#463 = CARTESIAN_POINT('',(7.853981633974,0.785398163397));
#464 = CARTESIAN_POINT('',(7.807301100516,0.800958341217));
#465 = CARTESIAN_POINT('',(7.758960076845,0.815273264208));
#466 = CARTESIAN_POINT('',(7.708977004465,0.828239927595));
#467 = CARTESIAN_POINT('',(7.657411458915,0.839753187156));
#468 = CARTESIAN_POINT('',(7.604383640843,0.849711538838));
#469 = CARTESIAN_POINT('',(7.550081323642,0.85802352791));
#470 = CARTESIAN_POINT('',(7.494754257632,0.864614787656));
#471 = CARTESIAN_POINT('',(7.382637803972,0.87425662756));
#472 = CARTESIAN_POINT('',(7.325848232044,0.877307109796));
#473 = CARTESIAN_POINT('',(7.268619906714,0.878537214326));
#474 = CARTESIAN_POINT('',(7.211287274552,0.877920178208));
#475 = CARTESIAN_POINT('',(7.154204777308,0.875458651264));
#476 = CARTESIAN_POINT('',(7.097710119724,0.87118486536));
#477 = CARTESIAN_POINT('',(7.042092356903,0.865156155948));
#478 = CARTESIAN_POINT('',(6.878568766069,0.842029451856));
#479 = CARTESIAN_POINT('',(6.773992625588,0.819891122971));
#480 = CARTESIAN_POINT('',(6.67571698649,0.791629049192));
#481 = CARTESIAN_POINT('',(6.584703288325,0.75813250088));
#482 = CARTESIAN_POINT('',(6.500612571792,0.720328392431));
#483 = CARTESIAN_POINT('',(6.422836609378,0.678965365836));
#484 = CARTESIAN_POINT('',(6.350612744398,0.634683137006));
#485 = CARTESIAN_POINT('',(6.212380757859,0.538984069403));
#486 = CARTESIAN_POINT('',(6.146865296409,0.487321074944));
#487 = CARTESIAN_POINT('',(6.085759540367,0.433619181799));
#488 = CARTESIAN_POINT('',(6.028189941232,0.378346106949));
#489 = CARTESIAN_POINT('',(5.973402703423,0.321866966447));
#490 = CARTESIAN_POINT('',(5.920751742456,0.264478964228));
#491 = CARTESIAN_POINT('',(5.869645533082,0.206439473818));
#492 = CARTESIAN_POINT('',(5.819537698179,0.147981460749));
#493 = ( GEOMETRIC_REPRESENTATION_CONTEXT(2) 
PARAMETRIC_REPRESENTATION_CONTEXT() REPRESENTATION_CONTEXT('2D SPACE',''
  ) );
#494 = PCURVE('',#379,#495);
#495 = DEFINITIONAL_REPRESENTATION('',(#496),#500);
#496 = LINE('',#497,#498);
#497 = CARTESIAN_POINT('',(6.28318530718,0.));
#498 = VECTOR('',#499,1.);
#499 = DIRECTION('',(-1.,-0.));
#500 = ( GEOMETRIC_REPRESENTATION_CONTEXT(2) 
PARAMETRIC_REPRESENTATION_CONTEXT() REPRESENTATION_CONTEXT('2D SPACE',''
  ) );
#501 = ORIENTED_EDGE('',*,*,#324,.T.);
#502 = ORIENTED_EDGE('',*,*,#397,.T.);
#503 = ORIENTED_EDGE('',*,*,#504,.F.);
#504 = EDGE_CURVE('',#452,#357,#505,.T.);
#505 = SURFACE_CURVE('',#506,(#511,#531),.PCURVE_S1.);
#506 = CIRCLE('',#507,2.5);
#507 = AXIS2_PLACEMENT_3D('',#508,#509,#510);
#508 = CARTESIAN_POINT('',(239.6,-16.6,22.8));
#509 = DIRECTION('',(-0.426401432711,-0.639602149067,0.639602149067));
#510 = DIRECTION('',(2.775557561563E-17,0.707106781187,0.707106781187));
#511 = PCURVE('',#341,#512);
#512 = DEFINITIONAL_REPRESENTATION('',(#513),#530);
#513 = B_SPLINE_CURVE_WITH_KNOTS('',8,(#514,#515,#516,#517,#518,#519,
    #520,#521,#522,#523,#524,#525,#526,#527,#528,#529),.UNSPECIFIED.,.F.
  ,.F.,(9,7,9),(0.,0.680370293862,1.360740587724),.UNSPECIFIED.);
#514 = CARTESIAN_POINT('',(7.853981633974,0.785398163397));
#515 = CARTESIAN_POINT('',(7.962773209503,0.749134304888));
#516 = CARTESIAN_POINT('',(8.062548050407,0.706107267982));
#517 = CARTESIAN_POINT('',(8.153079859054,0.657624768139));
#518 = CARTESIAN_POINT('',(8.235504639409,0.604959183082));
#519 = CARTESIAN_POINT('',(8.311257856765,0.549036989331));
#520 = CARTESIAN_POINT('',(8.38153343662,0.490584605266));
#521 = CARTESIAN_POINT('',(8.447441116365,0.430168933621));
#522 = CARTESIAN_POINT('',(8.572430117405,0.306339481546));
#523 = CARTESIAN_POINT('',(8.631511906861,0.242925669339));
#524 = CARTESIAN_POINT('',(8.688141754097,0.178476807931));
#525 = CARTESIAN_POINT('',(8.743146424175,0.113352397694));
#526 = CARTESIAN_POINT('',(8.797254793383,4.785782044747E-02));
#527 = CARTESIAN_POINT('',(8.851150167674,-1.772463834732E-02));
#528 = CARTESIAN_POINT('',(8.90552576872,-8.311069854563E-02));
#529 = CARTESIAN_POINT('',(8.961130351769,-0.147981460749));
#530 = ( GEOMETRIC_REPRESENTATION_CONTEXT(2) 
PARAMETRIC_REPRESENTATION_CONTEXT() REPRESENTATION_CONTEXT('2D SPACE',''
  ) );
#531 = PCURVE('',#379,#532);
#532 = DEFINITIONAL_REPRESENTATION('',(#533),#537);
#533 = LINE('',#534,#535);
#534 = CARTESIAN_POINT('',(0.,0.));
#535 = VECTOR('',#536,1.);
#536 = DIRECTION('',(1.,0.));
#537 = ( GEOMETRIC_REPRESENTATION_CONTEXT(2) 
PARAMETRIC_REPRESENTATION_CONTEXT() REPRESENTATION_CONTEXT('2D SPACE',''
  ) );
#538 = ADVANCED_FACE('',(#539),#379,.T.);
#539 = FACE_BOUND('',#540,.T.);
#540 = EDGE_LOOP('',(#541,#612,#649,#683,#704,#705,#706,#707));
#541 = ORIENTED_EDGE('',*,*,#542,.T.);
#542 = EDGE_CURVE('',#543,#545,#547,.T.);
#543 = VERTEX_POINT('',#544);
#544 = CARTESIAN_POINT('',(236.4,-19.63223304703,29.367766952966));
#545 = VERTEX_POINT('',#546);
#546 = CARTESIAN_POINT('',(236.4,-23.16776695296,25.832233047034));
#547 = SURFACE_CURVE('',#548,(#553,#560),.PCURVE_S1.);
#548 = CIRCLE('',#549,2.5);
#549 = AXIS2_PLACEMENT_3D('',#550,#551,#552);
#550 = CARTESIAN_POINT('',(236.4,-21.4,27.6));
#551 = DIRECTION('',(0.426401432711,0.639602149067,-0.639602149067));
#552 = DIRECTION('',(0.,0.707106781187,0.707106781187));
#553 = PCURVE('',#379,#554);
#554 = DEFINITIONAL_REPRESENTATION('',(#555),#559);
#555 = LINE('',#556,#557);
#556 = CARTESIAN_POINT('',(6.28318530718,7.504665215717));
#557 = VECTOR('',#558,1.);
#558 = DIRECTION('',(-1.,-0.));
#559 = ( GEOMETRIC_REPRESENTATION_CONTEXT(2) 
PARAMETRIC_REPRESENTATION_CONTEXT() REPRESENTATION_CONTEXT('2D SPACE',''
  ) );
#560 = PCURVE('',#561,#566);
#561 = SPHERICAL_SURFACE('',#562,2.5);
#562 = AXIS2_PLACEMENT_3D('',#563,#564,#565);
#563 = CARTESIAN_POINT('',(236.4,-21.4,27.6));
#564 = DIRECTION('',(0.,0.,1.));
#565 = DIRECTION('',(1.,0.,-0.));
#566 = DEFINITIONAL_REPRESENTATION('',(#567),#611);
#567 = B_SPLINE_CURVE_WITH_KNOTS('',8,(#568,#569,#570,#571,#572,#573,
    #574,#575,#576,#577,#578,#579,#580,#581,#582,#583,#584,#585,#586,
    #587,#588,#589,#590,#591,#592,#593,#594,#595,#596,#597,#598,#599,
    #600,#601,#602,#603,#604,#605,#606,#607,#608,#609,#610),
  .UNSPECIFIED.,.F.,.F.,(9,7,7,6,7,7,9),(0.,0.291934813082,
    0.583869626164,1.167739252329,1.907934277802,2.648129303275,
    3.14159265359),.UNSPECIFIED.);
#568 = CARTESIAN_POINT('',(7.853981633974,0.785398163397));
#569 = CARTESIAN_POINT('',(7.807301100516,0.800958341217));
#570 = CARTESIAN_POINT('',(7.758960076845,0.815273264208));
#571 = CARTESIAN_POINT('',(7.708977004465,0.828239927595));
#572 = CARTESIAN_POINT('',(7.657411458915,0.839753187156));
#573 = CARTESIAN_POINT('',(7.604383640843,0.849711538838));
#574 = CARTESIAN_POINT('',(7.550081323642,0.85802352791));
#575 = CARTESIAN_POINT('',(7.494754257632,0.864614787656));
#576 = CARTESIAN_POINT('',(7.382637803972,0.87425662756));
#577 = CARTESIAN_POINT('',(7.325848232044,0.877307109796));
#578 = CARTESIAN_POINT('',(7.268619906714,0.878537214326));
#579 = CARTESIAN_POINT('',(7.211287274552,0.877920178208));
#580 = CARTESIAN_POINT('',(7.154204777308,0.875458651264));
#581 = CARTESIAN_POINT('',(7.097710119724,0.87118486536));
#582 = CARTESIAN_POINT('',(7.042092356903,0.865156155948));
#583 = CARTESIAN_POINT('',(6.878568766069,0.842029451856));
#584 = CARTESIAN_POINT('',(6.773992625578,0.81989112297));
#585 = CARTESIAN_POINT('',(6.675716986516,0.791629049193));
#586 = CARTESIAN_POINT('',(6.584703288296,0.758132500879));
#587 = CARTESIAN_POINT('',(6.500612571799,0.720328392431));
#588 = CARTESIAN_POINT('',(6.422836609379,0.678965365836));
#589 = CARTESIAN_POINT('',(6.25905169079,0.578544687001));
#590 = CARTESIAN_POINT('',(6.119932888336,0.465790767743));
#591 = CARTESIAN_POINT('',(6.048325082895,0.399968426548));
#592 = CARTESIAN_POINT('',(5.981335274366,0.332131743641));
#593 = CARTESIAN_POINT('',(5.917758602813,0.262845908522));
#594 = CARTESIAN_POINT('',(5.856531116699,0.192575481471));
#595 = CARTESIAN_POINT('',(5.796711741614,0.121718146363));
#596 = CARTESIAN_POINT('',(5.678049912983,-2.040333368412E-02));
#597 = CARTESIAN_POINT('',(5.619207082817,-9.166746611455E-02));
#598 = CARTESIAN_POINT('',(5.559937147364,-0.162752211703));
#599 = CARTESIAN_POINT('',(5.499340391723,-0.233289627138));
#600 = CARTESIAN_POINT('',(5.436487510905,-0.302884223008));
#601 = CARTESIAN_POINT('',(5.37030793177,-0.371069073281));
#602 = CARTESIAN_POINT('',(5.299508557719,-0.437243111247));
#603 = CARTESIAN_POINT('',(5.171360915362,-0.542791770668));
#604 = CARTESIAN_POINT('',(5.117396124081,-0.583746844096));
#605 = CARTESIAN_POINT('',(5.060289977807,-0.623191024503));
#606 = CARTESIAN_POINT('',(4.999582249103,-0.660830808045));
#607 = CARTESIAN_POINT('',(4.934788291606,-0.696319146283));
#608 = CARTESIAN_POINT('',(4.865455886703,-0.729237031744));
#609 = CARTESIAN_POINT('',(4.791294035222,-0.759096478452));
#610 = CARTESIAN_POINT('',(4.712388980385,-0.785398163397));
#611 = ( GEOMETRIC_REPRESENTATION_CONTEXT(2) 
PARAMETRIC_REPRESENTATION_CONTEXT() REPRESENTATION_CONTEXT('2D SPACE',''
  ) );
#612 = ORIENTED_EDGE('',*,*,#613,.F.);
#613 = EDGE_CURVE('',#614,#545,#616,.T.);
#614 = VERTEX_POINT('',#615);
#615 = CARTESIAN_POINT('',(234.52259755072,-21.5096354963,25.94186854334
    ));
#616 = SURFACE_CURVE('',#617,(#622,#633),.PCURVE_S1.);
#617 = ELLIPSE('',#618,2.50959753112,2.5);
#618 = AXIS2_PLACEMENT_3D('',#619,#620,#621);
#619 = CARTESIAN_POINT('',(236.4,-21.4,27.6));
#620 = DIRECTION('',(-0.50380255859,-0.610812156869,0.610812156869));
#621 = DIRECTION('',(0.863818836307,-0.356242205558,0.356242205558));
#622 = PCURVE('',#379,#623);
#623 = DEFINITIONAL_REPRESENTATION('',(#624),#632);
#624 = B_SPLINE_CURVE_WITH_KNOTS('',6,(#625,#626,#627,#628,#629,#630,
    #631),.UNSPECIFIED.,.F.,.F.,(7,7),(3.665191429188,4.712388980385),
  .PIECEWISE_BEZIER_KNOTS.);
#625 = CARTESIAN_POINT('',(2.094395102393,7.314770965801));
#626 = CARTESIAN_POINT('',(2.268928027593,7.333905969677));
#627 = CARTESIAN_POINT('',(2.443460952792,7.359982095457));
#628 = CARTESIAN_POINT('',(2.617993877992,7.391952239769));
#629 = CARTESIAN_POINT('',(2.792526803191,7.428125506285));
#630 = CARTESIAN_POINT('',(2.96705972839,7.466395207965));
#631 = CARTESIAN_POINT('',(3.14159265359,7.504665215717));
#632 = ( GEOMETRIC_REPRESENTATION_CONTEXT(2) 
PARAMETRIC_REPRESENTATION_CONTEXT() REPRESENTATION_CONTEXT('2D SPACE',''
  ) );
#633 = PCURVE('',#634,#639);
#634 = CYLINDRICAL_SURFACE('',#635,2.5);
#635 = AXIS2_PLACEMENT_3D('',#636,#637,#638);
#636 = CARTESIAN_POINT('',(236.4,-21.4,27.6));
#637 = DIRECTION('',(-0.57735026919,-0.57735026919,0.57735026919));
#638 = DIRECTION('',(-0.707106781187,0.,-0.707106781187));
#639 = DEFINITIONAL_REPRESENTATION('',(#640),#648);
#640 = B_SPLINE_CURVE_WITH_KNOTS('',6,(#641,#642,#643,#644,#645,#646,
    #647),.UNSPECIFIED.,.F.,.F.,(7,7),(3.665191429188,4.712388980385),
  .PIECEWISE_BEZIER_KNOTS.);
#641 = CARTESIAN_POINT('',(2.273736754432E-14,0.189894249917));
#642 = CARTESIAN_POINT('',(0.174532925199,0.170759246041));
#643 = CARTESIAN_POINT('',(0.349065850399,0.144683120261));
#644 = CARTESIAN_POINT('',(0.523598775598,0.112712975948));
#645 = CARTESIAN_POINT('',(0.698131700798,7.653970943256E-02));
#646 = CARTESIAN_POINT('',(0.872664625997,3.827000775231E-02));
#647 = CARTESIAN_POINT('',(1.047197551197,-1.42108547152E-14));
#648 = ( GEOMETRIC_REPRESENTATION_CONTEXT(2) 
PARAMETRIC_REPRESENTATION_CONTEXT() REPRESENTATION_CONTEXT('2D SPACE',''
  ) );
#649 = ORIENTED_EDGE('',*,*,#650,.F.);
#650 = EDGE_CURVE('',#543,#614,#651,.T.);
#651 = SURFACE_CURVE('',#652,(#657,#670),.PCURVE_S1.);
#652 = ELLIPSE('',#653,2.50959753112,2.5);
#653 = AXIS2_PLACEMENT_3D('',#654,#655,#656);
#654 = CARTESIAN_POINT('',(236.4,-21.4,27.6));
#655 = DIRECTION('',(-0.50380255859,-0.610812156869,0.610812156869));
#656 = DIRECTION('',(0.863818836307,-0.356242205558,0.356242205558));
#657 = PCURVE('',#379,#658);
#658 = DEFINITIONAL_REPRESENTATION('',(#659),#669);
#659 = B_SPLINE_CURVE_WITH_KNOTS('',8,(#660,#661,#662,#663,#664,#665,
    #666,#667,#668),.UNSPECIFIED.,.F.,.F.,(9,9),(1.570795967588,
    3.665191429188),.PIECEWISE_BEZIER_KNOTS.);
#660 = CARTESIAN_POINT('',(-3.592070925151E-07,7.504665294481));
#661 = CARTESIAN_POINT('',(0.261799073493,7.447260273007));
#662 = CARTESIAN_POINT('',(0.523598506193,7.389855144515));
#663 = CARTESIAN_POINT('',(0.78539793889,7.338446246893));
#664 = CARTESIAN_POINT('',(1.047197371594,7.299024739026));
#665 = CARTESIAN_POINT('',(1.30899680429,7.276284057654));
#666 = CARTESIAN_POINT('',(1.570796236993,7.272240482164));
#667 = CARTESIAN_POINT('',(1.832595669693,7.286068455064));
#668 = CARTESIAN_POINT('',(2.094395102393,7.314770965801));
#669 = ( GEOMETRIC_REPRESENTATION_CONTEXT(2) 
PARAMETRIC_REPRESENTATION_CONTEXT() REPRESENTATION_CONTEXT('2D SPACE',''
  ) );
#670 = PCURVE('',#634,#671);
#671 = DEFINITIONAL_REPRESENTATION('',(#672),#682);
#672 = B_SPLINE_CURVE_WITH_KNOTS('',8,(#673,#674,#675,#676,#677,#678,
    #679,#680,#681),.UNSPECIFIED.,.F.,.F.,(9,9),(1.570795967588,
    3.665191429188),.PIECEWISE_BEZIER_KNOTS.);
#673 = CARTESIAN_POINT('',(4.188789845579,-7.876370489157E-08));
#674 = CARTESIAN_POINT('',(4.450589278279,5.740494271025E-02));
#675 = CARTESIAN_POINT('',(4.71238871098,0.114810071196));
#676 = CARTESIAN_POINT('',(4.974188143681,0.166218968812));
#677 = CARTESIAN_POINT('',(5.235987576377,0.205640476678));
#678 = CARTESIAN_POINT('',(5.497787009082,0.228381158071));
#679 = CARTESIAN_POINT('',(5.75958644178,0.232424733547));
#680 = CARTESIAN_POINT('',(6.02138587448,0.218596760654));
#681 = CARTESIAN_POINT('',(6.28318530718,0.189894249917));
#682 = ( GEOMETRIC_REPRESENTATION_CONTEXT(2) 
PARAMETRIC_REPRESENTATION_CONTEXT() REPRESENTATION_CONTEXT('2D SPACE',''
  ) );
#683 = ORIENTED_EDGE('',*,*,#684,.F.);
#684 = EDGE_CURVE('',#452,#543,#685,.T.);
#685 = SEAM_CURVE('',#686,(#690,#697),.PCURVE_S1.);
#686 = LINE('',#687,#688);
#687 = CARTESIAN_POINT('',(239.6,-14.83223304703,24.567766952966));
#688 = VECTOR('',#689,1.);
#689 = DIRECTION('',(-0.426401432711,-0.639602149067,0.639602149067));
#690 = PCURVE('',#379,#691);
#691 = DEFINITIONAL_REPRESENTATION('',(#692),#696);
#692 = LINE('',#693,#694);
#693 = CARTESIAN_POINT('',(0.,-0.));
#694 = VECTOR('',#695,1.);
#695 = DIRECTION('',(0.,1.));
#696 = ( GEOMETRIC_REPRESENTATION_CONTEXT(2) 
PARAMETRIC_REPRESENTATION_CONTEXT() REPRESENTATION_CONTEXT('2D SPACE',''
  ) );
#697 = PCURVE('',#379,#698);
#698 = DEFINITIONAL_REPRESENTATION('',(#699),#703);
#699 = LINE('',#700,#701);
#700 = CARTESIAN_POINT('',(6.28318530718,-0.));
#701 = VECTOR('',#702,1.);
#702 = DIRECTION('',(0.,1.));
#703 = ( GEOMETRIC_REPRESENTATION_CONTEXT(2) 
PARAMETRIC_REPRESENTATION_CONTEXT() REPRESENTATION_CONTEXT('2D SPACE',''
  ) );
#704 = ORIENTED_EDGE('',*,*,#504,.T.);
#705 = ORIENTED_EDGE('',*,*,#356,.T.);
#706 = ORIENTED_EDGE('',*,*,#451,.F.);
#707 = ORIENTED_EDGE('',*,*,#684,.T.);
#708 = ADVANCED_FACE('',(#709),#561,.T.);
#709 = FACE_BOUND('',#710,.T.);
#710 = EDGE_LOOP('',(#711,#712));
#711 = ORIENTED_EDGE('',*,*,#542,.F.);
#712 = ORIENTED_EDGE('',*,*,#713,.T.);
#713 = EDGE_CURVE('',#543,#545,#714,.T.);
#714 = SURFACE_CURVE('',#715,(#720,#768),.PCURVE_S1.);
#715 = CIRCLE('',#716,2.5);
#716 = AXIS2_PLACEMENT_3D('',#717,#718,#719);
#717 = CARTESIAN_POINT('',(236.4,-21.4,27.6));
#718 = DIRECTION('',(0.57735026919,0.57735026919,-0.57735026919));
#719 = DIRECTION('',(-2.775557561563E-17,0.707106781187,0.707106781187)
  );
#720 = PCURVE('',#561,#721);
#721 = DEFINITIONAL_REPRESENTATION('',(#722),#767);
#722 = B_SPLINE_CURVE_WITH_KNOTS('',8,(#723,#724,#725,#726,#727,#728,
    #729,#730,#731,#732,#733,#734,#735,#736,#737,#738,#739,#740,#741,
    #742,#743,#744,#745,#746,#747,#748,#749,#750,#751,#752,#753,#754,
    #755,#756,#757,#758,#759,#760,#761,#762,#763,#764,#765,#766),
  .UNSPECIFIED.,.F.,.F.,(9,7,7,7,7,7,9),(0.,0.392699081699,
    0.785398163397,1.047197551197,1.832595714594,2.617993877992,
    3.14159265359),.UNSPECIFIED.);
#723 = CARTESIAN_POINT('',(7.853981633974,0.785398163397));
#724 = CARTESIAN_POINT('',(7.797300403842,0.813738778464));
#725 = CARTESIAN_POINT('',(7.736947861039,0.840243686542));
#726 = CARTESIAN_POINT('',(7.672643580987,0.864634371872));
#727 = CARTESIAN_POINT('',(7.604194679799,0.886598382532));
#728 = CARTESIAN_POINT('',(7.531535551166,0.905783265755));
#729 = CARTESIAN_POINT('',(7.454910703751,0.921826435867));
#730 = CARTESIAN_POINT('',(7.374999163552,0.934408718362));
#731 = CARTESIAN_POINT('',(7.210558647852,0.952229908965));
#732 = CARTESIAN_POINT('',(7.126029182897,0.957468594471));
#733 = CARTESIAN_POINT('',(7.040169574842,0.958823580767));
#734 = CARTESIAN_POINT('',(6.954241456074,0.956184829647));
#735 = CARTESIAN_POINT('',(6.869709337906,0.949598373442));
#736 = CARTESIAN_POINT('',(6.787727834541,0.939280943775));
#737 = CARTESIAN_POINT('',(6.70904156981,0.925523592221));
#738 = CARTESIAN_POINT('',(6.584080150213,0.897402757101));
#739 = CARTESIAN_POINT('',(6.535743917677,0.884769880911));
#740 = CARTESIAN_POINT('',(6.48917944266,0.870848600944));
#741 = CARTESIAN_POINT('',(6.444440375431,0.855741177826));
#742 = CARTESIAN_POINT('',(6.401525339469,0.839549317668));
#743 = CARTESIAN_POINT('',(6.360392334,0.822369728049));
#744 = CARTESIAN_POINT('',(6.320972793934,0.804291906775));
#745 = CARTESIAN_POINT('',(6.169822846915,0.728716933265));
#746 = CARTESIAN_POINT('',(6.071147765846,0.664691756727));
#747 = CARTESIAN_POINT('',(5.984936735233,0.595547159655));
#748 = CARTESIAN_POINT('',(5.907769309724,0.522878269981));
#749 = CARTESIAN_POINT('',(5.837501393831,0.447623484342));
#750 = CARTESIAN_POINT('',(5.772254649108,0.370533743291));
#751 = CARTESIAN_POINT('',(5.710601833314,0.292147286924));
#752 = CARTESIAN_POINT('',(5.591940156295,0.133713191649));
#753 = CARTESIAN_POINT('',(5.534931829389,5.366515091599E-02));
#754 = CARTESIAN_POINT('',(5.47898173843,-2.675083729299E-02));
#755 = CARTESIAN_POINT('',(5.423012080962,-0.107160729773));
#756 = CARTESIAN_POINT('',(5.365986841591,-0.187200068231));
#757 = CARTESIAN_POINT('',(5.306783920766,-0.26647221795));
#758 = CARTESIAN_POINT('',(5.244054065544,-0.344488485109));
#759 = CARTESIAN_POINT('',(5.13069160528,-0.471231568734));
#760 = CARTESIAN_POINT('',(5.082996354139,-0.521052898257));
#761 = CARTESIAN_POINT('',(5.032432343657,-0.56978748133));
#762 = CARTESIAN_POINT('',(4.978392471003,-0.617176117517));
#763 = CARTESIAN_POINT('',(4.920190201114,-0.662902927009));
#764 = CARTESIAN_POINT('',(4.857011090168,-0.706559248356));
#765 = CARTESIAN_POINT('',(4.787963953894,-0.747610676643));
#766 = CARTESIAN_POINT('',(4.712388980385,-0.785398163397));
#767 = ( GEOMETRIC_REPRESENTATION_CONTEXT(2) 
PARAMETRIC_REPRESENTATION_CONTEXT() REPRESENTATION_CONTEXT('2D SPACE',''
  ) );
#768 = PCURVE('',#634,#769);
#769 = DEFINITIONAL_REPRESENTATION('',(#770),#774);
#770 = LINE('',#771,#772);
#771 = CARTESIAN_POINT('',(4.188790204786,0.));
#772 = VECTOR('',#773,1.);
#773 = DIRECTION('',(-1.,-0.));
#774 = ( GEOMETRIC_REPRESENTATION_CONTEXT(2) 
PARAMETRIC_REPRESENTATION_CONTEXT() REPRESENTATION_CONTEXT('2D SPACE',''
  ) );
#775 = ADVANCED_FACE('',(#776),#634,.T.);
#776 = FACE_BOUND('',#777,.T.);
#777 = EDGE_LOOP('',(#778,#829,#868,#889,#890,#891,#892,#893,#927));
#778 = ORIENTED_EDGE('',*,*,#779,.F.);
#779 = EDGE_CURVE('',#780,#782,#784,.T.);
#780 = VERTEX_POINT('',#781);
#781 = CARTESIAN_POINT('',(236.46268675228,-24.23347591609,
    27.229210836188));
#782 = VERTEX_POINT('',#783);
#783 = CARTESIAN_POINT('',(237.36776695296,-22.2,30.167766952966));
#784 = SURFACE_CURVE('',#785,(#790,#797),.PCURVE_S1.);
#785 = CIRCLE('',#786,2.5);
#786 = AXIS2_PLACEMENT_3D('',#787,#788,#789);
#787 = CARTESIAN_POINT('',(235.6,-22.2,28.4));
#788 = DIRECTION('',(-0.57735026919,-0.57735026919,0.57735026919));
#789 = DIRECTION('',(-0.707106781187,0.,-0.707106781187));
#790 = PCURVE('',#634,#791);
#791 = DEFINITIONAL_REPRESENTATION('',(#792),#796);
#792 = LINE('',#793,#794);
#793 = CARTESIAN_POINT('',(0.,1.385640646055));
#794 = VECTOR('',#795,1.);
#795 = DIRECTION('',(1.,0.));
#796 = ( GEOMETRIC_REPRESENTATION_CONTEXT(2) 
PARAMETRIC_REPRESENTATION_CONTEXT() REPRESENTATION_CONTEXT('2D SPACE',''
  ) );
#797 = PCURVE('',#798,#803);
#798 = SPHERICAL_SURFACE('',#799,2.5);
#799 = AXIS2_PLACEMENT_3D('',#800,#801,#802);
#800 = CARTESIAN_POINT('',(235.6,-22.2,28.4));
#801 = DIRECTION('',(0.,0.,1.));
#802 = DIRECTION('',(1.,0.,-0.));
#803 = DEFINITIONAL_REPRESENTATION('',(#804),#828);
#804 = B_SPLINE_CURVE_WITH_KNOTS('',8,(#805,#806,#807,#808,#809,#810,
    #811,#812,#813,#814,#815,#816,#817,#818,#819,#820,#821,#822,#823,
    #824,#825,#826,#827),.UNSPECIFIED.,.F.,.F.,(9,7,7,9),(1.483541128003
    ,2.312566890796,2.727079772193,3.14159265359),.UNSPECIFIED.);
#805 = CARTESIAN_POINT('',(5.11361777939,-0.487383510879));
#806 = CARTESIAN_POINT('',(5.190255771129,-0.408938792783));
#807 = CARTESIAN_POINT('',(5.259610180642,-0.32771655943));
#808 = CARTESIAN_POINT('',(5.324030841701,-0.244726917707));
#809 = CARTESIAN_POINT('',(5.385293250602,-0.160614844291));
#810 = CARTESIAN_POINT('',(5.444767094392,-7.587873987615E-02));
#811 = CARTESIAN_POINT('',(5.503703887145,9.046857015178E-03));
#812 = CARTESIAN_POINT('',(5.56333514117,9.373244004014E-02));
#813 = CARTESIAN_POINT('',(5.655973111692,0.219623479823));
#814 = CARTESIAN_POINT('',(5.687384187269,0.261397584737));
#815 = CARTESIAN_POINT('',(5.719506218624,0.302917421647));
#816 = CARTESIAN_POINT('',(5.752529926193,0.344112487353));
#817 = CARTESIAN_POINT('',(5.786664694465,0.384903986253));
#818 = CARTESIAN_POINT('',(5.822145216235,0.425200968569));
#819 = CARTESIAN_POINT('',(5.859237633785,0.464895088978));
#820 = CARTESIAN_POINT('',(5.937252720207,0.542812882351));
#821 = CARTESIAN_POINT('',(5.978175357343,0.581036507246));
#822 = CARTESIAN_POINT('',(6.0213155424,0.618392623006));
#823 = CARTESIAN_POINT('',(6.067012906722,0.654723985228));
#824 = CARTESIAN_POINT('',(6.115642441352,0.689843522201));
#825 = CARTESIAN_POINT('',(6.167616753628,0.723522859144));
#826 = CARTESIAN_POINT('',(6.223355526265,0.75548327294));
#827 = CARTESIAN_POINT('',(6.28318530718,0.785398163397));
#828 = ( GEOMETRIC_REPRESENTATION_CONTEXT(2) 
PARAMETRIC_REPRESENTATION_CONTEXT() REPRESENTATION_CONTEXT('2D SPACE',''
  ) );
#829 = ORIENTED_EDGE('',*,*,#830,.F.);
#830 = EDGE_CURVE('',#831,#780,#833,.T.);
#831 = VERTEX_POINT('',#832);
#832 = CARTESIAN_POINT('',(234.40836083622,-21.62387221081,
    26.056105257847));
#833 = SURFACE_CURVE('',#834,(#839,#851),.PCURVE_S1.);
#834 = ELLIPSE('',#835,2.693211762427,2.5);
#835 = AXIS2_PLACEMENT_3D('',#836,#837,#838);
#836 = CARTESIAN_POINT('',(235.6,-22.2,28.4));
#837 = DIRECTION('',(-0.811158671123,-0.509466800823,0.28716752797));
#838 = DIRECTION('',(0.472170584695,-0.280784064087,0.835592752663));
#839 = PCURVE('',#634,#840);
#840 = DEFINITIONAL_REPRESENTATION('',(#841),#850);
#841 = B_SPLINE_CURVE_WITH_KNOTS('',7,(#842,#843,#844,#845,#846,#847,
    #848,#849),.UNSPECIFIED.,.F.,.F.,(8,8),(3.228847852382,
    4.712389000935),.PIECEWISE_BEZIER_KNOTS.);
#842 = CARTESIAN_POINT('',(1.705302565824E-14,0.387758043529));
#843 = CARTESIAN_POINT('',(0.211934449793,0.40625824444));
#844 = CARTESIAN_POINT('',(0.423868899586,0.477050360247));
#845 = CARTESIAN_POINT('',(0.635803349379,0.598771968439));
#846 = CARTESIAN_POINT('',(0.847737799173,0.764332437047));
#847 = CARTESIAN_POINT('',(1.059672248966,0.961054553658));
#848 = CARTESIAN_POINT('',(1.271606698759,1.17334733449));
#849 = CARTESIAN_POINT('',(1.483541148552,1.38564066664));
#850 = ( GEOMETRIC_REPRESENTATION_CONTEXT(2) 
PARAMETRIC_REPRESENTATION_CONTEXT() REPRESENTATION_CONTEXT('2D SPACE',''
  ) );
#851 = PCURVE('',#852,#857);
#852 = CYLINDRICAL_SURFACE('',#853,2.5);
#853 = AXIS2_PLACEMENT_3D('',#854,#855,#856);
#854 = CARTESIAN_POINT('',(235.6,-22.2,28.4));
#855 = DIRECTION('',(-0.928581574789,-0.368484751901,-4.421817022807E-02
    ));
#856 = DIRECTION('',(0.368845520305,-0.92949071117,1.734723475977E-18));
#857 = DEFINITIONAL_REPRESENTATION('',(#858),#867);
#858 = B_SPLINE_CURVE_WITH_KNOTS('',7,(#859,#860,#861,#862,#863,#864,
    #865,#866),.UNSPECIFIED.,.F.,.F.,(8,8),(3.228847852382,
    4.712389000935),.PIECEWISE_BEZIER_KNOTS.);
#859 = CARTESIAN_POINT('',(4.31174166422,0.997882602526));
#860 = CARTESIAN_POINT('',(4.523676114013,0.979382401615));
#861 = CARTESIAN_POINT('',(4.735610563806,0.908590285809));
#862 = CARTESIAN_POINT('',(4.9475450136,0.786868677616));
#863 = CARTESIAN_POINT('',(5.159479463392,0.621308209009));
#864 = CARTESIAN_POINT('',(5.371413913186,0.424586092397));
#865 = CARTESIAN_POINT('',(5.583348362979,0.212293311566));
#866 = CARTESIAN_POINT('',(5.795282812772,-2.058476411548E-08));
#867 = ( GEOMETRIC_REPRESENTATION_CONTEXT(2) 
PARAMETRIC_REPRESENTATION_CONTEXT() REPRESENTATION_CONTEXT('2D SPACE',''
  ) );
#868 = ORIENTED_EDGE('',*,*,#869,.F.);
#869 = EDGE_CURVE('',#614,#831,#870,.T.);
#870 = SEAM_CURVE('',#871,(#875,#882),.PCURVE_S1.);
#871 = LINE('',#872,#873);
#872 = CARTESIAN_POINT('',(234.63223304703,-21.4,25.832233047034));
#873 = VECTOR('',#874,1.);
#874 = DIRECTION('',(-0.57735026919,-0.57735026919,0.57735026919));
#875 = PCURVE('',#634,#876);
#876 = DEFINITIONAL_REPRESENTATION('',(#877),#881);
#877 = LINE('',#878,#879);
#878 = CARTESIAN_POINT('',(0.,-0.));
#879 = VECTOR('',#880,1.);
#880 = DIRECTION('',(0.,1.));
#881 = ( GEOMETRIC_REPRESENTATION_CONTEXT(2) 
PARAMETRIC_REPRESENTATION_CONTEXT() REPRESENTATION_CONTEXT('2D SPACE',''
  ) );
#882 = PCURVE('',#634,#883);
#883 = DEFINITIONAL_REPRESENTATION('',(#884),#888);
#884 = LINE('',#885,#886);
#885 = CARTESIAN_POINT('',(6.28318530718,-0.));
#886 = VECTOR('',#887,1.);
#887 = DIRECTION('',(0.,1.));
#888 = ( GEOMETRIC_REPRESENTATION_CONTEXT(2) 
PARAMETRIC_REPRESENTATION_CONTEXT() REPRESENTATION_CONTEXT('2D SPACE',''
  ) );
#889 = ORIENTED_EDGE('',*,*,#613,.T.);
#890 = ORIENTED_EDGE('',*,*,#713,.F.);
#891 = ORIENTED_EDGE('',*,*,#650,.T.);
#892 = ORIENTED_EDGE('',*,*,#869,.T.);
#893 = ORIENTED_EDGE('',*,*,#894,.F.);
#894 = EDGE_CURVE('',#895,#831,#897,.T.);
#895 = VERTEX_POINT('',#896);
#896 = CARTESIAN_POINT('',(234.73731324771,-20.1665240839,
    29.570789163812));
#897 = SURFACE_CURVE('',#898,(#903,#915),.PCURVE_S1.);
#898 = ELLIPSE('',#899,2.693211762427,2.5);
#899 = AXIS2_PLACEMENT_3D('',#900,#901,#902);
#900 = CARTESIAN_POINT('',(235.6,-22.2,28.4));
#901 = DIRECTION('',(-0.811158671123,-0.509466800823,0.28716752797));
#902 = DIRECTION('',(0.472170584695,-0.280784064087,0.835592752663));
#903 = PCURVE('',#634,#904);
#904 = DEFINITIONAL_REPRESENTATION('',(#905),#914);
#905 = B_SPLINE_CURVE_WITH_KNOTS('',7,(#906,#907,#908,#909,#910,#911,
    #912,#913),.UNSPECIFIED.,.F.,.F.,(8,8),(1.570795785505,
    3.228847852382),.PIECEWISE_BEZIER_KNOTS.);
#906 = CARTESIAN_POINT('',(4.625133240303,1.385641188261));
#907 = CARTESIAN_POINT('',(4.861997821285,1.148375509113));
#908 = CARTESIAN_POINT('',(5.098862402268,0.911111260157));
#909 = CARTESIAN_POINT('',(5.33572698325,0.695579298486));
#910 = CARTESIAN_POINT('',(5.572591564232,0.523565984938));
#911 = CARTESIAN_POINT('',(5.809456145215,0.411723920434));
#912 = CARTESIAN_POINT('',(6.046320726197,0.367081639381));
#913 = CARTESIAN_POINT('',(6.28318530718,0.387758043529));
#914 = ( GEOMETRIC_REPRESENTATION_CONTEXT(2) 
PARAMETRIC_REPRESENTATION_CONTEXT() REPRESENTATION_CONTEXT('2D SPACE',''
  ) );
#915 = PCURVE('',#852,#916);
#916 = DEFINITIONAL_REPRESENTATION('',(#917),#926);
#917 = B_SPLINE_CURVE_WITH_KNOTS('',7,(#918,#919,#920,#921,#922,#923,
    #924,#925),.UNSPECIFIED.,.F.,.F.,(8,8),(1.570795785505,
    3.228847852382),.PIECEWISE_BEZIER_KNOTS.);
#918 = CARTESIAN_POINT('',(2.653689597343,-5.422062088201E-07));
#919 = CARTESIAN_POINT('',(2.890554178325,0.237265136942));
#920 = CARTESIAN_POINT('',(3.127418759308,0.474529385898));
#921 = CARTESIAN_POINT('',(3.364283340291,0.690061347568));
#922 = CARTESIAN_POINT('',(3.601147921273,0.862074661118));
#923 = CARTESIAN_POINT('',(3.838012502255,0.973916725621));
#924 = CARTESIAN_POINT('',(4.074877083237,1.018559006674));
#925 = CARTESIAN_POINT('',(4.31174166422,0.997882602526));
#926 = ( GEOMETRIC_REPRESENTATION_CONTEXT(2) 
PARAMETRIC_REPRESENTATION_CONTEXT() REPRESENTATION_CONTEXT('2D SPACE',''
  ) );
#927 = ORIENTED_EDGE('',*,*,#928,.F.);
#928 = EDGE_CURVE('',#782,#895,#929,.T.);
#929 = SURFACE_CURVE('',#930,(#935,#942),.PCURVE_S1.);
#930 = CIRCLE('',#931,2.5);
#931 = AXIS2_PLACEMENT_3D('',#932,#933,#934);
#932 = CARTESIAN_POINT('',(235.6,-22.2,28.4));
#933 = DIRECTION('',(-0.57735026919,-0.57735026919,0.57735026919));
#934 = DIRECTION('',(-0.707106781187,0.,-0.707106781187));
#935 = PCURVE('',#634,#936);
#936 = DEFINITIONAL_REPRESENTATION('',(#937),#941);
#937 = LINE('',#938,#939);
#938 = CARTESIAN_POINT('',(0.,1.385640646055));
#939 = VECTOR('',#940,1.);
#940 = DIRECTION('',(1.,0.));
#941 = ( GEOMETRIC_REPRESENTATION_CONTEXT(2) 
PARAMETRIC_REPRESENTATION_CONTEXT() REPRESENTATION_CONTEXT('2D SPACE',''
  ) );
#942 = PCURVE('',#798,#943);
#943 = DEFINITIONAL_REPRESENTATION('',(#944),#975);
#944 = B_SPLINE_CURVE_WITH_KNOTS('',8,(#945,#946,#947,#948,#949,#950,
    #951,#952,#953,#954,#955,#956,#957,#958,#959,#960,#961,#962,#963,
    #964,#965,#966,#967,#968,#969,#970,#971,#972,#973,#974),
  .UNSPECIFIED.,.F.,.F.,(9,7,7,7,9),(3.14159265359,3.51247793559,
    3.790641897091,4.207887839342,4.625133781592),.UNSPECIFIED.);
#945 = CARTESIAN_POINT('',(0.,0.785398163397));
#946 = CARTESIAN_POINT('',(5.353267935038E-02,0.812164503073));
#947 = CARTESIAN_POINT('',(0.110340201584,0.837293365141));
#948 = CARTESIAN_POINT('',(0.170658405243,0.860550377153));
#949 = CARTESIAN_POINT('',(0.234654713466,0.881673368919));
#950 = CARTESIAN_POINT('',(0.302395586523,0.900369541799));
#951 = CARTESIAN_POINT('',(0.373716760199,0.916335355743));
#952 = CARTESIAN_POINT('',(0.448126708547,0.929293888669));
#953 = CARTESIAN_POINT('',(0.582434065289,0.946357323337));
#954 = CARTESIAN_POINT('',(0.641309142272,0.951865636821));
#955 = CARTESIAN_POINT('',(0.701182147534,0.955484517605));
#956 = CARTESIAN_POINT('',(0.761656497486,0.957151603546));
#957 = CARTESIAN_POINT('',(0.822268948552,0.956838243747));
#958 = CARTESIAN_POINT('',(0.882545013338,0.954554541177));
#959 = CARTESIAN_POINT('',(0.942058126775,0.950347136191));
#960 = CARTESIAN_POINT('',(1.088047726568,0.935200938142));
#961 = CARTESIAN_POINT('',(1.173127434303,0.921948383316));
#962 = CARTESIAN_POINT('',(1.254498980263,0.904776490556));
#963 = CARTESIAN_POINT('',(1.331325451828,0.884066687665));
#964 = CARTESIAN_POINT('',(1.403367722935,0.860267852115));
#965 = CARTESIAN_POINT('',(1.470733992982,0.833793015578));
#966 = CARTESIAN_POINT('',(1.533695898617,0.805014023476));
#967 = CARTESIAN_POINT('',(1.651518191311,0.74349065289));
#968 = CARTESIAN_POINT('',(1.706378426488,0.710746269542));
#969 = CARTESIAN_POINT('',(1.757540799795,0.67634116504));
#970 = CARTESIAN_POINT('',(1.805435311297,0.640547406722));
#971 = CARTESIAN_POINT('',(1.85047630777,0.603587062621));
#972 = CARTESIAN_POINT('',(1.893036837929,0.565641855114));
#973 = CARTESIAN_POINT('',(1.933453476388,0.52686447973));
#974 = CARTESIAN_POINT('',(1.9720251258,0.487383510879));
#975 = ( GEOMETRIC_REPRESENTATION_CONTEXT(2) 
PARAMETRIC_REPRESENTATION_CONTEXT() REPRESENTATION_CONTEXT('2D SPACE',''
  ) );
#976 = ADVANCED_FACE('',(#977),#798,.T.);
#977 = FACE_BOUND('',#978,.T.);
#978 = EDGE_LOOP('',(#979,#1003,#1004,#1005,#1147,#1173));
#979 = ORIENTED_EDGE('',*,*,#980,.T.);
#980 = EDGE_CURVE('',#782,#981,#983,.T.);
#981 = VERTEX_POINT('',#982);
#982 = CARTESIAN_POINT('',(235.6,-22.2,30.9));
#983 = SEAM_CURVE('',#984,(#989,#996),.PCURVE_S1.);
#984 = CIRCLE('',#985,2.5);
#985 = AXIS2_PLACEMENT_3D('',#986,#987,#988);
#986 = CARTESIAN_POINT('',(235.6,-22.2,28.4));
#987 = DIRECTION('',(-2.449293598295E-16,-1.,0.));
#988 = DIRECTION('',(1.,-2.449293598295E-16,0.));
#989 = PCURVE('',#798,#990);
#990 = DEFINITIONAL_REPRESENTATION('',(#991),#995);
#991 = LINE('',#992,#993);
#992 = CARTESIAN_POINT('',(6.28318530718,-6.28318530718));
#993 = VECTOR('',#994,1.);
#994 = DIRECTION('',(0.,1.));
#995 = ( GEOMETRIC_REPRESENTATION_CONTEXT(2) 
PARAMETRIC_REPRESENTATION_CONTEXT() REPRESENTATION_CONTEXT('2D SPACE',''
  ) );
#996 = PCURVE('',#798,#997);
#997 = DEFINITIONAL_REPRESENTATION('',(#998),#1002);
#998 = LINE('',#999,#1000);
#999 = CARTESIAN_POINT('',(0.,-6.28318530718));
#1000 = VECTOR('',#1001,1.);
#1001 = DIRECTION('',(0.,1.));
#1002 = ( GEOMETRIC_REPRESENTATION_CONTEXT(2) 
PARAMETRIC_REPRESENTATION_CONTEXT() REPRESENTATION_CONTEXT('2D SPACE',''
  ) );
#1003 = ORIENTED_EDGE('',*,*,#980,.F.);
#1004 = ORIENTED_EDGE('',*,*,#928,.T.);
#1005 = ORIENTED_EDGE('',*,*,#1006,.F.);
#1006 = EDGE_CURVE('',#1007,#895,#1009,.T.);
#1007 = VERTEX_POINT('',#1008);
#1008 = CARTESIAN_POINT('',(236.52211380076,-24.52372677792,28.4));
#1009 = SURFACE_CURVE('',#1010,(#1015,#1140),.PCURVE_S1.);
#1010 = CIRCLE('',#1011,2.5);
#1011 = AXIS2_PLACEMENT_3D('',#1012,#1013,#1014);
#1012 = CARTESIAN_POINT('',(235.6,-22.2,28.4));
#1013 = DIRECTION('',(-0.928581574789,-0.368484751901,
    -4.421817022807E-02));
#1014 = DIRECTION('',(0.368845520305,-0.92949071117,-1.734723475977E-18)
  );
#1015 = PCURVE('',#798,#1016);
#1016 = DEFINITIONAL_REPRESENTATION('',(#1017),#1139);
#1017 = B_SPLINE_CURVE_WITH_KNOTS('',8,(#1018,#1019,#1020,#1021,#1022,
    #1023,#1024,#1025,#1026,#1027,#1028,#1029,#1030,#1031,#1032,#1033,
    #1034,#1035,#1036,#1037,#1038,#1039,#1040,#1041,#1042,#1043,#1044,
    #1045,#1046,#1047,#1048,#1049,#1050,#1051,#1052,#1053,#1054,#1055,
    #1056,#1057,#1058,#1059,#1060,#1061,#1062,#1063,#1064,#1065,#1066,
    #1067,#1068,#1069,#1070,#1071,#1072,#1073,#1074,#1075,#1076,#1077,
    #1078,#1079,#1080,#1081,#1082,#1083,#1084,#1085,#1086,#1087,#1088,
    #1089,#1090,#1091,#1092,#1093,#1094,#1095,#1096,#1097,#1098,#1099,
    #1100,#1101,#1102,#1103,#1104,#1105,#1106,#1107,#1108,#1109,#1110,
    #1111,#1112,#1113,#1114,#1115,#1116,#1117,#1118,#1119,#1120,#1121,
    #1122,#1123,#1124,#1125,#1126,#1127,#1128,#1129,#1130,#1131,#1132,
    #1133,#1134,#1135,#1136,#1137,#1138),.UNSPECIFIED.,.F.,.F.,(9,7,7,7,
    7,7,7,7,7,7,7,7,7,7,7,7,7,9),(0.,0.663422534658,0.912205985155,
    1.129891504339,1.320366333626,1.403699071439,1.481823513138,
    1.518444345185,1.55392077623,1.571104672518,1.588020070426,
    1.621322260057,1.653583756263,1.716090405161,1.833290371845,
    2.038390313542,2.346040226087,2.653690138632),.UNSPECIFIED.);
#1018 = CARTESIAN_POINT('',(5.090155638325,0.));
#1019 = CARTESIAN_POINT('',(5.086488722003,8.28467049994E-02));
#1020 = CARTESIAN_POINT('',(5.082822082609,0.165693416155));
#1021 = CARTESIAN_POINT('',(5.079077240304,0.248538396474));
#1022 = CARTESIAN_POINT('',(5.075182196721,0.331380053041));
#1023 = CARTESIAN_POINT('',(5.071040727602,0.414216255553));
#1024 = CARTESIAN_POINT('',(5.066537372919,0.497044448239));
#1025 = CARTESIAN_POINT('',(5.061508311616,0.579861004694));
#1026 = CARTESIAN_POINT('',(5.053395806814,0.693707251492));
#1027 = CARTESIAN_POINT('',(5.051060718916,0.72475351333));
#1028 = CARTESIAN_POINT('',(5.048584928463,0.755796659219));
#1029 = CARTESIAN_POINT('',(5.045945825671,0.78683618799));
#1030 = CARTESIAN_POINT('',(5.043116135482,0.817871495022));
#1031 = CARTESIAN_POINT('',(5.040061599738,0.848901820724));
#1032 = CARTESIAN_POINT('',(5.036736512978,0.879926151184));
#1033 = CARTESIAN_POINT('',(5.029875135879,0.938082875775));
#1034 = CARTESIAN_POINT('',(5.026416806544,0.965216997905));
#1035 = CARTESIAN_POINT('',(5.022660765624,0.99234451982));
#1036 = CARTESIAN_POINT('',(5.018550385015,1.019464183074));
#1037 = CARTESIAN_POINT('',(5.014016384764,1.04657444849));
#1038 = CARTESIAN_POINT('',(5.008967960889,1.07367329806));
#1039 = CARTESIAN_POINT('',(5.003272423011,1.100757778576));
#1040 = CARTESIAN_POINT('',(4.990992895718,1.151505606824));
#1041 = CARTESIAN_POINT('',(4.984608419501,1.175173388743));
#1042 = CARTESIAN_POINT('',(4.977431648091,1.198823552079));
#1043 = CARTESIAN_POINT('',(4.969268705659,1.222451756832));
#1044 = CARTESIAN_POINT('',(4.959876069763,1.246052586403));
#1045 = CARTESIAN_POINT('',(4.948843622611,1.269616805671));
#1046 = CARTESIAN_POINT('',(4.935630026978,1.293132330006));
#1047 = CARTESIAN_POINT('',(4.911702690842,1.326825111624));
#1048 = CARTESIAN_POINT('',(4.903763670474,1.337064686058));
#1049 = CARTESIAN_POINT('',(4.895062454149,1.347287115689));
#1050 = CARTESIAN_POINT('',(4.885468963875,1.35748944609));
#1051 = CARTESIAN_POINT('',(4.874812989529,1.367667783085));
#1052 = CARTESIAN_POINT('',(4.862873681783,1.377817064216));
#1053 = CARTESIAN_POINT('',(4.849347414807,1.387930291098));
#1054 = CARTESIAN_POINT('',(4.819161200316,1.407433633509));
#1055 = CARTESIAN_POINT('',(4.802749844813,1.416829430723));
#1056 = CARTESIAN_POINT('',(4.784148410265,1.426174951693));
#1057 = CARTESIAN_POINT('',(4.762842599546,1.435457870244));
#1058 = CARTESIAN_POINT('',(4.73812959255,1.444661873375));
#1059 = CARTESIAN_POINT('',(4.708984676941,1.453761325063));
#1060 = CARTESIAN_POINT('',(4.673881027586,1.462719835761));
#1061 = CARTESIAN_POINT('',(4.609394853333,1.475558342782));
#1062 = CARTESIAN_POINT('',(4.58687998667,1.479607967322));
#1063 = CARTESIAN_POINT('',(4.562139350823,1.483601947044));
#1064 = CARTESIAN_POINT('',(4.53481349424,1.487530427429));
#1065 = CARTESIAN_POINT('',(4.504469321969,1.491380946217));
#1066 = CARTESIAN_POINT('',(4.47056243253,1.495137314506));
#1067 = CARTESIAN_POINT('',(4.432412512612,1.49877785782));
#1068 = CARTESIAN_POINT('',(4.347410175338,1.505658661711));
#1069 = CARTESIAN_POINT('',(4.300866650563,1.50890787188));
#1070 = CARTESIAN_POINT('',(4.248900697135,1.51199355773));
#1071 = CARTESIAN_POINT('',(4.190698057959,1.514881516995));
#1072 = CARTESIAN_POINT('',(4.125480438293,1.517529229568));
#1073 = CARTESIAN_POINT('',(4.052421289854,1.519882148247));
#1074 = CARTESIAN_POINT('',(3.971533599898,1.521876087754));
#1075 = CARTESIAN_POINT('',(3.841560478336,1.52422104819));
#1076 = CARTESIAN_POINT('',(3.797582507558,1.524889062898));
#1077 = CARTESIAN_POINT('',(3.752169277159,1.52545364573));
#1078 = CARTESIAN_POINT('',(3.705513198913,1.525908921363));
#1079 = CARTESIAN_POINT('',(3.657874673883,1.526250007111));
#1080 = CARTESIAN_POINT('',(3.60957280398,1.526473470267));
#1081 = CARTESIAN_POINT('',(3.560960808182,1.52657762378));
#1082 = CARTESIAN_POINT('',(3.464570457768,1.526547930578));
#1083 = CARTESIAN_POINT('',(3.416791292329,1.526417776863));
#1084 = CARTESIAN_POINT('',(3.369380292102,1.526172323829));
#1085 = CARTESIAN_POINT('',(3.322669677748,1.525813460494));
#1086 = CARTESIAN_POINT('',(3.276956445975,1.525344679253));
#1087 = CARTESIAN_POINT('',(3.23248078223,1.524770781844));
#1088 = CARTESIAN_POINT('',(3.189418685688,1.524097452209));
#1089 = CARTESIAN_POINT('',(3.066126856937,1.52182114549));
#1090 = CARTESIAN_POINT('',(2.99030361975,1.519949506602));
#1091 = CARTESIAN_POINT('',(2.921328376533,1.517761787612));
#1092 = CARTESIAN_POINT('',(2.859235236141,1.515310397923));
#1093 = CARTESIAN_POINT('',(2.803406634699,1.51264100267));
#1094 = CARTESIAN_POINT('',(2.753204515225,1.509790077167));
#1095 = CARTESIAN_POINT('',(2.707956257388,1.506787373059));
#1096 = CARTESIAN_POINT('',(2.627442662746,1.500623900524));
#1097 = CARTESIAN_POINT('',(2.59190936314,1.497471006293));
#1098 = CARTESIAN_POINT('',(2.559910422517,1.494219743235));
#1099 = CARTESIAN_POINT('',(2.530948725499,1.490886704738));
#1100 = CARTESIAN_POINT('',(2.504609866278,1.48748471998));
#1101 = CARTESIAN_POINT('',(2.480552859273,1.484023916834));
#1102 = CARTESIAN_POINT('',(2.458489486987,1.480512476752));
#1103 = CARTESIAN_POINT('',(2.398830059403,1.470068436063));
#1104 = CARTESIAN_POINT('',(2.366063393927,1.463014742952));
#1105 = CARTESIAN_POINT('',(2.338130747979,1.455844347105));
#1106 = CARTESIAN_POINT('',(2.313933409004,1.448584910519));
#1107 = CARTESIAN_POINT('',(2.292715186808,1.441255129244));
#1108 = CARTESIAN_POINT('',(2.273919290264,1.433868830809));
#1109 = CARTESIAN_POINT('',(2.257131201017,1.426435817623));
#1110 = CARTESIAN_POINT('',(2.213711651944,1.404953895581));
#1111 = CARTESIAN_POINT('',(2.191320587193,1.390806944149));
#1112 = CARTESIAN_POINT('',(2.17273872275,1.376573468414));
#1113 = CARTESIAN_POINT('',(2.157004122368,1.362275314543));
#1114 = CARTESIAN_POINT('',(2.143414240055,1.347928845227));
#1115 = CARTESIAN_POINT('',(2.13153633844,1.333543786058));
#1116 = CARTESIAN_POINT('',(2.121034962543,1.319127814895));
#1117 = CARTESIAN_POINT('',(2.09527622627,1.279413911594));
#1118 = CARTESIAN_POINT('',(2.082357867284,1.254063521687));
#1119 = CARTESIAN_POINT('',(2.071608317159,1.228664764535));
#1120 = CARTESIAN_POINT('',(2.062484944296,1.203229732465));
#1121 = CARTESIAN_POINT('',(2.054569898176,1.177767822737));
#1122 = CARTESIAN_POINT('',(2.047622353914,1.152284384233));
#1123 = CARTESIAN_POINT('',(2.041448230757,1.126783757536));
#1124 = CARTESIAN_POINT('',(2.027604706157,1.062996827714));
#1125 = CARTESIAN_POINT('',(2.020730310379,1.024692863731));
#1126 = CARTESIAN_POINT('',(2.014822690234,0.98636745227));
#1127 = CARTESIAN_POINT('',(2.009646712827,0.94802581541));
#1128 = CARTESIAN_POINT('',(2.00504435449,0.909671461491));
#1129 = CARTESIAN_POINT('',(2.000895799419,0.871307051771));
#1130 = CARTESIAN_POINT('',(1.997122181443,0.832934333915));
#1131 = CARTESIAN_POINT('',(1.990193443035,0.756175196704));
#1132 = CARTESIAN_POINT('',(1.987038524864,0.717788772762));
#1133 = CARTESIAN_POINT('',(1.984129570031,0.67939690132));
#1134 = CARTESIAN_POINT('',(1.981421723772,0.64100057653));
#1135 = CARTESIAN_POINT('',(1.978881673483,0.602600536443));
#1136 = CARTESIAN_POINT('',(1.97648290535,0.564197368385));
#1137 = CARTESIAN_POINT('',(1.974203308375,0.525791562133));
#1138 = CARTESIAN_POINT('',(1.9720251258,0.487383510879));
#1139 = ( GEOMETRIC_REPRESENTATION_CONTEXT(2) 
PARAMETRIC_REPRESENTATION_CONTEXT() REPRESENTATION_CONTEXT('2D SPACE',''
  ) );
#1140 = PCURVE('',#852,#1141);
#1141 = DEFINITIONAL_REPRESENTATION('',(#1142),#1146);
#1142 = LINE('',#1143,#1144);
#1143 = CARTESIAN_POINT('',(0.,0.));
#1144 = VECTOR('',#1145,1.);
#1145 = DIRECTION('',(1.,0.));
#1146 = ( GEOMETRIC_REPRESENTATION_CONTEXT(2) 
PARAMETRIC_REPRESENTATION_CONTEXT() REPRESENTATION_CONTEXT('2D SPACE',''
  ) );
#1147 = ORIENTED_EDGE('',*,*,#1148,.F.);
#1148 = EDGE_CURVE('',#780,#1007,#1149,.T.);
#1149 = SURFACE_CURVE('',#1150,(#1155,#1166),.PCURVE_S1.);
#1150 = CIRCLE('',#1151,2.5);
#1151 = AXIS2_PLACEMENT_3D('',#1152,#1153,#1154);
#1152 = CARTESIAN_POINT('',(235.6,-22.2,28.4));
#1153 = DIRECTION('',(-0.928581574789,-0.368484751901,
    -4.421817022807E-02));
#1154 = DIRECTION('',(0.368845520305,-0.92949071117,-1.734723475977E-18)
  );
#1155 = PCURVE('',#798,#1156);
#1156 = DEFINITIONAL_REPRESENTATION('',(#1157),#1165);
#1157 = B_SPLINE_CURVE_WITH_KNOTS('',6,(#1158,#1159,#1160,#1161,#1162,
    #1163,#1164),.UNSPECIFIED.,.F.,.F.,(7,7),(5.795282792222,
    6.28318530718),.PIECEWISE_BEZIER_KNOTS.);
#1158 = CARTESIAN_POINT('',(5.11361777939,-0.487383510879));
#1159 = CARTESIAN_POINT('',(5.109011934832,-0.406168319902));
#1160 = CARTESIAN_POINT('',(5.104881695704,-0.324942600545));
#1161 = CARTESIAN_POINT('',(5.101027401953,-0.243710774248));
#1162 = CARTESIAN_POINT('',(5.097347208154,-0.162475094814));
#1163 = CARTESIAN_POINT('',(5.093751331068,-8.1237549452E-02));
#1164 = CARTESIAN_POINT('',(5.090155638325,0.));
#1165 = ( GEOMETRIC_REPRESENTATION_CONTEXT(2) 
PARAMETRIC_REPRESENTATION_CONTEXT() REPRESENTATION_CONTEXT('2D SPACE',''
  ) );
#1166 = PCURVE('',#852,#1167);
#1167 = DEFINITIONAL_REPRESENTATION('',(#1168),#1172);
#1168 = LINE('',#1169,#1170);
#1169 = CARTESIAN_POINT('',(0.,0.));
#1170 = VECTOR('',#1171,1.);
#1171 = DIRECTION('',(1.,0.));
#1172 = ( GEOMETRIC_REPRESENTATION_CONTEXT(2) 
PARAMETRIC_REPRESENTATION_CONTEXT() REPRESENTATION_CONTEXT('2D SPACE',''
  ) );
#1173 = ORIENTED_EDGE('',*,*,#779,.T.);
#1174 = ADVANCED_FACE('',(#1175),#852,.T.);
#1175 = FACE_BOUND('',#1176,.T.);
#1176 = EDGE_LOOP('',(#1177,#1326,#1367,#1388,#1389,#1390,#1391,#1392,
    #1393));
#1177 = ORIENTED_EDGE('',*,*,#1178,.F.);
#1178 = EDGE_CURVE('',#1179,#1181,#1183,.T.);
#1179 = VERTEX_POINT('',#1180);
#1180 = CARTESIAN_POINT('',(229.18108712646,-24.7,30.597170344311));
#1181 = VERTEX_POINT('',#1182);
#1182 = CARTESIAN_POINT('',(229.41891287353,-24.7,25.602829655689));
#1183 = SURFACE_CURVE('',#1184,(#1189,#1196),.PCURVE_S1.);
#1184 = CIRCLE('',#1185,2.5);
#1185 = AXIS2_PLACEMENT_3D('',#1186,#1187,#1188);
#1186 = CARTESIAN_POINT('',(229.3,-24.7,28.1));
#1187 = DIRECTION('',(-0.928581574789,-0.368484751901,
    -4.421817022807E-02));
#1188 = DIRECTION('',(0.368845520305,-0.92949071117,-1.734723475977E-18)
  );
#1189 = PCURVE('',#852,#1190);
#1190 = DEFINITIONAL_REPRESENTATION('',(#1191),#1195);
#1191 = LINE('',#1192,#1193);
#1192 = CARTESIAN_POINT('',(0.,6.784541251993));
#1193 = VECTOR('',#1194,1.);
#1194 = DIRECTION('',(1.,0.));
#1195 = ( GEOMETRIC_REPRESENTATION_CONTEXT(2) 
PARAMETRIC_REPRESENTATION_CONTEXT() REPRESENTATION_CONTEXT('2D SPACE',''
  ) );
#1196 = PCURVE('',#1197,#1202);
#1197 = SPHERICAL_SURFACE('',#1198,2.5);
#1198 = AXIS2_PLACEMENT_3D('',#1199,#1200,#1201);
#1199 = CARTESIAN_POINT('',(229.3,-24.7,28.1));
#1200 = DIRECTION('',(0.,0.,1.));
#1201 = DIRECTION('',(1.,0.,-0.));
#1202 = DEFINITIONAL_REPRESENTATION('',(#1203),#1325);
#1203 = B_SPLINE_CURVE_WITH_KNOTS('',8,(#1204,#1205,#1206,#1207,#1208,
    #1209,#1210,#1211,#1212,#1213,#1214,#1215,#1216,#1217,#1218,#1219,
    #1220,#1221,#1222,#1223,#1224,#1225,#1226,#1227,#1228,#1229,#1230,
    #1231,#1232,#1233,#1234,#1235,#1236,#1237,#1238,#1239,#1240,#1241,
    #1242,#1243,#1244,#1245,#1246,#1247,#1248,#1249,#1250,#1251,#1252,
    #1253,#1254,#1255,#1256,#1257,#1258,#1259,#1260,#1261,#1262,#1263,
    #1264,#1265,#1266,#1267,#1268,#1269,#1270,#1271,#1272,#1273,#1274,
    #1275,#1276,#1277,#1278,#1279,#1280,#1281,#1282,#1283,#1284,#1285,
    #1286,#1287,#1288,#1289,#1290,#1291,#1292,#1293,#1294,#1295,#1296,
    #1297,#1298,#1299,#1300,#1301,#1302,#1303,#1304,#1305,#1306,#1307,
    #1308,#1309,#1310,#1311,#1312,#1313,#1314,#1315,#1316,#1317,#1318,
    #1319,#1320,#1321,#1322,#1323,#1324),.UNSPECIFIED.,.F.,.F.,(9,7,7,7,
    7,7,7,7,7,7,7,7,7,7,7,7,7,9),(1.588341419217,1.612885111824,
    1.661589001839,1.757474785307,1.850364138041,2.030337258964,
    2.367786860694,2.958323663723,3.844128868265,4.0655801694,
    4.231668645252,4.356235002141,4.449659769807,4.519728345557,
    4.624831209182,4.677382640995,4.703658356901,4.729934072807),
  .UNSPECIFIED.);
#1204 = CARTESIAN_POINT('',(3.14159265359,1.523213223518));
#1205 = CARTESIAN_POINT('',(3.081631089523,1.522082726458));
#1206 = CARTESIAN_POINT('',(3.024922984171,1.520757006851));
#1207 = CARTESIAN_POINT('',(2.971816633009,1.519254601156));
#1208 = CARTESIAN_POINT('',(2.922400442983,1.517595783246));
#1209 = CARTESIAN_POINT('',(2.876567061102,1.515799782543));
#1210 = CARTESIAN_POINT('',(2.834106080992,1.51388368527));
#1211 = CARTESIAN_POINT('',(2.7947794081,1.511862333711));
#1212 = CARTESIAN_POINT('',(2.686010745898,1.505553975717));
#1213 = CARTESIAN_POINT('',(2.625032696393,1.500995377365));
#1214 = CARTESIAN_POINT('',(2.573426441842,1.496172897875));
#1215 = CARTESIAN_POINT('',(2.52909333479,1.491154249248));
#1216 = CARTESIAN_POINT('',(2.490648222642,1.48598257684));
#1217 = CARTESIAN_POINT('',(2.456955675677,1.480690093825));
#1218 = CARTESIAN_POINT('',(2.427189207082,1.475299647007));
#1219 = CARTESIAN_POINT('',(2.348528027091,1.459057909956));
#1220 = CARTESIAN_POINT('',(2.309039226537,1.447975234189));
#1221 = CARTESIAN_POINT('',(2.277246826803,1.436713512167));
#1222 = CARTESIAN_POINT('',(2.250983454371,1.425321674401));
#1223 = CARTESIAN_POINT('',(2.22877305732,1.413837323396));
#1224 = CARTESIAN_POINT('',(2.209706834574,1.402280471097));
#1225 = CARTESIAN_POINT('',(2.193118100921,1.390667227503));
#1226 = CARTESIAN_POINT('',(2.164400729448,1.367714029887));
#1227 = CARTESIAN_POINT('',(2.152148572891,1.356376900445));
#1228 = CARTESIAN_POINT('',(2.141341404871,1.345007113927));
#1229 = CARTESIAN_POINT('',(2.131700127323,1.333611050791));
#1230 = CARTESIAN_POINT('',(2.123022475531,1.322193314834));
#1231 = CARTESIAN_POINT('',(2.115152760188,1.310757444587));
#1232 = CARTESIAN_POINT('',(2.107972565695,1.299306115334));
#1233 = CARTESIAN_POINT('',(2.088624309681,1.265628795056));
#1234 = CARTESIAN_POINT('',(2.078090641083,1.243366207509));
#1235 = CARTESIAN_POINT('',(2.069094128511,1.221069327451));
#1236 = CARTESIAN_POINT('',(2.061271621655,1.198746284311));
#1237 = CARTESIAN_POINT('',(2.054377655771,1.176402566625));
#1238 = CARTESIAN_POINT('',(2.048227016617,1.154042319616));
#1239 = CARTESIAN_POINT('',(2.042694700352,1.131668324907));
#1240 = CARTESIAN_POINT('',(2.028272098858,1.067310145036));
#1241 = CARTESIAN_POINT('',(2.020680367291,1.025297107072));
#1242 = CARTESIAN_POINT('',(2.014243356623,0.983258457014));
#1243 = CARTESIAN_POINT('',(2.008675190476,0.941200536006));
#1244 = CARTESIAN_POINT('',(2.003757542432,0.899128198518));
#1245 = CARTESIAN_POINT('',(1.999360502692,0.857044323001));
#1246 = CARTESIAN_POINT('',(1.995379856999,0.814951222596));
#1247 = CARTESIAN_POINT('',(1.985372502174,0.699174386872));
#1248 = CARTESIAN_POINT('',(1.980049540061,0.625475062704));
#1249 = CARTESIAN_POINT('',(1.9753700999,0.551761491723));
#1250 = CARTESIAN_POINT('',(1.971150371335,0.478037743916));
#1251 = CARTESIAN_POINT('',(1.967265453129,0.404306584819));
#1252 = CARTESIAN_POINT('',(1.963615530917,0.330570225075));
#1253 = CARTESIAN_POINT('',(1.960134549772,0.256830126084));
#1254 = CARTESIAN_POINT('',(1.951694638957,7.247406827807E-02));
#1255 = CARTESIAN_POINT('',(1.946867276663,-3.814480230687E-02));
#1256 = CARTESIAN_POINT('',(1.94207241287,-0.148764392256));
#1257 = CARTESIAN_POINT('',(1.937137254086,-0.259380876185));
#1258 = CARTESIAN_POINT('',(1.931924265254,-0.369991214645));
#1259 = CARTESIAN_POINT('',(1.926139664009,-0.480588898176));
#1260 = CARTESIAN_POINT('',(1.919537664231,-0.591168495268));
#1261 = CARTESIAN_POINT('',(1.909045443995,-0.729343390365));
#1262 = CARTESIAN_POINT('',(1.906834936857,-0.756975887603));
#1263 = CARTESIAN_POINT('',(1.904497169823,-0.784605566276));
#1264 = CARTESIAN_POINT('',(1.902013555763,-0.812232014316));
#1265 = CARTESIAN_POINT('',(1.899361826279,-0.839854737988));
#1266 = CARTESIAN_POINT('',(1.896514411017,-0.867473125858));
#1267 = CARTESIAN_POINT('',(1.893435487224,-0.895086383096));
#1268 = CARTESIAN_POINT('',(1.887557608814,-0.943398725924));
#1269 = CARTESIAN_POINT('',(1.884881031735,-0.964100524435));
#1270 = CARTESIAN_POINT('',(1.882026683076,-0.984798381362));
#1271 = CARTESIAN_POINT('',(1.878969619351,-1.005491742622));
#1272 = CARTESIAN_POINT('',(1.875679847125,-1.026179941827));
#1273 = CARTESIAN_POINT('',(1.872120106461,-1.04686215079));
#1274 = CARTESIAN_POINT('',(1.868241829536,-1.067537289057));
#1275 = CARTESIAN_POINT('',(1.860782358078,-1.103703845034));
#1276 = CARTESIAN_POINT('',(1.857369199306,-1.119198994783));
#1277 = CARTESIAN_POINT('',(1.853712218937,-1.134688727629));
#1278 = CARTESIAN_POINT('',(1.849777457319,-1.150172286495));
#1279 = CARTESIAN_POINT('',(1.845524031693,-1.165648759662));
#1280 = CARTESIAN_POINT('',(1.840901097568,-1.181117012374));
#1281 = CARTESIAN_POINT('',(1.835842314115,-1.196575561702));
#1282 = CARTESIAN_POINT('',(1.826069438134,-1.223607519405));
#1283 = CARTESIAN_POINT('',(1.8215852315,-1.23518605099));
#1284 = CARTESIAN_POINT('',(1.816767484983,-1.246757145121));
#1285 = CARTESIAN_POINT('',(1.811569776824,-1.258319760079));
#1286 = CARTESIAN_POINT('',(1.805936190688,-1.269872640328));
#1287 = CARTESIAN_POINT('',(1.799797172738,-1.281414221875));
#1288 = CARTESIAN_POINT('',(1.793062027265,-1.292942459417));
#1289 = CARTESIAN_POINT('',(1.78001756856,-1.313088662113));
#1290 = CARTESIAN_POINT('',(1.774022596581,-1.321713676898));
#1291 = CARTESIAN_POINT('',(1.76757161423,-1.330328454148));
#1292 = CARTESIAN_POINT('',(1.760601357332,-1.338931556842));
#1293 = CARTESIAN_POINT('',(1.75303562048,-1.347521252044));
#1294 = CARTESIAN_POINT('',(1.74477972712,-1.356095380998));
#1295 = CARTESIAN_POINT('',(1.735710667451,-1.36465112368));
#1296 = CARTESIAN_POINT('',(1.710591259237,-1.385984958972));
#1297 = CARTESIAN_POINT('',(1.693316717101,-1.39873523508));
#1298 = CARTESIAN_POINT('',(1.673283656905,-1.411422963194));
#1299 = CARTESIAN_POINT('',(1.649685478878,-1.424028170427));
#1300 = CARTESIAN_POINT('',(1.621437316821,-1.436528349334));
#1301 = CARTESIAN_POINT('',(1.586628544708,-1.448873002129));
#1302 = CARTESIAN_POINT('',(1.542534378153,-1.461003680955));
#1303 = CARTESIAN_POINT('',(1.451641491182,-1.47858644427));
#1304 = CARTESIAN_POINT('',(1.417219191901,-1.484345166045));
#1305 = CARTESIAN_POINT('',(1.377763737959,-1.489977020889));
#1306 = CARTESIAN_POINT('',(1.332119227492,-1.495449750351));
#1307 = CARTESIAN_POINT('',(1.278631683062,-1.500714555257));
#1308 = CARTESIAN_POINT('',(1.215341294069,-1.505708235522));
#1309 = CARTESIAN_POINT('',(1.139013365324,-1.510320085509));
#1310 = CARTESIAN_POINT('',(1.001906014423,-1.516431699293));
#1311 = CARTESIAN_POINT('',(0.95243482056,-1.518334563349));
#1312 = CARTESIAN_POINT('',(0.898937532457,-1.520083604001));
#1313 = CARTESIAN_POINT('',(0.841243527694,-1.52165691162));
#1314 = CARTESIAN_POINT('',(0.779309782605,-1.523029742172));
#1315 = CARTESIAN_POINT('',(0.713400042973,-1.524176652775));
#1316 = CARTESIAN_POINT('',(0.644205276864,-1.525075284114));
#1317 = CARTESIAN_POINT('',(0.501211506245,-1.526346502626));
#1318 = CARTESIAN_POINT('',(0.427412041545,-1.52671907427));
#1319 = CARTESIAN_POINT('',(0.35229403065,-1.52681379629));
#1320 = CARTESIAN_POINT('',(0.277118023491,-1.52662301189));
#1321 = CARTESIAN_POINT('',(0.203340727855,-1.52615001209));
#1322 = CARTESIAN_POINT('',(0.132115317108,-1.525410026385));
#1323 = CARTESIAN_POINT('',(6.419299035387E-02,-1.5244234986));
#1324 = CARTESIAN_POINT('',(-1.492139745096E-13,-1.523213223518));
#1325 = ( GEOMETRIC_REPRESENTATION_CONTEXT(2) 
PARAMETRIC_REPRESENTATION_CONTEXT() REPRESENTATION_CONTEXT('2D SPACE',''
  ) );
#1326 = ORIENTED_EDGE('',*,*,#1327,.F.);
#1327 = EDGE_CURVE('',#1328,#1179,#1330,.T.);
#1328 = VERTEX_POINT('',#1329);
#1329 = CARTESIAN_POINT('',(231.79887223218,-26.39802898767,
    28.17508373483));
#1330 = SURFACE_CURVE('',#1331,(#1336,#1349),.PCURVE_S1.);
#1331 = ELLIPSE('',#1332,3.022282282141,2.5);
#1332 = AXIS2_PLACEMENT_3D('',#1333,#1334,#1335);
#1333 = CARTESIAN_POINT('',(229.3,-24.7,28.1));
#1334 = DIRECTION('',(-0.561287128202,-0.82718944381,-2.672795848579E-02
    ));
#1335 = DIRECTION('',(-0.826253179284,0.561923147814,-3.934538948969E-02
    ));
#1336 = PCURVE('',#852,#1337);
#1337 = DEFINITIONAL_REPRESENTATION('',(#1338),#1348);
#1338 = B_SPLINE_CURVE_WITH_KNOTS('',8,(#1339,#1340,#1341,#1342,#1343,
    #1344,#1345,#1346,#1347),.UNSPECIFIED.,.F.,.F.,(9,9),(3.124047561167
    ,4.712389157033),.PIECEWISE_BEZIER_KNOTS.);
#1339 = CARTESIAN_POINT('',(1.136868377216E-14,5.086512264314));
#1340 = CARTESIAN_POINT('',(0.198542699483,5.080596658203));
#1341 = CARTESIAN_POINT('',(0.397085398967,5.151178216152));
#1342 = CARTESIAN_POINT('',(0.59562809845,5.298611578492));
#1343 = CARTESIAN_POINT('',(0.794170797932,5.516822015008));
#1344 = CARTESIAN_POINT('',(0.992713497414,5.793246283731));
#1345 = CARTESIAN_POINT('',(1.191256196899,6.110175141118));
#1346 = CARTESIAN_POINT('',(1.389798896382,6.44735839672));
#1347 = CARTESIAN_POINT('',(1.588341595866,6.784541551993));
#1348 = ( GEOMETRIC_REPRESENTATION_CONTEXT(2) 
PARAMETRIC_REPRESENTATION_CONTEXT() REPRESENTATION_CONTEXT('2D SPACE',''
  ) );
#1349 = PCURVE('',#1350,#1355);
#1350 = CYLINDRICAL_SURFACE('',#1351,2.5);
#1351 = AXIS2_PLACEMENT_3D('',#1352,#1353,#1354);
#1352 = CARTESIAN_POINT('',(229.3,-24.7,28.1));
#1353 = DIRECTION('',(0.,-1.,0.));
#1354 = DIRECTION('',(0.,-0.,-1.));
#1355 = DEFINITIONAL_REPRESENTATION('',(#1356),#1366);
#1356 = B_SPLINE_CURVE_WITH_KNOTS('',8,(#1357,#1358,#1359,#1360,#1361,
    #1362,#1363,#1364,#1365),.UNSPECIFIED.,.F.,.F.,(9,9),(3.124047561167
    ,4.712389157033),.PIECEWISE_BEZIER_KNOTS.);
#1357 = CARTESIAN_POINT('',(1.600834337649,1.698028987679));
#1358 = CARTESIAN_POINT('',(1.799377037133,1.70394459379));
#1359 = CARTESIAN_POINT('',(1.997919736616,1.633363035835));
#1360 = CARTESIAN_POINT('',(2.19646243609,1.485929673498));
#1361 = CARTESIAN_POINT('',(2.395005135588,1.267719236967));
#1362 = CARTESIAN_POINT('',(2.593547835062,0.991294968263));
#1363 = CARTESIAN_POINT('',(2.792090534548,0.674366110872));
#1364 = CARTESIAN_POINT('',(2.990633234032,0.337182855274));
#1365 = CARTESIAN_POINT('',(3.189175933515,-2.999999786368E-07));
#1366 = ( GEOMETRIC_REPRESENTATION_CONTEXT(2) 
PARAMETRIC_REPRESENTATION_CONTEXT() REPRESENTATION_CONTEXT('2D SPACE',''
  ) );
#1367 = ORIENTED_EDGE('',*,*,#1368,.F.);
#1368 = EDGE_CURVE('',#1007,#1328,#1369,.T.);
#1369 = SEAM_CURVE('',#1370,(#1374,#1381),.PCURVE_S1.);
#1370 = LINE('',#1371,#1372);
#1371 = CARTESIAN_POINT('',(236.52211380076,-24.52372677792,28.4));
#1372 = VECTOR('',#1373,1.);
#1373 = DIRECTION('',(-0.928581574789,-0.368484751901,
    -4.421817022807E-02));
#1374 = PCURVE('',#852,#1375);
#1375 = DEFINITIONAL_REPRESENTATION('',(#1376),#1380);
#1376 = LINE('',#1377,#1378);
#1377 = CARTESIAN_POINT('',(6.28318530718,-0.));
#1378 = VECTOR('',#1379,1.);
#1379 = DIRECTION('',(0.,1.));
#1380 = ( GEOMETRIC_REPRESENTATION_CONTEXT(2) 
PARAMETRIC_REPRESENTATION_CONTEXT() REPRESENTATION_CONTEXT('2D SPACE',''
  ) );
#1381 = PCURVE('',#852,#1382);
#1382 = DEFINITIONAL_REPRESENTATION('',(#1383),#1387);
#1383 = LINE('',#1384,#1385);
#1384 = CARTESIAN_POINT('',(0.,-0.));
#1385 = VECTOR('',#1386,1.);
#1386 = DIRECTION('',(0.,1.));
#1387 = ( GEOMETRIC_REPRESENTATION_CONTEXT(2) 
PARAMETRIC_REPRESENTATION_CONTEXT() REPRESENTATION_CONTEXT('2D SPACE',''
  ) );
#1388 = ORIENTED_EDGE('',*,*,#1006,.T.);
#1389 = ORIENTED_EDGE('',*,*,#894,.T.);
#1390 = ORIENTED_EDGE('',*,*,#830,.T.);
#1391 = ORIENTED_EDGE('',*,*,#1148,.T.);
#1392 = ORIENTED_EDGE('',*,*,#1368,.T.);
#1393 = ORIENTED_EDGE('',*,*,#1394,.F.);
#1394 = EDGE_CURVE('',#1181,#1328,#1395,.T.);
#1395 = SURFACE_CURVE('',#1396,(#1401,#1413),.PCURVE_S1.);
#1396 = ELLIPSE('',#1397,3.022282282141,2.5);
#1397 = AXIS2_PLACEMENT_3D('',#1398,#1399,#1400);
#1398 = CARTESIAN_POINT('',(229.3,-24.7,28.1));
#1399 = DIRECTION('',(-0.561287128202,-0.82718944381,-2.672795848579E-02
    ));
#1400 = DIRECTION('',(-0.826253179284,0.561923147814,-3.934538948969E-02
    ));
#1401 = PCURVE('',#852,#1402);
#1402 = DEFINITIONAL_REPRESENTATION('',(#1403),#1412);
#1403 = B_SPLINE_CURVE_WITH_KNOTS('',7,(#1404,#1405,#1406,#1407,#1408,
    #1409,#1410,#1411),.UNSPECIFIED.,.F.,.F.,(8,8),(1.570796099131,
    3.124047561167),.PIECEWISE_BEZIER_KNOTS.);
#1404 = CARTESIAN_POINT('',(4.729933845143,6.784541638633));
#1405 = CARTESIAN_POINT('',(4.951826911148,6.407702780675));
#1406 = CARTESIAN_POINT('',(5.173719977154,6.030865302705));
#1407 = CARTESIAN_POINT('',(5.395613043158,5.684323304742));
#1408 = CARTESIAN_POINT('',(5.617506109164,5.398423912302));
#1409 = CARTESIAN_POINT('',(5.839399175169,5.19727574973));
#1410 = CARTESIAN_POINT('',(6.061292241174,5.093123597699));
#1411 = CARTESIAN_POINT('',(6.28318530718,5.086512264314));
#1412 = ( GEOMETRIC_REPRESENTATION_CONTEXT(2) 
PARAMETRIC_REPRESENTATION_CONTEXT() REPRESENTATION_CONTEXT('2D SPACE',''
  ) );
#1413 = PCURVE('',#1350,#1414);
#1414 = DEFINITIONAL_REPRESENTATION('',(#1415),#1424);
#1415 = B_SPLINE_CURVE_WITH_KNOTS('',7,(#1416,#1417,#1418,#1419,#1420,
    #1421,#1422,#1423),.UNSPECIFIED.,.F.,.F.,(8,8),(1.570796099131,
    3.124047561167),.PIECEWISE_BEZIER_KNOTS.);
#1416 = CARTESIAN_POINT('',(4.758287561309E-02,-3.866394031604E-07));
#1417 = CARTESIAN_POINT('',(0.269475941618,0.376838471318));
#1418 = CARTESIAN_POINT('',(0.491369007624,0.753675949289));
#1419 = CARTESIAN_POINT('',(0.713262073629,1.100217947252));
#1420 = CARTESIAN_POINT('',(0.935155139634,1.386117339693));
#1421 = CARTESIAN_POINT('',(1.157048205639,1.587265502263));
#1422 = CARTESIAN_POINT('',(1.378941271644,1.691417654295));
#1423 = CARTESIAN_POINT('',(1.600834337649,1.698028987679));
#1424 = ( GEOMETRIC_REPRESENTATION_CONTEXT(2) 
PARAMETRIC_REPRESENTATION_CONTEXT() REPRESENTATION_CONTEXT('2D SPACE',''
  ) );
#1425 = ADVANCED_FACE('',(#1426),#1197,.T.);
#1426 = FACE_BOUND('',#1427,.T.);
#1427 = EDGE_LOOP('',(#1428,#1429,#1452));
#1428 = ORIENTED_EDGE('',*,*,#1178,.T.);
#1429 = ORIENTED_EDGE('',*,*,#1430,.F.);
#1430 = EDGE_CURVE('',#1431,#1181,#1433,.T.);
#1431 = VERTEX_POINT('',#1432);
#1432 = CARTESIAN_POINT('',(229.3,-24.7,25.6));
#1433 = SURFACE_CURVE('',#1434,(#1439,#1445),.PCURVE_S1.);
#1434 = CIRCLE('',#1435,2.5);
#1435 = AXIS2_PLACEMENT_3D('',#1436,#1437,#1438);
#1436 = CARTESIAN_POINT('',(229.3,-24.7,28.1));
#1437 = DIRECTION('',(0.,-1.,0.));
#1438 = DIRECTION('',(0.,-0.,-1.));
#1439 = PCURVE('',#1197,#1440);
#1440 = DEFINITIONAL_REPRESENTATION('',(#1441),#1444);
#1441 = B_SPLINE_CURVE_WITH_KNOTS('',1,(#1442,#1443),.UNSPECIFIED.,.F.,
  .F.,(2,2),(0.,4.758310327699E-02),.PIECEWISE_BEZIER_KNOTS.);
#1442 = CARTESIAN_POINT('',(0.,-1.570796326795));
#1443 = CARTESIAN_POINT('',(0.,-1.523213223518));
#1444 = ( GEOMETRIC_REPRESENTATION_CONTEXT(2) 
PARAMETRIC_REPRESENTATION_CONTEXT() REPRESENTATION_CONTEXT('2D SPACE',''
  ) );
#1445 = PCURVE('',#1350,#1446);
#1446 = DEFINITIONAL_REPRESENTATION('',(#1447),#1451);
#1447 = LINE('',#1448,#1449);
#1448 = CARTESIAN_POINT('',(0.,0.));
#1449 = VECTOR('',#1450,1.);
#1450 = DIRECTION('',(1.,0.));
#1451 = ( GEOMETRIC_REPRESENTATION_CONTEXT(2) 
PARAMETRIC_REPRESENTATION_CONTEXT() REPRESENTATION_CONTEXT('2D SPACE',''
  ) );
#1452 = ORIENTED_EDGE('',*,*,#1453,.F.);
#1453 = EDGE_CURVE('',#1179,#1431,#1454,.T.);
#1454 = SURFACE_CURVE('',#1455,(#1460,#1467),.PCURVE_S1.);
#1455 = CIRCLE('',#1456,2.5);
#1456 = AXIS2_PLACEMENT_3D('',#1457,#1458,#1459);
#1457 = CARTESIAN_POINT('',(229.3,-24.7,28.1));
#1458 = DIRECTION('',(0.,-1.,0.));
#1459 = DIRECTION('',(0.,-0.,-1.));
#1460 = PCURVE('',#1197,#1461);
#1461 = DEFINITIONAL_REPRESENTATION('',(#1462),#1466);
#1462 = LINE('',#1463,#1464);
#1463 = CARTESIAN_POINT('',(3.14159265359,4.712388980385));
#1464 = VECTOR('',#1465,1.);
#1465 = DIRECTION('',(0.,-1.));
#1466 = ( GEOMETRIC_REPRESENTATION_CONTEXT(2) 
PARAMETRIC_REPRESENTATION_CONTEXT() REPRESENTATION_CONTEXT('2D SPACE',''
  ) );
#1467 = PCURVE('',#1350,#1468);
#1468 = DEFINITIONAL_REPRESENTATION('',(#1469),#1473);
#1469 = LINE('',#1470,#1471);
#1470 = CARTESIAN_POINT('',(0.,0.));
#1471 = VECTOR('',#1472,1.);
#1472 = DIRECTION('',(1.,0.));
#1473 = ( GEOMETRIC_REPRESENTATION_CONTEXT(2) 
PARAMETRIC_REPRESENTATION_CONTEXT() REPRESENTATION_CONTEXT('2D SPACE',''
  ) );
#1474 = ADVANCED_FACE('',(#1475),#1350,.T.);
#1475 = FACE_BOUND('',#1476,.T.);
#1476 = EDGE_LOOP('',(#1477,#1500,#1527,#1528,#1529,#1530,#1531));
#1477 = ORIENTED_EDGE('',*,*,#1478,.T.);
#1478 = EDGE_CURVE('',#1431,#1479,#1481,.T.);
#1479 = VERTEX_POINT('',#1480);
#1480 = CARTESIAN_POINT('',(229.3,-27.2,25.6));
#1481 = SEAM_CURVE('',#1482,(#1486,#1493),.PCURVE_S1.);
#1482 = LINE('',#1483,#1484);
#1483 = CARTESIAN_POINT('',(229.3,-24.7,25.6));
#1484 = VECTOR('',#1485,1.);
#1485 = DIRECTION('',(0.,-1.,0.));
#1486 = PCURVE('',#1350,#1487);
#1487 = DEFINITIONAL_REPRESENTATION('',(#1488),#1492);
#1488 = LINE('',#1489,#1490);
#1489 = CARTESIAN_POINT('',(6.28318530718,-0.));
#1490 = VECTOR('',#1491,1.);
#1491 = DIRECTION('',(0.,1.));
#1492 = ( GEOMETRIC_REPRESENTATION_CONTEXT(2) 
PARAMETRIC_REPRESENTATION_CONTEXT() REPRESENTATION_CONTEXT('2D SPACE',''
  ) );
#1493 = PCURVE('',#1350,#1494);
#1494 = DEFINITIONAL_REPRESENTATION('',(#1495),#1499);
#1495 = LINE('',#1496,#1497);
#1496 = CARTESIAN_POINT('',(0.,-0.));
#1497 = VECTOR('',#1498,1.);
#1498 = DIRECTION('',(0.,1.));
#1499 = ( GEOMETRIC_REPRESENTATION_CONTEXT(2) 
PARAMETRIC_REPRESENTATION_CONTEXT() REPRESENTATION_CONTEXT('2D SPACE',''
  ) );
#1500 = ORIENTED_EDGE('',*,*,#1501,.F.);
#1501 = EDGE_CURVE('',#1479,#1479,#1502,.T.);
#1502 = SURFACE_CURVE('',#1503,(#1508,#1515),.PCURVE_S1.);
#1503 = CIRCLE('',#1504,2.5);
#1504 = AXIS2_PLACEMENT_3D('',#1505,#1506,#1507);
#1505 = CARTESIAN_POINT('',(229.3,-27.2,28.1));
#1506 = DIRECTION('',(0.,-1.,0.));
#1507 = DIRECTION('',(0.,-0.,-1.));
#1508 = PCURVE('',#1350,#1509);
#1509 = DEFINITIONAL_REPRESENTATION('',(#1510),#1514);
#1510 = LINE('',#1511,#1512);
#1511 = CARTESIAN_POINT('',(0.,2.5));
#1512 = VECTOR('',#1513,1.);
#1513 = DIRECTION('',(1.,0.));
#1514 = ( GEOMETRIC_REPRESENTATION_CONTEXT(2) 
PARAMETRIC_REPRESENTATION_CONTEXT() REPRESENTATION_CONTEXT('2D SPACE',''
  ) );
#1515 = PCURVE('',#1516,#1521);
#1516 = PLANE('',#1517);
#1517 = AXIS2_PLACEMENT_3D('',#1518,#1519,#1520);
#1518 = CARTESIAN_POINT('',(229.3,-27.2,28.1));
#1519 = DIRECTION('',(0.,-1.,0.));
#1520 = DIRECTION('',(0.,-0.,-1.));
#1521 = DEFINITIONAL_REPRESENTATION('',(#1522),#1526);
#1522 = CIRCLE('',#1523,2.5);
#1523 = AXIS2_PLACEMENT_2D('',#1524,#1525);
#1524 = CARTESIAN_POINT('',(0.,0.));
#1525 = DIRECTION('',(1.,0.));
#1526 = ( GEOMETRIC_REPRESENTATION_CONTEXT(2) 
PARAMETRIC_REPRESENTATION_CONTEXT() REPRESENTATION_CONTEXT('2D SPACE',''
  ) );
#1527 = ORIENTED_EDGE('',*,*,#1478,.F.);
#1528 = ORIENTED_EDGE('',*,*,#1430,.T.);
#1529 = ORIENTED_EDGE('',*,*,#1394,.T.);
#1530 = ORIENTED_EDGE('',*,*,#1327,.T.);
#1531 = ORIENTED_EDGE('',*,*,#1453,.T.);
#1532 = ADVANCED_FACE('',(#1533),#1516,.T.);
#1533 = FACE_BOUND('',#1534,.T.);
#1534 = EDGE_LOOP('',(#1535));
#1535 = ORIENTED_EDGE('',*,*,#1501,.T.);
#1536 = ( GEOMETRIC_REPRESENTATION_CONTEXT(3) 
GLOBAL_UNCERTAINTY_ASSIGNED_CONTEXT((#1540)) 
GLOBAL_UNIT_ASSIGNED_CONTEXT((#1537,#1538,#1539)) REPRESENTATION_CONTEXT
('Context #1','3D Context with UNIT and UNCERTAINTY') );
#1537 = ( LENGTH_UNIT() NAMED_UNIT(*) SI_UNIT(.MILLI.,.METRE.) );
#1538 = ( NAMED_UNIT(*) PLANE_ANGLE_UNIT() SI_UNIT($,.RADIAN.) );
#1539 = ( NAMED_UNIT(*) SI_UNIT($,.STERADIAN.) SOLID_ANGLE_UNIT() );
#1540 = UNCERTAINTY_MEASURE_WITH_UNIT(LENGTH_MEASURE(2.E-07),#1537,
  'distance_accuracy_value','confusion accuracy');
#1541 = CONTEXT_DEPENDENT_SHAPE_REPRESENTATION(#1542,#1544);
#1542 = ( REPRESENTATION_RELATIONSHIP('','',#36,#10) 
REPRESENTATION_RELATIONSHIP_WITH_TRANSFORMATION(#1543) 
SHAPE_REPRESENTATION_RELATIONSHIP() );
#1543 = ITEM_DEFINED_TRANSFORMATION('','',#11,#15);
#1544 = PRODUCT_DEFINITION_SHAPE('Placement','Placement of an item',
  #1545);
#1545 = NEXT_ASSEMBLY_USAGE_OCCURRENCE('1','','',#5,#31,$);
#1546 = PRODUCT_RELATED_PRODUCT_CATEGORY('part',$,(#33));
#1547 = SHAPE_DEFINITION_REPRESENTATION(#1548,#1554);
#1548 = PRODUCT_DEFINITION_SHAPE('','',#1549);
#1549 = PRODUCT_DEFINITION('design','',#1550,#1553);
#1550 = PRODUCT_DEFINITION_FORMATION('','',#1551);
#1551 = PRODUCT('Open CASCADE STEP translator 7.8 13.2',
  'Open CASCADE STEP translator 7.8 13.2','',(#1552));
#1552 = PRODUCT_CONTEXT('',#2,'mechanical');
#1553 = PRODUCT_DEFINITION_CONTEXT('part definition',#2,'design');
#1554 = ADVANCED_BREP_SHAPE_REPRESENTATION('',(#11,#1555),#1653);
#1555 = MANIFOLD_SOLID_BREP('',#1556);
#1556 = CLOSED_SHELL('',(#1557,#1645,#1649));
#1557 = ADVANCED_FACE('',(#1558),#1571,.T.);
#1558 = FACE_BOUND('',#1559,.T.);
#1559 = EDGE_LOOP('',(#1560,#1594,#1617,#1644));
#1560 = ORIENTED_EDGE('',*,*,#1561,.F.);
#1561 = EDGE_CURVE('',#1562,#1562,#1564,.T.);
#1562 = VERTEX_POINT('',#1563);
#1563 = CARTESIAN_POINT('',(229.3,-33.2,26.8));
#1564 = SURFACE_CURVE('',#1565,(#1570,#1582),.PCURVE_S1.);
#1565 = CIRCLE('',#1566,1.3);
#1566 = AXIS2_PLACEMENT_3D('',#1567,#1568,#1569);
#1567 = CARTESIAN_POINT('',(229.3,-33.2,28.1));
#1568 = DIRECTION('',(0.,-1.,0.));
#1569 = DIRECTION('',(0.,-0.,-1.));
#1570 = PCURVE('',#1571,#1576);
#1571 = CYLINDRICAL_SURFACE('',#1572,1.3);
#1572 = AXIS2_PLACEMENT_3D('',#1573,#1574,#1575);
#1573 = CARTESIAN_POINT('',(229.3,-27.2,28.1));
#1574 = DIRECTION('',(0.,-1.,0.));
#1575 = DIRECTION('',(0.,-0.,-1.));
#1576 = DEFINITIONAL_REPRESENTATION('',(#1577),#1581);
#1577 = LINE('',#1578,#1579);
#1578 = CARTESIAN_POINT('',(0.,6.));
#1579 = VECTOR('',#1580,1.);
#1580 = DIRECTION('',(1.,0.));
#1581 = ( GEOMETRIC_REPRESENTATION_CONTEXT(2) 
PARAMETRIC_REPRESENTATION_CONTEXT() REPRESENTATION_CONTEXT('2D SPACE',''
  ) );
#1582 = PCURVE('',#1583,#1588);
#1583 = PLANE('',#1584);
#1584 = AXIS2_PLACEMENT_3D('',#1585,#1586,#1587);
#1585 = CARTESIAN_POINT('',(229.3,-33.2,28.1));
#1586 = DIRECTION('',(0.,-1.,0.));
#1587 = DIRECTION('',(0.,-0.,-1.));
#1588 = DEFINITIONAL_REPRESENTATION('',(#1589),#1593);
#1589 = CIRCLE('',#1590,1.3);
#1590 = AXIS2_PLACEMENT_2D('',#1591,#1592);
#1591 = CARTESIAN_POINT('',(0.,0.));
#1592 = DIRECTION('',(1.,0.));
#1593 = ( GEOMETRIC_REPRESENTATION_CONTEXT(2) 
PARAMETRIC_REPRESENTATION_CONTEXT() REPRESENTATION_CONTEXT('2D SPACE',''
  ) );
#1594 = ORIENTED_EDGE('',*,*,#1595,.F.);
#1595 = EDGE_CURVE('',#1596,#1562,#1598,.T.);
#1596 = VERTEX_POINT('',#1597);
#1597 = CARTESIAN_POINT('',(229.3,-27.2,26.8));
#1598 = SEAM_CURVE('',#1599,(#1603,#1610),.PCURVE_S1.);
#1599 = LINE('',#1600,#1601);
#1600 = CARTESIAN_POINT('',(229.3,-27.2,26.8));
#1601 = VECTOR('',#1602,1.);
#1602 = DIRECTION('',(0.,-1.,0.));
#1603 = PCURVE('',#1571,#1604);
#1604 = DEFINITIONAL_REPRESENTATION('',(#1605),#1609);
#1605 = LINE('',#1606,#1607);
#1606 = CARTESIAN_POINT('',(6.28318530718,-0.));
#1607 = VECTOR('',#1608,1.);
#1608 = DIRECTION('',(0.,1.));
#1609 = ( GEOMETRIC_REPRESENTATION_CONTEXT(2) 
PARAMETRIC_REPRESENTATION_CONTEXT() REPRESENTATION_CONTEXT('2D SPACE',''
  ) );
#1610 = PCURVE('',#1571,#1611);
#1611 = DEFINITIONAL_REPRESENTATION('',(#1612),#1616);
#1612 = LINE('',#1613,#1614);
#1613 = CARTESIAN_POINT('',(0.,-0.));
#1614 = VECTOR('',#1615,1.);
#1615 = DIRECTION('',(0.,1.));
#1616 = ( GEOMETRIC_REPRESENTATION_CONTEXT(2) 
PARAMETRIC_REPRESENTATION_CONTEXT() REPRESENTATION_CONTEXT('2D SPACE',''
  ) );
#1617 = ORIENTED_EDGE('',*,*,#1618,.T.);
#1618 = EDGE_CURVE('',#1596,#1596,#1619,.T.);
#1619 = SURFACE_CURVE('',#1620,(#1625,#1632),.PCURVE_S1.);
#1620 = CIRCLE('',#1621,1.3);
#1621 = AXIS2_PLACEMENT_3D('',#1622,#1623,#1624);
#1622 = CARTESIAN_POINT('',(229.3,-27.2,28.1));
#1623 = DIRECTION('',(0.,-1.,0.));
#1624 = DIRECTION('',(0.,-0.,-1.));
#1625 = PCURVE('',#1571,#1626);
#1626 = DEFINITIONAL_REPRESENTATION('',(#1627),#1631);
#1627 = LINE('',#1628,#1629);
#1628 = CARTESIAN_POINT('',(0.,0.));
#1629 = VECTOR('',#1630,1.);
#1630 = DIRECTION('',(1.,0.));
#1631 = ( GEOMETRIC_REPRESENTATION_CONTEXT(2) 
PARAMETRIC_REPRESENTATION_CONTEXT() REPRESENTATION_CONTEXT('2D SPACE',''
  ) );
#1632 = PCURVE('',#1633,#1638);
#1633 = PLANE('',#1634);
#1634 = AXIS2_PLACEMENT_3D('',#1635,#1636,#1637);
#1635 = CARTESIAN_POINT('',(229.3,-27.2,28.1));
#1636 = DIRECTION('',(0.,-1.,0.));
#1637 = DIRECTION('',(0.,-0.,-1.));
#1638 = DEFINITIONAL_REPRESENTATION('',(#1639),#1643);
#1639 = CIRCLE('',#1640,1.3);
#1640 = AXIS2_PLACEMENT_2D('',#1641,#1642);
#1641 = CARTESIAN_POINT('',(0.,0.));
#1642 = DIRECTION('',(1.,0.));
#1643 = ( GEOMETRIC_REPRESENTATION_CONTEXT(2) 
PARAMETRIC_REPRESENTATION_CONTEXT() REPRESENTATION_CONTEXT('2D SPACE',''
  ) );
#1644 = ORIENTED_EDGE('',*,*,#1595,.T.);
#1645 = ADVANCED_FACE('',(#1646),#1583,.T.);
#1646 = FACE_BOUND('',#1647,.T.);
#1647 = EDGE_LOOP('',(#1648));
#1648 = ORIENTED_EDGE('',*,*,#1561,.T.);
#1649 = ADVANCED_FACE('',(#1650),#1633,.F.);
#1650 = FACE_BOUND('',#1651,.T.);
#1651 = EDGE_LOOP('',(#1652));
#1652 = ORIENTED_EDGE('',*,*,#1618,.F.);
#1653 = ( GEOMETRIC_REPRESENTATION_CONTEXT(3) 
GLOBAL_UNCERTAINTY_ASSIGNED_CONTEXT((#1657)) 
GLOBAL_UNIT_ASSIGNED_CONTEXT((#1654,#1655,#1656)) REPRESENTATION_CONTEXT
('Context #1','3D Context with UNIT and UNCERTAINTY') );
#1654 = ( LENGTH_UNIT() NAMED_UNIT(*) SI_UNIT(.MILLI.,.METRE.) );
#1655 = ( NAMED_UNIT(*) PLANE_ANGLE_UNIT() SI_UNIT($,.RADIAN.) );
#1656 = ( NAMED_UNIT(*) SI_UNIT($,.STERADIAN.) SOLID_ANGLE_UNIT() );
#1657 = UNCERTAINTY_MEASURE_WITH_UNIT(LENGTH_MEASURE(1.E-07),#1654,
  'distance_accuracy_value','confusion accuracy');
#1658 = CONTEXT_DEPENDENT_SHAPE_REPRESENTATION(#1659,#1661);
#1659 = ( REPRESENTATION_RELATIONSHIP('','',#1554,#10) 
REPRESENTATION_RELATIONSHIP_WITH_TRANSFORMATION(#1660) 
SHAPE_REPRESENTATION_RELATIONSHIP() );
#1660 = ITEM_DEFINED_TRANSFORMATION('','',#11,#19);
#1661 = PRODUCT_DEFINITION_SHAPE('Placement','Placement of an item',
  #1662);
#1662 = NEXT_ASSEMBLY_USAGE_OCCURRENCE('2','','',#5,#1549,$);
#1663 = PRODUCT_RELATED_PRODUCT_CATEGORY('part',$,(#1551));
ENDSEC;
END-ISO-10303-21;
