ISO-10303-21;
HEADER;
FILE_DESCRIPTION(('Open CASCADE Model'),'2;1');
FILE_NAME('Open CASCADE Shape Model','2026-10-01T17:02:38',('Author'),(
    'Open CASCADE'),'Open CASCADE STEP processor 7.8','Open CASCADE 7.8'
  ,'Unknown');
FILE_SCHEMA(('AUTOMOTIVE_DESIGN { 1 0 10303 214 1 1 1 1 }'));
ENDSEC;
DATA;
#1 = APPLICATION_PROTOCOL_DEFINITION('international standard',
  'automotive_design',2000,#2);
#2 = APPLICATION_CONTEXT(
  'core data for automotive mechanical design processes');
#3 = SHAPE_DEFINITION_REPRESENTATION(#4,#10);
#4 = PRODUCT_DEFINITION_SHAPE('','',#5);
#5 = PRODUCT_DEFINITION('design','',#6,#9);
#6 = PRODUCT_DEFINITION_FORMATION('','',#7);
#7 = PRODUCT('Open CASCADE STEP translator 7.8 31',
  'Open CASCADE STEP translator 7.8 31','',(#8));
#8 = PRODUCT_CONTEXT('',#2,'mechanical');
#9 = PRODUCT_DEFINITION_CONTEXT('part definition',#2,'design');
#10 = ADVANCED_BREP_SHAPE_REPRESENTATION('',(#11,#15),#782);
#11 = AXIS2_PLACEMENT_3D('',#12,#13,#14);
#12 = CARTESIAN_POINT('',(0.,0.,0.));
#13 = DIRECTION('',(0.,0.,1.));
#14 = DIRECTION('',(1.,0.,-0.));
#15 = MANIFOLD_SOLID_BREP('',#16);
#16 = CLOSED_SHELL('',(#17,#179,#233,#237,#377,#501,#695,#721,#778));
#17 = ADVANCED_FACE('',(#18),#33,.T.);
#18 = FACE_BOUND('',#19,.T.);
#19 = EDGE_LOOP('',(#20,#56,#107,#128,#151,#178));
#20 = ORIENTED_EDGE('',*,*,#21,.F.);
#21 = EDGE_CURVE('',#22,#24,#26,.T.);
#22 = VERTEX_POINT('',#23);
#23 = CARTESIAN_POINT('',(-59.62543421121,-106.9,63.58358934185));
#24 = VERTEX_POINT('',#25);
#25 = CARTESIAN_POINT('',(-58.5,-106.9,65.2));
#26 = SURFACE_CURVE('',#27,(#32,#44),.PCURVE_S1.);
#27 = CIRCLE('',#28,1.2);
#28 = AXIS2_PLACEMENT_3D('',#29,#30,#31);
#29 = CARTESIAN_POINT('',(-58.5,-106.9,64.));
#30 = DIRECTION('',(0.,1.,0.));
#31 = DIRECTION('',(0.,-0.,1.));
#32 = PCURVE('',#33,#38);
#33 = CYLINDRICAL_SURFACE('',#34,1.2);
#34 = AXIS2_PLACEMENT_3D('',#35,#36,#37);
#35 = CARTESIAN_POINT('',(-58.5,-109.4,64.));
#36 = DIRECTION('',(0.,1.,0.));
#37 = DIRECTION('',(0.,-0.,1.));
#38 = DEFINITIONAL_REPRESENTATION('',(#39),#43);
#39 = LINE('',#40,#41);
#40 = CARTESIAN_POINT('',(0.,2.5));
#41 = VECTOR('',#42,1.);
#42 = DIRECTION('',(1.,0.));
#43 = ( GEOMETRIC_REPRESENTATION_CONTEXT(2) 
PARAMETRIC_REPRESENTATION_CONTEXT() REPRESENTATION_CONTEXT('2D SPACE',''
  ) );
#44 = PCURVE('',#45,#50);
#45 = SPHERICAL_SURFACE('',#46,1.2);
#46 = AXIS2_PLACEMENT_3D('',#47,#48,#49);
#47 = CARTESIAN_POINT('',(-58.5,-106.9,64.));
#48 = DIRECTION('',(0.,0.,1.));
#49 = DIRECTION('',(1.,0.,-0.));
#50 = DEFINITIONAL_REPRESENTATION('',(#51),#55);
#51 = LINE('',#52,#53);
#52 = CARTESIAN_POINT('',(3.14159265359,-4.712388980385));
#53 = VECTOR('',#54,1.);
#54 = DIRECTION('',(-0.,1.));
#55 = ( GEOMETRIC_REPRESENTATION_CONTEXT(2) 
PARAMETRIC_REPRESENTATION_CONTEXT() REPRESENTATION_CONTEXT('2D SPACE',''
  ) );
#56 = ORIENTED_EDGE('',*,*,#57,.F.);
#57 = EDGE_CURVE('',#58,#22,#60,.T.);
#58 = VERTEX_POINT('',#59);
#59 = CARTESIAN_POINT('',(-57.37456578878,-106.9,64.41641065815));
#60 = SURFACE_CURVE('',#61,(#66,#84),.PCURVE_S1.);
#61 = ELLIPSE('',#62,1.50048226338,1.2);
#62 = AXIS2_PLACEMENT_3D('',#63,#64,#65);
#63 = CARTESIAN_POINT('',(-58.5,-106.9,64.));
#64 = DIRECTION('',(0.208324241965,0.799742875532,-0.563038491797));
#65 = DIRECTION('',(-0.27751788096,0.600342679672,0.750048326918));
#66 = PCURVE('',#33,#67);
#67 = DEFINITIONAL_REPRESENTATION('',(#68),#83);
#68 = B_SPLINE_CURVE_WITH_KNOTS('',7,(#69,#70,#71,#72,#73,#74,#75,#76,
    #77,#78,#79,#80,#81,#82),.UNSPECIFIED.,.F.,.F.,(8,6,8),(
    1.570795993759,3.141592330242,4.712388666725),.UNSPECIFIED.);
#69 = CARTESIAN_POINT('',(1.216416074635,2.5000003));
#70 = CARTESIAN_POINT('',(1.440815551276,2.29786045644));
#71 = CARTESIAN_POINT('',(1.665215027916,2.095721416063));
#72 = CARTESIAN_POINT('',(1.889614504558,1.910201983403));
#73 = CARTESIAN_POINT('',(2.114013981196,1.757952010079));
#74 = CARTESIAN_POINT('',(2.338413457838,1.652117601));
#75 = CARTESIAN_POINT('',(2.562812934478,1.599196522564));
#76 = CARTESIAN_POINT('',(3.011611887759,1.599196391841));
#77 = CARTESIAN_POINT('',(3.236011364399,1.652117339554));
#78 = CARTESIAN_POINT('',(3.46041084104,1.757951628658));
#79 = CARTESIAN_POINT('',(3.684810317681,1.910201503524));
#80 = CARTESIAN_POINT('',(3.909209794321,2.095720867741));
#81 = CARTESIAN_POINT('',(4.133609270961,2.297859873894));
#82 = CARTESIAN_POINT('',(4.358008747601,2.499999717454));
#83 = ( GEOMETRIC_REPRESENTATION_CONTEXT(2) 
PARAMETRIC_REPRESENTATION_CONTEXT() REPRESENTATION_CONTEXT('2D SPACE',''
  ) );
#84 = PCURVE('',#85,#90);
#85 = CYLINDRICAL_SURFACE('',#86,1.2);
#86 = AXIS2_PLACEMENT_3D('',#87,#88,#89);
#87 = CARTESIAN_POINT('',(-58.5,-106.9,64.));
#88 = DIRECTION('',(0.333211656624,0.279177333928,-0.90057204493));
#89 = DIRECTION('',(-0.937861842681,0.,-0.347008881792));
#90 = DEFINITIONAL_REPRESENTATION('',(#91),#106);
#91 = B_SPLINE_CURVE_WITH_KNOTS('',7,(#92,#93,#94,#95,#96,#97,#98,#99,
    #100,#101,#102,#103,#104,#105),.UNSPECIFIED.,.F.,.F.,(8,6,8),(
    1.570795993759,3.141592330242,4.712388666725),.UNSPECIFIED.);
#92 = CARTESIAN_POINT('',(3.141592320554,-2.999999964004E-07));
#93 = CARTESIAN_POINT('',(3.365991797194,0.20213954356));
#94 = CARTESIAN_POINT('',(3.590391273835,0.404278583937));
#95 = CARTESIAN_POINT('',(3.814790750475,0.589798016596));
#96 = CARTESIAN_POINT('',(4.039190227116,0.742047989922));
#97 = CARTESIAN_POINT('',(4.263589703756,0.847882399));
#98 = CARTESIAN_POINT('',(4.487989180396,0.900803477436));
#99 = CARTESIAN_POINT('',(4.936788133677,0.900803608159));
#100 = CARTESIAN_POINT('',(5.161187610317,0.847882660446));
#101 = CARTESIAN_POINT('',(5.385587086958,0.742048371343));
#102 = CARTESIAN_POINT('',(5.609986563597,0.589798496476));
#103 = CARTESIAN_POINT('',(5.834386040239,0.404279132259));
#104 = CARTESIAN_POINT('',(6.058785516879,0.202140126106));
#105 = CARTESIAN_POINT('',(6.28318499352,2.825460114764E-07));
#106 = ( GEOMETRIC_REPRESENTATION_CONTEXT(2) 
PARAMETRIC_REPRESENTATION_CONTEXT() REPRESENTATION_CONTEXT('2D SPACE',''
  ) );
#107 = ORIENTED_EDGE('',*,*,#108,.F.);
#108 = EDGE_CURVE('',#24,#58,#109,.T.);
#109 = SURFACE_CURVE('',#110,(#115,#122),.PCURVE_S1.);
#110 = CIRCLE('',#111,1.2);
#111 = AXIS2_PLACEMENT_3D('',#112,#113,#114);
#112 = CARTESIAN_POINT('',(-58.5,-106.9,64.));
#113 = DIRECTION('',(0.,1.,0.));
#114 = DIRECTION('',(0.,-0.,1.));
#115 = PCURVE('',#33,#116);
#116 = DEFINITIONAL_REPRESENTATION('',(#117),#121);
#117 = LINE('',#118,#119);
#118 = CARTESIAN_POINT('',(0.,2.5));
#119 = VECTOR('',#120,1.);
#120 = DIRECTION('',(1.,0.));
#121 = ( GEOMETRIC_REPRESENTATION_CONTEXT(2) 
PARAMETRIC_REPRESENTATION_CONTEXT() REPRESENTATION_CONTEXT('2D SPACE',''
  ) );
#122 = PCURVE('',#45,#123);
#123 = DEFINITIONAL_REPRESENTATION('',(#124),#127);
#124 = B_SPLINE_CURVE_WITH_KNOTS('',1,(#125,#126),.UNSPECIFIED.,.F.,.F.,
  (2,2),(0.,1.216416407671),.PIECEWISE_BEZIER_KNOTS.);
#125 = CARTESIAN_POINT('',(0.,1.570796326795));
#126 = CARTESIAN_POINT('',(0.,0.354379919123));
#127 = ( GEOMETRIC_REPRESENTATION_CONTEXT(2) 
PARAMETRIC_REPRESENTATION_CONTEXT() REPRESENTATION_CONTEXT('2D SPACE',''
  ) );
#128 = ORIENTED_EDGE('',*,*,#129,.F.);
#129 = EDGE_CURVE('',#130,#24,#132,.T.);
#130 = VERTEX_POINT('',#131);
#131 = CARTESIAN_POINT('',(-58.5,-109.4,65.2));
#132 = SEAM_CURVE('',#133,(#137,#144),.PCURVE_S1.);
#133 = LINE('',#134,#135);
#134 = CARTESIAN_POINT('',(-58.5,-109.4,65.2));
#135 = VECTOR('',#136,1.);
#136 = DIRECTION('',(0.,1.,0.));
#137 = PCURVE('',#33,#138);
#138 = DEFINITIONAL_REPRESENTATION('',(#139),#143);
#139 = LINE('',#140,#141);
#140 = CARTESIAN_POINT('',(6.28318530718,-0.));
#141 = VECTOR('',#142,1.);
#142 = DIRECTION('',(0.,1.));
#143 = ( GEOMETRIC_REPRESENTATION_CONTEXT(2) 
PARAMETRIC_REPRESENTATION_CONTEXT() REPRESENTATION_CONTEXT('2D SPACE',''
  ) );
#144 = PCURVE('',#33,#145);
#145 = DEFINITIONAL_REPRESENTATION('',(#146),#150);
#146 = LINE('',#147,#148);
#147 = CARTESIAN_POINT('',(0.,-0.));
#148 = VECTOR('',#149,1.);
#149 = DIRECTION('',(0.,1.));
#150 = ( GEOMETRIC_REPRESENTATION_CONTEXT(2) 
PARAMETRIC_REPRESENTATION_CONTEXT() REPRESENTATION_CONTEXT('2D SPACE',''
  ) );
#151 = ORIENTED_EDGE('',*,*,#152,.T.);
#152 = EDGE_CURVE('',#130,#130,#153,.T.);
#153 = SURFACE_CURVE('',#154,(#159,#166),.PCURVE_S1.);
#154 = CIRCLE('',#155,1.2);
#155 = AXIS2_PLACEMENT_3D('',#156,#157,#158);
#156 = CARTESIAN_POINT('',(-58.5,-109.4,64.));
#157 = DIRECTION('',(0.,1.,0.));
#158 = DIRECTION('',(0.,-0.,1.));
#159 = PCURVE('',#33,#160);
#160 = DEFINITIONAL_REPRESENTATION('',(#161),#165);
#161 = LINE('',#162,#163);
#162 = CARTESIAN_POINT('',(0.,0.));
#163 = VECTOR('',#164,1.);
#164 = DIRECTION('',(1.,0.));
#165 = ( GEOMETRIC_REPRESENTATION_CONTEXT(2) 
PARAMETRIC_REPRESENTATION_CONTEXT() REPRESENTATION_CONTEXT('2D SPACE',''
  ) );
#166 = PCURVE('',#167,#172);
#167 = PLANE('',#168);
#168 = AXIS2_PLACEMENT_3D('',#169,#170,#171);
#169 = CARTESIAN_POINT('',(-58.5,-109.4,64.));
#170 = DIRECTION('',(0.,1.,0.));
#171 = DIRECTION('',(0.,-0.,1.));
#172 = DEFINITIONAL_REPRESENTATION('',(#173),#177);
#173 = CIRCLE('',#174,1.2);
#174 = AXIS2_PLACEMENT_2D('',#175,#176);
#175 = CARTESIAN_POINT('',(0.,0.));
#176 = DIRECTION('',(1.,0.));
#177 = ( GEOMETRIC_REPRESENTATION_CONTEXT(2) 
PARAMETRIC_REPRESENTATION_CONTEXT() REPRESENTATION_CONTEXT('2D SPACE',''
  ) );
#178 = ORIENTED_EDGE('',*,*,#129,.T.);
#179 = ADVANCED_FACE('',(#180),#45,.T.);
#180 = FACE_BOUND('',#181,.T.);
#181 = EDGE_LOOP('',(#182,#183,#184));
#182 = ORIENTED_EDGE('',*,*,#21,.T.);
#183 = ORIENTED_EDGE('',*,*,#108,.T.);
#184 = ORIENTED_EDGE('',*,*,#185,.F.);
#185 = EDGE_CURVE('',#22,#58,#186,.T.);
#186 = SURFACE_CURVE('',#187,(#192,#226),.PCURVE_S1.);
#187 = CIRCLE('',#188,1.2);
#188 = AXIS2_PLACEMENT_3D('',#189,#190,#191);
#189 = CARTESIAN_POINT('',(-58.5,-106.9,64.));
#190 = DIRECTION('',(0.333211656624,0.279177333928,-0.90057204493));
#191 = DIRECTION('',(-0.937861842681,0.,-0.347008881792));
#192 = PCURVE('',#45,#193);
#193 = DEFINITIONAL_REPRESENTATION('',(#194),#225);
#194 = B_SPLINE_CURVE_WITH_KNOTS('',8,(#195,#196,#197,#198,#199,#200,
    #201,#202,#203,#204,#205,#206,#207,#208,#209,#210,#211,#212,#213,
    #214,#215,#216,#217,#218,#219,#220,#221,#222,#223,#224),
  .UNSPECIFIED.,.F.,.F.,(9,7,7,7,9),(0.,0.785398163397,1.963495408494,
    2.552544031042,3.14159265359),.UNSPECIFIED.);
#195 = CARTESIAN_POINT('',(3.14159265359,-0.354379919123));
#196 = CARTESIAN_POINT('',(3.041075398008,-0.326971748457));
#197 = CARTESIAN_POINT('',(2.942887365441,-0.295805261597));
#198 = CARTESIAN_POINT('',(2.84708052448,-0.261405699116));
#199 = CARTESIAN_POINT('',(2.753481026077,-0.224336606682));
#200 = CARTESIAN_POINT('',(2.661763333922,-0.185159097029));
#201 = CARTESIAN_POINT('',(2.571509833187,-0.144411540691));
#202 = CARTESIAN_POINT('',(2.482255917614,-0.102609685507));
#203 = CARTESIAN_POINT('',(2.260417511005,3.246516065778E-03));
#204 = CARTESIAN_POINT('',(2.128479922297,6.797737230389E-02));
#205 = CARTESIAN_POINT('',(1.996084157383,0.132199644239));
#206 = CARTESIAN_POINT('',(1.86148600818,0.194218987195));
#207 = CARTESIAN_POINT('',(1.723133019284,0.252321507813));
#208 = CARTESIAN_POINT('',(1.579546384402,0.304603845356));
#209 = CARTESIAN_POINT('',(1.430254378448,0.349060080534));
#210 = CARTESIAN_POINT('',(1.198833715691,0.401569560034));
#211 = CARTESIAN_POINT('',(1.120446474142,0.416709962495));
#212 = CARTESIAN_POINT('',(1.040900427909,0.429285391941));
#213 = CARTESIAN_POINT('',(0.960358652149,0.439113707773));
#214 = CARTESIAN_POINT('',(0.879060540722,0.446051991505));
#215 = CARTESIAN_POINT('',(0.797306497538,0.450009672887));
#216 = CARTESIAN_POINT('',(0.715425859756,0.450955635075));
#217 = CARTESIAN_POINT('',(0.552030245928,0.446882962649));
#218 = CARTESIAN_POINT('',(0.470515670044,0.44186435919));
#219 = CARTESIAN_POINT('',(0.389495196653,0.433890912274));
#220 = CARTESIAN_POINT('',(0.309266996044,0.423051202529));
#221 = CARTESIAN_POINT('',(0.230075061907,0.409486234773));
#222 = CARTESIAN_POINT('',(0.152086551541,0.393378102159));
#223 = CARTESIAN_POINT('',(7.538794168646E-02,0.374936047123));
#224 = CARTESIAN_POINT('',(0.,0.354379919123));
#225 = ( GEOMETRIC_REPRESENTATION_CONTEXT(2) 
PARAMETRIC_REPRESENTATION_CONTEXT() REPRESENTATION_CONTEXT('2D SPACE',''
  ) );
#226 = PCURVE('',#85,#227);
#227 = DEFINITIONAL_REPRESENTATION('',(#228),#232);
#228 = LINE('',#229,#230);
#229 = CARTESIAN_POINT('',(0.,0.));
#230 = VECTOR('',#231,1.);
#231 = DIRECTION('',(1.,0.));
#232 = ( GEOMETRIC_REPRESENTATION_CONTEXT(2) 
PARAMETRIC_REPRESENTATION_CONTEXT() REPRESENTATION_CONTEXT('2D SPACE',''
  ) );
#233 = ADVANCED_FACE('',(#234),#167,.F.);
#234 = FACE_BOUND('',#235,.T.);
#235 = EDGE_LOOP('',(#236));
#236 = ORIENTED_EDGE('',*,*,#152,.F.);
#237 = ADVANCED_FACE('',(#238),#85,.T.);
#238 = FACE_BOUND('',#239,.T.);
#239 = EDGE_LOOP('',(#240,#263,#298,#339,#374,#375,#376));
#240 = ORIENTED_EDGE('',*,*,#241,.T.);
#241 = EDGE_CURVE('',#22,#242,#244,.T.);
#242 = VERTEX_POINT('',#243);
#243 = CARTESIAN_POINT('',(-55.92543421121,-103.8,53.58358934185));
#244 = SEAM_CURVE('',#245,(#249,#256),.PCURVE_S1.);
#245 = LINE('',#246,#247);
#246 = CARTESIAN_POINT('',(-59.62543421121,-106.9,63.58358934185));
#247 = VECTOR('',#248,1.);
#248 = DIRECTION('',(0.333211656624,0.279177333928,-0.90057204493));
#249 = PCURVE('',#85,#250);
#250 = DEFINITIONAL_REPRESENTATION('',(#251),#255);
#251 = LINE('',#252,#253);
#252 = CARTESIAN_POINT('',(6.28318530718,-0.));
#253 = VECTOR('',#254,1.);
#254 = DIRECTION('',(0.,1.));
#255 = ( GEOMETRIC_REPRESENTATION_CONTEXT(2) 
PARAMETRIC_REPRESENTATION_CONTEXT() REPRESENTATION_CONTEXT('2D SPACE',''
  ) );
#256 = PCURVE('',#85,#257);
#257 = DEFINITIONAL_REPRESENTATION('',(#258),#262);
#258 = LINE('',#259,#260);
#259 = CARTESIAN_POINT('',(0.,-0.));
#260 = VECTOR('',#261,1.);
#261 = DIRECTION('',(0.,1.));
#262 = ( GEOMETRIC_REPRESENTATION_CONTEXT(2) 
PARAMETRIC_REPRESENTATION_CONTEXT() REPRESENTATION_CONTEXT('2D SPACE',''
  ) );
#263 = ORIENTED_EDGE('',*,*,#264,.F.);
#264 = EDGE_CURVE('',#265,#242,#267,.T.);
#265 = VERTEX_POINT('',#266);
#266 = CARTESIAN_POINT('',(-55.23544411037,-104.8123350036,
    53.52506182804));
#267 = SURFACE_CURVE('',#268,(#273,#280),.PCURVE_S1.);
#268 = CIRCLE('',#269,1.2);
#269 = AXIS2_PLACEMENT_3D('',#270,#271,#272);
#270 = CARTESIAN_POINT('',(-54.8,-103.8,54.));
#271 = DIRECTION('',(0.333211656624,0.279177333928,-0.90057204493));
#272 = DIRECTION('',(-0.937861842681,0.,-0.347008881792));
#273 = PCURVE('',#85,#274);
#274 = DEFINITIONAL_REPRESENTATION('',(#275),#279);
#275 = LINE('',#276,#277);
#276 = CARTESIAN_POINT('',(0.,11.104053313993));
#277 = VECTOR('',#278,1.);
#278 = DIRECTION('',(1.,0.));
#279 = ( GEOMETRIC_REPRESENTATION_CONTEXT(2) 
PARAMETRIC_REPRESENTATION_CONTEXT() REPRESENTATION_CONTEXT('2D SPACE',''
  ) );
#280 = PCURVE('',#281,#286);
#281 = SPHERICAL_SURFACE('',#282,1.2);
#282 = AXIS2_PLACEMENT_3D('',#283,#284,#285);
#283 = CARTESIAN_POINT('',(-54.8,-103.8,54.));
#284 = DIRECTION('',(0.,0.,1.));
#285 = DIRECTION('',(1.,0.,-0.));
#286 = DEFINITIONAL_REPRESENTATION('',(#287),#297);
#287 = B_SPLINE_CURVE_WITH_KNOTS('',8,(#288,#289,#290,#291,#292,#293,
    #294,#295,#296),.UNSPECIFIED.,.F.,.F.,(9,9),(5.210380330396,
    6.28318530718),.PIECEWISE_BEZIER_KNOTS.);
#288 = CARTESIAN_POINT('',(4.306174165133,-0.406919020338));
#289 = CARTESIAN_POINT('',(4.162975844619,-0.433173665632));
#290 = CARTESIAN_POINT('',(4.016072380834,-0.450910236253));
#291 = CARTESIAN_POINT('',(3.866411976596,-0.459053188348));
#292 = CARTESIAN_POINT('',(3.71565829423,-0.456880633771));
#293 = CARTESIAN_POINT('',(3.566406363227,-0.444321653171));
#294 = CARTESIAN_POINT('',(3.420541603082,-0.422244495181));
#295 = CARTESIAN_POINT('',(3.278892964523,-0.391817773279));
#296 = CARTESIAN_POINT('',(3.14159265359,-0.354379919123));
#297 = ( GEOMETRIC_REPRESENTATION_CONTEXT(2) 
PARAMETRIC_REPRESENTATION_CONTEXT() REPRESENTATION_CONTEXT('2D SPACE',''
  ) );
#298 = ORIENTED_EDGE('',*,*,#299,.F.);
#299 = EDGE_CURVE('',#300,#265,#302,.T.);
#300 = VERTEX_POINT('',#301);
#301 = CARTESIAN_POINT('',(-54.36455588963,-102.7876649963,
    54.47493817196));
#302 = SURFACE_CURVE('',#303,(#308,#321),.PCURVE_S1.);
#303 = ELLIPSE('',#304,1.420752567273,1.2);
#304 = AXIS2_PLACEMENT_3D('',#305,#306,#307);
#305 = CARTESIAN_POINT('',(-54.8,-103.8,54.));
#306 = DIRECTION('',(0.747324598836,-9.754771560932E-03,-0.664387528786)
  );
#307 = DIRECTION('',(-0.556624864989,0.536863846038,-0.633992090245));
#308 = PCURVE('',#85,#309);
#309 = DEFINITIONAL_REPRESENTATION('',(#310),#320);
#310 = B_SPLINE_CURVE_WITH_KNOTS('',8,(#311,#312,#313,#314,#315,#316,
    #317,#318,#319),.UNSPECIFIED.,.F.,.F.,(9,9),(1.570795932375,
    4.712389374801),.PIECEWISE_BEZIER_KNOTS.);
#311 = CARTESIAN_POINT('',(2.068787282386,11.104053613996));
#312 = CARTESIAN_POINT('',(2.461486462689,10.805360035349));
#313 = CARTESIAN_POINT('',(2.854185642991,10.506664022178));
#314 = CARTESIAN_POINT('',(3.246884823297,10.278183722152));
#315 = CARTESIAN_POINT('',(3.639584003606,10.18994510745));
#316 = CARTESIAN_POINT('',(4.032283183906,10.278183722141));
#317 = CARTESIAN_POINT('',(4.424982364204,10.506664022176));
#318 = CARTESIAN_POINT('',(4.81768154451,10.805360035346));
#319 = CARTESIAN_POINT('',(5.210380724813,11.104053613993));
#320 = ( GEOMETRIC_REPRESENTATION_CONTEXT(2) 
PARAMETRIC_REPRESENTATION_CONTEXT() REPRESENTATION_CONTEXT('2D SPACE',''
  ) );
#321 = PCURVE('',#322,#327);
#322 = CYLINDRICAL_SURFACE('',#323,1.2);
#323 = AXIS2_PLACEMENT_3D('',#324,#325,#326);
#324 = CARTESIAN_POINT('',(-54.8,-103.8,54.));
#325 = DIRECTION('',(0.929203121657,-0.295655538709,-0.221741654032));
#326 = DIRECTION('',(0.303203657277,0.952925780013,6.938893903907E-18));
#327 = DEFINITIONAL_REPRESENTATION('',(#328),#338);
#328 = B_SPLINE_CURVE_WITH_KNOTS('',8,(#329,#330,#331,#332,#333,#334,
    #335,#336,#337),.UNSPECIFIED.,.F.,.F.,(9,9),(1.570795932375,
    4.712389374801),.PIECEWISE_BEZIER_KNOTS.);
#329 = CARTESIAN_POINT('',(0.417947852769,-3.000027533062E-07));
#330 = CARTESIAN_POINT('',(0.810647033072,0.298693278644));
#331 = CARTESIAN_POINT('',(1.203346213374,0.597389291806));
#332 = CARTESIAN_POINT('',(1.596045393678,0.825869591859));
#333 = CARTESIAN_POINT('',(1.988744573984,0.914108206482));
#334 = CARTESIAN_POINT('',(2.381443754279,0.825869591858));
#335 = CARTESIAN_POINT('',(2.774142934587,0.597389291808));
#336 = CARTESIAN_POINT('',(3.166842114892,0.298693278647));
#337 = CARTESIAN_POINT('',(3.559541295195,-2.99999989295E-07));
#338 = ( GEOMETRIC_REPRESENTATION_CONTEXT(2) 
PARAMETRIC_REPRESENTATION_CONTEXT() REPRESENTATION_CONTEXT('2D SPACE',''
  ) );
#339 = ORIENTED_EDGE('',*,*,#340,.F.);
#340 = EDGE_CURVE('',#242,#300,#341,.T.);
#341 = SURFACE_CURVE('',#342,(#347,#354),.PCURVE_S1.);
#342 = CIRCLE('',#343,1.2);
#343 = AXIS2_PLACEMENT_3D('',#344,#345,#346);
#344 = CARTESIAN_POINT('',(-54.8,-103.8,54.));
#345 = DIRECTION('',(0.333211656624,0.279177333928,-0.90057204493));
#346 = DIRECTION('',(-0.937861842681,0.,-0.347008881792));
#347 = PCURVE('',#85,#348);
#348 = DEFINITIONAL_REPRESENTATION('',(#349),#353);
#349 = LINE('',#350,#351);
#350 = CARTESIAN_POINT('',(0.,11.104053313993));
#351 = VECTOR('',#352,1.);
#352 = DIRECTION('',(1.,0.));
#353 = ( GEOMETRIC_REPRESENTATION_CONTEXT(2) 
PARAMETRIC_REPRESENTATION_CONTEXT() REPRESENTATION_CONTEXT('2D SPACE',''
  ) );
#354 = PCURVE('',#281,#355);
#355 = DEFINITIONAL_REPRESENTATION('',(#356),#373);
#356 = B_SPLINE_CURVE_WITH_KNOTS('',8,(#357,#358,#359,#360,#361,#362,
    #363,#364,#365,#366,#367,#368,#369,#370,#371,#372),.UNSPECIFIED.,.F.
  ,.F.,(9,7,9),(0.,1.034393838403,2.068787676806),.UNSPECIFIED.);
#357 = CARTESIAN_POINT('',(3.14159265359,-0.354379919123));
#358 = CARTESIAN_POINT('',(3.009208297893,-0.318282504869));
#359 = CARTESIAN_POINT('',(2.88086406263,-0.275666705141));
#360 = CARTESIAN_POINT('',(2.756679121486,-0.227728037407));
#361 = CARTESIAN_POINT('',(2.636092157983,-0.175793309332));
#362 = CARTESIAN_POINT('',(2.518155925893,-0.121117043081));
#363 = CARTESIAN_POINT('',(2.401758760402,-6.486779692322E-02));
#364 = CARTESIAN_POINT('',(2.285763527827,-8.194540993818E-03));
#365 = CARTESIAN_POINT('',(2.052345475606,0.103668052921));
#366 = CARTESIAN_POINT('',(1.934923556275,0.158857252008));
#367 = CARTESIAN_POINT('',(1.815680429343,0.212139178067));
#368 = CARTESIAN_POINT('',(1.693547300923,0.262325428905));
#369 = CARTESIAN_POINT('',(1.567629322761,0.308183701904));
#370 = CARTESIAN_POINT('',(1.437280828516,0.34837112357));
#371 = CARTESIAN_POINT('',(1.302652702129,0.381604406862));
#372 = CARTESIAN_POINT('',(1.164581511544,0.406919020338));
#373 = ( GEOMETRIC_REPRESENTATION_CONTEXT(2) 
PARAMETRIC_REPRESENTATION_CONTEXT() REPRESENTATION_CONTEXT('2D SPACE',''
  ) );
#374 = ORIENTED_EDGE('',*,*,#241,.F.);
#375 = ORIENTED_EDGE('',*,*,#185,.T.);
#376 = ORIENTED_EDGE('',*,*,#57,.T.);
#377 = ADVANCED_FACE('',(#378),#281,.T.);
#378 = FACE_BOUND('',#379,.T.);
#379 = EDGE_LOOP('',(#380,#381,#409,#500));
#380 = ORIENTED_EDGE('',*,*,#340,.T.);
#381 = ORIENTED_EDGE('',*,*,#382,.F.);
#382 = EDGE_CURVE('',#383,#300,#385,.T.);
#383 = VERTEX_POINT('',#384);
#384 = CARTESIAN_POINT('',(-54.43615561126,-102.6564890639,54.));
#385 = SURFACE_CURVE('',#386,(#391,#402),.PCURVE_S1.);
#386 = CIRCLE('',#387,1.2);
#387 = AXIS2_PLACEMENT_3D('',#388,#389,#390);
#388 = CARTESIAN_POINT('',(-54.8,-103.8,54.));
#389 = DIRECTION('',(0.929203121657,-0.295655538709,-0.221741654032));
#390 = DIRECTION('',(0.303203657277,0.952925780013,6.938893903907E-18));
#391 = PCURVE('',#281,#392);
#392 = DEFINITIONAL_REPRESENTATION('',(#393),#401);
#393 = B_SPLINE_CURVE_WITH_KNOTS('',6,(#394,#395,#396,#397,#398,#399,
    #400),.UNSPECIFIED.,.F.,.F.,(7,7),(0.,0.417948247189),
  .PIECEWISE_BEZIER_KNOTS.);
#394 = CARTESIAN_POINT('',(1.262743545771,0.));
#395 = CARTESIAN_POINT('',(1.247297456499,6.792393561748E-02));
#396 = CARTESIAN_POINT('',(1.231851171802,0.13584784748));
#397 = CARTESIAN_POINT('',(1.216149534981,0.203742734668));
#398 = CARTESIAN_POINT('',(1.199931218084,0.271578847939));
#399 = CARTESIAN_POINT('',(1.182896523677,0.339322072247));
#400 = CARTESIAN_POINT('',(1.164581511544,0.406919020338));
#401 = ( GEOMETRIC_REPRESENTATION_CONTEXT(2) 
PARAMETRIC_REPRESENTATION_CONTEXT() REPRESENTATION_CONTEXT('2D SPACE',''
  ) );
#402 = PCURVE('',#322,#403);
#403 = DEFINITIONAL_REPRESENTATION('',(#404),#408);
#404 = LINE('',#405,#406);
#405 = CARTESIAN_POINT('',(0.,0.));
#406 = VECTOR('',#407,1.);
#407 = DIRECTION('',(1.,0.));
#408 = ( GEOMETRIC_REPRESENTATION_CONTEXT(2) 
PARAMETRIC_REPRESENTATION_CONTEXT() REPRESENTATION_CONTEXT('2D SPACE',''
  ) );
#409 = ORIENTED_EDGE('',*,*,#410,.F.);
#410 = EDGE_CURVE('',#265,#383,#411,.T.);
#411 = SURFACE_CURVE('',#412,(#417,#493),.PCURVE_S1.);
#412 = CIRCLE('',#413,1.2);
#413 = AXIS2_PLACEMENT_3D('',#414,#415,#416);
#414 = CARTESIAN_POINT('',(-54.8,-103.8,54.));
#415 = DIRECTION('',(0.929203121657,-0.295655538709,-0.221741654032));
#416 = DIRECTION('',(0.303203657277,0.952925780013,6.938893903907E-18));
#417 = PCURVE('',#281,#418);
#418 = DEFINITIONAL_REPRESENTATION('',(#419),#492);
#419 = B_SPLINE_CURVE_WITH_KNOTS('',8,(#420,#421,#422,#423,#424,#425,
    #426,#427,#428,#429,#430,#431,#432,#433,#434,#435,#436,#437,#438,
    #439,#440,#441,#442,#443,#444,#445,#446,#447,#448,#449,#450,#451,
    #452,#453,#454,#455,#456,#457,#458,#459,#460,#461,#462,#463,#464,
    #465,#466,#467,#468,#469,#470,#471,#472,#473,#474,#475,#476,#477,
    #478,#479,#480,#481,#482,#483,#484,#485,#486,#487,#488,#489,#490,
    #491),.UNSPECIFIED.,.F.,.F.,(9,7,7,7,7,7,7,7,7,7,9),(3.559540900779,
    3.899996451579,4.197895058529,4.45855633961,4.572595650083,
    4.679507503652,4.779737366372,4.967668358973,5.296547596025,
    5.789866451602,6.28318530718),.UNSPECIFIED.);
#420 = CARTESIAN_POINT('',(4.306174165133,-0.406919020338));
#421 = CARTESIAN_POINT('',(4.294984775803,-0.448216758184));
#422 = CARTESIAN_POINT('',(4.283339970809,-0.489462459906));
#423 = CARTESIAN_POINT('',(4.271150851622,-0.530645911977));
#424 = CARTESIAN_POINT('',(4.258309602493,-0.571754634468));
#425 = CARTESIAN_POINT('',(4.244687952238,-0.612773760334));
#426 = CARTESIAN_POINT('',(4.230126589805,-0.653684750866));
#427 = CARTESIAN_POINT('',(4.214415533621,-0.694462947273));
#428 = CARTESIAN_POINT('',(4.182259135681,-0.770608593192));
#429 = CARTESIAN_POINT('',(4.166150080544,-0.806015052637));
#430 = CARTESIAN_POINT('',(4.148747256203,-0.841270859292));
#431 = CARTESIAN_POINT('',(4.129801070396,-0.876345734145));
#432 = CARTESIAN_POINT('',(4.109001876137,-0.911202291555));
#433 = CARTESIAN_POINT('',(4.085944585497,-0.945791303187));
#434 = CARTESIAN_POINT('',(4.060059392725,-0.980041530974));
#435 = CARTESIAN_POINT('',(4.004651668941,-1.043421402474));
#436 = CARTESIAN_POINT('',(3.975987890254,-1.072655838564));
#437 = CARTESIAN_POINT('',(3.943950011639,-1.101473690955));
#438 = CARTESIAN_POINT('',(3.907820770855,-1.129778406218));
#439 = CARTESIAN_POINT('',(3.866607549082,-1.157435862939));
#440 = CARTESIAN_POINT('',(3.819071075007,-1.184262244778));
#441 = CARTESIAN_POINT('',(3.76330786175,-1.209975714731));
#442 = CARTESIAN_POINT('',(3.6681365415,-1.244693492914));
#443 = CARTESIAN_POINT('',(3.637172747206,-1.254960850082));
#444 = CARTESIAN_POINT('',(3.604024328659,-1.264891509644));
#445 = CARTESIAN_POINT('',(3.568496914011,-1.274442164049));
#446 = CARTESIAN_POINT('',(3.53039003753,-1.283562039237));
#447 = CARTESIAN_POINT('',(3.489515438519,-1.292192313441));
#448 = CARTESIAN_POINT('',(3.445731395574,-1.300266888216));
#449 = CARTESIAN_POINT('',(3.355175940489,-1.314696658704));
#450 = CARTESIAN_POINT('',(3.308762304208,-1.321127827984));
#451 = CARTESIAN_POINT('',(3.259715638203,-1.326949415955));
#452 = CARTESIAN_POINT('',(3.208074043335,-1.332099677519));
#453 = CARTESIAN_POINT('',(3.153985754876,-1.336515269226));
#454 = CARTESIAN_POINT('',(3.097753116005,-1.340137383955));
#455 = CARTESIAN_POINT('',(3.039841135881,-1.342919197239));
#456 = CARTESIAN_POINT('',(2.925461970182,-1.346623984274));
#457 = CARTESIAN_POINT('',(2.869130860819,-1.347652246092));
#458 = CARTESIAN_POINT('',(2.812272278926,-1.347891954468));
#459 = CARTESIAN_POINT('',(2.755420014603,-1.347331842926));
#460 = CARTESIAN_POINT('',(2.699134940462,-1.345977937355));
#461 = CARTESIAN_POINT('',(2.643927843328,-1.343852780251));
#462 = CARTESIAN_POINT('',(2.590199980632,-1.340991420566));
#463 = CARTESIAN_POINT('',(2.440839261532,-1.330769853811));
#464 = CARTESIAN_POINT('',(2.349673956274,-1.321664016428));
#465 = CARTESIAN_POINT('',(2.266709333827,-1.310396529532));
#466 = CARTESIAN_POINT('',(2.192551347089,-1.297342179301));
#467 = CARTESIAN_POINT('',(2.126363517347,-1.282843602475));
#468 = CARTESIAN_POINT('',(2.067321271281,-1.267161713085));
#469 = CARTESIAN_POINT('',(2.014488991017,-1.250509729675));
#470 = CARTESIAN_POINT('',(1.884024382588,-1.202505078658));
#471 = CARTESIAN_POINT('',(1.817510184901,-1.169493724189));
#472 = CARTESIAN_POINT('',(1.763056654202,-1.134912899516));
#473 = CARTESIAN_POINT('',(1.717097621433,-1.099232320924));
#474 = CARTESIAN_POINT('',(1.677775608614,-1.062732306498));
#475 = CARTESIAN_POINT('',(1.643504363449,-1.025609599449));
#476 = CARTESIAN_POINT('',(1.613292565843,-0.987996232203));
#477 = CARTESIAN_POINT('',(1.54594075155,-0.892981806414));
#478 = CARTESIAN_POINT('',(1.51289286374,-0.835090134877));
#479 = CARTESIAN_POINT('',(1.484595178908,-0.776644529421));
#480 = CARTESIAN_POINT('',(1.459790609807,-0.717791454369));
#481 = CARTESIAN_POINT('',(1.437584977155,-0.658639094417));
#482 = CARTESIAN_POINT('',(1.417398504581,-0.599253894004));
#483 = CARTESIAN_POINT('',(1.398784190725,-0.539688412625));
#484 = CARTESIAN_POINT('',(1.364025422604,-0.420274599931));
#485 = CARTESIAN_POINT('',(1.347880286417,-0.360426368441));
#486 = CARTESIAN_POINT('',(1.332632982053,-0.300475701278));
#487 = CARTESIAN_POINT('',(1.3180407198,-0.240450448962));
#488 = CARTESIAN_POINT('',(1.303914543131,-0.180372165186));
#489 = CARTESIAN_POINT('',(1.290091276363,-0.120259427722));
#490 = CARTESIAN_POINT('',(1.276417213146,-6.012973809049E-02));
#491 = CARTESIAN_POINT('',(1.262743545771,0.));
#492 = ( GEOMETRIC_REPRESENTATION_CONTEXT(2) 
PARAMETRIC_REPRESENTATION_CONTEXT() REPRESENTATION_CONTEXT('2D SPACE',''
  ) );
#493 = PCURVE('',#322,#494);
#494 = DEFINITIONAL_REPRESENTATION('',(#495),#499);
#495 = LINE('',#496,#497);
#496 = CARTESIAN_POINT('',(0.,0.));
#497 = VECTOR('',#498,1.);
#498 = DIRECTION('',(1.,0.));
#499 = ( GEOMETRIC_REPRESENTATION_CONTEXT(2) 
PARAMETRIC_REPRESENTATION_CONTEXT() REPRESENTATION_CONTEXT('2D SPACE',''
  ) );
#500 = ORIENTED_EDGE('',*,*,#264,.T.);
#501 = ADVANCED_FACE('',(#502),#322,.T.);
#502 = FACE_BOUND('',#503,.T.);
#503 = EDGE_LOOP('',(#504,#597,#618,#619,#620,#621,#622,#663));
#504 = ORIENTED_EDGE('',*,*,#505,.T.);
#505 = EDGE_CURVE('',#506,#508,#510,.T.);
#506 = VERTEX_POINT('',#507);
#507 = CARTESIAN_POINT('',(-46.36384438873,-107.743510936,51.9));
#508 = VERTEX_POINT('',#509);
#509 = CARTESIAN_POINT('',(-45.63615561126,-105.4564890639,51.9));
#510 = SURFACE_CURVE('',#511,(#516,#523),.PCURVE_S1.);
#511 = CIRCLE('',#512,1.2);
#512 = AXIS2_PLACEMENT_3D('',#513,#514,#515);
#513 = CARTESIAN_POINT('',(-46.,-106.6,51.9));
#514 = DIRECTION('',(-0.929203121657,0.295655538709,0.221741654032));
#515 = DIRECTION('',(-0.303203657277,-0.952925780013,1.774275171229E-14)
  );
#516 = PCURVE('',#322,#517);
#517 = DEFINITIONAL_REPRESENTATION('',(#518),#522);
#518 = LINE('',#519,#520);
#519 = CARTESIAN_POINT('',(3.14159265359,9.470480452437));
#520 = VECTOR('',#521,1.);
#521 = DIRECTION('',(-1.,-0.));
#522 = ( GEOMETRIC_REPRESENTATION_CONTEXT(2) 
PARAMETRIC_REPRESENTATION_CONTEXT() REPRESENTATION_CONTEXT('2D SPACE',''
  ) );
#523 = PCURVE('',#524,#529);
#524 = SPHERICAL_SURFACE('',#525,1.2);
#525 = AXIS2_PLACEMENT_3D('',#526,#527,#528);
#526 = CARTESIAN_POINT('',(-46.,-106.6,51.9));
#527 = DIRECTION('',(0.,0.,1.));
#528 = DIRECTION('',(1.,0.,-0.));
#529 = DEFINITIONAL_REPRESENTATION('',(#530),#596);
#530 = B_SPLINE_CURVE_WITH_KNOTS('',8,(#531,#532,#533,#534,#535,#536,
    #537,#538,#539,#540,#541,#542,#543,#544,#545,#546,#547,#548,#549,
    #550,#551,#552,#553,#554,#555,#556,#557,#558,#559,#560,#561,#562,
    #563,#564,#565,#566,#567,#568,#569,#570,#571,#572,#573,#574,#575,
    #576,#577,#578,#579,#580,#581,#582,#583,#584,#585,#586,#587,#588,
    #589,#590,#591,#592,#593,#594,#595),.UNSPECIFIED.,.F.,.F.,(9,7,7,7,7
    ,7,7,7,7,9),(0.,0.589017001547,1.178034003095,1.346324574965,
    1.538656657103,1.641233767577,1.828778628329,2.01632348908,
    2.391413210583,3.14159265359),.UNSPECIFIED.);
#531 = CARTESIAN_POINT('',(4.404336199361,0.));
#532 = CARTESIAN_POINT('',(4.420662399883,7.179421105329E-02));
#533 = CARTESIAN_POINT('',(4.43698835891,0.143588453192));
#534 = CARTESIAN_POINT('',(4.453572103875,0.215353365088));
#535 = CARTESIAN_POINT('',(4.470665886431,0.287060326866));
#536 = CARTESIAN_POINT('',(4.488564759419,0.358675637124));
#537 = CARTESIAN_POINT('',(4.507622113134,0.430158911611));
#538 = CARTESIAN_POINT('',(4.528312140287,0.501455759436));
#539 = CARTESIAN_POINT('',(4.574526257888,0.643493826007));
#540 = CARTESIAN_POINT('',(4.600051208654,0.714234255981));
#541 = CARTESIAN_POINT('',(4.628775056309,0.784610860416));
#542 = CARTESIAN_POINT('',(4.661834085248,0.854467593047));
#543 = CARTESIAN_POINT('',(4.700779879273,0.923674402769));
#544 = CARTESIAN_POINT('',(4.748523360402,0.991789390173));
#545 = CARTESIAN_POINT('',(4.809143108874,1.058440399231));
#546 = CARTESIAN_POINT('',(4.920525224429,1.139823230151));
#547 = CARTESIAN_POINT('',(4.94740019427,1.157634473088));
#548 = CARTESIAN_POINT('',(4.976703290902,1.175127686838));
#549 = CARTESIAN_POINT('',(5.008802942953,1.192247887781));
#550 = CARTESIAN_POINT('',(5.044131820854,1.208926715755));
#551 = CARTESIAN_POINT('',(5.083215506658,1.225076489467));
#552 = CARTESIAN_POINT('',(5.126671392238,1.240582843998));
#553 = CARTESIAN_POINT('',(5.230489656967,1.272115075846));
#554 = CARTESIAN_POINT('',(5.29237973807,1.287898594476));
#555 = CARTESIAN_POINT('',(5.361716798411,1.302429162179));
#556 = CARTESIAN_POINT('',(5.439415740872,1.315424565157));
#557 = CARTESIAN_POINT('',(5.526173617846,1.326556444189));
#558 = CARTESIAN_POINT('',(5.622105094317,1.335390221229));
#559 = CARTESIAN_POINT('',(5.724845395512,1.341572440852));
#560 = CARTESIAN_POINT('',(5.887836668125,1.346730376481));
#561 = CARTESIAN_POINT('',(5.945540921341,1.347722725053));
#562 = CARTESIAN_POINT('',(6.003762202687,1.347887978056));
#563 = CARTESIAN_POINT('',(6.061924668839,1.34721500135));
#564 = CARTESIAN_POINT('',(6.119426992827,1.345711817868));
#565 = CARTESIAN_POINT('',(6.175728858583,1.343404434248));
#566 = CARTESIAN_POINT('',(6.230415215203,1.340332049558));
#567 = CARTESIAN_POINT('',(6.37966647638,1.329610028596));
#568 = CARTESIAN_POINT('',(6.469743093688,1.320277103194));
#569 = CARTESIAN_POINT('',(6.551578876673,1.30882584855));
#570 = CARTESIAN_POINT('',(6.624687911427,1.295628522827));
#571 = CARTESIAN_POINT('',(6.689932350847,1.281019631863));
#572 = CARTESIAN_POINT('',(6.748142404463,1.265254468507));
#573 = CARTESIAN_POINT('',(6.800246406499,1.248540794168));
#574 = CARTESIAN_POINT('',(6.893858899306,1.213539893992));
#575 = CARTESIAN_POINT('',(6.93536784492,1.195252718342));
#576 = CARTESIAN_POINT('',(6.972396392326,1.176341219958));
#577 = CARTESIAN_POINT('',(7.005668242108,1.156924051566));
#578 = CARTESIAN_POINT('',(7.035763903108,1.137089565117));
#579 = CARTESIAN_POINT('',(7.063144444697,1.116905532251));
#580 = CARTESIAN_POINT('',(7.088193374701,1.096425491848));
#581 = CARTESIAN_POINT('',(7.157276330453,1.034225258183));
#582 = CARTESIAN_POINT('',(7.195247788942,0.991745184183));
#583 = CARTESIAN_POINT('',(7.227627156522,0.94859204846));
#584 = CARTESIAN_POINT('',(7.255829378798,0.904940756086));
#585 = CARTESIAN_POINT('',(7.280790303091,0.860905868346));
#586 = CARTESIAN_POINT('',(7.303191895112,0.816572146379));
#587 = CARTESIAN_POINT('',(7.323518684528,0.771995976969));
#588 = CARTESIAN_POINT('',(7.379410117376,0.637676926019));
#589 = CARTESIAN_POINT('',(7.409884942616,0.547343019958));
#590 = CARTESIAN_POINT('',(7.436569599231,0.456576947933));
#591 = CARTESIAN_POINT('',(7.460627403846,0.365509809581));
#592 = CARTESIAN_POINT('',(7.483022735075,0.274254261975));
#593 = CARTESIAN_POINT('',(7.504341732687,0.182875930775));
#594 = CARTESIAN_POINT('',(7.525135599137,9.143800793109E-02));
#595 = CARTESIAN_POINT('',(7.545928852951,0.));
#596 = ( GEOMETRIC_REPRESENTATION_CONTEXT(2) 
PARAMETRIC_REPRESENTATION_CONTEXT() REPRESENTATION_CONTEXT('2D SPACE',''
  ) );
#597 = ORIENTED_EDGE('',*,*,#598,.F.);
#598 = EDGE_CURVE('',#383,#508,#599,.T.);
#599 = SEAM_CURVE('',#600,(#604,#611),.PCURVE_S1.);
#600 = LINE('',#601,#602);
#601 = CARTESIAN_POINT('',(-54.43615561126,-102.6564890639,54.));
#602 = VECTOR('',#603,1.);
#603 = DIRECTION('',(0.929203121657,-0.295655538709,-0.221741654032));
#604 = PCURVE('',#322,#605);
#605 = DEFINITIONAL_REPRESENTATION('',(#606),#610);
#606 = LINE('',#607,#608);
#607 = CARTESIAN_POINT('',(0.,-0.));
#608 = VECTOR('',#609,1.);
#609 = DIRECTION('',(0.,1.));
#610 = ( GEOMETRIC_REPRESENTATION_CONTEXT(2) 
PARAMETRIC_REPRESENTATION_CONTEXT() REPRESENTATION_CONTEXT('2D SPACE',''
  ) );
#611 = PCURVE('',#322,#612);
#612 = DEFINITIONAL_REPRESENTATION('',(#613),#617);
#613 = LINE('',#614,#615);
#614 = CARTESIAN_POINT('',(6.28318530718,-0.));
#615 = VECTOR('',#616,1.);
#616 = DIRECTION('',(0.,1.));
#617 = ( GEOMETRIC_REPRESENTATION_CONTEXT(2) 
PARAMETRIC_REPRESENTATION_CONTEXT() REPRESENTATION_CONTEXT('2D SPACE',''
  ) );
#618 = ORIENTED_EDGE('',*,*,#382,.T.);
#619 = ORIENTED_EDGE('',*,*,#299,.T.);
#620 = ORIENTED_EDGE('',*,*,#410,.T.);
#621 = ORIENTED_EDGE('',*,*,#598,.T.);
#622 = ORIENTED_EDGE('',*,*,#623,.F.);
#623 = EDGE_CURVE('',#624,#508,#626,.T.);
#624 = VERTEX_POINT('',#625);
#625 = CARTESIAN_POINT('',(-47.2,-106.6,50.987332626902));
#626 = SURFACE_CURVE('',#627,(#632,#645),.PCURVE_S1.);
#627 = ELLIPSE('',#628,1.535347030641,1.2);
#628 = AXIS2_PLACEMENT_3D('',#629,#630,#631);
#629 = CARTESIAN_POINT('',(-46.,-106.6,51.9));
#630 = DIRECTION('',(0.594437189041,-0.189139105604,-0.781582258637));
#631 = DIRECTION('',(0.744789883456,-0.236978599281,0.623802190589));
#632 = PCURVE('',#322,#633);
#633 = DEFINITIONAL_REPRESENTATION('',(#634),#644);
#634 = B_SPLINE_CURVE_WITH_KNOTS('',8,(#635,#636,#637,#638,#639,#640,
    #641,#642,#643),.UNSPECIFIED.,.F.,.F.,(9,9),(2.833539872566,
    4.712388551149),.PIECEWISE_BEZIER_KNOTS.);
#635 = CARTESIAN_POINT('',(4.404336199361,8.55781307934));
#636 = CARTESIAN_POINT('',(4.639192284184,8.489612242888));
#637 = CARTESIAN_POINT('',(4.874048368997,8.47894338668));
#638 = CARTESIAN_POINT('',(5.108904453842,8.531537328607));
#639 = CARTESIAN_POINT('',(5.343760538613,8.646362394771));
#640 = CARTESIAN_POINT('',(5.57861662349,8.814584627158));
#641 = CARTESIAN_POINT('',(5.813472708292,9.020611711394));
#642 = CARTESIAN_POINT('',(6.048328793121,9.245545958864));
#643 = CARTESIAN_POINT('',(6.283184877944,9.470480041336));
#644 = ( GEOMETRIC_REPRESENTATION_CONTEXT(2) 
PARAMETRIC_REPRESENTATION_CONTEXT() REPRESENTATION_CONTEXT('2D SPACE',''
  ) );
#645 = PCURVE('',#646,#651);
#646 = CYLINDRICAL_SURFACE('',#647,1.2);
#647 = AXIS2_PLACEMENT_3D('',#648,#649,#650);
#648 = CARTESIAN_POINT('',(-46.,-106.6,51.9));
#649 = DIRECTION('',(0.,0.,-1.));
#650 = DIRECTION('',(-1.,0.,-0.));
#651 = DEFINITIONAL_REPRESENTATION('',(#652),#662);
#652 = B_SPLINE_CURVE_WITH_KNOTS('',8,(#653,#654,#655,#656,#657,#658,
    #659,#660,#661),.UNSPECIFIED.,.F.,.F.,(9,9),(2.833539872566,
    4.712388551149),.PIECEWISE_BEZIER_KNOTS.);
#653 = CARTESIAN_POINT('',(9.473903143468E-14,0.912667373097));
#654 = CARTESIAN_POINT('',(0.234856084823,0.980868209549));
#655 = CARTESIAN_POINT('',(0.469712169645,0.991537065761));
#656 = CARTESIAN_POINT('',(0.704568254469,0.938943123795));
#657 = CARTESIAN_POINT('',(0.939424339292,0.824118057671));
#658 = CARTESIAN_POINT('',(1.174280424115,0.655895825258));
#659 = CARTESIAN_POINT('',(1.409136508936,0.449868741045));
#660 = CARTESIAN_POINT('',(1.64399259376,0.224934493574));
#661 = CARTESIAN_POINT('',(1.878848678583,4.111016735919E-07));
#662 = ( GEOMETRIC_REPRESENTATION_CONTEXT(2) 
PARAMETRIC_REPRESENTATION_CONTEXT() REPRESENTATION_CONTEXT('2D SPACE',''
  ) );
#663 = ORIENTED_EDGE('',*,*,#664,.F.);
#664 = EDGE_CURVE('',#506,#624,#665,.T.);
#665 = SURFACE_CURVE('',#666,(#671,#683),.PCURVE_S1.);
#666 = ELLIPSE('',#667,1.535347030641,1.2);
#667 = AXIS2_PLACEMENT_3D('',#668,#669,#670);
#668 = CARTESIAN_POINT('',(-46.,-106.6,51.9));
#669 = DIRECTION('',(0.594437189041,-0.189139105604,-0.781582258637));
#670 = DIRECTION('',(0.744789883456,-0.236978599281,0.623802190589));
#671 = PCURVE('',#322,#672);
#672 = DEFINITIONAL_REPRESENTATION('',(#673),#682);
#673 = B_SPLINE_CURVE_WITH_KNOTS('',7,(#674,#675,#676,#677,#678,#679,
    #680,#681),.UNSPECIFIED.,.F.,.F.,(8,8),(1.570796013562,
    2.833539872566),.PIECEWISE_BEZIER_KNOTS.);
#674 = CARTESIAN_POINT('',(3.141592340357,9.470480752437));
#675 = CARTESIAN_POINT('',(3.321984320214,9.29770982123));
#676 = CARTESIAN_POINT('',(3.502376300072,9.124939005949));
#677 = CARTESIAN_POINT('',(3.68276827993,8.961350197048));
#678 = CARTESIAN_POINT('',(3.863160259788,8.816130084666));
#679 = CARTESIAN_POINT('',(4.043552239645,8.69723202516));
#680 = CARTESIAN_POINT('',(4.223944219503,8.610197857553));
#681 = CARTESIAN_POINT('',(4.404336199361,8.55781307934));
#682 = ( GEOMETRIC_REPRESENTATION_CONTEXT(2) 
PARAMETRIC_REPRESENTATION_CONTEXT() REPRESENTATION_CONTEXT('2D SPACE',''
  ) );
#683 = PCURVE('',#646,#684);
#684 = DEFINITIONAL_REPRESENTATION('',(#685),#694);
#685 = B_SPLINE_CURVE_WITH_KNOTS('',7,(#686,#687,#688,#689,#690,#691,
    #692,#693),.UNSPECIFIED.,.F.,.F.,(8,8),(1.570796013562,
    2.833539872566),.PIECEWISE_BEZIER_KNOTS.);
#686 = CARTESIAN_POINT('',(5.020441448175,-3.000000035058E-07));
#687 = CARTESIAN_POINT('',(5.200833428033,0.172770631208));
#688 = CARTESIAN_POINT('',(5.381225407891,0.345541446489));
#689 = CARTESIAN_POINT('',(5.561617387748,0.50913025539));
#690 = CARTESIAN_POINT('',(5.742009367607,0.654350367773));
#691 = CARTESIAN_POINT('',(5.922401347464,0.773248427278));
#692 = CARTESIAN_POINT('',(6.102793327322,0.860282594884));
#693 = CARTESIAN_POINT('',(6.28318530718,0.912667373097));
#694 = ( GEOMETRIC_REPRESENTATION_CONTEXT(2) 
PARAMETRIC_REPRESENTATION_CONTEXT() REPRESENTATION_CONTEXT('2D SPACE',''
  ) );
#695 = ADVANCED_FACE('',(#696),#524,.T.);
#696 = FACE_BOUND('',#697,.T.);
#697 = EDGE_LOOP('',(#698,#699));
#698 = ORIENTED_EDGE('',*,*,#505,.F.);
#699 = ORIENTED_EDGE('',*,*,#700,.T.);
#700 = EDGE_CURVE('',#506,#508,#701,.T.);
#701 = SURFACE_CURVE('',#702,(#707,#714),.PCURVE_S1.);
#702 = CIRCLE('',#703,1.2);
#703 = AXIS2_PLACEMENT_3D('',#704,#705,#706);
#704 = CARTESIAN_POINT('',(-46.,-106.6,51.9));
#705 = DIRECTION('',(0.,1.864108282783E-14,1.));
#706 = DIRECTION('',(-0.303203657277,-0.952925780013,1.7763568394E-14));
#707 = PCURVE('',#524,#708);
#708 = DEFINITIONAL_REPRESENTATION('',(#709),#713);
#709 = LINE('',#710,#711);
#710 = CARTESIAN_POINT('',(4.404336199361,0.));
#711 = VECTOR('',#712,1.);
#712 = DIRECTION('',(1.,-0.));
#713 = ( GEOMETRIC_REPRESENTATION_CONTEXT(2) 
PARAMETRIC_REPRESENTATION_CONTEXT() REPRESENTATION_CONTEXT('2D SPACE',''
  ) );
#714 = PCURVE('',#646,#715);
#715 = DEFINITIONAL_REPRESENTATION('',(#716),#720);
#716 = LINE('',#717,#718);
#717 = CARTESIAN_POINT('',(5.020441761408,0.));
#718 = VECTOR('',#719,1.);
#719 = DIRECTION('',(-1.,-0.));
#720 = ( GEOMETRIC_REPRESENTATION_CONTEXT(2) 
PARAMETRIC_REPRESENTATION_CONTEXT() REPRESENTATION_CONTEXT('2D SPACE',''
  ) );
#721 = ADVANCED_FACE('',(#722),#646,.T.);
#722 = FACE_BOUND('',#723,.T.);
#723 = EDGE_LOOP('',(#724,#747,#774,#775,#776,#777));
#724 = ORIENTED_EDGE('',*,*,#725,.T.);
#725 = EDGE_CURVE('',#624,#726,#728,.T.);
#726 = VERTEX_POINT('',#727);
#727 = CARTESIAN_POINT('',(-47.2,-106.6,48.9));
#728 = SEAM_CURVE('',#729,(#733,#740),.PCURVE_S1.);
#729 = LINE('',#730,#731);
#730 = CARTESIAN_POINT('',(-47.2,-106.6,51.9));
#731 = VECTOR('',#732,1.);
#732 = DIRECTION('',(0.,0.,-1.));
#733 = PCURVE('',#646,#734);
#734 = DEFINITIONAL_REPRESENTATION('',(#735),#739);
#735 = LINE('',#736,#737);
#736 = CARTESIAN_POINT('',(6.28318530718,-0.));
#737 = VECTOR('',#738,1.);
#738 = DIRECTION('',(0.,1.));
#739 = ( GEOMETRIC_REPRESENTATION_CONTEXT(2) 
PARAMETRIC_REPRESENTATION_CONTEXT() REPRESENTATION_CONTEXT('2D SPACE',''
  ) );
#740 = PCURVE('',#646,#741);
#741 = DEFINITIONAL_REPRESENTATION('',(#742),#746);
#742 = LINE('',#743,#744);
#743 = CARTESIAN_POINT('',(0.,-0.));
#744 = VECTOR('',#745,1.);
#745 = DIRECTION('',(0.,1.));
#746 = ( GEOMETRIC_REPRESENTATION_CONTEXT(2) 
PARAMETRIC_REPRESENTATION_CONTEXT() REPRESENTATION_CONTEXT('2D SPACE',''
  ) );
#747 = ORIENTED_EDGE('',*,*,#748,.F.);
#748 = EDGE_CURVE('',#726,#726,#749,.T.);
#749 = SURFACE_CURVE('',#750,(#755,#762),.PCURVE_S1.);
#750 = CIRCLE('',#751,1.2);
#751 = AXIS2_PLACEMENT_3D('',#752,#753,#754);
#752 = CARTESIAN_POINT('',(-46.,-106.6,48.9));
#753 = DIRECTION('',(0.,0.,-1.));
#754 = DIRECTION('',(-1.,0.,-0.));
#755 = PCURVE('',#646,#756);
#756 = DEFINITIONAL_REPRESENTATION('',(#757),#761);
#757 = LINE('',#758,#759);
#758 = CARTESIAN_POINT('',(0.,3.));
#759 = VECTOR('',#760,1.);
#760 = DIRECTION('',(1.,0.));
#761 = ( GEOMETRIC_REPRESENTATION_CONTEXT(2) 
PARAMETRIC_REPRESENTATION_CONTEXT() REPRESENTATION_CONTEXT('2D SPACE',''
  ) );
#762 = PCURVE('',#763,#768);
#763 = PLANE('',#764);
#764 = AXIS2_PLACEMENT_3D('',#765,#766,#767);
#765 = CARTESIAN_POINT('',(-46.,-106.6,48.9));
#766 = DIRECTION('',(0.,0.,-1.));
#767 = DIRECTION('',(-1.,0.,-0.));
#768 = DEFINITIONAL_REPRESENTATION('',(#769),#773);
#769 = CIRCLE('',#770,1.2);
#770 = AXIS2_PLACEMENT_2D('',#771,#772);
#771 = CARTESIAN_POINT('',(0.,0.));
#772 = DIRECTION('',(1.,0.));
#773 = ( GEOMETRIC_REPRESENTATION_CONTEXT(2) 
PARAMETRIC_REPRESENTATION_CONTEXT() REPRESENTATION_CONTEXT('2D SPACE',''
  ) );
#774 = ORIENTED_EDGE('',*,*,#725,.F.);
#775 = ORIENTED_EDGE('',*,*,#623,.T.);
#776 = ORIENTED_EDGE('',*,*,#700,.F.);
#777 = ORIENTED_EDGE('',*,*,#664,.T.);
#778 = ADVANCED_FACE('',(#779),#763,.T.);
#779 = FACE_BOUND('',#780,.T.);
#780 = EDGE_LOOP('',(#781));
#781 = ORIENTED_EDGE('',*,*,#748,.T.);
#782 = ( GEOMETRIC_REPRESENTATION_CONTEXT(3) 
GLOBAL_UNCERTAINTY_ASSIGNED_CONTEXT((#786)) GLOBAL_UNIT_ASSIGNED_CONTEXT
((#783,#784,#785)) REPRESENTATION_CONTEXT('Context #1',
  '3D Context with UNIT and UNCERTAINTY') );
#783 = ( LENGTH_UNIT() NAMED_UNIT(*) SI_UNIT(.MILLI.,.METRE.) );
#784 = ( NAMED_UNIT(*) PLANE_ANGLE_UNIT() SI_UNIT($,.RADIAN.) );
#785 = ( NAMED_UNIT(*) SI_UNIT($,.STERADIAN.) SOLID_ANGLE_UNIT() );
#786 = UNCERTAINTY_MEASURE_WITH_UNIT(LENGTH_MEASURE(2.E-07),#783,
  'distance_accuracy_value','confusion accuracy');
#787 = PRODUCT_RELATED_PRODUCT_CATEGORY('part',$,(#7));
ENDSEC;
END-ISO-10303-21;
