ISO-10303-21;
HEADER;
FILE_DESCRIPTION(('Open CASCADE Model'),'2;1');
FILE_NAME('Open CASCADE Shape Model','2026-10-01T17:02:39',('Author'),(
    'Open CASCADE'),'Open CASCADE STEP processor 7.8','Open CASCADE 7.8'
  ,'Unknown');
FILE_SCHEMA(('AUTOMOTIVE_DESIGN { 1 0 10303 214 1 1 1 1 }'));
ENDSEC;
DATA;
#1 = APPLICATION_PROTOCOL_DEFINITION('international standard',
  'automotive_design',2000,#2);
#2 = APPLICATION_CONTEXT(
  'core data for automotive mechanical design processes');
#3 = SHAPE_DEFINITION_REPRESENTATION(#4,#10);
#4 = PRODUCT_DEFINITION_SHAPE('','',#5);
#5 = PRODUCT_DEFINITION('design','',#6,#9);
#6 = PRODUCT_DEFINITION_FORMATION('','',#7);
#7 = PRODUCT('Open CASCADE STEP translator 7.8 59',
  'Open CASCADE STEP translator 7.8 59','',(#8));
#8 = PRODUCT_CONTEXT('',#2,'mechanical');
#9 = PRODUCT_DEFINITION_CONTEXT('part definition',#2,'design');
#10 = ADVANCED_BREP_SHAPE_REPRESENTATION('',(#11,#15),#1433);
#11 = AXIS2_PLACEMENT_3D('',#12,#13,#14);
#12 = CARTESIAN_POINT('',(0.,0.,0.));
#13 = DIRECTION('',(0.,0.,1.));
#14 = DIRECTION('',(1.,0.,-0.));
#15 = MANIFOLD_SOLID_BREP('',#16);
#16 = CLOSED_SHELL('',(#17,#200,#253,#431,#435,#502,#666,#747,#955,#1002
    ,#1152,#1303,#1308,#1424,#1429));
#17 = ADVANCED_FACE('',(#18),#33,.T.);
#18 = FACE_BOUND('',#19,.T.);
#19 = EDGE_LOOP('',(#20,#55,#78,#119,#142,#169,#170));
#20 = ORIENTED_EDGE('',*,*,#21,.F.);
#21 = EDGE_CURVE('',#22,#24,#26,.T.);
#22 = VERTEX_POINT('',#23);
#23 = CARTESIAN_POINT('',(240.4,-7.,15.9));
#24 = VERTEX_POINT('',#25);
#25 = CARTESIAN_POINT('',(240.4,-6.305262787945,17.372136527575));
#26 = SURFACE_CURVE('',#27,(#32,#44),.PCURVE_S1.);
#27 = CIRCLE('',#28,0.9);
#28 = AXIS2_PLACEMENT_3D('',#29,#30,#31);
#29 = CARTESIAN_POINT('',(240.4,-7.,16.8));
#30 = DIRECTION('',(1.,0.,0.));
#31 = DIRECTION('',(-0.,0.,1.));
#32 = PCURVE('',#33,#38);
#33 = CYLINDRICAL_SURFACE('',#34,0.9);
#34 = AXIS2_PLACEMENT_3D('',#35,#36,#37);
#35 = CARTESIAN_POINT('',(236.4,-7.,16.8));
#36 = DIRECTION('',(1.,0.,0.));
#37 = DIRECTION('',(-0.,0.,1.));
#38 = DEFINITIONAL_REPRESENTATION('',(#39),#43);
#39 = LINE('',#40,#41);
#40 = CARTESIAN_POINT('',(0.,4.));
#41 = VECTOR('',#42,1.);
#42 = DIRECTION('',(1.,0.));
#43 = ( GEOMETRIC_REPRESENTATION_CONTEXT(2) 
PARAMETRIC_REPRESENTATION_CONTEXT() REPRESENTATION_CONTEXT('2D SPACE',''
  ) );
#44 = PCURVE('',#45,#50);
#45 = SPHERICAL_SURFACE('',#46,0.9);
#46 = AXIS2_PLACEMENT_3D('',#47,#48,#49);
#47 = CARTESIAN_POINT('',(240.4,-7.,16.8));
#48 = DIRECTION('',(0.,0.,1.));
#49 = DIRECTION('',(1.,0.,-0.));
#50 = DEFINITIONAL_REPRESENTATION('',(#51),#54);
#51 = B_SPLINE_CURVE_WITH_KNOTS('',1,(#52,#53),.UNSPECIFIED.,.F.,.F.,(2,
    2),(3.14159265359,5.4013133686),.PIECEWISE_BEZIER_KNOTS.);
#52 = CARTESIAN_POINT('',(7.853981633974,-1.570796326795));
#53 = CARTESIAN_POINT('',(7.853981633974,0.688924388215));
#54 = ( GEOMETRIC_REPRESENTATION_CONTEXT(2) 
PARAMETRIC_REPRESENTATION_CONTEXT() REPRESENTATION_CONTEXT('2D SPACE',''
  ) );
#55 = ORIENTED_EDGE('',*,*,#56,.F.);
#56 = EDGE_CURVE('',#57,#22,#59,.T.);
#57 = VERTEX_POINT('',#58);
#58 = CARTESIAN_POINT('',(240.4,-7.694737212055,16.227863472425));
#59 = SURFACE_CURVE('',#60,(#65,#72),.PCURVE_S1.);
#60 = CIRCLE('',#61,0.9);
#61 = AXIS2_PLACEMENT_3D('',#62,#63,#64);
#62 = CARTESIAN_POINT('',(240.4,-7.,16.8));
#63 = DIRECTION('',(1.,0.,0.));
#64 = DIRECTION('',(-0.,0.,1.));
#65 = PCURVE('',#33,#66);
#66 = DEFINITIONAL_REPRESENTATION('',(#67),#71);
#67 = LINE('',#68,#69);
#68 = CARTESIAN_POINT('',(0.,4.));
#69 = VECTOR('',#70,1.);
#70 = DIRECTION('',(1.,0.));
#71 = ( GEOMETRIC_REPRESENTATION_CONTEXT(2) 
PARAMETRIC_REPRESENTATION_CONTEXT() REPRESENTATION_CONTEXT('2D SPACE',''
  ) );
#72 = PCURVE('',#45,#73);
#73 = DEFINITIONAL_REPRESENTATION('',(#74),#77);
#74 = B_SPLINE_CURVE_WITH_KNOTS('',1,(#75,#76),.UNSPECIFIED.,.F.,.F.,(2,
    2),(2.25972071501,3.14159265359),.PIECEWISE_BEZIER_KNOTS.);
#75 = CARTESIAN_POINT('',(4.712388980385,-0.688924388215));
#76 = CARTESIAN_POINT('',(4.712388980385,-1.570796326795));
#77 = ( GEOMETRIC_REPRESENTATION_CONTEXT(2) 
PARAMETRIC_REPRESENTATION_CONTEXT() REPRESENTATION_CONTEXT('2D SPACE',''
  ) );
#78 = ORIENTED_EDGE('',*,*,#79,.F.);
#79 = EDGE_CURVE('',#80,#57,#82,.T.);
#80 = VERTEX_POINT('',#81);
#81 = CARTESIAN_POINT('',(239.86921856982,-7.,17.7));
#82 = SURFACE_CURVE('',#83,(#88,#101),.PCURVE_S1.);
#83 = ELLIPSE('',#84,1.132606586439,0.9);
#84 = AXIS2_PLACEMENT_3D('',#85,#86,#87);
#85 = CARTESIAN_POINT('',(240.4,-7.,16.8));
#86 = DIRECTION('',(0.794627199573,-0.385936409176,0.468637068285));
#87 = DIRECTION('',(0.607097696997,0.505150274089,-0.613396761394));
#88 = PCURVE('',#33,#89);
#89 = DEFINITIONAL_REPRESENTATION('',(#90),#100);
#90 = B_SPLINE_CURVE_WITH_KNOTS('',8,(#91,#92,#93,#94,#95,#96,#97,#98,
    #99),.UNSPECIFIED.,.F.,.F.,(9,9),(2.452668265371,4.712388951001),
  .PIECEWISE_BEZIER_KNOTS.);
#91 = CARTESIAN_POINT('',(-3.451461338955E-12,3.469218569812));
#92 = CARTESIAN_POINT('',(0.2824650857,3.345749092732));
#93 = CARTESIAN_POINT('',(0.564930171403,3.270679108099));
#94 = CARTESIAN_POINT('',(0.847395257109,3.259016556425));
#95 = CARTESIAN_POINT('',(1.129860342813,3.317547931098));
#96 = CARTESIAN_POINT('',(1.412325428517,3.440945737424));
#97 = CARTESIAN_POINT('',(1.694790514218,3.611551835809));
#98 = CARTESIAN_POINT('',(1.977255599923,3.805776181776));
#99 = CARTESIAN_POINT('',(2.259720685626,3.999999979796));
#100 = ( GEOMETRIC_REPRESENTATION_CONTEXT(2) 
PARAMETRIC_REPRESENTATION_CONTEXT() REPRESENTATION_CONTEXT('2D SPACE',''
  ) );
#101 = PCURVE('',#102,#107);
#102 = CYLINDRICAL_SURFACE('',#103,0.9);
#103 = AXIS2_PLACEMENT_3D('',#104,#105,#106);
#104 = CARTESIAN_POINT('',(240.4,-7.,16.8));
#105 = DIRECTION('',(0.262864772603,-0.613351136074,0.744783522375));
#106 = DIRECTION('',(-1.387778780781E-17,0.771930235617,0.635707252861)
  );
#107 = DEFINITIONAL_REPRESENTATION('',(#108),#118);
#108 = B_SPLINE_CURVE_WITH_KNOTS('',8,(#109,#110,#111,#112,#113,#114,
    #115,#116,#117),.UNSPECIFIED.,.F.,.F.,(9,9),(2.452668265371,
    4.712388951001),.PIECEWISE_BEZIER_KNOTS.);
#109 = CARTESIAN_POINT('',(0.881871938577,0.530781430188));
#110 = CARTESIAN_POINT('',(1.16433702428,0.654250907268));
#111 = CARTESIAN_POINT('',(1.446802109984,0.729320891898));
#112 = CARTESIAN_POINT('',(1.729267195684,0.740983443589));
#113 = CARTESIAN_POINT('',(2.011732281395,0.682452068887));
#114 = CARTESIAN_POINT('',(2.29419736709,0.559054262585));
#115 = CARTESIAN_POINT('',(2.5766624528,0.388448164188));
#116 = CARTESIAN_POINT('',(2.859127538503,0.194223818224));
#117 = CARTESIAN_POINT('',(3.141592624206,2.020408373937E-08));
#118 = ( GEOMETRIC_REPRESENTATION_CONTEXT(2) 
PARAMETRIC_REPRESENTATION_CONTEXT() REPRESENTATION_CONTEXT('2D SPACE',''
  ) );
#119 = ORIENTED_EDGE('',*,*,#120,.F.);
#120 = EDGE_CURVE('',#121,#80,#123,.T.);
#121 = VERTEX_POINT('',#122);
#122 = CARTESIAN_POINT('',(236.4,-7.,17.7));
#123 = SEAM_CURVE('',#124,(#128,#135),.PCURVE_S1.);
#124 = LINE('',#125,#126);
#125 = CARTESIAN_POINT('',(236.4,-7.,17.7));
#126 = VECTOR('',#127,1.);
#127 = DIRECTION('',(1.,0.,0.));
#128 = PCURVE('',#33,#129);
#129 = DEFINITIONAL_REPRESENTATION('',(#130),#134);
#130 = LINE('',#131,#132);
#131 = CARTESIAN_POINT('',(6.28318530718,-0.));
#132 = VECTOR('',#133,1.);
#133 = DIRECTION('',(0.,1.));
#134 = ( GEOMETRIC_REPRESENTATION_CONTEXT(2) 
PARAMETRIC_REPRESENTATION_CONTEXT() REPRESENTATION_CONTEXT('2D SPACE',''
  ) );
#135 = PCURVE('',#33,#136);
#136 = DEFINITIONAL_REPRESENTATION('',(#137),#141);
#137 = LINE('',#138,#139);
#138 = CARTESIAN_POINT('',(0.,-0.));
#139 = VECTOR('',#140,1.);
#140 = DIRECTION('',(0.,1.));
#141 = ( GEOMETRIC_REPRESENTATION_CONTEXT(2) 
PARAMETRIC_REPRESENTATION_CONTEXT() REPRESENTATION_CONTEXT('2D SPACE',''
  ) );
#142 = ORIENTED_EDGE('',*,*,#143,.T.);
#143 = EDGE_CURVE('',#121,#121,#144,.T.);
#144 = SURFACE_CURVE('',#145,(#150,#157),.PCURVE_S1.);
#145 = CIRCLE('',#146,0.9);
#146 = AXIS2_PLACEMENT_3D('',#147,#148,#149);
#147 = CARTESIAN_POINT('',(236.4,-7.,16.8));
#148 = DIRECTION('',(1.,0.,0.));
#149 = DIRECTION('',(-0.,0.,1.));
#150 = PCURVE('',#33,#151);
#151 = DEFINITIONAL_REPRESENTATION('',(#152),#156);
#152 = LINE('',#153,#154);
#153 = CARTESIAN_POINT('',(0.,0.));
#154 = VECTOR('',#155,1.);
#155 = DIRECTION('',(1.,0.));
#156 = ( GEOMETRIC_REPRESENTATION_CONTEXT(2) 
PARAMETRIC_REPRESENTATION_CONTEXT() REPRESENTATION_CONTEXT('2D SPACE',''
  ) );
#157 = PCURVE('',#158,#163);
#158 = PLANE('',#159);
#159 = AXIS2_PLACEMENT_3D('',#160,#161,#162);
#160 = CARTESIAN_POINT('',(236.4,-7.,16.8));
#161 = DIRECTION('',(1.,0.,0.));
#162 = DIRECTION('',(-0.,0.,1.));
#163 = DEFINITIONAL_REPRESENTATION('',(#164),#168);
#164 = CIRCLE('',#165,0.9);
#165 = AXIS2_PLACEMENT_2D('',#166,#167);
#166 = CARTESIAN_POINT('',(0.,0.));
#167 = DIRECTION('',(1.,0.));
#168 = ( GEOMETRIC_REPRESENTATION_CONTEXT(2) 
PARAMETRIC_REPRESENTATION_CONTEXT() REPRESENTATION_CONTEXT('2D SPACE',''
  ) );
#169 = ORIENTED_EDGE('',*,*,#120,.T.);
#170 = ORIENTED_EDGE('',*,*,#171,.F.);
#171 = EDGE_CURVE('',#24,#80,#172,.T.);
#172 = SURFACE_CURVE('',#173,(#178,#189),.PCURVE_S1.);
#173 = ELLIPSE('',#174,1.132606586439,0.9);
#174 = AXIS2_PLACEMENT_3D('',#175,#176,#177);
#175 = CARTESIAN_POINT('',(240.4,-7.,16.8));
#176 = DIRECTION('',(0.794627199573,-0.385936409176,0.468637068285));
#177 = DIRECTION('',(0.607097696997,0.505150274089,-0.613396761394));
#178 = PCURVE('',#33,#179);
#179 = DEFINITIONAL_REPRESENTATION('',(#180),#188);
#180 = B_SPLINE_CURVE_WITH_KNOTS('',6,(#181,#182,#183,#184,#185,#186,
    #187),.UNSPECIFIED.,.F.,.F.,(7,7),(1.570795413112,2.452668265371),
  .PIECEWISE_BEZIER_KNOTS.);
#181 = CARTESIAN_POINT('',(5.401312454917,4.000000628251));
#182 = CARTESIAN_POINT('',(5.548291263627,3.898937580459));
#183 = CARTESIAN_POINT('',(5.695270072337,3.797874815985));
#184 = CARTESIAN_POINT('',(5.842248881046,3.700739965105));
#185 = CARTESIAN_POINT('',(5.989227689756,3.611470925425));
#186 = CARTESIAN_POINT('',(6.136206498466,3.533465082291));
#187 = CARTESIAN_POINT('',(6.283185307176,3.469218569812));
#188 = ( GEOMETRIC_REPRESENTATION_CONTEXT(2) 
PARAMETRIC_REPRESENTATION_CONTEXT() REPRESENTATION_CONTEXT('2D SPACE',''
  ) );
#189 = PCURVE('',#102,#190);
#190 = DEFINITIONAL_REPRESENTATION('',(#191),#199);
#191 = B_SPLINE_CURVE_WITH_KNOTS('',6,(#192,#193,#194,#195,#196,#197,
    #198),.UNSPECIFIED.,.F.,.F.,(7,7),(1.570795413112,2.452668265371),
  .PIECEWISE_BEZIER_KNOTS.);
#192 = CARTESIAN_POINT('',(-9.136829248746E-07,-6.282509872335E-07));
#193 = CARTESIAN_POINT('',(0.146977895027,0.101062419541));
#194 = CARTESIAN_POINT('',(0.293956703737,0.202125184015));
#195 = CARTESIAN_POINT('',(0.440935512447,0.299260034895));
#196 = CARTESIAN_POINT('',(0.587914321157,0.388529074575));
#197 = CARTESIAN_POINT('',(0.734893129867,0.466534917709));
#198 = CARTESIAN_POINT('',(0.881871938577,0.530781430188));
#199 = ( GEOMETRIC_REPRESENTATION_CONTEXT(2) 
PARAMETRIC_REPRESENTATION_CONTEXT() REPRESENTATION_CONTEXT('2D SPACE',''
  ) );
#200 = ADVANCED_FACE('',(#201),#45,.T.);
#201 = FACE_BOUND('',#202,.T.);
#202 = EDGE_LOOP('',(#203,#251,#252));
#203 = ORIENTED_EDGE('',*,*,#204,.T.);
#204 = EDGE_CURVE('',#24,#57,#205,.T.);
#205 = SURFACE_CURVE('',#206,(#211,#244),.PCURVE_S1.);
#206 = CIRCLE('',#207,0.9);
#207 = AXIS2_PLACEMENT_3D('',#208,#209,#210);
#208 = CARTESIAN_POINT('',(240.4,-7.,16.8));
#209 = DIRECTION('',(-0.262864772603,0.613351136074,-0.744783522375));
#210 = DIRECTION('',(1.387778780781E-17,0.771930235617,0.635707252861));
#211 = PCURVE('',#45,#212);
#212 = DEFINITIONAL_REPRESENTATION('',(#213),#243);
#213 = B_SPLINE_CURVE_WITH_KNOTS('',8,(#214,#215,#216,#217,#218,#219,
    #220,#221,#222,#223,#224,#225,#226,#227,#228,#229,#230,#231,#232,
    #233,#234,#235,#236,#237,#238,#239,#240,#241,#242),.UNSPECIFIED.,.F.
  ,.F.,(9,7,6,7,9),(0.,0.891991838515,1.783983677031,2.46278816531,
    3.14159265359),.UNSPECIFIED.);
#214 = CARTESIAN_POINT('',(7.853981633974,0.688924388215));
#215 = CARTESIAN_POINT('',(7.714619480273,0.65961523424));
#216 = CARTESIAN_POINT('',(7.582944144852,0.619414524309));
#217 = CARTESIAN_POINT('',(7.461197817764,0.569884276773));
#218 = CARTESIAN_POINT('',(7.349468255517,0.513117147309));
#219 = CARTESIAN_POINT('',(7.24591882365,0.450876358007));
#220 = CARTESIAN_POINT('',(7.149091644802,0.384494723213));
#221 = CARTESIAN_POINT('',(7.057336668241,0.315091051282));
#222 = CARTESIAN_POINT('',(6.880991758134,0.172123190202));
#223 = CARTESIAN_POINT('',(6.796399821802,9.855947945103E-02));
#224 = CARTESIAN_POINT('',(6.71388313452,2.386112793074E-02));
#225 = CARTESIAN_POINT('',(6.632010989533,-5.118592865954E-02));
#226 = CARTESIAN_POINT('',(6.549445254726,-0.125855001481));
#227 = CARTESIAN_POINT('',(6.464806735852,-0.199388322502));
#228 = CARTESIAN_POINT('',(6.309425072633,-0.325328306963));
#229 = CARTESIAN_POINT('',(6.138068080424,-0.441567452654));
#230 = CARTESIAN_POINT('',(6.060342987634,-0.48949834669));
#231 = CARTESIAN_POINT('',(5.978272975187,-0.534563068271));
#232 = CARTESIAN_POINT('',(5.891172792948,-0.576100918109));
#233 = CARTESIAN_POINT('',(5.798534475654,-0.61333024406));
#234 = CARTESIAN_POINT('',(5.700318050039,-0.645391493723));
#235 = CARTESIAN_POINT('',(5.494094752304,-0.697677099881));
#236 = CARTESIAN_POINT('',(5.386085044583,-0.717901472847));
#237 = CARTESIAN_POINT('',(5.273859599984,-0.731454458829));
#238 = CARTESIAN_POINT('',(5.158724655488,-0.737695623189));
#239 = CARTESIAN_POINT('',(5.042920539965,-0.736222080011));
#240 = CARTESIAN_POINT('',(4.928951793695,-0.727224916951));
#241 = CARTESIAN_POINT('',(4.818443376114,-0.711228611647));
#242 = CARTESIAN_POINT('',(4.712388980385,-0.688924388215));
#243 = ( GEOMETRIC_REPRESENTATION_CONTEXT(2) 
PARAMETRIC_REPRESENTATION_CONTEXT() REPRESENTATION_CONTEXT('2D SPACE',''
  ) );
#244 = PCURVE('',#102,#245);
#245 = DEFINITIONAL_REPRESENTATION('',(#246),#250);
#246 = LINE('',#247,#248);
#247 = CARTESIAN_POINT('',(6.28318530718,0.));
#248 = VECTOR('',#249,1.);
#249 = DIRECTION('',(-1.,-0.));
#250 = ( GEOMETRIC_REPRESENTATION_CONTEXT(2) 
PARAMETRIC_REPRESENTATION_CONTEXT() REPRESENTATION_CONTEXT('2D SPACE',''
  ) );
#251 = ORIENTED_EDGE('',*,*,#56,.T.);
#252 = ORIENTED_EDGE('',*,*,#21,.T.);
#253 = ADVANCED_FACE('',(#254),#102,.T.);
#254 = FACE_BOUND('',#255,.T.);
#255 = EDGE_LOOP('',(#256,#279,#328,#363,#399,#427,#428,#429,#430));
#256 = ORIENTED_EDGE('',*,*,#257,.T.);
#257 = EDGE_CURVE('',#24,#258,#260,.T.);
#258 = VERTEX_POINT('',#259);
#259 = CARTESIAN_POINT('',(242.8,-11.90526278794,24.172136527575));
#260 = SEAM_CURVE('',#261,(#265,#272),.PCURVE_S1.);
#261 = LINE('',#262,#263);
#262 = CARTESIAN_POINT('',(240.4,-6.305262787945,17.372136527575));
#263 = VECTOR('',#264,1.);
#264 = DIRECTION('',(0.262864772603,-0.613351136074,0.744783522375));
#265 = PCURVE('',#102,#266);
#266 = DEFINITIONAL_REPRESENTATION('',(#267),#271);
#267 = LINE('',#268,#269);
#268 = CARTESIAN_POINT('',(6.28318530718,-0.));
#269 = VECTOR('',#270,1.);
#270 = DIRECTION('',(0.,1.));
#271 = ( GEOMETRIC_REPRESENTATION_CONTEXT(2) 
PARAMETRIC_REPRESENTATION_CONTEXT() REPRESENTATION_CONTEXT('2D SPACE',''
  ) );
#272 = PCURVE('',#102,#273);
#273 = DEFINITIONAL_REPRESENTATION('',(#274),#278);
#274 = LINE('',#275,#276);
#275 = CARTESIAN_POINT('',(0.,-0.));
#276 = VECTOR('',#277,1.);
#277 = DIRECTION('',(0.,1.));
#278 = ( GEOMETRIC_REPRESENTATION_CONTEXT(2) 
PARAMETRIC_REPRESENTATION_CONTEXT() REPRESENTATION_CONTEXT('2D SPACE',''
  ) );
#279 = ORIENTED_EDGE('',*,*,#280,.T.);
#280 = EDGE_CURVE('',#258,#281,#283,.T.);
#281 = VERTEX_POINT('',#282);
#282 = CARTESIAN_POINT('',(243.3422224443,-13.04873581597,
    23.039080230027));
#283 = SURFACE_CURVE('',#284,(#289,#296),.PCURVE_S1.);
#284 = CIRCLE('',#285,0.9);
#285 = AXIS2_PLACEMENT_3D('',#286,#287,#288);
#286 = CARTESIAN_POINT('',(242.8,-12.6,23.6));
#287 = DIRECTION('',(-0.262864772603,0.613351136074,-0.744783522375));
#288 = DIRECTION('',(2.775557561563E-17,0.771930235617,0.635707252861));
#289 = PCURVE('',#102,#290);
#290 = DEFINITIONAL_REPRESENTATION('',(#291),#295);
#291 = LINE('',#292,#293);
#292 = CARTESIAN_POINT('',(6.28318530718,9.130169768411));
#293 = VECTOR('',#294,1.);
#294 = DIRECTION('',(-1.,-0.));
#295 = ( GEOMETRIC_REPRESENTATION_CONTEXT(2) 
PARAMETRIC_REPRESENTATION_CONTEXT() REPRESENTATION_CONTEXT('2D SPACE',''
  ) );
#296 = PCURVE('',#297,#302);
#297 = SPHERICAL_SURFACE('',#298,0.9);
#298 = AXIS2_PLACEMENT_3D('',#299,#300,#301);
#299 = CARTESIAN_POINT('',(242.8,-12.6,23.6));
#300 = DIRECTION('',(0.,0.,1.));
#301 = DIRECTION('',(1.,0.,-0.));
#302 = DEFINITIONAL_REPRESENTATION('',(#303),#327);
#303 = B_SPLINE_CURVE_WITH_KNOTS('',8,(#304,#305,#306,#307,#308,#309,
    #310,#311,#312,#313,#314,#315,#316,#317,#318,#319,#320,#321,#322,
    #323,#324,#325,#326),.UNSPECIFIED.,.F.,.F.,(9,7,7,9),(0.,
    0.891991838515,1.783983677031,2.467192539936),.UNSPECIFIED.);
#304 = CARTESIAN_POINT('',(7.853981633974,0.688924388215));
#305 = CARTESIAN_POINT('',(7.714619480273,0.65961523424));
#306 = CARTESIAN_POINT('',(7.582944144855,0.61941452431));
#307 = CARTESIAN_POINT('',(7.461197817771,0.569884276772));
#308 = CARTESIAN_POINT('',(7.349468255539,0.513117147312));
#309 = CARTESIAN_POINT('',(7.245918823657,0.450876358005));
#310 = CARTESIAN_POINT('',(7.149091644801,0.384494723213));
#311 = CARTESIAN_POINT('',(7.057336668241,0.315091051282));
#312 = CARTESIAN_POINT('',(6.880991758134,0.172123190202));
#313 = CARTESIAN_POINT('',(6.796399821802,9.855947945098E-02));
#314 = CARTESIAN_POINT('',(6.713883134519,2.386112793082E-02));
#315 = CARTESIAN_POINT('',(6.632010989533,-5.118592865956E-02));
#316 = CARTESIAN_POINT('',(6.549445254727,-0.125855001481));
#317 = CARTESIAN_POINT('',(6.464806735852,-0.199388322502));
#318 = CARTESIAN_POINT('',(6.376572317392,-0.270904588514));
#319 = CARTESIAN_POINT('',(6.211656812969,-0.391673480984));
#320 = CARTESIAN_POINT('',(6.137107085274,-0.442219230906));
#321 = CARTESIAN_POINT('',(6.058829408744,-0.490431029838));
#322 = CARTESIAN_POINT('',(5.97614193552,-0.535731947371));
#323 = CARTESIAN_POINT('',(5.888345136156,-0.577447023635));
#324 = CARTESIAN_POINT('',(5.794924282896,-0.614776858531));
#325 = CARTESIAN_POINT('',(5.695852307826,-0.646843113321));
#326 = CARTESIAN_POINT('',(5.59184837841,-0.672884314288));
#327 = ( GEOMETRIC_REPRESENTATION_CONTEXT(2) 
PARAMETRIC_REPRESENTATION_CONTEXT() REPRESENTATION_CONTEXT('2D SPACE',''
  ) );
#328 = ORIENTED_EDGE('',*,*,#329,.F.);
#329 = EDGE_CURVE('',#330,#281,#332,.T.);
#330 = VERTEX_POINT('',#331);
#331 = CARTESIAN_POINT('',(242.8,-13.23394958641,22.954597306391));
#332 = SURFACE_CURVE('',#333,(#338,#348),.PCURVE_S1.);
#333 = ELLIPSE('',#334,0.912821779618,0.9);
#334 = AXIS2_PLACEMENT_3D('',#335,#336,#337);
#335 = CARTESIAN_POINT('',(242.8,-12.6,23.6));
#336 = DIRECTION('',(0.133304827515,-0.70704129547,0.69449436964));
#337 = DIRECTION('',(0.786931042744,0.501493053167,0.359505565453));
#338 = PCURVE('',#102,#339);
#339 = DEFINITIONAL_REPRESENTATION('',(#340),#347);
#340 = B_SPLINE_CURVE_WITH_KNOTS('',5,(#341,#342,#343,#344,#345,#346),
  .UNSPECIFIED.,.F.,.F.,(6,6),(4.065797557208,4.712388980385),
  .PIECEWISE_BEZIER_KNOTS.);
#341 = CARTESIAN_POINT('',(3.169401344067,9.038318175976));
#342 = CARTESIAN_POINT('',(3.298719628702,9.054054083915));
#343 = CARTESIAN_POINT('',(3.428037913338,9.07170994108));
#344 = CARTESIAN_POINT('',(3.557356197973,9.090738323598));
#345 = CARTESIAN_POINT('',(3.686674482608,9.110454093692));
#346 = CARTESIAN_POINT('',(3.815992767244,9.130169768411));
#347 = ( GEOMETRIC_REPRESENTATION_CONTEXT(2) 
PARAMETRIC_REPRESENTATION_CONTEXT() REPRESENTATION_CONTEXT('2D SPACE',''
  ) );
#348 = PCURVE('',#349,#354);
#349 = CYLINDRICAL_SURFACE('',#350,0.9);
#350 = AXIS2_PLACEMENT_3D('',#351,#352,#353);
#351 = CARTESIAN_POINT('',(242.8,-12.6,23.6));
#352 = DIRECTION('',(0.,-0.780868809443,0.624695047554));
#353 = DIRECTION('',(0.,-0.624695047554,-0.780868809443));
#354 = DEFINITIONAL_REPRESENTATION('',(#355),#362);
#355 = B_SPLINE_CURVE_WITH_KNOTS('',5,(#356,#357,#358,#359,#360,#361),
  .UNSPECIFIED.,.F.,.F.,(6,6),(4.065797557208,4.712388980385),
  .PIECEWISE_BEZIER_KNOTS.);
#356 = CARTESIAN_POINT('',(3.536923840228E-12,9.185159243511E-02));
#357 = CARTESIAN_POINT('',(0.129318284639,7.611568449578E-02));
#358 = CARTESIAN_POINT('',(0.258636569274,5.845982733016E-02));
#359 = CARTESIAN_POINT('',(0.38795485391,3.943144481227E-02));
#360 = CARTESIAN_POINT('',(0.517273138545,1.9715674719E-02));
#361 = CARTESIAN_POINT('',(0.64659142318,0.));
#362 = ( GEOMETRIC_REPRESENTATION_CONTEXT(2) 
PARAMETRIC_REPRESENTATION_CONTEXT() REPRESENTATION_CONTEXT('2D SPACE',''
  ) );
#363 = ORIENTED_EDGE('',*,*,#364,.F.);
#364 = EDGE_CURVE('',#365,#330,#367,.T.);
#365 = VERTEX_POINT('',#366);
#366 = CARTESIAN_POINT('',(242.25777755569,-12.15126418402,
    24.160919769973));
#367 = SURFACE_CURVE('',#368,(#373,#386),.PCURVE_S1.);
#368 = ELLIPSE('',#369,0.912821779618,0.9);
#369 = AXIS2_PLACEMENT_3D('',#370,#371,#372);
#370 = CARTESIAN_POINT('',(242.8,-12.6,23.6));
#371 = DIRECTION('',(0.133304827515,-0.70704129547,0.69449436964));
#372 = DIRECTION('',(0.786931042744,0.501493053167,0.359505565453));
#373 = PCURVE('',#102,#374);
#374 = DEFINITIONAL_REPRESENTATION('',(#375),#385);
#375 = B_SPLINE_CURVE_WITH_KNOTS('',8,(#376,#377,#378,#379,#380,#381,
    #382,#383,#384),.UNSPECIFIED.,.F.,.F.,(9,9),(1.570796314264,
    4.065797557208),.PIECEWISE_BEZIER_KNOTS.);
#376 = CARTESIAN_POINT('',(0.674400101123,9.130169770321));
#377 = CARTESIAN_POINT('',(0.986275256491,9.082621744661));
#378 = CARTESIAN_POINT('',(1.298150411857,9.035073482944));
#379 = CARTESIAN_POINT('',(1.610025567235,8.994574572374));
#380 = CARTESIAN_POINT('',(1.921900722573,8.96816181));
#381 = CARTESIAN_POINT('',(2.233775877978,8.960723003125));
#382 = CARTESIAN_POINT('',(2.545651033328,8.972628506732));
#383 = CARTESIAN_POINT('',(2.857526188699,9.00036809995));
#384 = CARTESIAN_POINT('',(3.169401344067,9.038318175976));
#385 = ( GEOMETRIC_REPRESENTATION_CONTEXT(2) 
PARAMETRIC_REPRESENTATION_CONTEXT() REPRESENTATION_CONTEXT('2D SPACE',''
  ) );
#386 = PCURVE('',#349,#387);
#387 = DEFINITIONAL_REPRESENTATION('',(#388),#398);
#388 = B_SPLINE_CURVE_WITH_KNOTS('',8,(#389,#390,#391,#392,#393,#394,
    #395,#396,#397),.UNSPECIFIED.,.F.,.F.,(9,9),(1.570796314264,
    4.065797557208),.PIECEWISE_BEZIER_KNOTS.);
#389 = CARTESIAN_POINT('',(3.788184064239,-1.910489544343E-09));
#390 = CARTESIAN_POINT('',(4.100059219607,4.75480237497E-02));
#391 = CARTESIAN_POINT('',(4.411934374975,9.509628545639E-02));
#392 = CARTESIAN_POINT('',(4.723809530344,0.135595196016));
#393 = CARTESIAN_POINT('',(5.035684685715,0.162007958388));
#394 = CARTESIAN_POINT('',(5.34755984108,0.169446765275));
#395 = CARTESIAN_POINT('',(5.659434996448,0.157541261674));
#396 = CARTESIAN_POINT('',(5.971310151815,0.129801668461));
#397 = CARTESIAN_POINT('',(6.283185307183,9.185159243511E-02));
#398 = ( GEOMETRIC_REPRESENTATION_CONTEXT(2) 
PARAMETRIC_REPRESENTATION_CONTEXT() REPRESENTATION_CONTEXT('2D SPACE',''
  ) );
#399 = ORIENTED_EDGE('',*,*,#400,.F.);
#400 = EDGE_CURVE('',#258,#365,#401,.T.);
#401 = SURFACE_CURVE('',#402,(#407,#414),.PCURVE_S1.);
#402 = CIRCLE('',#403,0.9);
#403 = AXIS2_PLACEMENT_3D('',#404,#405,#406);
#404 = CARTESIAN_POINT('',(242.8,-12.6,23.6));
#405 = DIRECTION('',(0.262864772603,-0.613351136074,0.744783522375));
#406 = DIRECTION('',(1.387778780781E-17,0.771930235617,0.635707252861));
#407 = PCURVE('',#102,#408);
#408 = DEFINITIONAL_REPRESENTATION('',(#409),#413);
#409 = LINE('',#410,#411);
#410 = CARTESIAN_POINT('',(0.,9.130169768411));
#411 = VECTOR('',#412,1.);
#412 = DIRECTION('',(1.,0.));
#413 = ( GEOMETRIC_REPRESENTATION_CONTEXT(2) 
PARAMETRIC_REPRESENTATION_CONTEXT() REPRESENTATION_CONTEXT('2D SPACE',''
  ) );
#414 = PCURVE('',#297,#415);
#415 = DEFINITIONAL_REPRESENTATION('',(#416),#426);
#416 = B_SPLINE_CURVE_WITH_KNOTS('',8,(#417,#418,#419,#420,#421,#422,
    #423,#424,#425),.UNSPECIFIED.,.F.,.F.,(9,9),(0.,0.674400113654),
  .PIECEWISE_BEZIER_KNOTS.);
#417 = CARTESIAN_POINT('',(7.853981633974,0.688924388215));
#418 = CARTESIAN_POINT('',(7.959347903303,0.71108389228));
#419 = CARTESIAN_POINT('',(8.069110528466,0.727017076165));
#420 = CARTESIAN_POINT('',(8.182295454538,0.736046032979));
#421 = CARTESIAN_POINT('',(8.297311726075,0.737655539044));
#422 = CARTESIAN_POINT('',(8.411717249478,0.731653629569));
#423 = CARTESIAN_POINT('',(8.523306625343,0.718424507948));
#424 = CARTESIAN_POINT('',(8.63077804616,0.698589760815));
#425 = CARTESIAN_POINT('',(8.733441032,0.672884314288));
#426 = ( GEOMETRIC_REPRESENTATION_CONTEXT(2) 
PARAMETRIC_REPRESENTATION_CONTEXT() REPRESENTATION_CONTEXT('2D SPACE',''
  ) );
#427 = ORIENTED_EDGE('',*,*,#257,.F.);
#428 = ORIENTED_EDGE('',*,*,#171,.T.);
#429 = ORIENTED_EDGE('',*,*,#79,.T.);
#430 = ORIENTED_EDGE('',*,*,#204,.F.);
#431 = ADVANCED_FACE('',(#432),#158,.F.);
#432 = FACE_BOUND('',#433,.T.);
#433 = EDGE_LOOP('',(#434));
#434 = ORIENTED_EDGE('',*,*,#143,.F.);
#435 = ADVANCED_FACE('',(#436),#297,.T.);
#436 = FACE_BOUND('',#437,.T.);
#437 = EDGE_LOOP('',(#438,#500,#501));
#438 = ORIENTED_EDGE('',*,*,#439,.T.);
#439 = EDGE_CURVE('',#365,#281,#440,.T.);
#440 = SURFACE_CURVE('',#441,(#446,#493),.PCURVE_S1.);
#441 = CIRCLE('',#442,0.9);
#442 = AXIS2_PLACEMENT_3D('',#443,#444,#445);
#443 = CARTESIAN_POINT('',(242.8,-12.6,23.6));
#444 = DIRECTION('',(1.221245327088E-15,0.780868809443,-0.624695047554)
  );
#445 = DIRECTION('',(-0.602469382564,0.498595351087,0.623244188859));
#446 = PCURVE('',#297,#447);
#447 = DEFINITIONAL_REPRESENTATION('',(#448),#492);
#448 = B_SPLINE_CURVE_WITH_KNOTS('',8,(#449,#450,#451,#452,#453,#454,
    #455,#456,#457,#458,#459,#460,#461,#462,#463,#464,#465,#466,#467,
    #468,#469,#470,#471,#472,#473,#474,#475,#476,#477,#478,#479,#480,
    #481,#482,#483,#484,#485,#486,#487,#488,#489,#490,#491),
  .UNSPECIFIED.,.F.,.F.,(9,7,7,7,7,6,9),(0.,0.46773022851,0.935460457021
    ,1.247280609361,1.663040812482,2.217387749975,3.14159265359),
  .UNSPECIFIED.);
#449 = CARTESIAN_POINT('',(8.733441032,0.672884314288));
#450 = CARTESIAN_POINT('',(8.673719670782,0.708056276687));
#451 = CARTESIAN_POINT('',(8.61017284525,0.741241740589));
#452 = CARTESIAN_POINT('',(8.542392529842,0.772099785179));
#453 = CARTESIAN_POINT('',(8.470043343411,0.80023899421));
#454 = CARTESIAN_POINT('',(8.39287340456,0.825204342101));
#455 = CARTESIAN_POINT('',(8.310951800974,0.846501773876));
#456 = CARTESIAN_POINT('',(8.224876325275,0.863663287652));
#457 = CARTESIAN_POINT('',(8.046513934603,0.889047369173));
#458 = CARTESIAN_POINT('',(7.954225717018,0.897269617485));
#459 = CARTESIAN_POINT('',(7.859878556774,0.900687006148));
#460 = CARTESIAN_POINT('',(7.764926923264,0.899089263995));
#461 = CARTESIAN_POINT('',(7.671221838977,0.892479274281));
#462 = CARTESIAN_POINT('',(7.580267269911,0.881131446869));
#463 = CARTESIAN_POINT('',(7.493003897471,0.865432205691));
#464 = CARTESIAN_POINT('',(7.354570609215,0.832744417288));
#465 = CARTESIAN_POINT('',(7.301064962882,0.817929942001));
#466 = CARTESIAN_POINT('',(7.249579468195,0.801505737983));
#467 = CARTESIAN_POINT('',(7.20017381722,0.783610629422));
#468 = CARTESIAN_POINT('',(7.152836268802,0.764382332482));
#469 = CARTESIAN_POINT('',(7.107503962611,0.74395077633));
#470 = CARTESIAN_POINT('',(7.064082189853,0.722435046211));
#471 = CARTESIAN_POINT('',(6.966969861687,0.669955818375));
#472 = CARTESIAN_POINT('',(6.914681026602,0.638233502693));
#473 = CARTESIAN_POINT('',(6.865334226187,0.605035222012));
#474 = CARTESIAN_POINT('',(6.818621376648,0.57058297586));
#475 = CARTESIAN_POINT('',(6.774230878312,0.535065146543));
#476 = CARTESIAN_POINT('',(6.731872308365,0.498640613314));
#477 = CARTESIAN_POINT('',(6.6912831276,0.461444377004));
#478 = CARTESIAN_POINT('',(6.600129765957,0.373128452519));
#479 = CARTESIAN_POINT('',(6.55075151806,0.321500419244));
#480 = CARTESIAN_POINT('',(6.503503146246,0.268989357862));
#481 = CARTESIAN_POINT('',(6.457879347482,0.215818122929));
#482 = CARTESIAN_POINT('',(6.413433455344,0.162172756205));
#483 = CARTESIAN_POINT('',(6.369759590101,0.108217971501));
#484 = CARTESIAN_POINT('',(6.254304033997,-3.61011251165E-02));
#485 = CARTESIAN_POINT('',(6.13884993325,-0.180421100011));
#486 = CARTESIAN_POINT('',(6.064883675659,-0.269912835663));
#487 = CARTESIAN_POINT('',(5.987371891795,-0.357983381051));
#488 = CARTESIAN_POINT('',(5.904155890195,-0.443745762054));
#489 = CARTESIAN_POINT('',(5.812918993815,-0.526131949632));
#490 = CARTESIAN_POINT('',(5.70985395411,-0.603386774601));
#491 = CARTESIAN_POINT('',(5.59184837841,-0.672884314288));
#492 = ( GEOMETRIC_REPRESENTATION_CONTEXT(2) 
PARAMETRIC_REPRESENTATION_CONTEXT() REPRESENTATION_CONTEXT('2D SPACE',''
  ) );
#493 = PCURVE('',#349,#494);
#494 = DEFINITIONAL_REPRESENTATION('',(#495),#499);
#495 = LINE('',#496,#497);
#496 = CARTESIAN_POINT('',(3.78818407677,0.));
#497 = VECTOR('',#498,1.);
#498 = DIRECTION('',(-1.,-0.));
#499 = ( GEOMETRIC_REPRESENTATION_CONTEXT(2) 
PARAMETRIC_REPRESENTATION_CONTEXT() REPRESENTATION_CONTEXT('2D SPACE',''
  ) );
#500 = ORIENTED_EDGE('',*,*,#280,.F.);
#501 = ORIENTED_EDGE('',*,*,#400,.T.);
#502 = ADVANCED_FACE('',(#503),#349,.T.);
#503 = FACE_BOUND('',#504,.T.);
#504 = EDGE_LOOP('',(#505,#570,#609,#630,#631,#632,#633,#634));
#505 = ORIENTED_EDGE('',*,*,#506,.F.);
#506 = EDGE_CURVE('',#507,#509,#511,.T.);
#507 = VERTEX_POINT('',#508);
#508 = CARTESIAN_POINT('',(243.7,-16.6,26.8));
#509 = VERTEX_POINT('',#510);
#510 = CARTESIAN_POINT('',(241.9,-16.6,26.8));
#511 = SURFACE_CURVE('',#512,(#517,#524),.PCURVE_S1.);
#512 = CIRCLE('',#513,0.9);
#513 = AXIS2_PLACEMENT_3D('',#514,#515,#516);
#514 = CARTESIAN_POINT('',(242.8,-16.6,26.8));
#515 = DIRECTION('',(0.,-0.780868809443,0.624695047554));
#516 = DIRECTION('',(0.,-0.624695047554,-0.780868809443));
#517 = PCURVE('',#349,#518);
#518 = DEFINITIONAL_REPRESENTATION('',(#519),#523);
#519 = LINE('',#520,#521);
#520 = CARTESIAN_POINT('',(0.,5.122499389946));
#521 = VECTOR('',#522,1.);
#522 = DIRECTION('',(1.,0.));
#523 = ( GEOMETRIC_REPRESENTATION_CONTEXT(2) 
PARAMETRIC_REPRESENTATION_CONTEXT() REPRESENTATION_CONTEXT('2D SPACE',''
  ) );
#524 = PCURVE('',#525,#530);
#525 = SPHERICAL_SURFACE('',#526,0.9);
#526 = AXIS2_PLACEMENT_3D('',#527,#528,#529);
#527 = CARTESIAN_POINT('',(242.8,-16.6,26.8));
#528 = DIRECTION('',(0.,0.,1.));
#529 = DIRECTION('',(1.,0.,-0.));
#530 = DEFINITIONAL_REPRESENTATION('',(#531),#569);
#531 = B_SPLINE_CURVE_WITH_KNOTS('',8,(#532,#533,#534,#535,#536,#537,
    #538,#539,#540,#541,#542,#543,#544,#545,#546,#547,#548,#549,#550,
    #551,#552,#553,#554,#555,#556,#557,#558,#559,#560,#561,#562,#563,
    #564,#565,#566,#567,#568),.UNSPECIFIED.,.F.,.F.,(9,7,7,7,7,9),(
    1.570796326795,2.356194490192,2.94524311274,3.387029579651,
    4.049709280018,4.712388980385),.UNSPECIFIED.);
#532 = CARTESIAN_POINT('',(-1.24344978758E-14,-1.578983857245E-14));
#533 = CARTESIAN_POINT('',(6.132929287908E-02,7.666161609885E-02));
#534 = CARTESIAN_POINT('',(0.122660000772,0.153323047443));
#535 = CARTESIAN_POINT('',(0.185081444365,0.229546063476));
#536 = CARTESIAN_POINT('',(0.249716539854,0.304888377997));
#537 = CARTESIAN_POINT('',(0.317744010333,0.378853051445));
#538 = CARTESIAN_POINT('',(0.390609182352,0.450818513735));
#539 = CARTESIAN_POINT('',(0.470151888096,0.519932091207));
#540 = CARTESIAN_POINT('',(0.6245510728,0.633713293773));
#541 = CARTESIAN_POINT('',(0.695607046034,0.680172784648));
#542 = CARTESIAN_POINT('',(0.772385099871,0.723806412662));
#543 = CARTESIAN_POINT('',(0.855779834067,0.763962958097));
#544 = CARTESIAN_POINT('',(0.946548367989,0.799867208245));
#545 = CARTESIAN_POINT('',(1.045312646154,0.830530132352));
#546 = CARTESIAN_POINT('',(1.151280455894,0.854940270131));
#547 = CARTESIAN_POINT('',(1.345970096066,0.885468441753));
#548 = CARTESIAN_POINT('',(1.432380382185,0.894633293901));
#549 = CARTESIAN_POINT('',(1.520953130154,0.899580812684));
#550 = CARTESIAN_POINT('',(1.610525987144,0.90009154635));
#551 = CARTESIAN_POINT('',(1.69961688537,0.896122228974));
#552 = CARTESIAN_POINT('',(1.786828745926,0.887819869973));
#553 = CARTESIAN_POINT('',(1.871208434803,0.875473587121));
#554 = CARTESIAN_POINT('',(2.073544223332,0.835351597448));
#555 = CARTESIAN_POINT('',(2.187196951992,0.802949061955));
#556 = CARTESIAN_POINT('',(2.291039538072,0.763374203852));
#557 = CARTESIAN_POINT('',(2.384936998253,0.718120619882));
#558 = CARTESIAN_POINT('',(2.470376209822,0.66843113888));
#559 = CARTESIAN_POINT('',(2.548536389494,0.615232177901));
#560 = CARTESIAN_POINT('',(2.620708235877,0.559269867172));
#561 = CARTESIAN_POINT('',(2.755254531084,0.442986162817));
#562 = CARTESIAN_POINT('',(2.817630123432,0.382664996166));
#563 = CARTESIAN_POINT('',(2.876213383125,0.320750852823));
#564 = CARTESIAN_POINT('',(2.931965992163,0.257677177677));
#565 = CARTESIAN_POINT('',(2.985693943615,0.193785859163));
#566 = CARTESIAN_POINT('',(3.038099217977,0.129366454905));
#567 = CARTESIAN_POINT('',(3.089846062723,6.468323858342E-02));
#568 = CARTESIAN_POINT('',(3.14159265359,7.894919286223E-15));
#569 = ( GEOMETRIC_REPRESENTATION_CONTEXT(2) 
PARAMETRIC_REPRESENTATION_CONTEXT() REPRESENTATION_CONTEXT('2D SPACE',''
  ) );
#570 = ORIENTED_EDGE('',*,*,#571,.F.);
#571 = EDGE_CURVE('',#572,#507,#574,.T.);
#572 = VERTEX_POINT('',#573);
#573 = CARTESIAN_POINT('',(242.8,-17.03688371004,25.996944605298));
#574 = SURFACE_CURVE('',#575,(#580,#592),.PCURVE_S1.);
#575 = ELLIPSE('',#576,0.9142020253,0.9);
#576 = AXIS2_PLACEMENT_3D('',#577,#578,#579);
#577 = CARTESIAN_POINT('',(242.8,-16.6,26.8));
#578 = DIRECTION('',(0.,-0.878422244185,0.47788530101));
#579 = DIRECTION('',(0.,0.47788530101,0.878422244185));
#580 = PCURVE('',#349,#581);
#581 = DEFINITIONAL_REPRESENTATION('',(#582),#591);
#582 = B_SPLINE_CURVE_WITH_KNOTS('',7,(#583,#584,#585,#586,#587,#588,
    #589,#590),.UNSPECIFIED.,.F.,.F.,(8,8),(3.14159265359,4.712388980385
    ),.PIECEWISE_BEZIER_KNOTS.);
#583 = CARTESIAN_POINT('',(0.,4.961983524491));
#584 = CARTESIAN_POINT('',(0.224399475256,4.961983524491));
#585 = CARTESIAN_POINT('',(0.448798950513,4.971413618519));
#586 = CARTESIAN_POINT('',(0.673198425769,4.990272438587));
#587 = CARTESIAN_POINT('',(0.897597901026,5.017402136554));
#588 = CARTESIAN_POINT('',(1.121997376282,5.05046018425));
#589 = CARTESIAN_POINT('',(1.346396851538,5.086479713968));
#590 = CARTESIAN_POINT('',(1.570796326795,5.122499389946));
#591 = ( GEOMETRIC_REPRESENTATION_CONTEXT(2) 
PARAMETRIC_REPRESENTATION_CONTEXT() REPRESENTATION_CONTEXT('2D SPACE',''
  ) );
#592 = PCURVE('',#593,#598);
#593 = CYLINDRICAL_SURFACE('',#594,0.9);
#594 = AXIS2_PLACEMENT_3D('',#595,#596,#597);
#595 = CARTESIAN_POINT('',(242.8,-16.6,26.8));
#596 = DIRECTION('',(0.,-0.948683298051,0.316227766017));
#597 = DIRECTION('',(0.,-0.316227766017,-0.948683298051));
#598 = DEFINITIONAL_REPRESENTATION('',(#599),#608);
#599 = B_SPLINE_CURVE_WITH_KNOTS('',7,(#600,#601,#602,#603,#604,#605,
    #606,#607),.UNSPECIFIED.,.F.,.F.,(8,8),(3.14159265359,4.712388980385
    ),.PIECEWISE_BEZIER_KNOTS.);
#600 = CARTESIAN_POINT('',(0.,0.160515865455));
#601 = CARTESIAN_POINT('',(0.224399475256,0.160515865455));
#602 = CARTESIAN_POINT('',(0.448798950513,0.151085771427));
#603 = CARTESIAN_POINT('',(0.673198425769,0.132226951359));
#604 = CARTESIAN_POINT('',(0.897597901026,0.105097253393));
#605 = CARTESIAN_POINT('',(1.121997376282,7.203920569579E-02));
#606 = CARTESIAN_POINT('',(1.346396851538,3.601967597843E-02));
#607 = CARTESIAN_POINT('',(1.570796326795,0.));
#608 = ( GEOMETRIC_REPRESENTATION_CONTEXT(2) 
PARAMETRIC_REPRESENTATION_CONTEXT() REPRESENTATION_CONTEXT('2D SPACE',''
  ) );
#609 = ORIENTED_EDGE('',*,*,#610,.F.);
#610 = EDGE_CURVE('',#330,#572,#611,.T.);
#611 = SEAM_CURVE('',#612,(#616,#623),.PCURVE_S1.);
#612 = LINE('',#613,#614);
#613 = CARTESIAN_POINT('',(242.8,-13.16222554279,22.897218071501));
#614 = VECTOR('',#615,1.);
#615 = DIRECTION('',(0.,-0.780868809443,0.624695047554));
#616 = PCURVE('',#349,#617);
#617 = DEFINITIONAL_REPRESENTATION('',(#618),#622);
#618 = LINE('',#619,#620);
#619 = CARTESIAN_POINT('',(0.,-0.));
#620 = VECTOR('',#621,1.);
#621 = DIRECTION('',(0.,1.));
#622 = ( GEOMETRIC_REPRESENTATION_CONTEXT(2) 
PARAMETRIC_REPRESENTATION_CONTEXT() REPRESENTATION_CONTEXT('2D SPACE',''
  ) );
#623 = PCURVE('',#349,#624);
#624 = DEFINITIONAL_REPRESENTATION('',(#625),#629);
#625 = LINE('',#626,#627);
#626 = CARTESIAN_POINT('',(6.28318530718,-0.));
#627 = VECTOR('',#628,1.);
#628 = DIRECTION('',(0.,1.));
#629 = ( GEOMETRIC_REPRESENTATION_CONTEXT(2) 
PARAMETRIC_REPRESENTATION_CONTEXT() REPRESENTATION_CONTEXT('2D SPACE',''
  ) );
#630 = ORIENTED_EDGE('',*,*,#329,.T.);
#631 = ORIENTED_EDGE('',*,*,#439,.F.);
#632 = ORIENTED_EDGE('',*,*,#364,.T.);
#633 = ORIENTED_EDGE('',*,*,#610,.T.);
#634 = ORIENTED_EDGE('',*,*,#635,.F.);
#635 = EDGE_CURVE('',#509,#572,#636,.T.);
#636 = SURFACE_CURVE('',#637,(#642,#654),.PCURVE_S1.);
#637 = ELLIPSE('',#638,0.9142020253,0.9);
#638 = AXIS2_PLACEMENT_3D('',#639,#640,#641);
#639 = CARTESIAN_POINT('',(242.8,-16.6,26.8));
#640 = DIRECTION('',(0.,-0.878422244185,0.47788530101));
#641 = DIRECTION('',(0.,0.47788530101,0.878422244185));
#642 = PCURVE('',#349,#643);
#643 = DEFINITIONAL_REPRESENTATION('',(#644),#653);
#644 = B_SPLINE_CURVE_WITH_KNOTS('',7,(#645,#646,#647,#648,#649,#650,
    #651,#652),.UNSPECIFIED.,.F.,.F.,(8,8),(1.570796326795,3.14159265359
    ),.PIECEWISE_BEZIER_KNOTS.);
#645 = CARTESIAN_POINT('',(4.712388980385,5.122499389946));
#646 = CARTESIAN_POINT('',(4.936788455641,5.086479713968));
#647 = CARTESIAN_POINT('',(5.161187930897,5.050460184249));
#648 = CARTESIAN_POINT('',(5.385587406154,5.017402136556));
#649 = CARTESIAN_POINT('',(5.60998688141,4.990272438584));
#650 = CARTESIAN_POINT('',(5.834386356667,4.971413618521));
#651 = CARTESIAN_POINT('',(6.058785831923,4.961983524491));
#652 = CARTESIAN_POINT('',(6.28318530718,4.961983524491));
#653 = ( GEOMETRIC_REPRESENTATION_CONTEXT(2) 
PARAMETRIC_REPRESENTATION_CONTEXT() REPRESENTATION_CONTEXT('2D SPACE',''
  ) );
#654 = PCURVE('',#593,#655);
#655 = DEFINITIONAL_REPRESENTATION('',(#656),#665);
#656 = B_SPLINE_CURVE_WITH_KNOTS('',7,(#657,#658,#659,#660,#661,#662,
    #663,#664),.UNSPECIFIED.,.F.,.F.,(8,8),(1.570796326795,3.14159265359
    ),.PIECEWISE_BEZIER_KNOTS.);
#657 = CARTESIAN_POINT('',(4.712388980385,0.));
#658 = CARTESIAN_POINT('',(4.936788455641,3.601967597843E-02));
#659 = CARTESIAN_POINT('',(5.161187930897,7.203920569581E-02));
#660 = CARTESIAN_POINT('',(5.385587406154,0.105097253393));
#661 = CARTESIAN_POINT('',(5.60998688141,0.132226951359));
#662 = CARTESIAN_POINT('',(5.834386356667,0.151085771427));
#663 = CARTESIAN_POINT('',(6.058785831923,0.160515865455));
#664 = CARTESIAN_POINT('',(6.28318530718,0.160515865455));
#665 = ( GEOMETRIC_REPRESENTATION_CONTEXT(2) 
PARAMETRIC_REPRESENTATION_CONTEXT() REPRESENTATION_CONTEXT('2D SPACE',''
  ) );
#666 = ADVANCED_FACE('',(#667),#525,.T.);
#667 = FACE_BOUND('',#668,.T.);
#668 = EDGE_LOOP('',(#669,#746));
#669 = ORIENTED_EDGE('',*,*,#670,.F.);
#670 = EDGE_CURVE('',#507,#509,#671,.T.);
#671 = SURFACE_CURVE('',#672,(#677,#739),.PCURVE_S1.);
#672 = CIRCLE('',#673,0.9);
#673 = AXIS2_PLACEMENT_3D('',#674,#675,#676);
#674 = CARTESIAN_POINT('',(242.8,-16.6,26.8));
#675 = DIRECTION('',(0.,-0.948683298051,0.316227766017));
#676 = DIRECTION('',(0.,-0.316227766017,-0.948683298051));
#677 = PCURVE('',#525,#678);
#678 = DEFINITIONAL_REPRESENTATION('',(#679),#738);
#679 = B_SPLINE_CURVE_WITH_KNOTS('',8,(#680,#681,#682,#683,#684,#685,
    #686,#687,#688,#689,#690,#691,#692,#693,#694,#695,#696,#697,#698,
    #699,#700,#701,#702,#703,#704,#705,#706,#707,#708,#709,#710,#711,
    #712,#713,#714,#715,#716,#717,#718,#719,#720,#721,#722,#723,#724,
    #725,#726,#727,#728,#729,#730,#731,#732,#733,#734,#735,#736,#737),
  .UNSPECIFIED.,.F.,.F.,(9,7,7,7,7,7,7,7,9),(1.570796326795,
    2.356194490192,2.650718801466,2.908427573831,3.13392274965,
    3.331231028492,3.676520516465,4.194454748425,4.712388980385),
  .UNSPECIFIED.);
#680 = CARTESIAN_POINT('',(-7.993605777301E-15,-1.973729821556E-14));
#681 = CARTESIAN_POINT('',(3.104558833061E-02,9.313676499182E-02));
#682 = CARTESIAN_POINT('',(6.209168463986E-02,0.186273368551));
#683 = CARTESIAN_POINT('',(9.395455165279E-02,0.279274424312));
#684 = CARTESIAN_POINT('',(0.127473333909,0.371997479866));
#685 = CARTESIAN_POINT('',(0.163592510701,0.464290220751));
#686 = CARTESIAN_POINT('',(0.20374727177,0.555898267917));
#687 = CARTESIAN_POINT('',(0.249830844932,0.646512031714));
#688 = CARTESIAN_POINT('',(0.327444815759,0.76861536073));
#689 = CARTESIAN_POINT('',(0.350069476866,0.801661427643));
#690 = CARTESIAN_POINT('',(0.374386153709,0.834409882558));
#691 = CARTESIAN_POINT('',(0.400679022915,0.866806529102));
#692 = CARTESIAN_POINT('',(0.429299852676,0.898784142437));
#693 = CARTESIAN_POINT('',(0.460693045623,0.930255950095));
#694 = CARTESIAN_POINT('',(0.495427508452,0.961104196756));
#695 = CARTESIAN_POINT('',(0.568192208104,1.017465939612));
#696 = CARTESIAN_POINT('',(0.605267751599,1.043164105804));
#697 = CARTESIAN_POINT('',(0.645949399115,1.068148006928));
#698 = CARTESIAN_POINT('',(0.690824079921,1.09227646841));
#699 = CARTESIAN_POINT('',(0.740566328858,1.115374267523));
#700 = CARTESIAN_POINT('',(0.79597031413,1.137210779813));
#701 = CARTESIAN_POINT('',(0.857853642621,1.157484328634));
#702 = CARTESIAN_POINT('',(0.986867042351,1.191893968048));
#703 = CARTESIAN_POINT('',(1.052375261643,1.206480869617));
#704 = CARTESIAN_POINT('',(1.123477461994,1.219354874743));
#705 = CARTESIAN_POINT('',(1.200261639357,1.230250780524));
#706 = CARTESIAN_POINT('',(1.282396901253,1.238868109838));
#707 = CARTESIAN_POINT('',(1.368769302258,1.244939264535));
#708 = CARTESIAN_POINT('',(1.457458611585,1.248309148969));
#709 = CARTESIAN_POINT('',(1.624497914803,1.249524888466));
#710 = CARTESIAN_POINT('',(1.702751236072,1.248008418001));
#711 = CARTESIAN_POINT('',(1.780019834233,1.244393258702));
#712 = CARTESIAN_POINT('',(1.854930416638,1.238740297785));
#713 = CARTESIAN_POINT('',(1.926434347703,1.231190940592));
#714 = CARTESIAN_POINT('',(1.993939078138,1.221929123941));
#715 = CARTESIAN_POINT('',(2.057240154077,1.211139234509));
#716 = CARTESIAN_POINT('',(2.219749706933,1.177752438832));
#717 = CARTESIAN_POINT('',(2.310286178904,1.152368208502));
#718 = CARTESIAN_POINT('',(2.387957107143,1.123801083277));
#719 = CARTESIAN_POINT('',(2.454988730081,1.092887102317));
#720 = CARTESIAN_POINT('',(2.513448951117,1.060188431677));
#721 = CARTESIAN_POINT('',(2.564849207736,1.026075880508));
#722 = CARTESIAN_POINT('',(2.610496847092,0.990853402298));
#723 = CARTESIAN_POINT('',(2.712692794842,0.900543222594));
#724 = CARTESIAN_POINT('',(2.763282768622,0.844331012658));
#725 = CARTESIAN_POINT('',(2.806516606905,0.786814333126));
#726 = CARTESIAN_POINT('',(2.844386922143,0.728356966146));
#727 = CARTESIAN_POINT('',(2.878188190011,0.66919273298));
#728 = CARTESIAN_POINT('',(2.908845600041,0.609493679572));
#729 = CARTESIAN_POINT('',(2.937044418056,0.549374415485));
#730 = CARTESIAN_POINT('',(2.989580045254,0.428482511566));
#731 = CARTESIAN_POINT('',(3.013917759612,0.367709719363));
#732 = CARTESIAN_POINT('',(3.036850529558,0.306700960859));
#733 = CARTESIAN_POINT('',(3.058758795391,0.24552091191));
#734 = CARTESIAN_POINT('',(3.079938817529,0.184219297958));
#735 = CARTESIAN_POINT('',(3.1006457861,0.122838775079));
#736 = CARTESIAN_POINT('',(3.12111950545,6.141944441861E-02));
#737 = CARTESIAN_POINT('',(3.14159265359,7.894919286223E-15));
#738 = ( GEOMETRIC_REPRESENTATION_CONTEXT(2) 
PARAMETRIC_REPRESENTATION_CONTEXT() REPRESENTATION_CONTEXT('2D SPACE',''
  ) );
#739 = PCURVE('',#593,#740);
#740 = DEFINITIONAL_REPRESENTATION('',(#741),#745);
#741 = LINE('',#742,#743);
#742 = CARTESIAN_POINT('',(0.,0.));
#743 = VECTOR('',#744,1.);
#744 = DIRECTION('',(1.,0.));
#745 = ( GEOMETRIC_REPRESENTATION_CONTEXT(2) 
PARAMETRIC_REPRESENTATION_CONTEXT() REPRESENTATION_CONTEXT('2D SPACE',''
  ) );
#746 = ORIENTED_EDGE('',*,*,#506,.T.);
#747 = ADVANCED_FACE('',(#748),#593,.T.);
#748 = FACE_BOUND('',#749,.T.);
#749 = EDGE_LOOP('',(#750,#773,#829,#868,#902,#951,#952,#953,#954));
#750 = ORIENTED_EDGE('',*,*,#751,.T.);
#751 = EDGE_CURVE('',#572,#752,#754,.T.);
#752 = VERTEX_POINT('',#753);
#753 = CARTESIAN_POINT('',(242.8,-21.68460498941,27.546185031755));
#754 = SEAM_CURVE('',#755,(#759,#766),.PCURVE_S1.);
#755 = LINE('',#756,#757);
#756 = CARTESIAN_POINT('',(242.8,-16.88460498941,25.946185031755));
#757 = VECTOR('',#758,1.);
#758 = DIRECTION('',(0.,-0.948683298051,0.316227766017));
#759 = PCURVE('',#593,#760);
#760 = DEFINITIONAL_REPRESENTATION('',(#761),#765);
#761 = LINE('',#762,#763);
#762 = CARTESIAN_POINT('',(6.28318530718,-0.));
#763 = VECTOR('',#764,1.);
#764 = DIRECTION('',(0.,1.));
#765 = ( GEOMETRIC_REPRESENTATION_CONTEXT(2) 
PARAMETRIC_REPRESENTATION_CONTEXT() REPRESENTATION_CONTEXT('2D SPACE',''
  ) );
#766 = PCURVE('',#593,#767);
#767 = DEFINITIONAL_REPRESENTATION('',(#768),#772);
#768 = LINE('',#769,#770);
#769 = CARTESIAN_POINT('',(0.,-0.));
#770 = VECTOR('',#771,1.);
#771 = DIRECTION('',(0.,1.));
#772 = ( GEOMETRIC_REPRESENTATION_CONTEXT(2) 
PARAMETRIC_REPRESENTATION_CONTEXT() REPRESENTATION_CONTEXT('2D SPACE',''
  ) );
#773 = ORIENTED_EDGE('',*,*,#774,.F.);
#774 = EDGE_CURVE('',#775,#752,#777,.T.);
#775 = VERTEX_POINT('',#776);
#776 = CARTESIAN_POINT('',(241.9,-21.4,28.4));
#777 = SURFACE_CURVE('',#778,(#783,#790),.PCURVE_S1.);
#778 = CIRCLE('',#779,0.9);
#779 = AXIS2_PLACEMENT_3D('',#780,#781,#782);
#780 = CARTESIAN_POINT('',(242.8,-21.4,28.4));
#781 = DIRECTION('',(0.,-0.948683298051,0.316227766017));
#782 = DIRECTION('',(0.,-0.316227766017,-0.948683298051));
#783 = PCURVE('',#593,#784);
#784 = DEFINITIONAL_REPRESENTATION('',(#785),#789);
#785 = LINE('',#786,#787);
#786 = CARTESIAN_POINT('',(0.,5.059644256269));
#787 = VECTOR('',#788,1.);
#788 = DIRECTION('',(1.,0.));
#789 = ( GEOMETRIC_REPRESENTATION_CONTEXT(2) 
PARAMETRIC_REPRESENTATION_CONTEXT() REPRESENTATION_CONTEXT('2D SPACE',''
  ) );
#790 = PCURVE('',#791,#796);
#791 = SPHERICAL_SURFACE('',#792,0.9);
#792 = AXIS2_PLACEMENT_3D('',#793,#794,#795);
#793 = CARTESIAN_POINT('',(242.8,-21.4,28.4));
#794 = DIRECTION('',(0.,0.,1.));
#795 = DIRECTION('',(1.,0.,-0.));
#796 = DEFINITIONAL_REPRESENTATION('',(#797),#828);
#797 = B_SPLINE_CURVE_WITH_KNOTS('',8,(#798,#799,#800,#801,#802,#803,
    #804,#805,#806,#807,#808,#809,#810,#811,#812,#813,#814,#815,#816,
    #817,#818,#819,#820,#821,#822,#823,#824,#825,#826,#827),
  .UNSPECIFIED.,.F.,.F.,(9,7,7,7,9),(4.712388980385,5.497787143782,
    5.890486225481,6.08683576633,6.28318530718),.UNSPECIFIED.);
#798 = CARTESIAN_POINT('',(3.14159265359,7.894919286223E-15));
#799 = CARTESIAN_POINT('',(3.17263824192,-9.313676499183E-02));
#800 = CARTESIAN_POINT('',(3.203684338235,-0.186273368552));
#801 = CARTESIAN_POINT('',(3.235547205204,-0.279274424314));
#802 = CARTESIAN_POINT('',(3.269065987542,-0.371997479865));
#803 = CARTESIAN_POINT('',(3.305185164229,-0.464290220751));
#804 = CARTESIAN_POINT('',(3.345339925364,-0.555898267917));
#805 = CARTESIAN_POINT('',(3.391423498522,-0.646512031714));
#806 = CARTESIAN_POINT('',(3.476093284878,-0.779715663368));
#807 = CARTESIAN_POINT('',(3.506907102983,-0.823664006788));
#808 = CARTESIAN_POINT('',(3.5408693428,-0.86705688019));
#809 = CARTESIAN_POINT('',(3.578683975342,-0.909760197416));
#810 = CARTESIAN_POINT('',(3.6213260803,-0.951588880606));
#811 = CARTESIAN_POINT('',(3.67002375163,-0.992286923363));
#812 = CARTESIAN_POINT('',(3.726675117296,-1.031464178371));
#813 = CARTESIAN_POINT('',(3.82712376064,-1.08698597768));
#814 = CARTESIAN_POINT('',(3.863184576696,-1.104952752679));
#815 = CARTESIAN_POINT('',(3.902120701171,-1.122298000626));
#816 = CARTESIAN_POINT('',(3.944248791123,-1.138927302799));
#817 = CARTESIAN_POINT('',(3.989912000186,-1.15472553235));
#818 = CARTESIAN_POINT('',(4.039444836878,-1.169554299389));
#819 = CARTESIAN_POINT('',(4.093095668244,-1.18325416613));
#820 = CARTESIAN_POINT('',(4.208718069378,-1.208049098138));
#821 = CARTESIAN_POINT('',(4.270690249908,-1.219144459313));
#822 = CARTESIAN_POINT('',(4.336858712801,-1.228764639619));
#823 = CARTESIAN_POINT('',(4.407071628053,-1.236727996419));
#824 = CARTESIAN_POINT('',(4.480824112873,-1.242849582947));
#825 = CARTESIAN_POINT('',(4.557162359247,-1.24698047905));
#826 = CARTESIAN_POINT('',(4.634775009558,-1.249045772398));
#827 = CARTESIAN_POINT('',(4.712388980385,-1.249045772398));
#828 = ( GEOMETRIC_REPRESENTATION_CONTEXT(2) 
PARAMETRIC_REPRESENTATION_CONTEXT() REPRESENTATION_CONTEXT('2D SPACE',''
  ) );
#829 = ORIENTED_EDGE('',*,*,#830,.F.);
#830 = EDGE_CURVE('',#831,#775,#833,.T.);
#831 = VERTEX_POINT('',#832);
#832 = CARTESIAN_POINT('',(242.8,-20.76173327097,29.1359277217));
#833 = SURFACE_CURVE('',#834,(#839,#851),.PCURVE_S1.);
#834 = ELLIPSE('',#835,0.974152980263,0.9);
#835 = AXIS2_PLACEMENT_3D('',#836,#837,#838);
#836 = CARTESIAN_POINT('',(242.8,-21.4,28.4));
#837 = DIRECTION('',(0.,-0.755453954996,0.65520174136));
#838 = DIRECTION('',(0.,-0.65520174136,-0.755453954996));
#839 = PCURVE('',#593,#840);
#840 = DEFINITIONAL_REPRESENTATION('',(#841),#850);
#841 = B_SPLINE_CURVE_WITH_KNOTS('',7,(#842,#843,#844,#845,#846,#847,
    #848,#849),.UNSPECIFIED.,.F.,.F.,(8,8),(3.14159265359,4.71238976361)
  ,.PIECEWISE_BEZIER_KNOTS.);
#842 = CARTESIAN_POINT('',(3.14159265359,4.686852050134));
#843 = CARTESIAN_POINT('',(3.365992240736,4.686852050134));
#844 = CARTESIAN_POINT('',(3.590391827882,4.708753119245));
#845 = CARTESIAN_POINT('',(3.814791415027,4.752552080353));
#846 = CARTESIAN_POINT('',(4.039191002174,4.8155598683));
#847 = CARTESIAN_POINT('',(4.263590589318,4.892336036488));
#848 = CARTESIAN_POINT('',(4.487990176465,4.975990131102));
#849 = CARTESIAN_POINT('',(4.71238976361,5.05964454825));
#850 = ( GEOMETRIC_REPRESENTATION_CONTEXT(2) 
PARAMETRIC_REPRESENTATION_CONTEXT() REPRESENTATION_CONTEXT('2D SPACE',''
  ) );
#851 = PCURVE('',#852,#857);
#852 = CYLINDRICAL_SURFACE('',#853,0.9);
#853 = AXIS2_PLACEMENT_3D('',#854,#855,#856);
#854 = CARTESIAN_POINT('',(242.8,-21.4,28.4));
#855 = DIRECTION('',(0.,-0.4472135955,0.894427191));
#856 = DIRECTION('',(0.,0.894427191,0.4472135955));
#857 = DEFINITIONAL_REPRESENTATION('',(#858),#867);
#858 = B_SPLINE_CURVE_WITH_KNOTS('',7,(#859,#860,#861,#862,#863,#864,
    #865,#866),.UNSPECIFIED.,.F.,.F.,(8,8),(3.14159265359,4.71238976361)
  ,.PIECEWISE_BEZIER_KNOTS.);
#859 = CARTESIAN_POINT('',(0.,0.372792206136));
#860 = CARTESIAN_POINT('',(0.224399587146,0.372792206136));
#861 = CARTESIAN_POINT('',(0.448799174292,0.350891137024));
#862 = CARTESIAN_POINT('',(0.673198761437,0.307092175918));
#863 = CARTESIAN_POINT('',(0.897598348583,0.244084387968));
#864 = CARTESIAN_POINT('',(1.121997935729,0.167308219782));
#865 = CARTESIAN_POINT('',(1.346397522875,8.365412516759E-02));
#866 = CARTESIAN_POINT('',(1.570797110021,-2.919804202861E-07));
#867 = ( GEOMETRIC_REPRESENTATION_CONTEXT(2) 
PARAMETRIC_REPRESENTATION_CONTEXT() REPRESENTATION_CONTEXT('2D SPACE',''
  ) );
#868 = ORIENTED_EDGE('',*,*,#869,.F.);
#869 = EDGE_CURVE('',#870,#831,#872,.T.);
#870 = VERTEX_POINT('',#871);
#871 = CARTESIAN_POINT('',(243.7,-21.4,28.4));
#872 = SURFACE_CURVE('',#873,(#878,#890),.PCURVE_S1.);
#873 = ELLIPSE('',#874,0.974152980263,0.9);
#874 = AXIS2_PLACEMENT_3D('',#875,#876,#877);
#875 = CARTESIAN_POINT('',(242.8,-21.4,28.4));
#876 = DIRECTION('',(0.,-0.755453954996,0.65520174136));
#877 = DIRECTION('',(0.,-0.65520174136,-0.755453954996));
#878 = PCURVE('',#593,#879);
#879 = DEFINITIONAL_REPRESENTATION('',(#880),#889);
#880 = B_SPLINE_CURVE_WITH_KNOTS('',7,(#881,#882,#883,#884,#885,#886,
    #887,#888),.UNSPECIFIED.,.F.,.F.,(8,8),(1.570795522057,3.14159265359
    ),.PIECEWISE_BEZIER_KNOTS.);
#881 = CARTESIAN_POINT('',(1.570795522057,5.059644556269));
#882 = CARTESIAN_POINT('',(1.795195112276,4.975990137976));
#883 = CARTESIAN_POINT('',(2.019594702495,4.892336041744));
#884 = CARTESIAN_POINT('',(2.243994292715,4.815559871756));
#885 = CARTESIAN_POINT('',(2.468393882933,4.752552082148));
#886 = CARTESIAN_POINT('',(2.692793473152,4.708753119846));
#887 = CARTESIAN_POINT('',(2.917193063371,4.686852050134));
#888 = CARTESIAN_POINT('',(3.14159265359,4.686852050134));
#889 = ( GEOMETRIC_REPRESENTATION_CONTEXT(2) 
PARAMETRIC_REPRESENTATION_CONTEXT() REPRESENTATION_CONTEXT('2D SPACE',''
  ) );
#890 = PCURVE('',#852,#891);
#891 = DEFINITIONAL_REPRESENTATION('',(#892),#901);
#892 = B_SPLINE_CURVE_WITH_KNOTS('',7,(#893,#894,#895,#896,#897,#898,
    #899,#900),.UNSPECIFIED.,.F.,.F.,(8,8),(1.570795522057,3.14159265359
    ),.PIECEWISE_BEZIER_KNOTS.);
#893 = CARTESIAN_POINT('',(4.712388175647,-2.999999964004E-07));
#894 = CARTESIAN_POINT('',(4.936787765866,8.365411829367E-02));
#895 = CARTESIAN_POINT('',(5.161187356085,0.167308214524));
#896 = CARTESIAN_POINT('',(5.385586946304,0.244084384516));
#897 = CARTESIAN_POINT('',(5.609986536523,0.307092174119));
#898 = CARTESIAN_POINT('',(5.834386126742,0.350891136425));
#899 = CARTESIAN_POINT('',(6.058785716961,0.372792206136));
#900 = CARTESIAN_POINT('',(6.28318530718,0.372792206136));
#901 = ( GEOMETRIC_REPRESENTATION_CONTEXT(2) 
PARAMETRIC_REPRESENTATION_CONTEXT() REPRESENTATION_CONTEXT('2D SPACE',''
  ) );
#902 = ORIENTED_EDGE('',*,*,#903,.F.);
#903 = EDGE_CURVE('',#752,#870,#904,.T.);
#904 = SURFACE_CURVE('',#905,(#910,#917),.PCURVE_S1.);
#905 = CIRCLE('',#906,0.9);
#906 = AXIS2_PLACEMENT_3D('',#907,#908,#909);
#907 = CARTESIAN_POINT('',(242.8,-21.4,28.4));
#908 = DIRECTION('',(0.,-0.948683298051,0.316227766017));
#909 = DIRECTION('',(0.,-0.316227766017,-0.948683298051));
#910 = PCURVE('',#593,#911);
#911 = DEFINITIONAL_REPRESENTATION('',(#912),#916);
#912 = LINE('',#913,#914);
#913 = CARTESIAN_POINT('',(0.,5.059644256269));
#914 = VECTOR('',#915,1.);
#915 = DIRECTION('',(1.,0.));
#916 = ( GEOMETRIC_REPRESENTATION_CONTEXT(2) 
PARAMETRIC_REPRESENTATION_CONTEXT() REPRESENTATION_CONTEXT('2D SPACE',''
  ) );
#917 = PCURVE('',#791,#918);
#918 = DEFINITIONAL_REPRESENTATION('',(#919),#950);
#919 = B_SPLINE_CURVE_WITH_KNOTS('',8,(#920,#921,#922,#923,#924,#925,
    #926,#927,#928,#929,#930,#931,#932,#933,#934,#935,#936,#937,#938,
    #939,#940,#941,#942,#943,#944,#945,#946,#947,#948,#949),
  .UNSPECIFIED.,.F.,.F.,(9,7,7,7,9),(0.,0.196349540849,0.539961237336,
    1.055378782065,1.570796326795),.UNSPECIFIED.);
#920 = CARTESIAN_POINT('',(4.712388980385,-1.249045772398));
#921 = CARTESIAN_POINT('',(4.790002951211,-1.249045772398));
#922 = CARTESIAN_POINT('',(4.867615601522,-1.24698047905));
#923 = CARTESIAN_POINT('',(4.943953847898,-1.242849582947));
#924 = CARTESIAN_POINT('',(5.017706332717,-1.236727996418));
#925 = CARTESIAN_POINT('',(5.087919247968,-1.228764639619));
#926 = CARTESIAN_POINT('',(5.154087710862,-1.219144459313));
#927 = CARTESIAN_POINT('',(5.216059891391,-1.208049098138));
#928 = CARTESIAN_POINT('',(5.375040692951,-1.173956066627));
#929 = CARTESIAN_POINT('',(5.463471542716,-1.148272445612));
#930 = CARTESIAN_POINT('',(5.539370327886,-1.119525807539));
#931 = CARTESIAN_POINT('',(5.604974794507,-1.088533697029));
#932 = CARTESIAN_POINT('',(5.662239490037,-1.055800836251));
#933 = CARTESIAN_POINT('',(5.712670380514,-1.02171594698));
#934 = CARTESIAN_POINT('',(5.757506808802,-0.986550341773));
#935 = CARTESIAN_POINT('',(5.858006896585,-0.896452709608));
#936 = CARTESIAN_POINT('',(5.907875871264,-0.840428953657));
#937 = CARTESIAN_POINT('',(5.950571651637,-0.783133907005));
#938 = CARTESIAN_POINT('',(5.988024029751,-0.724919917575));
#939 = CARTESIAN_POINT('',(6.021491856914,-0.666014227574));
#940 = CARTESIAN_POINT('',(6.051877523619,-0.606584176766));
#941 = CARTESIAN_POINT('',(6.079849630564,-0.546741813604));
#942 = CARTESIAN_POINT('',(6.131999795068,-0.42641528855));
#943 = CARTESIAN_POINT('',(6.156178678333,-0.365930984609));
#944 = CARTESIAN_POINT('',(6.178975294179,-0.305214538879));
#945 = CARTESIAN_POINT('',(6.20076301972,-0.244329416366));
#946 = CARTESIAN_POINT('',(6.221833290902,-0.183324532437));
#947 = CARTESIAN_POINT('',(6.242437423217,-0.122241894734));
#948 = CARTESIAN_POINT('',(6.262811639838,-6.112100202592E-02));
#949 = CARTESIAN_POINT('',(6.28318530718,-2.763221750178E-14));
#950 = ( GEOMETRIC_REPRESENTATION_CONTEXT(2) 
PARAMETRIC_REPRESENTATION_CONTEXT() REPRESENTATION_CONTEXT('2D SPACE',''
  ) );
#951 = ORIENTED_EDGE('',*,*,#751,.F.);
#952 = ORIENTED_EDGE('',*,*,#571,.T.);
#953 = ORIENTED_EDGE('',*,*,#670,.T.);
#954 = ORIENTED_EDGE('',*,*,#635,.T.);
#955 = ADVANCED_FACE('',(#956),#791,.T.);
#956 = FACE_BOUND('',#957,.T.);
#957 = EDGE_LOOP('',(#958,#959,#1001));
#958 = ORIENTED_EDGE('',*,*,#903,.T.);
#959 = ORIENTED_EDGE('',*,*,#960,.F.);
#960 = EDGE_CURVE('',#775,#870,#961,.T.);
#961 = SURFACE_CURVE('',#962,(#967,#994),.PCURVE_S1.);
#962 = CIRCLE('',#963,0.9);
#963 = AXIS2_PLACEMENT_3D('',#964,#965,#966);
#964 = CARTESIAN_POINT('',(242.8,-21.4,28.4));
#965 = DIRECTION('',(0.,-0.4472135955,0.894427191));
#966 = DIRECTION('',(0.,0.894427191,0.4472135955));
#967 = PCURVE('',#791,#968);
#968 = DEFINITIONAL_REPRESENTATION('',(#969),#993);
#969 = B_SPLINE_CURVE_WITH_KNOTS('',8,(#970,#971,#972,#973,#974,#975,
    #976,#977,#978,#979,#980,#981,#982,#983,#984,#985,#986,#987,#988,
    #989,#990,#991,#992),.UNSPECIFIED.,.F.,.F.,(9,7,7,9),(1.570796326795
    ,2.356194490192,3.534291735289,4.712388980385),.UNSPECIFIED.);
#970 = CARTESIAN_POINT('',(3.14159265359,3.947459643112E-15));
#971 = CARTESIAN_POINT('',(3.229402837728,-4.3905092069E-02));
#972 = CARTESIAN_POINT('',(3.31721277085,-8.781062533593E-02));
#973 = CARTESIAN_POINT('',(3.405539721692,-0.131198610977));
#974 = CARTESIAN_POINT('',(3.494896399766,-0.173556831093));
#975 = CARTESIAN_POINT('',(3.585776470702,-0.214355000041));
#976 = CARTESIAN_POINT('',(3.678619230482,-0.253036491451));
#977 = CARTESIAN_POINT('',(3.773753438552,-0.289025630922));
#978 = CARTESIAN_POINT('',(4.017670616713,-0.370837939609));
#979 = CARTESIAN_POINT('',(4.169495398145,-0.412583276878));
#980 = CARTESIAN_POINT('',(4.327265824939,-0.445051327238));
#981 = CARTESIAN_POINT('',(4.490533491622,-0.466424023607));
#982 = CARTESIAN_POINT('',(4.657428263738,-0.474996258196));
#983 = CARTESIAN_POINT('',(4.823867785729,-0.47043582827));
#984 = CARTESIAN_POINT('',(4.987258194829,-0.453609301099));
#985 = CARTESIAN_POINT('',(5.304916393799,-0.398258645296));
#986 = CARTESIAN_POINT('',(5.459187227883,-0.359736122799));
#987 = CARTESIAN_POINT('',(5.607413429283,-0.311789321973));
#988 = CARTESIAN_POINT('',(5.74935026365,-0.256461225802));
#989 = CARTESIAN_POINT('',(5.886301587805,-0.195833879605));
#990 = CARTESIAN_POINT('',(6.019754257919,-0.131714921073));
#991 = CARTESIAN_POINT('',(6.151470030973,-6.585763810351E-02));
#992 = CARTESIAN_POINT('',(6.28318530718,-7.894919286223E-15));
#993 = ( GEOMETRIC_REPRESENTATION_CONTEXT(2) 
PARAMETRIC_REPRESENTATION_CONTEXT() REPRESENTATION_CONTEXT('2D SPACE',''
  ) );
#994 = PCURVE('',#852,#995);
#995 = DEFINITIONAL_REPRESENTATION('',(#996),#1000);
#996 = LINE('',#997,#998);
#997 = CARTESIAN_POINT('',(0.,0.));
#998 = VECTOR('',#999,1.);
#999 = DIRECTION('',(1.,0.));
#1000 = ( GEOMETRIC_REPRESENTATION_CONTEXT(2) 
PARAMETRIC_REPRESENTATION_CONTEXT() REPRESENTATION_CONTEXT('2D SPACE',''
  ) );
#1001 = ORIENTED_EDGE('',*,*,#774,.T.);
#1002 = ADVANCED_FACE('',(#1003),#852,.T.);
#1003 = FACE_BOUND('',#1004,.T.);
#1004 = EDGE_LOOP('',(#1005,#1046,#1095,#1127,#1148,#1149,#1150,#1151));
#1005 = ORIENTED_EDGE('',*,*,#1006,.F.);
#1006 = EDGE_CURVE('',#1007,#1009,#1011,.T.);
#1007 = VERTEX_POINT('',#1008);
#1008 = CARTESIAN_POINT('',(243.7,-22.2,30.));
#1009 = VERTEX_POINT('',#1010);
#1010 = CARTESIAN_POINT('',(242.8,-21.29999999999,30.212461179748));
#1011 = SURFACE_CURVE('',#1012,(#1017,#1029),.PCURVE_S1.);
#1012 = ELLIPSE('',#1013,0.924737667071,0.9);
#1013 = AXIS2_PLACEMENT_3D('',#1014,#1015,#1016);
#1014 = CARTESIAN_POINT('',(242.8,-22.2,30.));
#1015 = DIRECTION('',(0.,-0.229752920547,0.973248989468));
#1016 = DIRECTION('',(0.,-0.973248989468,-0.229752920547));
#1017 = PCURVE('',#852,#1018);
#1018 = DEFINITIONAL_REPRESENTATION('',(#1019),#1028);
#1019 = B_SPLINE_CURVE_WITH_KNOTS('',7,(#1020,#1021,#1022,#1023,#1024,
    #1025,#1026,#1027),.UNSPECIFIED.,.F.,.F.,(8,8),(1.570796326795,
    3.14159265359),.PIECEWISE_BEZIER_KNOTS.);
#1020 = CARTESIAN_POINT('',(4.712388980385,1.788854382));
#1021 = CARTESIAN_POINT('',(4.936788455641,1.741178204752));
#1022 = CARTESIAN_POINT('',(5.161187930898,1.693502221097));
#1023 = CARTESIAN_POINT('',(5.385587406154,1.649746098959));
#1024 = CARTESIAN_POINT('',(5.609986881411,1.613836828434));
#1025 = CARTESIAN_POINT('',(5.834386356667,1.588875014541));
#1026 = CARTESIAN_POINT('',(6.058785831923,1.57639320225));
#1027 = CARTESIAN_POINT('',(6.28318530718,1.57639320225));
#1028 = ( GEOMETRIC_REPRESENTATION_CONTEXT(2) 
PARAMETRIC_REPRESENTATION_CONTEXT() REPRESENTATION_CONTEXT('2D SPACE',''
  ) );
#1029 = PCURVE('',#1030,#1035);
#1030 = CYLINDRICAL_SURFACE('',#1031,0.9);
#1031 = AXIS2_PLACEMENT_3D('',#1032,#1033,#1034);
#1032 = CARTESIAN_POINT('',(242.8,-22.2,30.));
#1033 = DIRECTION('',(0.,0.,1.));
#1034 = DIRECTION('',(1.,0.,-0.));
#1035 = DEFINITIONAL_REPRESENTATION('',(#1036),#1045);
#1036 = B_SPLINE_CURVE_WITH_KNOTS('',7,(#1037,#1038,#1039,#1040,#1041,
    #1042,#1043,#1044),.UNSPECIFIED.,.F.,.F.,(8,8),(1.570796326795,
    3.14159265359),.PIECEWISE_BEZIER_KNOTS.);
#1037 = CARTESIAN_POINT('',(0.,0.));
#1038 = CARTESIAN_POINT('',(0.224399475256,4.767617724822E-02));
#1039 = CARTESIAN_POINT('',(0.448798950513,9.535216090312E-02));
#1040 = CARTESIAN_POINT('',(0.67319842577,0.139108283041));
#1041 = CARTESIAN_POINT('',(0.897597901025,0.175017553566));
#1042 = CARTESIAN_POINT('',(1.121997376282,0.199979367458));
#1043 = CARTESIAN_POINT('',(1.346396851538,0.21246117975));
#1044 = CARTESIAN_POINT('',(1.570796326795,0.21246117975));
#1045 = ( GEOMETRIC_REPRESENTATION_CONTEXT(2) 
PARAMETRIC_REPRESENTATION_CONTEXT() REPRESENTATION_CONTEXT('2D SPACE',''
  ) );
#1046 = ORIENTED_EDGE('',*,*,#1047,.F.);
#1047 = EDGE_CURVE('',#1048,#1007,#1050,.T.);
#1048 = VERTEX_POINT('',#1049);
#1049 = CARTESIAN_POINT('',(241.9,-22.2,30.));
#1050 = SURFACE_CURVE('',#1051,(#1056,#1063),.PCURVE_S1.);
#1051 = CIRCLE('',#1052,0.9);
#1052 = AXIS2_PLACEMENT_3D('',#1053,#1054,#1055);
#1053 = CARTESIAN_POINT('',(242.8,-22.2,30.));
#1054 = DIRECTION('',(0.,-0.4472135955,0.894427191));
#1055 = DIRECTION('',(0.,0.894427191,0.4472135955));
#1056 = PCURVE('',#852,#1057);
#1057 = DEFINITIONAL_REPRESENTATION('',(#1058),#1062);
#1058 = LINE('',#1059,#1060);
#1059 = CARTESIAN_POINT('',(0.,1.788854382));
#1060 = VECTOR('',#1061,1.);
#1061 = DIRECTION('',(1.,0.));
#1062 = ( GEOMETRIC_REPRESENTATION_CONTEXT(2) 
PARAMETRIC_REPRESENTATION_CONTEXT() REPRESENTATION_CONTEXT('2D SPACE',''
  ) );
#1063 = PCURVE('',#1064,#1069);
#1064 = SPHERICAL_SURFACE('',#1065,0.9);
#1065 = AXIS2_PLACEMENT_3D('',#1066,#1067,#1068);
#1066 = CARTESIAN_POINT('',(242.8,-22.2,30.));
#1067 = DIRECTION('',(0.,0.,1.));
#1068 = DIRECTION('',(1.,0.,-0.));
#1069 = DEFINITIONAL_REPRESENTATION('',(#1070),#1094);
#1070 = B_SPLINE_CURVE_WITH_KNOTS('',8,(#1071,#1072,#1073,#1074,#1075,
    #1076,#1077,#1078,#1079,#1080,#1081,#1082,#1083,#1084,#1085,#1086,
    #1087,#1088,#1089,#1090,#1091,#1092,#1093),.UNSPECIFIED.,.F.,.F.,(9,
    7,7,9),(1.570796326795,2.356194490192,3.534291735289,4.712388980385)
  ,.UNSPECIFIED.);
#1071 = CARTESIAN_POINT('',(3.14159265359,-1.184237892933E-14));
#1072 = CARTESIAN_POINT('',(3.229402837728,-4.390509206902E-02));
#1073 = CARTESIAN_POINT('',(3.31721277085,-8.781062533594E-02));
#1074 = CARTESIAN_POINT('',(3.405539721692,-0.131198610977));
#1075 = CARTESIAN_POINT('',(3.494896399766,-0.173556831093));
#1076 = CARTESIAN_POINT('',(3.585776470702,-0.214355000041));
#1077 = CARTESIAN_POINT('',(3.678619230482,-0.253036491451));
#1078 = CARTESIAN_POINT('',(3.773753438552,-0.289025630922));
#1079 = CARTESIAN_POINT('',(4.017670616713,-0.370837939609));
#1080 = CARTESIAN_POINT('',(4.169495398147,-0.412583276877));
#1081 = CARTESIAN_POINT('',(4.327265824937,-0.44505132724));
#1082 = CARTESIAN_POINT('',(4.49053349164,-0.466424023608));
#1083 = CARTESIAN_POINT('',(4.657428263734,-0.474996258198));
#1084 = CARTESIAN_POINT('',(4.823867785734,-0.47043582827));
#1085 = CARTESIAN_POINT('',(4.987258194829,-0.453609301099));
#1086 = CARTESIAN_POINT('',(5.304916393799,-0.398258645296));
#1087 = CARTESIAN_POINT('',(5.459187227891,-0.359736122799));
#1088 = CARTESIAN_POINT('',(5.607413429276,-0.311789321974));
#1089 = CARTESIAN_POINT('',(5.749350263686,-0.256461225802));
#1090 = CARTESIAN_POINT('',(5.88630158782,-0.195833879605));
#1091 = CARTESIAN_POINT('',(6.01975425792,-0.131714921073));
#1092 = CARTESIAN_POINT('',(6.151470030973,-6.585763810351E-02));
#1093 = CARTESIAN_POINT('',(6.28318530718,0.));
#1094 = ( GEOMETRIC_REPRESENTATION_CONTEXT(2) 
PARAMETRIC_REPRESENTATION_CONTEXT() REPRESENTATION_CONTEXT('2D SPACE',''
  ) );
#1095 = ORIENTED_EDGE('',*,*,#1096,.F.);
#1096 = EDGE_CURVE('',#1009,#1048,#1097,.T.);
#1097 = SURFACE_CURVE('',#1098,(#1103,#1115),.PCURVE_S1.);
#1098 = ELLIPSE('',#1099,0.924737667071,0.9);
#1099 = AXIS2_PLACEMENT_3D('',#1100,#1101,#1102);
#1100 = CARTESIAN_POINT('',(242.8,-22.2,30.));
#1101 = DIRECTION('',(0.,-0.229752920547,0.973248989468));
#1102 = DIRECTION('',(0.,-0.973248989468,-0.229752920547));
#1103 = PCURVE('',#852,#1104);
#1104 = DEFINITIONAL_REPRESENTATION('',(#1105),#1114);
#1105 = B_SPLINE_CURVE_WITH_KNOTS('',7,(#1106,#1107,#1108,#1109,#1110,
    #1111,#1112,#1113),.UNSPECIFIED.,.F.,.F.,(8,8),(3.14159265359,
    4.712388980385),.PIECEWISE_BEZIER_KNOTS.);
#1106 = CARTESIAN_POINT('',(0.,1.57639320225));
#1107 = CARTESIAN_POINT('',(0.224399475256,1.57639320225));
#1108 = CARTESIAN_POINT('',(0.448798950513,1.588875014541));
#1109 = CARTESIAN_POINT('',(0.673198425769,1.613836828434));
#1110 = CARTESIAN_POINT('',(0.897597901026,1.649746098958));
#1111 = CARTESIAN_POINT('',(1.121997376282,1.693502221097));
#1112 = CARTESIAN_POINT('',(1.346396851538,1.741178204752));
#1113 = CARTESIAN_POINT('',(1.570796326795,1.788854382));
#1114 = ( GEOMETRIC_REPRESENTATION_CONTEXT(2) 
PARAMETRIC_REPRESENTATION_CONTEXT() REPRESENTATION_CONTEXT('2D SPACE',''
  ) );
#1115 = PCURVE('',#1030,#1116);
#1116 = DEFINITIONAL_REPRESENTATION('',(#1117),#1126);
#1117 = B_SPLINE_CURVE_WITH_KNOTS('',7,(#1118,#1119,#1120,#1121,#1122,
    #1123,#1124,#1125),.UNSPECIFIED.,.F.,.F.,(8,8),(3.14159265359,
    4.712388980385),.PIECEWISE_BEZIER_KNOTS.);
#1118 = CARTESIAN_POINT('',(1.570796326795,0.21246117975));
#1119 = CARTESIAN_POINT('',(1.795195802051,0.21246117975));
#1120 = CARTESIAN_POINT('',(2.019595277307,0.199979367458));
#1121 = CARTESIAN_POINT('',(2.243994752565,0.175017553566));
#1122 = CARTESIAN_POINT('',(2.46839422782,0.139108283041));
#1123 = CARTESIAN_POINT('',(2.692793703077,9.535216090311E-02));
#1124 = CARTESIAN_POINT('',(2.917193178333,4.767617724822E-02));
#1125 = CARTESIAN_POINT('',(3.14159265359,0.));
#1126 = ( GEOMETRIC_REPRESENTATION_CONTEXT(2) 
PARAMETRIC_REPRESENTATION_CONTEXT() REPRESENTATION_CONTEXT('2D SPACE',''
  ) );
#1127 = ORIENTED_EDGE('',*,*,#1128,.F.);
#1128 = EDGE_CURVE('',#831,#1009,#1129,.T.);
#1129 = SEAM_CURVE('',#1130,(#1134,#1141),.PCURVE_S1.);
#1130 = LINE('',#1131,#1132);
#1131 = CARTESIAN_POINT('',(242.8,-20.5950155281,28.80249223595));
#1132 = VECTOR('',#1133,1.);
#1133 = DIRECTION('',(0.,-0.4472135955,0.894427191));
#1134 = PCURVE('',#852,#1135);
#1135 = DEFINITIONAL_REPRESENTATION('',(#1136),#1140);
#1136 = LINE('',#1137,#1138);
#1137 = CARTESIAN_POINT('',(6.28318530718,-0.));
#1138 = VECTOR('',#1139,1.);
#1139 = DIRECTION('',(0.,1.));
#1140 = ( GEOMETRIC_REPRESENTATION_CONTEXT(2) 
PARAMETRIC_REPRESENTATION_CONTEXT() REPRESENTATION_CONTEXT('2D SPACE',''
  ) );
#1141 = PCURVE('',#852,#1142);
#1142 = DEFINITIONAL_REPRESENTATION('',(#1143),#1147);
#1143 = LINE('',#1144,#1145);
#1144 = CARTESIAN_POINT('',(0.,-0.));
#1145 = VECTOR('',#1146,1.);
#1146 = DIRECTION('',(0.,1.));
#1147 = ( GEOMETRIC_REPRESENTATION_CONTEXT(2) 
PARAMETRIC_REPRESENTATION_CONTEXT() REPRESENTATION_CONTEXT('2D SPACE',''
  ) );
#1148 = ORIENTED_EDGE('',*,*,#830,.T.);
#1149 = ORIENTED_EDGE('',*,*,#960,.T.);
#1150 = ORIENTED_EDGE('',*,*,#869,.T.);
#1151 = ORIENTED_EDGE('',*,*,#1128,.T.);
#1152 = ADVANCED_FACE('',(#1153),#1030,.T.);
#1153 = FACE_BOUND('',#1154,.T.);
#1154 = EDGE_LOOP('',(#1155,#1178,#1207,#1246,#1278,#1279,#1280,#1281));
#1155 = ORIENTED_EDGE('',*,*,#1156,.T.);
#1156 = EDGE_CURVE('',#1007,#1157,#1159,.T.);
#1157 = VERTEX_POINT('',#1158);
#1158 = CARTESIAN_POINT('',(243.7,-22.2,58.8));
#1159 = SEAM_CURVE('',#1160,(#1164,#1171),.PCURVE_S1.);
#1160 = LINE('',#1161,#1162);
#1161 = CARTESIAN_POINT('',(243.7,-22.2,30.));
#1162 = VECTOR('',#1163,1.);
#1163 = DIRECTION('',(0.,0.,1.));
#1164 = PCURVE('',#1030,#1165);
#1165 = DEFINITIONAL_REPRESENTATION('',(#1166),#1170);
#1166 = LINE('',#1167,#1168);
#1167 = CARTESIAN_POINT('',(6.28318530718,-0.));
#1168 = VECTOR('',#1169,1.);
#1169 = DIRECTION('',(0.,1.));
#1170 = ( GEOMETRIC_REPRESENTATION_CONTEXT(2) 
PARAMETRIC_REPRESENTATION_CONTEXT() REPRESENTATION_CONTEXT('2D SPACE',''
  ) );
#1171 = PCURVE('',#1030,#1172);
#1172 = DEFINITIONAL_REPRESENTATION('',(#1173),#1177);
#1173 = LINE('',#1174,#1175);
#1174 = CARTESIAN_POINT('',(0.,-0.));
#1175 = VECTOR('',#1176,1.);
#1176 = DIRECTION('',(0.,1.));
#1177 = ( GEOMETRIC_REPRESENTATION_CONTEXT(2) 
PARAMETRIC_REPRESENTATION_CONTEXT() REPRESENTATION_CONTEXT('2D SPACE',''
  ) );
#1178 = ORIENTED_EDGE('',*,*,#1179,.F.);
#1179 = EDGE_CURVE('',#1180,#1157,#1182,.T.);
#1180 = VERTEX_POINT('',#1181);
#1181 = CARTESIAN_POINT('',(241.9,-22.2,58.8));
#1182 = SURFACE_CURVE('',#1183,(#1188,#1195),.PCURVE_S1.);
#1183 = CIRCLE('',#1184,0.9);
#1184 = AXIS2_PLACEMENT_3D('',#1185,#1186,#1187);
#1185 = CARTESIAN_POINT('',(242.8,-22.2,58.8));
#1186 = DIRECTION('',(0.,0.,1.));
#1187 = DIRECTION('',(1.,0.,-0.));
#1188 = PCURVE('',#1030,#1189);
#1189 = DEFINITIONAL_REPRESENTATION('',(#1190),#1194);
#1190 = LINE('',#1191,#1192);
#1191 = CARTESIAN_POINT('',(0.,28.8));
#1192 = VECTOR('',#1193,1.);
#1193 = DIRECTION('',(1.,0.));
#1194 = ( GEOMETRIC_REPRESENTATION_CONTEXT(2) 
PARAMETRIC_REPRESENTATION_CONTEXT() REPRESENTATION_CONTEXT('2D SPACE',''
  ) );
#1195 = PCURVE('',#1196,#1201);
#1196 = SPHERICAL_SURFACE('',#1197,0.9);
#1197 = AXIS2_PLACEMENT_3D('',#1198,#1199,#1200);
#1198 = CARTESIAN_POINT('',(242.8,-22.2,58.8));
#1199 = DIRECTION('',(0.,0.,1.));
#1200 = DIRECTION('',(1.,0.,-0.));
#1201 = DEFINITIONAL_REPRESENTATION('',(#1202),#1206);
#1202 = LINE('',#1203,#1204);
#1203 = CARTESIAN_POINT('',(0.,0.));
#1204 = VECTOR('',#1205,1.);
#1205 = DIRECTION('',(1.,0.));
#1206 = ( GEOMETRIC_REPRESENTATION_CONTEXT(2) 
PARAMETRIC_REPRESENTATION_CONTEXT() REPRESENTATION_CONTEXT('2D SPACE',''
  ) );
#1207 = ORIENTED_EDGE('',*,*,#1208,.F.);
#1208 = EDGE_CURVE('',#1209,#1180,#1211,.T.);
#1209 = VERTEX_POINT('',#1210);
#1210 = CARTESIAN_POINT('',(242.8,-21.3,58.427207793864));
#1211 = SURFACE_CURVE('',#1212,(#1217,#1229),.PCURVE_S1.);
#1212 = ELLIPSE('',#1213,0.974152980263,0.9);
#1213 = AXIS2_PLACEMENT_3D('',#1214,#1215,#1216);
#1214 = CARTESIAN_POINT('',(242.8,-22.2,58.8));
#1215 = DIRECTION('',(0.,0.382683432365,0.923879532511));
#1216 = DIRECTION('',(0.,-0.923879532511,0.382683432365));
#1217 = PCURVE('',#1030,#1218);
#1218 = DEFINITIONAL_REPRESENTATION('',(#1219),#1228);
#1219 = B_SPLINE_CURVE_WITH_KNOTS('',7,(#1220,#1221,#1222,#1223,#1224,
    #1225,#1226,#1227),.UNSPECIFIED.,.F.,.F.,(8,8),(3.14159265359,
    4.712389785123),.PIECEWISE_BEZIER_KNOTS.);
#1220 = CARTESIAN_POINT('',(1.570796326795,28.427207793864));
#1221 = CARTESIAN_POINT('',(1.795195917014,28.427207793864));
#1222 = CARTESIAN_POINT('',(2.019595507233,28.449108863577));
#1223 = CARTESIAN_POINT('',(2.243995097452,28.492907825887));
#1224 = CARTESIAN_POINT('',(2.46839468767,28.555915615489));
#1225 = CARTESIAN_POINT('',(2.69279427789,28.632691785476));
#1226 = CARTESIAN_POINT('',(2.917193868109,28.716345881706));
#1227 = CARTESIAN_POINT('',(3.141593458328,28.8000003));
#1228 = ( GEOMETRIC_REPRESENTATION_CONTEXT(2) 
PARAMETRIC_REPRESENTATION_CONTEXT() REPRESENTATION_CONTEXT('2D SPACE',''
  ) );
#1229 = PCURVE('',#1230,#1235);
#1230 = CYLINDRICAL_SURFACE('',#1231,0.9);
#1231 = AXIS2_PLACEMENT_3D('',#1232,#1233,#1234);
#1232 = CARTESIAN_POINT('',(242.8,-22.2,58.8));
#1233 = DIRECTION('',(0.,0.707106781187,0.707106781187));
#1234 = DIRECTION('',(0.,0.707106781187,-0.707106781187));
#1235 = DEFINITIONAL_REPRESENTATION('',(#1236),#1245);
#1236 = B_SPLINE_CURVE_WITH_KNOTS('',7,(#1237,#1238,#1239,#1240,#1241,
    #1242,#1243,#1244),.UNSPECIFIED.,.F.,.F.,(8,8),(3.14159265359,
    4.712389785123),.PIECEWISE_BEZIER_KNOTS.);
#1237 = CARTESIAN_POINT('',(0.,0.372792206136));
#1238 = CARTESIAN_POINT('',(0.224399590219,0.372792206136));
#1239 = CARTESIAN_POINT('',(0.448799180438,0.350891136425));
#1240 = CARTESIAN_POINT('',(0.673198770657,0.307092174119));
#1241 = CARTESIAN_POINT('',(0.897598360876,0.244084384516));
#1242 = CARTESIAN_POINT('',(1.121997951095,0.167308214524));
#1243 = CARTESIAN_POINT('',(1.346397541314,8.365411829367E-02));
#1244 = CARTESIAN_POINT('',(1.570797131533,-2.999999928477E-07));
#1245 = ( GEOMETRIC_REPRESENTATION_CONTEXT(2) 
PARAMETRIC_REPRESENTATION_CONTEXT() REPRESENTATION_CONTEXT('2D SPACE',''
  ) );
#1246 = ORIENTED_EDGE('',*,*,#1247,.F.);
#1247 = EDGE_CURVE('',#1157,#1209,#1248,.T.);
#1248 = SURFACE_CURVE('',#1249,(#1254,#1266),.PCURVE_S1.);
#1249 = ELLIPSE('',#1250,0.974152980263,0.9);
#1250 = AXIS2_PLACEMENT_3D('',#1251,#1252,#1253);
#1251 = CARTESIAN_POINT('',(242.8,-22.2,58.8));
#1252 = DIRECTION('',(0.,0.382683432365,0.923879532511));
#1253 = DIRECTION('',(0.,-0.923879532511,0.382683432365));
#1254 = PCURVE('',#1030,#1255);
#1255 = DEFINITIONAL_REPRESENTATION('',(#1256),#1265);
#1256 = B_SPLINE_CURVE_WITH_KNOTS('',7,(#1257,#1258,#1259,#1260,#1261,
    #1262,#1263,#1264),.UNSPECIFIED.,.F.,.F.,(8,8),(1.57079764627,
    3.14159265359),.PIECEWISE_BEZIER_KNOTS.);
#1257 = CARTESIAN_POINT('',(1.319475278668E-06,28.79999950811));
#1258 = CARTESIAN_POINT('',(0.224400606235,28.716345202943));
#1259 = CARTESIAN_POINT('',(0.448799892995,28.632691266362));
#1260 = CARTESIAN_POINT('',(0.673199179755,28.555915274625));
#1261 = CARTESIAN_POINT('',(0.897598466515,28.492907648222));
#1262 = CARTESIAN_POINT('',(1.121997753275,28.449108804333));
#1263 = CARTESIAN_POINT('',(1.346397040035,28.427207793864));
#1264 = CARTESIAN_POINT('',(1.570796326795,28.427207793864));
#1265 = ( GEOMETRIC_REPRESENTATION_CONTEXT(2) 
PARAMETRIC_REPRESENTATION_CONTEXT() REPRESENTATION_CONTEXT('2D SPACE',''
  ) );
#1266 = PCURVE('',#1230,#1267);
#1267 = DEFINITIONAL_REPRESENTATION('',(#1268),#1277);
#1268 = B_SPLINE_CURVE_WITH_KNOTS('',7,(#1269,#1270,#1271,#1272,#1273,
    #1274,#1275,#1276),.UNSPECIFIED.,.F.,.F.,(8,8),(1.57079764627,
    3.14159265359),.PIECEWISE_BEZIER_KNOTS.);
#1269 = CARTESIAN_POINT('',(4.71239029986,4.918901090889E-07));
#1270 = CARTESIAN_POINT('',(4.93678958662,8.365479705657E-02));
#1271 = CARTESIAN_POINT('',(5.16118887338,0.167308733642));
#1272 = CARTESIAN_POINT('',(5.38558816014,0.244084725357));
#1273 = CARTESIAN_POINT('',(5.6099874469,0.307092351798));
#1274 = CARTESIAN_POINT('',(5.83438673366,0.350891195662));
#1275 = CARTESIAN_POINT('',(6.05878602042,0.372792206136));
#1276 = CARTESIAN_POINT('',(6.28318530718,0.372792206136));
#1277 = ( GEOMETRIC_REPRESENTATION_CONTEXT(2) 
PARAMETRIC_REPRESENTATION_CONTEXT() REPRESENTATION_CONTEXT('2D SPACE',''
  ) );
#1278 = ORIENTED_EDGE('',*,*,#1156,.F.);
#1279 = ORIENTED_EDGE('',*,*,#1006,.T.);
#1280 = ORIENTED_EDGE('',*,*,#1096,.T.);
#1281 = ORIENTED_EDGE('',*,*,#1282,.T.);
#1282 = EDGE_CURVE('',#1048,#1007,#1283,.T.);
#1283 = SURFACE_CURVE('',#1284,(#1289,#1296),.PCURVE_S1.);
#1284 = CIRCLE('',#1285,0.9);
#1285 = AXIS2_PLACEMENT_3D('',#1286,#1287,#1288);
#1286 = CARTESIAN_POINT('',(242.8,-22.2,30.));
#1287 = DIRECTION('',(0.,0.,1.));
#1288 = DIRECTION('',(1.,0.,-0.));
#1289 = PCURVE('',#1030,#1290);
#1290 = DEFINITIONAL_REPRESENTATION('',(#1291),#1295);
#1291 = LINE('',#1292,#1293);
#1292 = CARTESIAN_POINT('',(0.,0.));
#1293 = VECTOR('',#1294,1.);
#1294 = DIRECTION('',(1.,0.));
#1295 = ( GEOMETRIC_REPRESENTATION_CONTEXT(2) 
PARAMETRIC_REPRESENTATION_CONTEXT() REPRESENTATION_CONTEXT('2D SPACE',''
  ) );
#1296 = PCURVE('',#1064,#1297);
#1297 = DEFINITIONAL_REPRESENTATION('',(#1298),#1302);
#1298 = LINE('',#1299,#1300);
#1299 = CARTESIAN_POINT('',(0.,0.));
#1300 = VECTOR('',#1301,1.);
#1301 = DIRECTION('',(1.,0.));
#1302 = ( GEOMETRIC_REPRESENTATION_CONTEXT(2) 
PARAMETRIC_REPRESENTATION_CONTEXT() REPRESENTATION_CONTEXT('2D SPACE',''
  ) );
#1303 = ADVANCED_FACE('',(#1304),#1064,.T.);
#1304 = FACE_BOUND('',#1305,.T.);
#1305 = EDGE_LOOP('',(#1306,#1307));
#1306 = ORIENTED_EDGE('',*,*,#1047,.T.);
#1307 = ORIENTED_EDGE('',*,*,#1282,.F.);
#1308 = ADVANCED_FACE('',(#1309),#1230,.T.);
#1309 = FACE_BOUND('',#1310,.T.);
#1310 = EDGE_LOOP('',(#1311,#1312,#1368,#1369,#1392,#1423));
#1311 = ORIENTED_EDGE('',*,*,#1208,.T.);
#1312 = ORIENTED_EDGE('',*,*,#1313,.T.);
#1313 = EDGE_CURVE('',#1180,#1157,#1314,.T.);
#1314 = SURFACE_CURVE('',#1315,(#1320,#1327),.PCURVE_S1.);
#1315 = CIRCLE('',#1316,0.9);
#1316 = AXIS2_PLACEMENT_3D('',#1317,#1318,#1319);
#1317 = CARTESIAN_POINT('',(242.8,-22.2,58.8));
#1318 = DIRECTION('',(0.,0.707106781187,0.707106781187));
#1319 = DIRECTION('',(0.,0.707106781187,-0.707106781187));
#1320 = PCURVE('',#1230,#1321);
#1321 = DEFINITIONAL_REPRESENTATION('',(#1322),#1326);
#1322 = LINE('',#1323,#1324);
#1323 = CARTESIAN_POINT('',(0.,0.));
#1324 = VECTOR('',#1325,1.);
#1325 = DIRECTION('',(1.,0.));
#1326 = ( GEOMETRIC_REPRESENTATION_CONTEXT(2) 
PARAMETRIC_REPRESENTATION_CONTEXT() REPRESENTATION_CONTEXT('2D SPACE',''
  ) );
#1327 = PCURVE('',#1196,#1328);
#1328 = DEFINITIONAL_REPRESENTATION('',(#1329),#1367);
#1329 = B_SPLINE_CURVE_WITH_KNOTS('',8,(#1330,#1331,#1332,#1333,#1334,
    #1335,#1336,#1337,#1338,#1339,#1340,#1341,#1342,#1343,#1344,#1345,
    #1346,#1347,#1348,#1349,#1350,#1351,#1352,#1353,#1354,#1355,#1356,
    #1357,#1358,#1359,#1360,#1361,#1362,#1363,#1364,#1365,#1366),
  .UNSPECIFIED.,.F.,.F.,(9,7,7,7,7,9),(1.570796326795,2.356194490192,
    2.94524311274,3.387029579651,4.049709280018,4.712388980385),
  .UNSPECIFIED.);
#1330 = CARTESIAN_POINT('',(3.14159265359,-3.157967714489E-14));
#1331 = CARTESIAN_POINT('',(3.211012699498,6.942004590869E-02));
#1332 = CARTESIAN_POINT('',(3.28043348936,0.138839841635));
#1333 = CARTESIAN_POINT('',(3.35086968476,0.20775121737));
#1334 = CARTESIAN_POINT('',(3.423354439058,0.275640087174));
#1335 = CARTESIAN_POINT('',(3.498950978932,0.34194724737));
#1336 = CARTESIAN_POINT('',(3.578876561399,0.405996225459));
#1337 = CARTESIAN_POINT('',(3.664512301049,0.466917545466));
#1338 = CARTESIAN_POINT('',(3.826492408169,0.566109698198));
#1339 = CARTESIAN_POINT('',(3.899805669276,0.606236110279));
#1340 = CARTESIAN_POINT('',(3.977530372041,0.64350753283));
#1341 = CARTESIAN_POINT('',(4.06009157933,0.67738790448));
#1342 = CARTESIAN_POINT('',(4.147823422734,0.707251388033));
#1343 = CARTESIAN_POINT('',(4.240657483508,0.732420243674));
#1344 = CARTESIAN_POINT('',(4.337858797858,0.752264536876));
#1345 = CARTESIAN_POINT('',(4.513405085623,0.776937633237));
#1346 = CARTESIAN_POINT('',(4.590389613591,0.784279653209));
#1347 = CARTESIAN_POINT('',(4.668597301855,0.788211407624));
#1348 = CARTESIAN_POINT('',(4.747343739591,0.788613374119));
#1349 = CARTESIAN_POINT('',(4.825827443187,0.785462097833));
#1350 = CARTESIAN_POINT('',(4.903278560533,0.778836673931));
#1351 = CARTESIAN_POINT('',(4.979094138297,0.768900091152));
#1352 = CARTESIAN_POINT('',(5.163453554056,0.736303121597));
#1353 = CARTESIAN_POINT('',(5.2694080828,0.709765405187));
#1354 = CARTESIAN_POINT('',(5.369233213209,0.676954418444));
#1355 = CARTESIAN_POINT('',(5.462333368901,0.638831973517));
#1356 = CARTESIAN_POINT('',(5.54915834215,0.596354300419));
#1357 = CARTESIAN_POINT('',(5.63035300882,0.550305811423));
#1358 = CARTESIAN_POINT('',(5.706690909567,0.501359539068));
#1359 = CARTESIAN_POINT('',(5.851183100049,0.398793489048));
#1360 = CARTESIAN_POINT('',(5.919337420558,0.345173793035));
#1361 = CARTESIAN_POINT('',(5.984168374517,0.289780121051));
#1362 = CARTESIAN_POINT('',(6.046442222925,0.233067619736));
#1363 = CARTESIAN_POINT('',(6.106853959069,0.175413429153));
#1364 = CARTESIAN_POINT('',(6.166038819158,0.117146283327));
#1365 = CARTESIAN_POINT('',(6.224612143444,5.857316373549E-02));
#1366 = CARTESIAN_POINT('',(6.28318530718,0.));
#1367 = ( GEOMETRIC_REPRESENTATION_CONTEXT(2) 
PARAMETRIC_REPRESENTATION_CONTEXT() REPRESENTATION_CONTEXT('2D SPACE',''
  ) );
#1368 = ORIENTED_EDGE('',*,*,#1247,.T.);
#1369 = ORIENTED_EDGE('',*,*,#1370,.T.);
#1370 = EDGE_CURVE('',#1209,#1371,#1373,.T.);
#1371 = VERTEX_POINT('',#1372);
#1372 = CARTESIAN_POINT('',(242.8,-20.76360389693,58.963603896932));
#1373 = SEAM_CURVE('',#1374,(#1378,#1385),.PCURVE_S1.);
#1374 = LINE('',#1375,#1376);
#1375 = CARTESIAN_POINT('',(242.8,-21.56360389693,58.163603896932));
#1376 = VECTOR('',#1377,1.);
#1377 = DIRECTION('',(0.,0.707106781187,0.707106781187));
#1378 = PCURVE('',#1230,#1379);
#1379 = DEFINITIONAL_REPRESENTATION('',(#1380),#1384);
#1380 = LINE('',#1381,#1382);
#1381 = CARTESIAN_POINT('',(6.28318530718,-0.));
#1382 = VECTOR('',#1383,1.);
#1383 = DIRECTION('',(0.,1.));
#1384 = ( GEOMETRIC_REPRESENTATION_CONTEXT(2) 
PARAMETRIC_REPRESENTATION_CONTEXT() REPRESENTATION_CONTEXT('2D SPACE',''
  ) );
#1385 = PCURVE('',#1230,#1386);
#1386 = DEFINITIONAL_REPRESENTATION('',(#1387),#1391);
#1387 = LINE('',#1388,#1389);
#1388 = CARTESIAN_POINT('',(0.,-0.));
#1389 = VECTOR('',#1390,1.);
#1390 = DIRECTION('',(0.,1.));
#1391 = ( GEOMETRIC_REPRESENTATION_CONTEXT(2) 
PARAMETRIC_REPRESENTATION_CONTEXT() REPRESENTATION_CONTEXT('2D SPACE',''
  ) );
#1392 = ORIENTED_EDGE('',*,*,#1393,.T.);
#1393 = EDGE_CURVE('',#1371,#1371,#1394,.T.);
#1394 = SURFACE_CURVE('',#1395,(#1400,#1407),.PCURVE_S1.);
#1395 = CIRCLE('',#1396,0.9);
#1396 = AXIS2_PLACEMENT_3D('',#1397,#1398,#1399);
#1397 = CARTESIAN_POINT('',(242.8,-21.4,59.6));
#1398 = DIRECTION('',(-1.965948630533E-15,-0.707106781187,
    -0.707106781187));
#1399 = DIRECTION('',(-3.549874073495E-30,0.707106781187,-0.707106781187
    ));
#1400 = PCURVE('',#1230,#1401);
#1401 = DEFINITIONAL_REPRESENTATION('',(#1402),#1406);
#1402 = LINE('',#1403,#1404);
#1403 = CARTESIAN_POINT('',(6.28318530718,1.131370849898));
#1404 = VECTOR('',#1405,1.);
#1405 = DIRECTION('',(-1.,-0.));
#1406 = ( GEOMETRIC_REPRESENTATION_CONTEXT(2) 
PARAMETRIC_REPRESENTATION_CONTEXT() REPRESENTATION_CONTEXT('2D SPACE',''
  ) );
#1407 = PCURVE('',#1408,#1413);
#1408 = PLANE('',#1409);
#1409 = AXIS2_PLACEMENT_3D('',#1410,#1411,#1412);
#1410 = CARTESIAN_POINT('',(242.8,-21.4,59.6));
#1411 = DIRECTION('',(0.,0.707106781187,0.707106781187));
#1412 = DIRECTION('',(0.,0.707106781187,-0.707106781187));
#1413 = DEFINITIONAL_REPRESENTATION('',(#1414),#1422);
#1414 = ( BOUNDED_CURVE() B_SPLINE_CURVE(2,(#1415,#1416,#1417,#1418,
#1419,#1420,#1421),.UNSPECIFIED.,.T.,.F.) B_SPLINE_CURVE_WITH_KNOTS((1,2
    ,2,2,2,1),(-2.094395102393,0.,2.094395102393,4.188790204786,
6.28318530718,8.377580409573),.UNSPECIFIED.) CURVE() 
GEOMETRIC_REPRESENTATION_ITEM() RATIONAL_B_SPLINE_CURVE((1.,0.5,1.,0.5,
1.,0.5,1.)) REPRESENTATION_ITEM('') );
#1415 = CARTESIAN_POINT('',(0.9,3.194886666145E-30));
#1416 = CARTESIAN_POINT('',(0.9,-1.558845726812));
#1417 = CARTESIAN_POINT('',(-0.45,-0.779422863406));
#1418 = CARTESIAN_POINT('',(-1.8,-2.204364238465E-16));
#1419 = CARTESIAN_POINT('',(-0.45,0.779422863406));
#1420 = CARTESIAN_POINT('',(0.9,1.558845726812));
#1421 = CARTESIAN_POINT('',(0.9,3.194886666145E-30));
#1422 = ( GEOMETRIC_REPRESENTATION_CONTEXT(2) 
PARAMETRIC_REPRESENTATION_CONTEXT() REPRESENTATION_CONTEXT('2D SPACE',''
  ) );
#1423 = ORIENTED_EDGE('',*,*,#1370,.F.);
#1424 = ADVANCED_FACE('',(#1425),#1196,.T.);
#1425 = FACE_BOUND('',#1426,.T.);
#1426 = EDGE_LOOP('',(#1427,#1428));
#1427 = ORIENTED_EDGE('',*,*,#1179,.T.);
#1428 = ORIENTED_EDGE('',*,*,#1313,.F.);
#1429 = ADVANCED_FACE('',(#1430),#1408,.T.);
#1430 = FACE_BOUND('',#1431,.T.);
#1431 = EDGE_LOOP('',(#1432));
#1432 = ORIENTED_EDGE('',*,*,#1393,.F.);
#1433 = ( GEOMETRIC_REPRESENTATION_CONTEXT(3) 
GLOBAL_UNCERTAINTY_ASSIGNED_CONTEXT((#1437)) 
GLOBAL_UNIT_ASSIGNED_CONTEXT((#1434,#1435,#1436)) REPRESENTATION_CONTEXT
('Context #1','3D Context with UNIT and UNCERTAINTY') );
#1434 = ( LENGTH_UNIT() NAMED_UNIT(*) SI_UNIT(.MILLI.,.METRE.) );
#1435 = ( NAMED_UNIT(*) PLANE_ANGLE_UNIT() SI_UNIT($,.RADIAN.) );
#1436 = ( NAMED_UNIT(*) SI_UNIT($,.STERADIAN.) SOLID_ANGLE_UNIT() );
#1437 = UNCERTAINTY_MEASURE_WITH_UNIT(LENGTH_MEASURE(2.E-07),#1434,
  'distance_accuracy_value','confusion accuracy');
#1438 = PRODUCT_RELATED_PRODUCT_CATEGORY('part',$,(#7));
ENDSEC;
END-ISO-10303-21;
