ISO-10303-21;
HEADER;
FILE_DESCRIPTION(('Open CASCADE Model'),'2;1');
FILE_NAME('Open CASCADE Shape Model','2026-10-01T17:02:40',('Author'),(
    'Open CASCADE'),'Open CASCADE STEP processor 7.8','Open CASCADE 7.8'
  ,'Unknown');
FILE_SCHEMA(('AUTOMOTIVE_DESIGN { 1 0 10303 214 1 1 1 1 }'));
ENDSEC;
DATA;
#1 = APPLICATION_PROTOCOL_DEFINITION('international standard',
  'automotive_design',2000,#2);
#2 = APPLICATION_CONTEXT(
  'core data for automotive mechanical design processes');
#3 = SHAPE_DEFINITION_REPRESENTATION(#4,#10);
#4 = PRODUCT_DEFINITION_SHAPE('','',#5);
#5 = PRODUCT_DEFINITION('design','',#6,#9);
#6 = PRODUCT_DEFINITION_FORMATION('','',#7);
#7 = PRODUCT('Open CASCADE STEP translator 7.8 63',
  'Open CASCADE STEP translator 7.8 63','',(#8));
#8 = PRODUCT_CONTEXT('',#2,'mechanical');
#9 = PRODUCT_DEFINITION_CONTEXT('part definition',#2,'design');
#10 = ADVANCED_BREP_SHAPE_REPRESENTATION('',(#11,#15),#1576);
#11 = AXIS2_PLACEMENT_3D('',#12,#13,#14);
#12 = CARTESIAN_POINT('',(0.,0.,0.));
#13 = DIRECTION('',(0.,0.,1.));
#14 = DIRECTION('',(1.,0.,-0.));
#15 = MANIFOLD_SOLID_BREP('',#16);
#16 = CLOSED_SHELL('',(#17,#228,#296,#486,#490,#541,#692,#927,#934,#1017
    ,#1205,#1294,#1467,#1566,#1572));
#17 = ADVANCED_FACE('',(#18),#33,.T.);
#18 = FACE_BOUND('',#19,.T.);
#19 = EDGE_LOOP('',(#20,#55,#94,#124,#147,#174,#175,#207));
#20 = ORIENTED_EDGE('',*,*,#21,.F.);
#21 = EDGE_CURVE('',#22,#24,#26,.T.);
#22 = VERTEX_POINT('',#23);
#23 = CARTESIAN_POINT('',(-44.4,-119.5316830522,20.176519071628));
#24 = VERTEX_POINT('',#25);
#25 = CARTESIAN_POINT('',(-44.4,-118.8,19.7));
#26 = SURFACE_CURVE('',#27,(#32,#44),.PCURVE_S1.);
#27 = CIRCLE('',#28,0.8);
#28 = AXIS2_PLACEMENT_3D('',#29,#30,#31);
#29 = CARTESIAN_POINT('',(-44.4,-118.8,20.5));
#30 = DIRECTION('',(1.,0.,0.));
#31 = DIRECTION('',(-0.,0.,1.));
#32 = PCURVE('',#33,#38);
#33 = CYLINDRICAL_SURFACE('',#34,0.8);
#34 = AXIS2_PLACEMENT_3D('',#35,#36,#37);
#35 = CARTESIAN_POINT('',(-47.4,-118.8,20.5));
#36 = DIRECTION('',(1.,0.,0.));
#37 = DIRECTION('',(-0.,0.,1.));
#38 = DEFINITIONAL_REPRESENTATION('',(#39),#43);
#39 = LINE('',#40,#41);
#40 = CARTESIAN_POINT('',(0.,3.));
#41 = VECTOR('',#42,1.);
#42 = DIRECTION('',(1.,0.));
#43 = ( GEOMETRIC_REPRESENTATION_CONTEXT(2) 
PARAMETRIC_REPRESENTATION_CONTEXT() REPRESENTATION_CONTEXT('2D SPACE',''
  ) );
#44 = PCURVE('',#45,#50);
#45 = SPHERICAL_SURFACE('',#46,0.8);
#46 = AXIS2_PLACEMENT_3D('',#47,#48,#49);
#47 = CARTESIAN_POINT('',(-44.4,-118.8,20.5));
#48 = DIRECTION('',(0.,0.,1.));
#49 = DIRECTION('',(1.,0.,-0.));
#50 = DEFINITIONAL_REPRESENTATION('',(#51),#54);
#51 = B_SPLINE_CURVE_WITH_KNOTS('',1,(#52,#53),.UNSPECIFIED.,.F.,.F.,(2,
    2),(1.987065624652,3.14159265359),.PIECEWISE_BEZIER_KNOTS.);
#52 = CARTESIAN_POINT('',(4.712388980385,-0.416269297857));
#53 = CARTESIAN_POINT('',(4.712388980385,-1.570796326795));
#54 = ( GEOMETRIC_REPRESENTATION_CONTEXT(2) 
PARAMETRIC_REPRESENTATION_CONTEXT() REPRESENTATION_CONTEXT('2D SPACE',''
  ) );
#55 = ORIENTED_EDGE('',*,*,#56,.F.);
#56 = EDGE_CURVE('',#57,#22,#59,.T.);
#57 = VERTEX_POINT('',#58);
#58 = CARTESIAN_POINT('',(-44.64325684633,-118.8575422467,21.29792787258
    ));
#59 = SURFACE_CURVE('',#60,(#65,#77),.PCURVE_S1.);
#60 = ELLIPSE('',#61,0.84070301456,0.8);
#61 = AXIS2_PLACEMENT_3D('',#62,#63,#64);
#62 = CARTESIAN_POINT('',(-44.4,-118.8,20.5));
#63 = DIRECTION('',(0.951584550246,-0.124292340126,0.281137435999));
#64 = DIRECTION('',(0.307387123566,0.384774317172,-0.870322860271));
#65 = PCURVE('',#33,#66);
#66 = DEFINITIONAL_REPRESENTATION('',(#67),#76);
#67 = B_SPLINE_CURVE_WITH_KNOTS('',7,(#68,#69,#70,#71,#72,#73,#74,#75),
  .UNSPECIFIED.,.F.,.F.,(8,8),(2.797313330053,4.712388980385),
  .PIECEWISE_BEZIER_KNOTS.);
#68 = CARTESIAN_POINT('',(7.198997432015E-02,2.756743153667));
#69 = CARTESIAN_POINT('',(0.345572210082,2.732880782534));
#70 = CARTESIAN_POINT('',(0.619154445844,2.73026150198));
#71 = CARTESIAN_POINT('',(0.892736681605,2.751790350253));
#72 = CARTESIAN_POINT('',(1.166318917367,2.796538033622));
#73 = CARTESIAN_POINT('',(1.439901153128,2.85860238199));
#74 = CARTESIAN_POINT('',(1.71348338889,2.929300528061));
#75 = CARTESIAN_POINT('',(1.987065624652,3.));
#76 = ( GEOMETRIC_REPRESENTATION_CONTEXT(2) 
PARAMETRIC_REPRESENTATION_CONTEXT() REPRESENTATION_CONTEXT('2D SPACE',''
  ) );
#77 = PCURVE('',#78,#83);
#78 = CYLINDRICAL_SURFACE('',#79,0.8);
#79 = AXIS2_PLACEMENT_3D('',#80,#81,#82);
#80 = CARTESIAN_POINT('',(-44.4,-118.8,20.5));
#81 = DIRECTION('',(0.811026312532,-0.236549341155,0.535052081184));
#82 = DIRECTION('',(-0.550680686765,0.,0.83471598836));
#83 = DEFINITIONAL_REPRESENTATION('',(#84),#93);
#84 = B_SPLINE_CURVE_WITH_KNOTS('',7,(#85,#86,#87,#88,#89,#90,#91,#92),
  .UNSPECIFIED.,.F.,.F.,(8,8),(2.797313330053,4.712388980385),
  .PIECEWISE_BEZIER_KNOTS.);
#85 = CARTESIAN_POINT('',(-1.59872115546E-13,0.243256846333));
#86 = CARTESIAN_POINT('',(0.273582235762,0.267119217466));
#87 = CARTESIAN_POINT('',(0.547164471523,0.26973849802));
#88 = CARTESIAN_POINT('',(0.820746707285,0.248209649746));
#89 = CARTESIAN_POINT('',(1.094328943046,0.203461966379));
#90 = CARTESIAN_POINT('',(1.367911178808,0.14139761801));
#91 = CARTESIAN_POINT('',(1.64149341457,7.069947193888E-02));
#92 = CARTESIAN_POINT('',(1.915075650332,0.));
#93 = ( GEOMETRIC_REPRESENTATION_CONTEXT(2) 
PARAMETRIC_REPRESENTATION_CONTEXT() REPRESENTATION_CONTEXT('2D SPACE',''
  ) );
#94 = ORIENTED_EDGE('',*,*,#95,.F.);
#95 = EDGE_CURVE('',#96,#57,#98,.T.);
#96 = VERTEX_POINT('',#97);
#97 = CARTESIAN_POINT('',(-44.63635308995,-118.8,21.3));
#98 = SURFACE_CURVE('',#99,(#104,#114),.PCURVE_S1.);
#99 = ELLIPSE('',#100,0.84070301456,0.8);
#100 = AXIS2_PLACEMENT_3D('',#101,#102,#103);
#101 = CARTESIAN_POINT('',(-44.4,-118.8,20.5));
#102 = DIRECTION('',(0.951584550246,-0.124292340126,0.281137435999));
#103 = DIRECTION('',(0.307387123566,0.384774317172,-0.870322860271));
#104 = PCURVE('',#33,#105);
#105 = DEFINITIONAL_REPRESENTATION('',(#106),#113);
#106 = B_SPLINE_CURVE_WITH_KNOTS('',5,(#107,#108,#109,#110,#111,#112),
  .UNSPECIFIED.,.F.,.F.,(6,6),(2.725323355733,2.797313330053),
  .PIECEWISE_BEZIER_KNOTS.);
#107 = CARTESIAN_POINT('',(4.085620730621E-13,2.76364691005));
#108 = CARTESIAN_POINT('',(1.439799486436E-02,2.762142421164));
#109 = CARTESIAN_POINT('',(2.87959897283E-02,2.760699177938));
#110 = CARTESIAN_POINT('',(4.319398459227E-02,2.759317830137));
#111 = CARTESIAN_POINT('',(5.75919794562E-02,2.757998974595));
#112 = CARTESIAN_POINT('',(7.198997432015E-02,2.756743153667));
#113 = ( GEOMETRIC_REPRESENTATION_CONTEXT(2) 
PARAMETRIC_REPRESENTATION_CONTEXT() REPRESENTATION_CONTEXT('2D SPACE',''
  ) );
#114 = PCURVE('',#78,#115);
#115 = DEFINITIONAL_REPRESENTATION('',(#116),#123);
#116 = B_SPLINE_CURVE_WITH_KNOTS('',5,(#117,#118,#119,#120,#121,#122),
  .UNSPECIFIED.,.F.,.F.,(6,6),(2.725323355733,2.797313330053),
  .PIECEWISE_BEZIER_KNOTS.);
#117 = CARTESIAN_POINT('',(6.21119533286,0.23635308995));
#118 = CARTESIAN_POINT('',(6.225593327724,0.237857578836));
#119 = CARTESIAN_POINT('',(6.239991322588,0.239300822062));
#120 = CARTESIAN_POINT('',(6.254389317452,0.240682169863));
#121 = CARTESIAN_POINT('',(6.268787312315,0.242001025405));
#122 = CARTESIAN_POINT('',(6.283185307179,0.243256846333));
#123 = ( GEOMETRIC_REPRESENTATION_CONTEXT(2) 
PARAMETRIC_REPRESENTATION_CONTEXT() REPRESENTATION_CONTEXT('2D SPACE',''
  ) );
#124 = ORIENTED_EDGE('',*,*,#125,.F.);
#125 = EDGE_CURVE('',#126,#96,#128,.T.);
#126 = VERTEX_POINT('',#127);
#127 = CARTESIAN_POINT('',(-47.4,-118.8,21.3));
#128 = SEAM_CURVE('',#129,(#133,#140),.PCURVE_S1.);
#129 = LINE('',#130,#131);
#130 = CARTESIAN_POINT('',(-47.4,-118.8,21.3));
#131 = VECTOR('',#132,1.);
#132 = DIRECTION('',(1.,0.,0.));
#133 = PCURVE('',#33,#134);
#134 = DEFINITIONAL_REPRESENTATION('',(#135),#139);
#135 = LINE('',#136,#137);
#136 = CARTESIAN_POINT('',(6.28318530718,-0.));
#137 = VECTOR('',#138,1.);
#138 = DIRECTION('',(0.,1.));
#139 = ( GEOMETRIC_REPRESENTATION_CONTEXT(2) 
PARAMETRIC_REPRESENTATION_CONTEXT() REPRESENTATION_CONTEXT('2D SPACE',''
  ) );
#140 = PCURVE('',#33,#141);
#141 = DEFINITIONAL_REPRESENTATION('',(#142),#146);
#142 = LINE('',#143,#144);
#143 = CARTESIAN_POINT('',(0.,-0.));
#144 = VECTOR('',#145,1.);
#145 = DIRECTION('',(0.,1.));
#146 = ( GEOMETRIC_REPRESENTATION_CONTEXT(2) 
PARAMETRIC_REPRESENTATION_CONTEXT() REPRESENTATION_CONTEXT('2D SPACE',''
  ) );
#147 = ORIENTED_EDGE('',*,*,#148,.T.);
#148 = EDGE_CURVE('',#126,#126,#149,.T.);
#149 = SURFACE_CURVE('',#150,(#155,#162),.PCURVE_S1.);
#150 = CIRCLE('',#151,0.8);
#151 = AXIS2_PLACEMENT_3D('',#152,#153,#154);
#152 = CARTESIAN_POINT('',(-47.4,-118.8,20.5));
#153 = DIRECTION('',(1.,0.,0.));
#154 = DIRECTION('',(-0.,0.,1.));
#155 = PCURVE('',#33,#156);
#156 = DEFINITIONAL_REPRESENTATION('',(#157),#161);
#157 = LINE('',#158,#159);
#158 = CARTESIAN_POINT('',(0.,0.));
#159 = VECTOR('',#160,1.);
#160 = DIRECTION('',(1.,0.));
#161 = ( GEOMETRIC_REPRESENTATION_CONTEXT(2) 
PARAMETRIC_REPRESENTATION_CONTEXT() REPRESENTATION_CONTEXT('2D SPACE',''
  ) );
#162 = PCURVE('',#163,#168);
#163 = PLANE('',#164);
#164 = AXIS2_PLACEMENT_3D('',#165,#166,#167);
#165 = CARTESIAN_POINT('',(-47.4,-118.8,20.5));
#166 = DIRECTION('',(1.,0.,0.));
#167 = DIRECTION('',(-0.,0.,1.));
#168 = DEFINITIONAL_REPRESENTATION('',(#169),#173);
#169 = CIRCLE('',#170,0.8);
#170 = AXIS2_PLACEMENT_2D('',#171,#172);
#171 = CARTESIAN_POINT('',(0.,0.));
#172 = DIRECTION('',(1.,0.));
#173 = ( GEOMETRIC_REPRESENTATION_CONTEXT(2) 
PARAMETRIC_REPRESENTATION_CONTEXT() REPRESENTATION_CONTEXT('2D SPACE',''
  ) );
#174 = ORIENTED_EDGE('',*,*,#125,.T.);
#175 = ORIENTED_EDGE('',*,*,#176,.F.);
#176 = EDGE_CURVE('',#177,#96,#179,.T.);
#177 = VERTEX_POINT('',#178);
#178 = CARTESIAN_POINT('',(-44.4,-118.0683169477,20.823480928372));
#179 = SURFACE_CURVE('',#180,(#185,#196),.PCURVE_S1.);
#180 = ELLIPSE('',#181,0.84070301456,0.8);
#181 = AXIS2_PLACEMENT_3D('',#182,#183,#184);
#182 = CARTESIAN_POINT('',(-44.4,-118.8,20.5));
#183 = DIRECTION('',(0.951584550246,-0.124292340126,0.281137435999));
#184 = DIRECTION('',(0.307387123566,0.384774317172,-0.870322860271));
#185 = PCURVE('',#33,#186);
#186 = DEFINITIONAL_REPRESENTATION('',(#187),#195);
#187 = B_SPLINE_CURVE_WITH_KNOTS('',6,(#188,#189,#190,#191,#192,#193,
    #194),.UNSPECIFIED.,.F.,.F.,(7,7),(1.570796326795,2.725323355733),
  .PIECEWISE_BEZIER_KNOTS.);
#188 = CARTESIAN_POINT('',(5.128658278242,3.));
#189 = CARTESIAN_POINT('',(5.321079449731,2.950274274292));
#190 = CARTESIAN_POINT('',(5.513500621221,2.900549242268));
#191 = CARTESIAN_POINT('',(5.705921792711,2.854133825408));
#192 = CARTESIAN_POINT('',(5.898342964201,2.814360997207));
#193 = CARTESIAN_POINT('',(6.09076413569,2.783753564945));
#194 = CARTESIAN_POINT('',(6.28318530718,2.76364691005));
#195 = ( GEOMETRIC_REPRESENTATION_CONTEXT(2) 
PARAMETRIC_REPRESENTATION_CONTEXT() REPRESENTATION_CONTEXT('2D SPACE',''
  ) );
#196 = PCURVE('',#78,#197);
#197 = DEFINITIONAL_REPRESENTATION('',(#198),#206);
#198 = B_SPLINE_CURVE_WITH_KNOTS('',6,(#199,#200,#201,#202,#203,#204,
    #205),.UNSPECIFIED.,.F.,.F.,(7,7),(1.570796326795,2.725323355733),
  .PIECEWISE_BEZIER_KNOTS.);
#199 = CARTESIAN_POINT('',(5.056668303921,0.));
#200 = CARTESIAN_POINT('',(5.249089475411,4.972572570843E-02));
#201 = CARTESIAN_POINT('',(5.441510646901,9.945075773197E-02));
#202 = CARTESIAN_POINT('',(5.63393181839,0.145866174592));
#203 = CARTESIAN_POINT('',(5.82635298988,0.185639002793));
#204 = CARTESIAN_POINT('',(6.01877416137,0.216246435055));
#205 = CARTESIAN_POINT('',(6.21119533286,0.23635308995));
#206 = ( GEOMETRIC_REPRESENTATION_CONTEXT(2) 
PARAMETRIC_REPRESENTATION_CONTEXT() REPRESENTATION_CONTEXT('2D SPACE',''
  ) );
#207 = ORIENTED_EDGE('',*,*,#208,.F.);
#208 = EDGE_CURVE('',#24,#177,#209,.T.);
#209 = SURFACE_CURVE('',#210,(#215,#222),.PCURVE_S1.);
#210 = CIRCLE('',#211,0.8);
#211 = AXIS2_PLACEMENT_3D('',#212,#213,#214);
#212 = CARTESIAN_POINT('',(-44.4,-118.8,20.5));
#213 = DIRECTION('',(1.,0.,0.));
#214 = DIRECTION('',(-0.,0.,1.));
#215 = PCURVE('',#33,#216);
#216 = DEFINITIONAL_REPRESENTATION('',(#217),#221);
#217 = LINE('',#218,#219);
#218 = CARTESIAN_POINT('',(0.,3.));
#219 = VECTOR('',#220,1.);
#220 = DIRECTION('',(1.,0.));
#221 = ( GEOMETRIC_REPRESENTATION_CONTEXT(2) 
PARAMETRIC_REPRESENTATION_CONTEXT() REPRESENTATION_CONTEXT('2D SPACE',''
  ) );
#222 = PCURVE('',#45,#223);
#223 = DEFINITIONAL_REPRESENTATION('',(#224),#227);
#224 = B_SPLINE_CURVE_WITH_KNOTS('',1,(#225,#226),.UNSPECIFIED.,.F.,.F.,
  (2,2),(3.14159265359,5.128658278242),.PIECEWISE_BEZIER_KNOTS.);
#225 = CARTESIAN_POINT('',(7.853981633974,-1.570796326795));
#226 = CARTESIAN_POINT('',(7.853981633974,0.416269297857));
#227 = ( GEOMETRIC_REPRESENTATION_CONTEXT(2) 
PARAMETRIC_REPRESENTATION_CONTEXT() REPRESENTATION_CONTEXT('2D SPACE',''
  ) );
#228 = ADVANCED_FACE('',(#229),#45,.T.);
#229 = FACE_BOUND('',#230,.T.);
#230 = EDGE_LOOP('',(#231,#232,#233));
#231 = ORIENTED_EDGE('',*,*,#21,.T.);
#232 = ORIENTED_EDGE('',*,*,#208,.T.);
#233 = ORIENTED_EDGE('',*,*,#234,.T.);
#234 = EDGE_CURVE('',#177,#22,#235,.T.);
#235 = SURFACE_CURVE('',#236,(#241,#289),.PCURVE_S1.);
#236 = CIRCLE('',#237,0.8);
#237 = AXIS2_PLACEMENT_3D('',#238,#239,#240);
#238 = CARTESIAN_POINT('',(-44.4,-118.8,20.5));
#239 = DIRECTION('',(-0.811026312532,0.236549341155,-0.535052081184));
#240 = DIRECTION('',(-8.854028621386E-15,0.914603815338,0.404351160465)
  );
#241 = PCURVE('',#45,#242);
#242 = DEFINITIONAL_REPRESENTATION('',(#243),#288);
#243 = B_SPLINE_CURVE_WITH_KNOTS('',8,(#244,#245,#246,#247,#248,#249,
    #250,#251,#252,#253,#254,#255,#256,#257,#258,#259,#260,#261,#262,
    #263,#264,#265,#266,#267,#268,#269,#270,#271,#272,#273,#274,#275,
    #276,#277,#278,#279,#280,#281,#282,#283,#284,#285,#286,#287),
  .UNSPECIFIED.,.F.,.F.,(9,7,7,7,7,7,9),(0.,0.718153368874,
    1.436306737749,1.915075650332,2.221704901146,2.528334151961,
    3.14159265359),.UNSPECIFIED.);
#244 = CARTESIAN_POINT('',(7.853981633975,0.416269297857));
#245 = CARTESIAN_POINT('',(7.79656241838,0.343464138033));
#246 = CARTESIAN_POINT('',(7.743367725509,0.269265551646));
#247 = CARTESIAN_POINT('',(7.69301964168,0.194158593029));
#248 = CARTESIAN_POINT('',(7.644480393143,0.118479647263));
#249 = CARTESIAN_POINT('',(7.596885069465,4.250324957873E-02));
#250 = CARTESIAN_POINT('',(7.549438256065,-3.35194709731E-02));
#251 = CARTESIAN_POINT('',(7.501329547149,-0.109335386223));
#252 = CARTESIAN_POINT('',(7.401916273466,-0.259947943063));
#253 = CARTESIAN_POINT('',(7.350612202728,-0.334744717244));
#254 = CARTESIAN_POINT('',(7.296769520803,-0.408728481431));
#255 = CARTESIAN_POINT('',(7.239344610034,-0.481550968573));
#256 = CARTESIAN_POINT('',(7.176983863953,-0.552757089594));
#257 = CARTESIAN_POINT('',(7.108097171838,-0.621752527883));
#258 = CARTESIAN_POINT('',(7.030223461066,-0.687623612496));
#259 = CARTESIAN_POINT('',(6.880995317217,-0.789793699647));
#260 = CARTESIAN_POINT('',(6.816120342067,-0.828630950053));
#261 = CARTESIAN_POINT('',(6.745274324559,-0.865011314658));
#262 = CARTESIAN_POINT('',(6.667613655441,-0.898397928704));
#263 = CARTESIAN_POINT('',(6.582434079042,-0.92814976632));
#264 = CARTESIAN_POINT('',(6.489190994019,-0.953446656978));
#265 = CARTESIAN_POINT('',(6.388777624992,-0.973460278119));
#266 = CARTESIAN_POINT('',(6.215558332136,-0.996683455381));
#267 = CARTESIAN_POINT('',(6.145806906522,-1.003347430341));
#268 = CARTESIAN_POINT('',(6.074454932222,-1.007458226488));
#269 = CARTESIAN_POINT('',(6.002207018048,-1.008903747363));
#270 = CARTESIAN_POINT('',(5.929933628873,-1.007641717551));
#271 = CARTESIAN_POINT('',(5.858508391023,-1.003710590039));
#272 = CARTESIAN_POINT('',(5.788644004384,-0.997219533142));
#273 = CARTESIAN_POINT('',(5.653102419028,-0.979414569551));
#274 = CARTESIAN_POINT('',(5.587425035712,-0.968100817832));
#275 = CARTESIAN_POINT('',(5.5243737296,-0.954524657859));
#276 = CARTESIAN_POINT('',(5.464295128507,-0.938878399621));
#277 = CARTESIAN_POINT('',(5.407319259031,-0.921369790287));
#278 = CARTESIAN_POINT('',(5.353417870557,-0.902200813298));
#279 = CARTESIAN_POINT('',(5.302482026625,-0.881555827375));
#280 = CARTESIAN_POINT('',(5.158083984387,-0.815693070676));
#281 = CARTESIAN_POINT('',(5.073031785992,-0.766547179972));
#282 = CARTESIAN_POINT('',(4.997902786756,-0.713497080989));
#283 = CARTESIAN_POINT('',(4.930608121136,-0.657570194898));
#284 = CARTESIAN_POINT('',(4.869586099912,-0.599431188109));
#285 = CARTESIAN_POINT('',(4.81353427353,-0.539595490116));
#286 = CARTESIAN_POINT('',(4.761421434519,-0.478440395508));
#287 = CARTESIAN_POINT('',(4.712388980385,-0.416269297857));
#288 = ( GEOMETRIC_REPRESENTATION_CONTEXT(2) 
PARAMETRIC_REPRESENTATION_CONTEXT() REPRESENTATION_CONTEXT('2D SPACE',''
  ) );
#289 = PCURVE('',#78,#290);
#290 = DEFINITIONAL_REPRESENTATION('',(#291),#295);
#291 = LINE('',#292,#293);
#292 = CARTESIAN_POINT('',(5.056668303921,0.));
#293 = VECTOR('',#294,1.);
#294 = DIRECTION('',(-1.,-0.));
#295 = ( GEOMETRIC_REPRESENTATION_CONTEXT(2) 
PARAMETRIC_REPRESENTATION_CONTEXT() REPRESENTATION_CONTEXT('2D SPACE',''
  ) );
#296 = ADVANCED_FACE('',(#297),#78,.T.);
#297 = FACE_BOUND('',#298,.T.);
#298 = EDGE_LOOP('',(#299,#322,#368,#403,#439,#481,#482,#483,#484,#485)
  );
#299 = ORIENTED_EDGE('',*,*,#300,.T.);
#300 = EDGE_CURVE('',#57,#301,#303,.T.);
#301 = VERTEX_POINT('',#302);
#302 = CARTESIAN_POINT('',(-30.44054454941,-123.,30.667772790688));
#303 = SEAM_CURVE('',#304,(#308,#315),.PCURVE_S1.);
#304 = LINE('',#305,#306);
#305 = CARTESIAN_POINT('',(-44.84054454941,-118.8,21.167772790688));
#306 = VECTOR('',#307,1.);
#307 = DIRECTION('',(0.811026312532,-0.236549341155,0.535052081184));
#308 = PCURVE('',#78,#309);
#309 = DEFINITIONAL_REPRESENTATION('',(#310),#314);
#310 = LINE('',#311,#312);
#311 = CARTESIAN_POINT('',(6.28318530718,-0.));
#312 = VECTOR('',#313,1.);
#313 = DIRECTION('',(0.,1.));
#314 = ( GEOMETRIC_REPRESENTATION_CONTEXT(2) 
PARAMETRIC_REPRESENTATION_CONTEXT() REPRESENTATION_CONTEXT('2D SPACE',''
  ) );
#315 = PCURVE('',#78,#316);
#316 = DEFINITIONAL_REPRESENTATION('',(#317),#321);
#317 = LINE('',#318,#319);
#318 = CARTESIAN_POINT('',(0.,-0.));
#319 = VECTOR('',#320,1.);
#320 = DIRECTION('',(0.,1.));
#321 = ( GEOMETRIC_REPRESENTATION_CONTEXT(2) 
PARAMETRIC_REPRESENTATION_CONTEXT() REPRESENTATION_CONTEXT('2D SPACE',''
  ) );
#322 = ORIENTED_EDGE('',*,*,#323,.F.);
#323 = EDGE_CURVE('',#324,#301,#326,.T.);
#324 = VERTEX_POINT('',#325);
#325 = CARTESIAN_POINT('',(-30.04678605684,-122.2982091473,
    30.381183242067));
#326 = SURFACE_CURVE('',#327,(#332,#339),.PCURVE_S1.);
#327 = CIRCLE('',#328,0.8);
#328 = AXIS2_PLACEMENT_3D('',#329,#330,#331);
#329 = CARTESIAN_POINT('',(-30.,-123.,30.));
#330 = DIRECTION('',(0.811026312532,-0.236549341155,0.535052081184));
#331 = DIRECTION('',(-0.550680686765,1.387778780781E-17,0.83471598836));
#332 = PCURVE('',#78,#333);
#333 = DEFINITIONAL_REPRESENTATION('',(#334),#338);
#334 = LINE('',#335,#336);
#335 = CARTESIAN_POINT('',(0.,17.755280904565));
#336 = VECTOR('',#337,1.);
#337 = DIRECTION('',(1.,0.));
#338 = ( GEOMETRIC_REPRESENTATION_CONTEXT(2) 
PARAMETRIC_REPRESENTATION_CONTEXT() REPRESENTATION_CONTEXT('2D SPACE',''
  ) );
#339 = PCURVE('',#340,#345);
#340 = SPHERICAL_SURFACE('',#341,0.8);
#341 = AXIS2_PLACEMENT_3D('',#342,#343,#344);
#342 = CARTESIAN_POINT('',(-30.,-123.,30.));
#343 = DIRECTION('',(0.,0.,1.));
#344 = DIRECTION('',(1.,0.,-0.));
#345 = DEFINITIONAL_REPRESENTATION('',(#346),#367);
#346 = B_SPLINE_CURVE_WITH_KNOTS('',7,(#347,#348,#349,#350,#351,#352,
    #353,#354,#355,#356,#357,#358,#359,#360,#361,#362,#363,#364,#365,
    #366),.UNSPECIFIED.,.F.,.F.,(8,6,6,8),(5.156804120236,5.719994713708
    ,6.001590010444,6.28318530718),.UNSPECIFIED.);
#347 = CARTESIAN_POINT('',(1.637364490571,0.496645564342));
#348 = CARTESIAN_POINT('',(1.693056393403,0.560486837751));
#349 = CARTESIAN_POINT('',(1.75324596449,0.622811469754));
#350 = CARTESIAN_POINT('',(1.819186681278,0.683155396435));
#351 = CARTESIAN_POINT('',(1.892516963049,0.740868104858));
#352 = CARTESIAN_POINT('',(1.975110929177,0.795122122822));
#353 = CARTESIAN_POINT('',(2.069827743301,0.844519582308));
#354 = CARTESIAN_POINT('',(2.231727286436,0.908631729602));
#355 = CARTESIAN_POINT('',(2.288999024552,0.928338579343));
#356 = CARTESIAN_POINT('',(2.349703832662,0.94615823536));
#357 = CARTESIAN_POINT('',(2.413885335882,0.961843413445));
#358 = CARTESIAN_POINT('',(2.481351966491,0.975136178111));
#359 = CARTESIAN_POINT('',(2.551615382125,0.985800943199));
#360 = CARTESIAN_POINT('',(2.696221165552,1.001553392499));
#361 = CARTESIAN_POINT('',(2.770564981321,1.006640819196));
#362 = CARTESIAN_POINT('',(2.846200887979,1.008778326225));
#363 = CARTESIAN_POINT('',(2.922141076368,1.007872397151));
#364 = CARTESIAN_POINT('',(2.997247689089,1.003946860653));
#365 = CARTESIAN_POINT('',(3.07061465914,0.997132720104));
#366 = CARTESIAN_POINT('',(3.14159265359,0.987616836973));
#367 = ( GEOMETRIC_REPRESENTATION_CONTEXT(2) 
PARAMETRIC_REPRESENTATION_CONTEXT() REPRESENTATION_CONTEXT('2D SPACE',''
  ) );
#368 = ORIENTED_EDGE('',*,*,#369,.F.);
#369 = EDGE_CURVE('',#370,#324,#372,.T.);
#370 = VERTEX_POINT('',#371);
#371 = CARTESIAN_POINT('',(-29.92415687507,-122.1931679848,30.));
#372 = SURFACE_CURVE('',#373,(#378,#388),.PCURVE_S1.);
#373 = ELLIPSE('',#374,0.844801937084,0.8);
#374 = AXIS2_PLACEMENT_3D('',#375,#376,#377);
#375 = CARTESIAN_POINT('',(-30.,-123.,30.));
#376 = DIRECTION('',(0.955054646252,-8.977622042524E-02,0.282508146641)
  );
#377 = DIRECTION('',(-0.29060352984,-0.471585335771,0.832560423952));
#378 = PCURVE('',#78,#379);
#379 = DEFINITIONAL_REPRESENTATION('',(#380),#387);
#380 = B_SPLINE_CURVE_WITH_KNOTS('',5,(#381,#382,#383,#384,#385,#386),
  .UNSPECIFIED.,.F.,.F.,(6,6),(4.215743416041,4.712388526602),
  .PIECEWISE_BEZIER_KNOTS.);
#381 = CARTESIAN_POINT('',(4.660158555893,17.625936092886));
#382 = CARTESIAN_POINT('',(4.759487578005,17.649642297955));
#383 = CARTESIAN_POINT('',(4.858816600117,17.674943655403));
#384 = CARTESIAN_POINT('',(4.958145622229,17.701353123244));
#385 = CARTESIAN_POINT('',(5.057474644341,17.72831696505));
#386 = CARTESIAN_POINT('',(5.156803666454,17.755280781381));
#387 = ( GEOMETRIC_REPRESENTATION_CONTEXT(2) 
PARAMETRIC_REPRESENTATION_CONTEXT() REPRESENTATION_CONTEXT('2D SPACE',''
  ) );
#388 = PCURVE('',#389,#394);
#389 = CYLINDRICAL_SURFACE('',#390,0.8);
#390 = AXIS2_PLACEMENT_3D('',#391,#392,#393);
#391 = CARTESIAN_POINT('',(-30.,-123.,30.));
#392 = DIRECTION('',(0.997785157857,6.651901052377E-02,0.));
#393 = DIRECTION('',(-6.651901052377E-02,0.997785157857,0.));
#394 = DEFINITIONAL_REPRESENTATION('',(#395),#402);
#395 = B_SPLINE_CURVE_WITH_KNOTS('',5,(#396,#397,#398,#399,#400,#401),
  .UNSPECIFIED.,.F.,.F.,(6,6),(4.215743416041,4.712388526602),
  .PIECEWISE_BEZIER_KNOTS.);
#396 = CARTESIAN_POINT('',(-1.745270594711E-12,0.129344811679));
#397 = CARTESIAN_POINT('',(9.932902211047E-02,0.10563860661));
#398 = CARTESIAN_POINT('',(0.198658044223,8.033724916198E-02));
#399 = CARTESIAN_POINT('',(0.297987066335,5.39277813206E-02));
#400 = CARTESIAN_POINT('',(0.397316088447,2.69639395143E-02));
#401 = CARTESIAN_POINT('',(0.496645110559,1.231836037618E-07));
#402 = ( GEOMETRIC_REPRESENTATION_CONTEXT(2) 
PARAMETRIC_REPRESENTATION_CONTEXT() REPRESENTATION_CONTEXT('2D SPACE',''
  ) );
#403 = ORIENTED_EDGE('',*,*,#404,.F.);
#404 = EDGE_CURVE('',#405,#370,#407,.T.);
#405 = VERTEX_POINT('',#406);
#406 = CARTESIAN_POINT('',(-29.95321394315,-123.7017908526,
    29.618816757933));
#407 = SURFACE_CURVE('',#408,(#413,#426),.PCURVE_S1.);
#408 = ELLIPSE('',#409,0.844801937084,0.8);
#409 = AXIS2_PLACEMENT_3D('',#410,#411,#412);
#410 = CARTESIAN_POINT('',(-30.,-123.,30.));
#411 = DIRECTION('',(0.955054646252,-8.977622042524E-02,0.282508146641)
  );
#412 = DIRECTION('',(-0.29060352984,-0.471585335771,0.832560423952));
#413 = PCURVE('',#78,#414);
#414 = DEFINITIONAL_REPRESENTATION('',(#415),#425);
#415 = B_SPLINE_CURVE_WITH_KNOTS('',8,(#416,#417,#418,#419,#420,#421,
    #422,#423,#424),.UNSPECIFIED.,.F.,.F.,(9,9),(1.570796326795,
    4.215743416041),.PIECEWISE_BEZIER_KNOTS.);
#416 = CARTESIAN_POINT('',(2.015211466646,17.755280904565));
#417 = CARTESIAN_POINT('',(2.345829852802,17.665531370639));
#418 = CARTESIAN_POINT('',(2.676448238959,17.575781247751));
#419 = CARTESIAN_POINT('',(3.007066625105,17.500985423161));
#420 = CARTESIAN_POINT('',(3.337685011273,17.456065723149));
#421 = CARTESIAN_POINT('',(3.668303397415,17.450833129195));
#422 = CARTESIAN_POINT('',(3.998921783581,17.48428161869));
#423 = CARTESIAN_POINT('',(4.329540169737,17.547029574982));
#424 = CARTESIAN_POINT('',(4.660158555893,17.625936092886));
#425 = ( GEOMETRIC_REPRESENTATION_CONTEXT(2) 
PARAMETRIC_REPRESENTATION_CONTEXT() REPRESENTATION_CONTEXT('2D SPACE',''
  ) );
#426 = PCURVE('',#389,#427);
#427 = DEFINITIONAL_REPRESENTATION('',(#428),#438);
#428 = B_SPLINE_CURVE_WITH_KNOTS('',8,(#429,#430,#431,#432,#433,#434,
    #435,#436,#437),.UNSPECIFIED.,.F.,.F.,(9,9),(1.570796326795,
    4.215743416041),.PIECEWISE_BEZIER_KNOTS.);
#429 = CARTESIAN_POINT('',(3.638238217932,7.105427357601E-15));
#430 = CARTESIAN_POINT('',(3.968856604087,8.974953392561E-02));
#431 = CARTESIAN_POINT('',(4.299474990245,0.179499656805));
#432 = CARTESIAN_POINT('',(4.630093376394,0.254295481406));
#433 = CARTESIAN_POINT('',(4.960711762571,0.299215181374));
#434 = CARTESIAN_POINT('',(5.29133014871,0.30444777536));
#435 = CARTESIAN_POINT('',(5.621948534865,0.270999285874));
#436 = CARTESIAN_POINT('',(5.952566921022,0.208251329582));
#437 = CARTESIAN_POINT('',(6.283185307178,0.129344811679));
#438 = ( GEOMETRIC_REPRESENTATION_CONTEXT(2) 
PARAMETRIC_REPRESENTATION_CONTEXT() REPRESENTATION_CONTEXT('2D SPACE',''
  ) );
#439 = ORIENTED_EDGE('',*,*,#440,.F.);
#440 = EDGE_CURVE('',#301,#405,#441,.T.);
#441 = SURFACE_CURVE('',#442,(#447,#454),.PCURVE_S1.);
#442 = CIRCLE('',#443,0.8);
#443 = AXIS2_PLACEMENT_3D('',#444,#445,#446);
#444 = CARTESIAN_POINT('',(-30.,-123.,30.));
#445 = DIRECTION('',(0.811026312532,-0.236549341155,0.535052081184));
#446 = DIRECTION('',(-0.550680686765,1.387778780781E-17,0.83471598836));
#447 = PCURVE('',#78,#448);
#448 = DEFINITIONAL_REPRESENTATION('',(#449),#453);
#449 = LINE('',#450,#451);
#450 = CARTESIAN_POINT('',(0.,17.755280904565));
#451 = VECTOR('',#452,1.);
#452 = DIRECTION('',(1.,0.));
#453 = ( GEOMETRIC_REPRESENTATION_CONTEXT(2) 
PARAMETRIC_REPRESENTATION_CONTEXT() REPRESENTATION_CONTEXT('2D SPACE',''
  ) );
#454 = PCURVE('',#340,#455);
#455 = DEFINITIONAL_REPRESENTATION('',(#456),#480);
#456 = B_SPLINE_CURVE_WITH_KNOTS('',8,(#457,#458,#459,#460,#461,#462,
    #463,#464,#465,#466,#467,#468,#469,#470,#471,#472,#473,#474,#475,
    #476,#477,#478,#479),.UNSPECIFIED.,.F.,.F.,(9,7,7,9),(0.,
    0.503802866662,1.259507166654,2.015211466646),.UNSPECIFIED.);
#457 = CARTESIAN_POINT('',(3.14159265359,0.987616836973));
#458 = CARTESIAN_POINT('',(3.252706201302,0.972720057451));
#459 = CARTESIAN_POINT('',(3.358085244407,0.95133776888));
#460 = CARTESIAN_POINT('',(3.455407878335,0.924137946535));
#461 = CARTESIAN_POINT('',(3.543705794003,0.892103441569));
#462 = CARTESIAN_POINT('',(3.623778382831,0.856183607983));
#463 = CARTESIAN_POINT('',(3.696478049361,0.817096944948));
#464 = CARTESIAN_POINT('',(3.762809013921,0.775440017126));
#465 = CARTESIAN_POINT('',(3.914967999109,0.666035633101));
#466 = CARTESIAN_POINT('',(3.993962462644,0.595657523221));
#467 = CARTESIAN_POINT('',(4.063728167654,0.522123630275));
#468 = CARTESIAN_POINT('',(4.126947714882,0.446393729648));
#469 = CARTESIAN_POINT('',(4.185310881661,0.369090613032));
#470 = CARTESIAN_POINT('',(4.240269516835,0.290690822625));
#471 = CARTESIAN_POINT('',(4.292944718479,0.211563966134));
#472 = CARTESIAN_POINT('',(4.395813145854,5.252127676875E-02));
#473 = CARTESIAN_POINT('',(4.44600590581,-2.739473758889E-02));
#474 = CARTESIAN_POINT('',(4.495992370797,-0.107373251069));
#475 = CARTESIAN_POINT('',(4.546703911845,-0.187125298359));
#476 = CARTESIAN_POINT('',(4.599093500101,-0.266346573476));
#477 = CARTESIAN_POINT('',(4.654253341453,-0.344686800689));
#478 = CARTESIAN_POINT('',(4.713569361469,-0.421689617425));
#479 = CARTESIAN_POINT('',(4.778957144161,-0.496645564342));
#480 = ( GEOMETRIC_REPRESENTATION_CONTEXT(2) 
PARAMETRIC_REPRESENTATION_CONTEXT() REPRESENTATION_CONTEXT('2D SPACE',''
  ) );
#481 = ORIENTED_EDGE('',*,*,#300,.F.);
#482 = ORIENTED_EDGE('',*,*,#56,.T.);
#483 = ORIENTED_EDGE('',*,*,#234,.F.);
#484 = ORIENTED_EDGE('',*,*,#176,.T.);
#485 = ORIENTED_EDGE('',*,*,#95,.T.);
#486 = ADVANCED_FACE('',(#487),#163,.F.);
#487 = FACE_BOUND('',#488,.T.);
#488 = EDGE_LOOP('',(#489));
#489 = ORIENTED_EDGE('',*,*,#148,.F.);
#490 = ADVANCED_FACE('',(#491),#340,.T.);
#491 = FACE_BOUND('',#492,.T.);
#492 = EDGE_LOOP('',(#493,#517,#539,#540));
#493 = ORIENTED_EDGE('',*,*,#494,.F.);
#494 = EDGE_CURVE('',#495,#405,#497,.T.);
#495 = VERTEX_POINT('',#496);
#496 = CARTESIAN_POINT('',(-30.,-123.,30.8));
#497 = SURFACE_CURVE('',#498,(#503,#510),.PCURVE_S1.);
#498 = CIRCLE('',#499,0.8);
#499 = AXIS2_PLACEMENT_3D('',#500,#501,#502);
#500 = CARTESIAN_POINT('',(-30.,-123.,30.));
#501 = DIRECTION('',(0.997785157857,6.651901052377E-02,0.));
#502 = DIRECTION('',(-6.651901052377E-02,0.997785157857,0.));
#503 = PCURVE('',#340,#504);
#504 = DEFINITIONAL_REPRESENTATION('',(#505),#509);
#505 = LINE('',#506,#507);
#506 = CARTESIAN_POINT('',(4.778957144161,3.14159265359));
#507 = VECTOR('',#508,1.);
#508 = DIRECTION('',(0.,-1.));
#509 = ( GEOMETRIC_REPRESENTATION_CONTEXT(2) 
PARAMETRIC_REPRESENTATION_CONTEXT() REPRESENTATION_CONTEXT('2D SPACE',''
  ) );
#510 = PCURVE('',#389,#511);
#511 = DEFINITIONAL_REPRESENTATION('',(#512),#516);
#512 = LINE('',#513,#514);
#513 = CARTESIAN_POINT('',(0.,0.));
#514 = VECTOR('',#515,1.);
#515 = DIRECTION('',(1.,0.));
#516 = ( GEOMETRIC_REPRESENTATION_CONTEXT(2) 
PARAMETRIC_REPRESENTATION_CONTEXT() REPRESENTATION_CONTEXT('2D SPACE',''
  ) );
#517 = ORIENTED_EDGE('',*,*,#518,.F.);
#518 = EDGE_CURVE('',#324,#495,#519,.T.);
#519 = SURFACE_CURVE('',#520,(#525,#532),.PCURVE_S1.);
#520 = CIRCLE('',#521,0.8);
#521 = AXIS2_PLACEMENT_3D('',#522,#523,#524);
#522 = CARTESIAN_POINT('',(-30.,-123.,30.));
#523 = DIRECTION('',(0.997785157857,6.651901052377E-02,0.));
#524 = DIRECTION('',(-6.651901052377E-02,0.997785157857,0.));
#525 = PCURVE('',#340,#526);
#526 = DEFINITIONAL_REPRESENTATION('',(#527),#531);
#527 = LINE('',#528,#529);
#528 = CARTESIAN_POINT('',(1.637364490571,0.));
#529 = VECTOR('',#530,1.);
#530 = DIRECTION('',(0.,1.));
#531 = ( GEOMETRIC_REPRESENTATION_CONTEXT(2) 
PARAMETRIC_REPRESENTATION_CONTEXT() REPRESENTATION_CONTEXT('2D SPACE',''
  ) );
#532 = PCURVE('',#389,#533);
#533 = DEFINITIONAL_REPRESENTATION('',(#534),#538);
#534 = LINE('',#535,#536);
#535 = CARTESIAN_POINT('',(0.,0.));
#536 = VECTOR('',#537,1.);
#537 = DIRECTION('',(1.,0.));
#538 = ( GEOMETRIC_REPRESENTATION_CONTEXT(2) 
PARAMETRIC_REPRESENTATION_CONTEXT() REPRESENTATION_CONTEXT('2D SPACE',''
  ) );
#539 = ORIENTED_EDGE('',*,*,#323,.T.);
#540 = ORIENTED_EDGE('',*,*,#440,.T.);
#541 = ADVANCED_FACE('',(#542),#389,.T.);
#542 = FACE_BOUND('',#543,.T.);
#543 = EDGE_LOOP('',(#544,#581,#609,#632,#666,#687,#688,#689,#690,#691)
  );
#544 = ORIENTED_EDGE('',*,*,#545,.F.);
#545 = EDGE_CURVE('',#546,#548,#550,.T.);
#546 = VERTEX_POINT('',#547);
#547 = CARTESIAN_POINT('',(5.946984986185,-119.8047747927,
    29.930672674242));
#548 = VERTEX_POINT('',#549);
#549 = CARTESIAN_POINT('',(5.918217492422,-119.8036763603,30.));
#550 = SURFACE_CURVE('',#551,(#556,#566),.PCURVE_S1.);
#551 = ELLIPSE('',#552,0.865536204831,0.8);
#552 = AXIS2_PLACEMENT_3D('',#553,#554,#555);
#553 = CARTESIAN_POINT('',(6.,-120.6,30.));
#554 = DIRECTION('',(0.92003504328,9.448767961025E-02,0.38027305655));
#555 = DIRECTION('',(0.386191622929,-5.452923476013E-02,-0.920805404489)
  );
#556 = PCURVE('',#389,#557);
#557 = DEFINITIONAL_REPRESENTATION('',(#558),#565);
#558 = B_SPLINE_CURVE_WITH_KNOTS('',5,(#559,#560,#561,#562,#563,#564),
  .UNSPECIFIED.,.F.,.F.,(6,6),(1.570796326795,1.657564317802),
  .PIECEWISE_BEZIER_KNOTS.);
#559 = CARTESIAN_POINT('',(6.196417316157,36.079911308095));
#560 = CARTESIAN_POINT('',(6.213770914358,36.074177974387));
#561 = CARTESIAN_POINT('',(6.23112451256,36.068444640679));
#562 = CARTESIAN_POINT('',(6.248478110761,36.06271490401));
#563 = CARTESIAN_POINT('',(6.265831708963,36.056992361415));
#564 = CARTESIAN_POINT('',(6.283185307164,36.051280596399));
#565 = ( GEOMETRIC_REPRESENTATION_CONTEXT(2) 
PARAMETRIC_REPRESENTATION_CONTEXT() REPRESENTATION_CONTEXT('2D SPACE',''
  ) );
#566 = PCURVE('',#567,#572);
#567 = CYLINDRICAL_SURFACE('',#568,0.8);
#568 = AXIS2_PLACEMENT_3D('',#569,#570,#571);
#569 = CARTESIAN_POINT('',(6.,-120.6,30.));
#570 = DIRECTION('',(0.702959491567,0.108147614087,0.702959491567));
#571 = DIRECTION('',(0.707106781187,0.,-0.707106781187));
#572 = DEFINITIONAL_REPRESENTATION('',(#573),#580);
#573 = B_SPLINE_CURVE_WITH_KNOTS('',5,(#574,#575,#576,#577,#578,#579),
  .UNSPECIFIED.,.F.,.F.,(6,6),(1.570796326795,1.657564317802),
  .PIECEWISE_BEZIER_KNOTS.);
#574 = CARTESIAN_POINT('',(1.556377644207,3.552713678801E-15));
#575 = CARTESIAN_POINT('',(1.573731242408,5.733333708112E-03));
#576 = CARTESIAN_POINT('',(1.59108484061,1.146666741638E-02));
#577 = CARTESIAN_POINT('',(1.608438438811,1.719640408554E-02));
#578 = CARTESIAN_POINT('',(1.625792037012,2.291894668032E-02));
#579 = CARTESIAN_POINT('',(1.643145635214,2.863071169588E-02));
#580 = ( GEOMETRIC_REPRESENTATION_CONTEXT(2) 
PARAMETRIC_REPRESENTATION_CONTEXT() REPRESENTATION_CONTEXT('2D SPACE',''
  ) );
#581 = ORIENTED_EDGE('',*,*,#582,.F.);
#582 = EDGE_CURVE('',#583,#546,#585,.T.);
#583 = VERTEX_POINT('',#584);
#584 = CARTESIAN_POINT('',(6.,-120.6,29.2));
#585 = SURFACE_CURVE('',#586,(#591,#598),.PCURVE_S1.);
#586 = CIRCLE('',#587,0.8);
#587 = AXIS2_PLACEMENT_3D('',#588,#589,#590);
#588 = CARTESIAN_POINT('',(6.,-120.6,30.));
#589 = DIRECTION('',(0.997785157857,6.651901052377E-02,0.));
#590 = DIRECTION('',(-6.651901052377E-02,0.997785157857,0.));
#591 = PCURVE('',#389,#592);
#592 = DEFINITIONAL_REPRESENTATION('',(#593),#597);
#593 = LINE('',#594,#595);
#594 = CARTESIAN_POINT('',(0.,36.079911308095));
#595 = VECTOR('',#596,1.);
#596 = DIRECTION('',(1.,0.));
#597 = ( GEOMETRIC_REPRESENTATION_CONTEXT(2) 
PARAMETRIC_REPRESENTATION_CONTEXT() REPRESENTATION_CONTEXT('2D SPACE',''
  ) );
#598 = PCURVE('',#599,#604);
#599 = SPHERICAL_SURFACE('',#600,0.8);
#600 = AXIS2_PLACEMENT_3D('',#601,#602,#603);
#601 = CARTESIAN_POINT('',(6.,-120.6,30.));
#602 = DIRECTION('',(0.,0.,1.));
#603 = DIRECTION('',(1.,0.,-0.));
#604 = DEFINITIONAL_REPRESENTATION('',(#605),#608);
#605 = B_SPLINE_CURVE_WITH_KNOTS('',1,(#606,#607),.UNSPECIFIED.,.F.,.F.,
  (2,2),(4.712388980385,6.196417316157),.PIECEWISE_BEZIER_KNOTS.);
#606 = CARTESIAN_POINT('',(7.92054979775,-1.570796326795));
#607 = CARTESIAN_POINT('',(7.92054979775,-8.676799102269E-02));
#608 = ( GEOMETRIC_REPRESENTATION_CONTEXT(2) 
PARAMETRIC_REPRESENTATION_CONTEXT() REPRESENTATION_CONTEXT('2D SPACE',''
  ) );
#609 = ORIENTED_EDGE('',*,*,#610,.F.);
#610 = EDGE_CURVE('',#611,#583,#613,.T.);
#611 = VERTEX_POINT('',#612);
#612 = CARTESIAN_POINT('',(6.053015013815,-121.3952252072,
    30.069327325758));
#613 = SURFACE_CURVE('',#614,(#619,#626),.PCURVE_S1.);
#614 = CIRCLE('',#615,0.8);
#615 = AXIS2_PLACEMENT_3D('',#616,#617,#618);
#616 = CARTESIAN_POINT('',(6.,-120.6,30.));
#617 = DIRECTION('',(0.997785157857,6.651901052377E-02,0.));
#618 = DIRECTION('',(-6.651901052377E-02,0.997785157857,0.));
#619 = PCURVE('',#389,#620);
#620 = DEFINITIONAL_REPRESENTATION('',(#621),#625);
#621 = LINE('',#622,#623);
#622 = CARTESIAN_POINT('',(0.,36.079911308095));
#623 = VECTOR('',#624,1.);
#624 = DIRECTION('',(1.,0.));
#625 = ( GEOMETRIC_REPRESENTATION_CONTEXT(2) 
PARAMETRIC_REPRESENTATION_CONTEXT() REPRESENTATION_CONTEXT('2D SPACE',''
  ) );
#626 = PCURVE('',#599,#627);
#627 = DEFINITIONAL_REPRESENTATION('',(#628),#631);
#628 = B_SPLINE_CURVE_WITH_KNOTS('',1,(#629,#630),.UNSPECIFIED.,.F.,.F.,
  (2,2),(3.054824662567,4.712388980385),.PIECEWISE_BEZIER_KNOTS.);
#629 = CARTESIAN_POINT('',(4.778957144161,8.67679910227E-02));
#630 = CARTESIAN_POINT('',(4.778957144161,-1.570796326795));
#631 = ( GEOMETRIC_REPRESENTATION_CONTEXT(2) 
PARAMETRIC_REPRESENTATION_CONTEXT() REPRESENTATION_CONTEXT('2D SPACE',''
  ) );
#632 = ORIENTED_EDGE('',*,*,#633,.F.);
#633 = EDGE_CURVE('',#548,#611,#634,.T.);
#634 = SURFACE_CURVE('',#635,(#640,#653),.PCURVE_S1.);
#635 = ELLIPSE('',#636,0.865536204831,0.8);
#636 = AXIS2_PLACEMENT_3D('',#637,#638,#639);
#637 = CARTESIAN_POINT('',(6.,-120.6,30.));
#638 = DIRECTION('',(0.92003504328,9.448767961025E-02,0.38027305655));
#639 = DIRECTION('',(0.386191622929,-5.452923476013E-02,-0.920805404489)
  );
#640 = PCURVE('',#389,#641);
#641 = DEFINITIONAL_REPRESENTATION('',(#642),#652);
#642 = B_SPLINE_CURVE_WITH_KNOTS('',8,(#643,#644,#645,#646,#647,#648,
    #649,#650,#651),.UNSPECIFIED.,.F.,.F.,(9,9),(1.657564317802,
    4.712388979011),.PIECEWISE_BEZIER_KNOTS.);
#643 = CARTESIAN_POINT('',(-1.555644502105E-11,36.051280596399));
#644 = CARTESIAN_POINT('',(0.381853082636,35.92559743529));
#645 = CARTESIAN_POINT('',(0.763706165288,35.804684907638));
#646 = CARTESIAN_POINT('',(1.145559247924,35.716474633373));
#647 = CARTESIAN_POINT('',(1.527412330602,35.687366815575));
#648 = CARTESIAN_POINT('',(1.909265413231,35.729477806322));
#649 = CARTESIAN_POINT('',(2.291118495892,35.827594657472));
#650 = CARTESIAN_POINT('',(2.672971578542,35.953753543419));
#651 = CARTESIAN_POINT('',(3.054824661193,36.079911307641));
#652 = ( GEOMETRIC_REPRESENTATION_CONTEXT(2) 
PARAMETRIC_REPRESENTATION_CONTEXT() REPRESENTATION_CONTEXT('2D SPACE',''
  ) );
#653 = PCURVE('',#567,#654);
#654 = DEFINITIONAL_REPRESENTATION('',(#655),#665);
#655 = B_SPLINE_CURVE_WITH_KNOTS('',8,(#656,#657,#658,#659,#660,#661,
    #662,#663,#664),.UNSPECIFIED.,.F.,.F.,(9,9),(1.657564317802,
    4.712388979011),.PIECEWISE_BEZIER_KNOTS.);
#656 = CARTESIAN_POINT('',(1.643145635214,2.863071169588E-02));
#657 = CARTESIAN_POINT('',(2.024998717865,0.154313872805));
#658 = CARTESIAN_POINT('',(2.406851800513,0.275226400484));
#659 = CARTESIAN_POINT('',(2.78870488318,0.363436674537));
#660 = CARTESIAN_POINT('',(3.170557965776,0.392544492682));
#661 = CARTESIAN_POINT('',(3.552411048489,0.350433501663));
#662 = CARTESIAN_POINT('',(3.934264131115,0.252316650639));
#663 = CARTESIAN_POINT('',(4.316117213772,0.126157764676));
#664 = CARTESIAN_POINT('',(4.697970296423,4.538858178194E-10));
#665 = ( GEOMETRIC_REPRESENTATION_CONTEXT(2) 
PARAMETRIC_REPRESENTATION_CONTEXT() REPRESENTATION_CONTEXT('2D SPACE',''
  ) );
#666 = ORIENTED_EDGE('',*,*,#667,.F.);
#667 = EDGE_CURVE('',#370,#548,#668,.T.);
#668 = SEAM_CURVE('',#669,(#673,#680),.PCURVE_S1.);
#669 = LINE('',#670,#671);
#670 = CARTESIAN_POINT('',(-30.05321520841,-122.2017718737,30.));
#671 = VECTOR('',#672,1.);
#672 = DIRECTION('',(0.997785157857,6.651901052377E-02,
    -3.08148791102E-33));
#673 = PCURVE('',#389,#674);
#674 = DEFINITIONAL_REPRESENTATION('',(#675),#679);
#675 = LINE('',#676,#677);
#676 = CARTESIAN_POINT('',(6.28318530718,-0.));
#677 = VECTOR('',#678,1.);
#678 = DIRECTION('',(0.,1.));
#679 = ( GEOMETRIC_REPRESENTATION_CONTEXT(2) 
PARAMETRIC_REPRESENTATION_CONTEXT() REPRESENTATION_CONTEXT('2D SPACE',''
  ) );
#680 = PCURVE('',#389,#681);
#681 = DEFINITIONAL_REPRESENTATION('',(#682),#686);
#682 = LINE('',#683,#684);
#683 = CARTESIAN_POINT('',(0.,-0.));
#684 = VECTOR('',#685,1.);
#685 = DIRECTION('',(0.,1.));
#686 = ( GEOMETRIC_REPRESENTATION_CONTEXT(2) 
PARAMETRIC_REPRESENTATION_CONTEXT() REPRESENTATION_CONTEXT('2D SPACE',''
  ) );
#687 = ORIENTED_EDGE('',*,*,#369,.T.);
#688 = ORIENTED_EDGE('',*,*,#518,.T.);
#689 = ORIENTED_EDGE('',*,*,#494,.T.);
#690 = ORIENTED_EDGE('',*,*,#404,.T.);
#691 = ORIENTED_EDGE('',*,*,#667,.T.);
#692 = ADVANCED_FACE('',(#693),#567,.T.);
#693 = FACE_BOUND('',#694,.T.);
#694 = EDGE_LOOP('',(#695,#760,#795,#818,#857,#858,#859,#894,#895));
#695 = ORIENTED_EDGE('',*,*,#696,.F.);
#696 = EDGE_CURVE('',#697,#699,#701,.T.);
#697 = VERTEX_POINT('',#698);
#698 = CARTESIAN_POINT('',(16.648763941127,-118.3262643261,
    40.047584416736));
#699 = VERTEX_POINT('',#700);
#700 = CARTESIAN_POINT('',(16.151236058873,-119.6737356738,
    40.752415583264));
#701 = SURFACE_CURVE('',#702,(#707,#714),.PCURVE_S1.);
#702 = CIRCLE('',#703,0.8);
#703 = AXIS2_PLACEMENT_3D('',#704,#705,#706);
#704 = CARTESIAN_POINT('',(16.4,-119.,40.4));
#705 = DIRECTION('',(0.702959491567,0.108147614087,0.702959491567));
#706 = DIRECTION('',(0.707106781187,0.,-0.707106781187));
#707 = PCURVE('',#567,#708);
#708 = DEFINITIONAL_REPRESENTATION('',(#709),#713);
#709 = LINE('',#710,#711);
#710 = CARTESIAN_POINT('',(0.,14.794593607126));
#711 = VECTOR('',#712,1.);
#712 = DIRECTION('',(1.,0.));
#713 = ( GEOMETRIC_REPRESENTATION_CONTEXT(2) 
PARAMETRIC_REPRESENTATION_CONTEXT() REPRESENTATION_CONTEXT('2D SPACE',''
  ) );
#714 = PCURVE('',#715,#720);
#715 = SPHERICAL_SURFACE('',#716,0.8);
#716 = AXIS2_PLACEMENT_3D('',#717,#718,#719);
#717 = CARTESIAN_POINT('',(16.4,-119.,40.4));
#718 = DIRECTION('',(0.,0.,1.));
#719 = DIRECTION('',(1.,0.,-0.));
#720 = DEFINITIONAL_REPRESENTATION('',(#721),#759);
#721 = B_SPLINE_CURVE_WITH_KNOTS('',8,(#722,#723,#724,#725,#726,#727,
    #728,#729,#730,#731,#732,#733,#734,#735,#736,#737,#738,#739,#740,
    #741,#742,#743,#744,#745,#746,#747,#748,#749,#750,#751,#752,#753,
    #754,#755,#756,#757,#758),.UNSPECIFIED.,.F.,.F.,(9,7,7,7,7,9),(
    1.010576247917,1.795974411315,2.385023033863,2.826809500774,
    3.48948920114,4.152168901507),.UNSPECIFIED.);
#722 = CARTESIAN_POINT('',(1.217093180714,-0.45617724137));
#723 = CARTESIAN_POINT('',(1.302723209059,-0.395114076504));
#724 = CARTESIAN_POINT('',(1.382487961484,-0.33073666685));
#725 = CARTESIAN_POINT('',(1.457696652253,-0.263993389137));
#726 = CARTESIAN_POINT('',(1.529640916341,-0.195611899002));
#727 = CARTESIAN_POINT('',(1.599448270075,-0.126175821011));
#728 = CARTESIAN_POINT('',(1.668132719326,-5.61918214218E-02));
#729 = CARTESIAN_POINT('',(1.736704379035,1.385234496018E-02));
#730 = CARTESIAN_POINT('',(1.858321659557,0.135627630579));
#731 = CARTESIAN_POINT('',(1.910962619447,0.187559254354));
#732 = CARTESIAN_POINT('',(1.964564964321,0.239013743795));
#733 = CARTESIAN_POINT('',(2.019574260322,0.289761811591));
#734 = CARTESIAN_POINT('',(2.076469930614,0.339549917452));
#735 = CARTESIAN_POINT('',(2.135774575525,0.388084861111));
#736 = CARTESIAN_POINT('',(2.198042205213,0.435017283974));
#737 = CARTESIAN_POINT('',(2.31316276959,0.513604176018));
#738 = CARTESIAN_POINT('',(2.364477330041,0.546145114693));
#739 = CARTESIAN_POINT('',(2.417999478694,0.57736782127));
#740 = CARTESIAN_POINT('',(2.473956406533,0.607073052866));
#741 = CARTESIAN_POINT('',(2.532555885646,0.635034008803));
#742 = CARTESIAN_POINT('',(2.593955101216,0.660997561788));
#743 = CARTESIAN_POINT('',(2.658214512908,0.68469410938));
#744 = CARTESIAN_POINT('',(2.825770094741,0.737598950247));
#745 = CARTESIAN_POINT('',(2.93252180023,0.763639863225));
#746 = CARTESIAN_POINT('',(3.045161380312,0.783074024886));
#747 = CARTESIAN_POINT('',(3.162633194939,0.795042141878));
#748 = CARTESIAN_POINT('',(3.282712911028,0.79880214977));
#749 = CARTESIAN_POINT('',(3.401980637474,0.794298747886));
#750 = CARTESIAN_POINT('',(3.51808342547,0.781999369639));
#751 = CARTESIAN_POINT('',(3.740855578183,0.743235377637));
#752 = CARTESIAN_POINT('',(3.847526988804,0.716771285906));
#753 = CARTESIAN_POINT('',(3.947950300559,0.683939618197));
#754 = CARTESIAN_POINT('',(4.041494774316,0.645722522707));
#755 = CARTESIAN_POINT('',(4.128627396927,0.603097368579));
#756 = CARTESIAN_POINT('',(4.210009811557,0.556861849045));
#757 = CARTESIAN_POINT('',(4.286435497887,0.507699286725));
#758 = CARTESIAN_POINT('',(4.358685834304,0.456177241369));
#759 = ( GEOMETRIC_REPRESENTATION_CONTEXT(2) 
PARAMETRIC_REPRESENTATION_CONTEXT() REPRESENTATION_CONTEXT('2D SPACE',''
  ) );
#760 = ORIENTED_EDGE('',*,*,#761,.F.);
#761 = EDGE_CURVE('',#762,#697,#764,.T.);
#762 = VERTEX_POINT('',#763);
#763 = CARTESIAN_POINT('',(16.917419982012,-119.0074254527,
    39.786049132114));
#764 = SURFACE_CURVE('',#765,(#770,#780),.PCURVE_S1.);
#765 = ELLIPSE('',#766,0.804095183248,0.8);
#766 = AXIS2_PLACEMENT_3D('',#767,#768,#769);
#767 = CARTESIAN_POINT('',(16.4,-119.,40.4));
#768 = DIRECTION('',(0.763853915567,5.435060972952E-02,0.643096576648));
#769 = DIRECTION('',(-0.565538884088,0.536466577644,0.626393950845));
#770 = PCURVE('',#567,#771);
#771 = DEFINITIONAL_REPRESENTATION('',(#772),#779);
#772 = B_SPLINE_CURVE_WITH_KNOTS('',5,(#773,#774,#775,#776,#777,#778),
  .UNSPECIFIED.,.F.,.F.,(6,6),(3.701812732468,4.712388980385),
  .PIECEWISE_BEZIER_KNOTS.);
#773 = CARTESIAN_POINT('',(0.,14.725933259672));
#774 = CARTESIAN_POINT('',(0.202115249583,14.734637883651));
#775 = CARTESIAN_POINT('',(0.404230499167,14.746847144191));
#776 = CARTESIAN_POINT('',(0.60634574875,14.761829698131));
#777 = CARTESIAN_POINT('',(0.808460998334,14.778212214497));
#778 = CARTESIAN_POINT('',(1.010576247917,14.794593607126));
#779 = ( GEOMETRIC_REPRESENTATION_CONTEXT(2) 
PARAMETRIC_REPRESENTATION_CONTEXT() REPRESENTATION_CONTEXT('2D SPACE',''
  ) );
#780 = PCURVE('',#781,#786);
#781 = CYLINDRICAL_SURFACE('',#782,0.8);
#782 = AXIS2_PLACEMENT_3D('',#783,#784,#785);
#783 = CARTESIAN_POINT('',(16.4,-119.,40.4));
#784 = DIRECTION('',(0.816967863265,0.,0.576683197599));
#785 = DIRECTION('',(-0.576683197599,0.,0.816967863265));
#786 = DEFINITIONAL_REPRESENTATION('',(#787),#794);
#787 = B_SPLINE_CURVE_WITH_KNOTS('',5,(#788,#789,#790,#791,#792,#793),
  .UNSPECIFIED.,.F.,.F.,(6,6),(3.701812732468,4.712388980385),
  .PIECEWISE_BEZIER_KNOTS.);
#788 = CARTESIAN_POINT('',(3.132310704361,6.866034745394E-02));
#789 = CARTESIAN_POINT('',(3.334425953944,5.99557234749E-02));
#790 = CARTESIAN_POINT('',(3.536541203527,4.774646293426E-02));
#791 = CARTESIAN_POINT('',(3.738656453111,3.276390899461E-02));
#792 = CARTESIAN_POINT('',(3.940771702694,1.63813926284E-02));
#793 = CARTESIAN_POINT('',(4.142886952278,7.105427357601E-15));
#794 = ( GEOMETRIC_REPRESENTATION_CONTEXT(2) 
PARAMETRIC_REPRESENTATION_CONTEXT() REPRESENTATION_CONTEXT('2D SPACE',''
  ) );
#795 = ORIENTED_EDGE('',*,*,#796,.F.);
#796 = EDGE_CURVE('',#797,#762,#799,.T.);
#797 = VERTEX_POINT('',#798);
#798 = CARTESIAN_POINT('',(6.565685424949,-120.6,29.434314575051));
#799 = SEAM_CURVE('',#800,(#804,#811),.PCURVE_S1.);
#800 = LINE('',#801,#802);
#801 = CARTESIAN_POINT('',(6.565685424949,-120.6,29.434314575051));
#802 = VECTOR('',#803,1.);
#803 = DIRECTION('',(0.702959491567,0.108147614087,0.702959491567));
#804 = PCURVE('',#567,#805);
#805 = DEFINITIONAL_REPRESENTATION('',(#806),#810);
#806 = LINE('',#807,#808);
#807 = CARTESIAN_POINT('',(6.28318530718,-0.));
#808 = VECTOR('',#809,1.);
#809 = DIRECTION('',(0.,1.));
#810 = ( GEOMETRIC_REPRESENTATION_CONTEXT(2) 
PARAMETRIC_REPRESENTATION_CONTEXT() REPRESENTATION_CONTEXT('2D SPACE',''
  ) );
#811 = PCURVE('',#567,#812);
#812 = DEFINITIONAL_REPRESENTATION('',(#813),#817);
#813 = LINE('',#814,#815);
#814 = CARTESIAN_POINT('',(0.,-0.));
#815 = VECTOR('',#816,1.);
#816 = DIRECTION('',(0.,1.));
#817 = ( GEOMETRIC_REPRESENTATION_CONTEXT(2) 
PARAMETRIC_REPRESENTATION_CONTEXT() REPRESENTATION_CONTEXT('2D SPACE',''
  ) );
#818 = ORIENTED_EDGE('',*,*,#819,.T.);
#819 = EDGE_CURVE('',#797,#546,#820,.T.);
#820 = SURFACE_CURVE('',#821,(#826,#833),.PCURVE_S1.);
#821 = CIRCLE('',#822,0.8);
#822 = AXIS2_PLACEMENT_3D('',#823,#824,#825);
#823 = CARTESIAN_POINT('',(6.,-120.6,30.));
#824 = DIRECTION('',(0.702959491567,0.108147614087,0.702959491567));
#825 = DIRECTION('',(0.707106781187,0.,-0.707106781187));
#826 = PCURVE('',#567,#827);
#827 = DEFINITIONAL_REPRESENTATION('',(#828),#832);
#828 = LINE('',#829,#830);
#829 = CARTESIAN_POINT('',(0.,0.));
#830 = VECTOR('',#831,1.);
#831 = DIRECTION('',(1.,0.));
#832 = ( GEOMETRIC_REPRESENTATION_CONTEXT(2) 
PARAMETRIC_REPRESENTATION_CONTEXT() REPRESENTATION_CONTEXT('2D SPACE',''
  ) );
#833 = PCURVE('',#599,#834);
#834 = DEFINITIONAL_REPRESENTATION('',(#835),#856);
#835 = B_SPLINE_CURVE_WITH_KNOTS('',7,(#836,#837,#838,#839,#840,#841,
    #842,#843,#844,#845,#846,#847,#848,#849,#850,#851,#852,#853,#854,
    #855),.UNSPECIFIED.,.F.,.F.,(8,6,6,8),(0.,0.389094411052,
    0.972736027629,1.556377644207),.UNSPECIFIED.);
#836 = CARTESIAN_POINT('',(6.28318530718,-0.785398163397));
#837 = CARTESIAN_POINT('',(6.361333195569,-0.791409539427));
#838 = CARTESIAN_POINT('',(6.440575670717,-0.793858677272));
#839 = CARTESIAN_POINT('',(6.520179505294,-0.792624426294));
#840 = CARTESIAN_POINT('',(6.599248555565,-0.787689450311));
#841 = CARTESIAN_POINT('',(6.676948538449,-0.779162041583));
#842 = CARTESIAN_POINT('',(6.75264150102,-0.767254949867));
#843 = CARTESIAN_POINT('',(6.935862704618,-0.72967064149));
#844 = CARTESIAN_POINT('',(7.040384298693,-0.70008617753));
#845 = CARTESIAN_POINT('',(7.138117235417,-0.664325828331));
#846 = CARTESIAN_POINT('',(7.22886602769,-0.623503257068));
#847 = CARTESIAN_POINT('',(7.313375907192,-0.578585207308));
#848 = CARTESIAN_POINT('',(7.39242695266,-0.530362103779));
#849 = CARTESIAN_POINT('',(7.541341318866,-0.428621595917));
#850 = CARTESIAN_POINT('',(7.611201983768,-0.375103854805));
#851 = CARTESIAN_POINT('',(7.677326031376,-0.319596430269));
#852 = CARTESIAN_POINT('',(7.740576152415,-0.262615158517));
#853 = CARTESIAN_POINT('',(7.801733750496,-0.204578639235));
#854 = CARTESIAN_POINT('',(7.861495394135,-0.145848899566));
#855 = CARTESIAN_POINT('',(7.92054979775,-8.67679910227E-02));
#856 = ( GEOMETRIC_REPRESENTATION_CONTEXT(2) 
PARAMETRIC_REPRESENTATION_CONTEXT() REPRESENTATION_CONTEXT('2D SPACE',''
  ) );
#857 = ORIENTED_EDGE('',*,*,#545,.T.);
#858 = ORIENTED_EDGE('',*,*,#633,.T.);
#859 = ORIENTED_EDGE('',*,*,#860,.T.);
#860 = EDGE_CURVE('',#611,#797,#861,.T.);
#861 = SURFACE_CURVE('',#862,(#867,#874),.PCURVE_S1.);
#862 = CIRCLE('',#863,0.8);
#863 = AXIS2_PLACEMENT_3D('',#864,#865,#866);
#864 = CARTESIAN_POINT('',(6.,-120.6,30.));
#865 = DIRECTION('',(0.702959491567,0.108147614087,0.702959491567));
#866 = DIRECTION('',(0.707106781187,0.,-0.707106781187));
#867 = PCURVE('',#567,#868);
#868 = DEFINITIONAL_REPRESENTATION('',(#869),#873);
#869 = LINE('',#870,#871);
#870 = CARTESIAN_POINT('',(0.,0.));
#871 = VECTOR('',#872,1.);
#872 = DIRECTION('',(1.,0.));
#873 = ( GEOMETRIC_REPRESENTATION_CONTEXT(2) 
PARAMETRIC_REPRESENTATION_CONTEXT() REPRESENTATION_CONTEXT('2D SPACE',''
  ) );
#874 = PCURVE('',#599,#875);
#875 = DEFINITIONAL_REPRESENTATION('',(#876),#893);
#876 = B_SPLINE_CURVE_WITH_KNOTS('',8,(#877,#878,#879,#880,#881,#882,
    #883,#884,#885,#886,#887,#888,#889,#890,#891,#892),.UNSPECIFIED.,.F.
  ,.F.,(9,7,9),(4.697970297797,5.490577802488,6.28318530718),
  .UNSPECIFIED.);
#877 = CARTESIAN_POINT('',(4.778957144161,8.67679910227E-02));
#878 = CARTESIAN_POINT('',(4.849130503789,1.656313603217E-02));
#879 = CARTESIAN_POINT('',(4.918324882174,-5.412745286661E-02));
#880 = CARTESIAN_POINT('',(4.987606884978,-0.124769892732));
#881 = CARTESIAN_POINT('',(5.058014343005,-0.194863472078));
#882 = CARTESIAN_POINT('',(5.130587342096,-0.263888748368));
#883 = CARTESIAN_POINT('',(5.206483941164,-0.331246868046));
#884 = CARTESIAN_POINT('',(5.287033748229,-0.396189407485));
#885 = CARTESIAN_POINT('',(5.460131300381,-0.519286659023));
#886 = CARTESIAN_POINT('',(5.552677797939,-0.577440713947));
#887 = CARTESIAN_POINT('',(5.652566163451,-0.631230815735));
#888 = CARTESIAN_POINT('',(5.761129283143,-0.679424594514));
#889 = CARTESIAN_POINT('',(5.879447538453,-0.720621437544));
#890 = CARTESIAN_POINT('',(6.008013594512,-0.752882180128));
#891 = CARTESIAN_POINT('',(6.143892565052,-0.77468333708));
#892 = CARTESIAN_POINT('',(6.28318530718,-0.785398163397));
#893 = ( GEOMETRIC_REPRESENTATION_CONTEXT(2) 
PARAMETRIC_REPRESENTATION_CONTEXT() REPRESENTATION_CONTEXT('2D SPACE',''
  ) );
#894 = ORIENTED_EDGE('',*,*,#796,.T.);
#895 = ORIENTED_EDGE('',*,*,#896,.F.);
#896 = EDGE_CURVE('',#699,#762,#897,.T.);
#897 = SURFACE_CURVE('',#898,(#903,#915),.PCURVE_S1.);
#898 = ELLIPSE('',#899,0.804095183248,0.8);
#899 = AXIS2_PLACEMENT_3D('',#900,#901,#902);
#900 = CARTESIAN_POINT('',(16.4,-119.,40.4));
#901 = DIRECTION('',(0.763853915567,5.435060972952E-02,0.643096576648));
#902 = DIRECTION('',(-0.565538884088,0.536466577644,0.626393950845));
#903 = PCURVE('',#567,#904);
#904 = DEFINITIONAL_REPRESENTATION('',(#905),#914);
#905 = B_SPLINE_CURVE_WITH_KNOTS('',7,(#906,#907,#908,#909,#910,#911,
    #912,#913),.UNSPECIFIED.,.F.,.F.,(8,8),(1.570796340705,
    3.701812732468),.PIECEWISE_BEZIER_KNOTS.);
#906 = CARTESIAN_POINT('',(4.152168915417,14.794593605998));
#907 = CARTESIAN_POINT('',(4.456599828526,14.769919553317));
#908 = CARTESIAN_POINT('',(4.761030741635,14.745246545005));
#909 = CARTESIAN_POINT('',(5.065461654743,14.724301258779));
#910 = CARTESIAN_POINT('',(5.369892567853,14.710850211826));
#911 = CARTESIAN_POINT('',(5.674323480962,14.707136037905));
#912 = CARTESIAN_POINT('',(5.978754394071,14.712822142961));
#913 = CARTESIAN_POINT('',(6.28318530718,14.725933259672));
#914 = ( GEOMETRIC_REPRESENTATION_CONTEXT(2) 
PARAMETRIC_REPRESENTATION_CONTEXT() REPRESENTATION_CONTEXT('2D SPACE',''
  ) );
#915 = PCURVE('',#781,#916);
#916 = DEFINITIONAL_REPRESENTATION('',(#917),#926);
#917 = B_SPLINE_CURVE_WITH_KNOTS('',7,(#918,#919,#920,#921,#922,#923,
    #924,#925),.UNSPECIFIED.,.F.,.F.,(8,8),(1.570796340705,
    3.701812732468),.PIECEWISE_BEZIER_KNOTS.);
#918 = CARTESIAN_POINT('',(1.001294312598,1.127411053403E-09));
#919 = CARTESIAN_POINT('',(1.305725225707,2.467405380843E-02));
#920 = CARTESIAN_POINT('',(1.610156138816,4.934706212056E-02));
#921 = CARTESIAN_POINT('',(1.914587051924,7.029234835429E-02));
#922 = CARTESIAN_POINT('',(2.219017965035,8.374339529587E-02));
#923 = CARTESIAN_POINT('',(2.523448878143,8.745756922283E-02));
#924 = CARTESIAN_POINT('',(2.827879791252,8.177146416417E-02));
#925 = CARTESIAN_POINT('',(3.132310704361,6.866034745394E-02));
#926 = ( GEOMETRIC_REPRESENTATION_CONTEXT(2) 
PARAMETRIC_REPRESENTATION_CONTEXT() REPRESENTATION_CONTEXT('2D SPACE',''
  ) );
#927 = ADVANCED_FACE('',(#928),#599,.T.);
#928 = FACE_BOUND('',#929,.T.);
#929 = EDGE_LOOP('',(#930,#931,#932,#933));
#930 = ORIENTED_EDGE('',*,*,#610,.T.);
#931 = ORIENTED_EDGE('',*,*,#582,.T.);
#932 = ORIENTED_EDGE('',*,*,#819,.F.);
#933 = ORIENTED_EDGE('',*,*,#860,.F.);
#934 = ADVANCED_FACE('',(#935),#715,.T.);
#935 = FACE_BOUND('',#936,.T.);
#936 = EDGE_LOOP('',(#937,#981,#982));
#937 = ORIENTED_EDGE('',*,*,#938,.F.);
#938 = EDGE_CURVE('',#697,#939,#941,.T.);
#939 = VERTEX_POINT('',#940);
#940 = CARTESIAN_POINT('',(15.938653441921,-119.,41.053574290612));
#941 = SURFACE_CURVE('',#942,(#947,#974),.PCURVE_S1.);
#942 = CIRCLE('',#943,0.8);
#943 = AXIS2_PLACEMENT_3D('',#944,#945,#946);
#944 = CARTESIAN_POINT('',(16.4,-119.,40.4));
#945 = DIRECTION('',(0.816967863265,0.,0.576683197599));
#946 = DIRECTION('',(-0.576683197599,0.,0.816967863265));
#947 = PCURVE('',#715,#948);
#948 = DEFINITIONAL_REPRESENTATION('',(#949),#973);
#949 = B_SPLINE_CURVE_WITH_KNOTS('',8,(#950,#951,#952,#953,#954,#955,
    #956,#957,#958,#959,#960,#961,#962,#963,#964,#965,#966,#967,#968,
    #969,#970,#971,#972),.UNSPECIFIED.,.F.,.F.,(9,7,7,9),(4.142886952278
    ,5.213036129729,5.748110718454,6.28318530718),.UNSPECIFIED.);
#950 = CARTESIAN_POINT('',(1.217093180714,-0.45617724137));
#951 = CARTESIAN_POINT('',(1.312809838812,-0.353657662887));
#952 = CARTESIAN_POINT('',(1.397518566301,-0.246997491673));
#953 = CARTESIAN_POINT('',(1.475997567651,-0.138181880374));
#954 = CARTESIAN_POINT('',(1.551449058294,-2.830405707469E-02));
#955 = CARTESIAN_POINT('',(1.626418048682,8.17437730231E-02));
#956 = CARTESIAN_POINT('',(1.703374592228,0.191090294528));
#957 = CARTESIAN_POINT('',(1.785277511358,0.29873605082));
#958 = CARTESIAN_POINT('',(1.922017668146,0.45506574732));
#959 = CARTESIAN_POINT('',(1.969912424366,0.506318994574));
#960 = CARTESIAN_POINT('',(2.020657410671,0.556500900486));
#961 = CARTESIAN_POINT('',(2.07488236263,0.605347464567));
#962 = CARTESIAN_POINT('',(2.133300641797,0.652536507169));
#963 = CARTESIAN_POINT('',(2.196768297043,0.697649291992));
#964 = CARTESIAN_POINT('',(2.266240482199,0.740133548136));
#965 = CARTESIAN_POINT('',(2.418665400846,0.818464052393));
#966 = CARTESIAN_POINT('',(2.501615380398,0.854310460673));
#967 = CARTESIAN_POINT('',(2.592056147605,0.886149516982));
#968 = CARTESIAN_POINT('',(2.690411054227,0.913156300494));
#969 = CARTESIAN_POINT('',(2.796805932952,0.934406143303));
#970 = CARTESIAN_POINT('',(2.909633355833,0.94889038876));
#971 = CARTESIAN_POINT('',(3.025611602175,0.956133374873));
#972 = CARTESIAN_POINT('',(3.14159265359,0.956133374873));
#973 = ( GEOMETRIC_REPRESENTATION_CONTEXT(2) 
PARAMETRIC_REPRESENTATION_CONTEXT() REPRESENTATION_CONTEXT('2D SPACE',''
  ) );
#974 = PCURVE('',#781,#975);
#975 = DEFINITIONAL_REPRESENTATION('',(#976),#980);
#976 = LINE('',#977,#978);
#977 = CARTESIAN_POINT('',(0.,0.));
#978 = VECTOR('',#979,1.);
#979 = DIRECTION('',(1.,0.));
#980 = ( GEOMETRIC_REPRESENTATION_CONTEXT(2) 
PARAMETRIC_REPRESENTATION_CONTEXT() REPRESENTATION_CONTEXT('2D SPACE',''
  ) );
#981 = ORIENTED_EDGE('',*,*,#696,.T.);
#982 = ORIENTED_EDGE('',*,*,#983,.F.);
#983 = EDGE_CURVE('',#939,#699,#984,.T.);
#984 = SURFACE_CURVE('',#985,(#990,#1010),.PCURVE_S1.);
#985 = CIRCLE('',#986,0.8);
#986 = AXIS2_PLACEMENT_3D('',#987,#988,#989);
#987 = CARTESIAN_POINT('',(16.4,-119.,40.4));
#988 = DIRECTION('',(0.816967863265,0.,0.576683197599));
#989 = DIRECTION('',(-0.576683197599,0.,0.816967863265));
#990 = PCURVE('',#715,#991);
#991 = DEFINITIONAL_REPRESENTATION('',(#992),#1009);
#992 = B_SPLINE_CURVE_WITH_KNOTS('',8,(#993,#994,#995,#996,#997,#998,
    #999,#1000,#1001,#1002,#1003,#1004,#1005,#1006,#1007,#1008),
  .UNSPECIFIED.,.F.,.F.,(9,7,9),(0.,0.500647149344,1.001294298688),
  .UNSPECIFIED.);
#993 = CARTESIAN_POINT('',(3.14159265359,0.956133374873));
#994 = CARTESIAN_POINT('',(3.250111323682,0.956133374873));
#995 = CARTESIAN_POINT('',(3.358628352749,0.94979244939));
#996 = CARTESIAN_POINT('',(3.464558990348,0.937112026491));
#997 = CARTESIAN_POINT('',(3.565242203887,0.918456722815));
#998 = CARTESIAN_POINT('',(3.659153547373,0.894596817116));
#999 = CARTESIAN_POINT('',(3.746165933398,0.866296865581));
#1000 = CARTESIAN_POINT('',(3.82650503576,0.834252769113));
#1001 = CARTESIAN_POINT('',(3.974918080999,0.76387370703));
#1002 = CARTESIAN_POINT('',(4.042990367442,0.725538566127));
#1003 = CARTESIAN_POINT('',(4.10545714583,0.684657497752));
#1004 = CARTESIAN_POINT('',(4.163093421463,0.64172897204));
#1005 = CARTESIAN_POINT('',(4.216635547921,0.597140435174));
#1006 = CARTESIAN_POINT('',(4.266718661625,0.55119417018));
#1007 = CARTESIAN_POINT('',(4.313906776364,0.504138904846));
#1008 = CARTESIAN_POINT('',(4.358685834304,0.456177241369));
#1009 = ( GEOMETRIC_REPRESENTATION_CONTEXT(2) 
PARAMETRIC_REPRESENTATION_CONTEXT() REPRESENTATION_CONTEXT('2D SPACE',''
  ) );
#1010 = PCURVE('',#781,#1011);
#1011 = DEFINITIONAL_REPRESENTATION('',(#1012),#1016);
#1012 = LINE('',#1013,#1014);
#1013 = CARTESIAN_POINT('',(0.,0.));
#1014 = VECTOR('',#1015,1.);
#1015 = DIRECTION('',(1.,0.));
#1016 = ( GEOMETRIC_REPRESENTATION_CONTEXT(2) 
PARAMETRIC_REPRESENTATION_CONTEXT() REPRESENTATION_CONTEXT('2D SPACE',''
  ) );
#1017 = ADVANCED_FACE('',(#1018),#781,.T.);
#1018 = FACE_BOUND('',#1019,.T.);
#1019 = EDGE_LOOP('',(#1020,#1043,#1076,#1113,#1149,#1200,#1201,#1202,
    #1203,#1204));
#1020 = ORIENTED_EDGE('',*,*,#1021,.T.);
#1021 = EDGE_CURVE('',#939,#1022,#1024,.T.);
#1022 = VERTEX_POINT('',#1023);
#1023 = CARTESIAN_POINT('',(43.138653441921,-119.,60.253574290612));
#1024 = SEAM_CURVE('',#1025,(#1029,#1036),.PCURVE_S1.);
#1025 = LINE('',#1026,#1027);
#1026 = CARTESIAN_POINT('',(15.938653441921,-119.,41.053574290612));
#1027 = VECTOR('',#1028,1.);
#1028 = DIRECTION('',(0.816967863265,0.,0.576683197599));
#1029 = PCURVE('',#781,#1030);
#1030 = DEFINITIONAL_REPRESENTATION('',(#1031),#1035);
#1031 = LINE('',#1032,#1033);
#1032 = CARTESIAN_POINT('',(6.28318530718,-0.));
#1033 = VECTOR('',#1034,1.);
#1034 = DIRECTION('',(0.,1.));
#1035 = ( GEOMETRIC_REPRESENTATION_CONTEXT(2) 
PARAMETRIC_REPRESENTATION_CONTEXT() REPRESENTATION_CONTEXT('2D SPACE',''
  ) );
#1036 = PCURVE('',#781,#1037);
#1037 = DEFINITIONAL_REPRESENTATION('',(#1038),#1042);
#1038 = LINE('',#1039,#1040);
#1039 = CARTESIAN_POINT('',(0.,-0.));
#1040 = VECTOR('',#1041,1.);
#1041 = DIRECTION('',(0.,1.));
#1042 = ( GEOMETRIC_REPRESENTATION_CONTEXT(2) 
PARAMETRIC_REPRESENTATION_CONTEXT() REPRESENTATION_CONTEXT('2D SPACE',''
  ) );
#1043 = ORIENTED_EDGE('',*,*,#1044,.F.);
#1044 = EDGE_CURVE('',#1045,#1022,#1047,.T.);
#1045 = VERTEX_POINT('',#1046);
#1046 = CARTESIAN_POINT('',(43.16003584398,-118.7592711092,
    60.223282554362));
#1047 = SURFACE_CURVE('',#1048,(#1053,#1060),.PCURVE_S1.);
#1048 = CIRCLE('',#1049,0.8);
#1049 = AXIS2_PLACEMENT_3D('',#1050,#1051,#1052);
#1050 = CARTESIAN_POINT('',(43.6,-119.,59.6));
#1051 = DIRECTION('',(0.816967863265,0.,0.576683197599));
#1052 = DIRECTION('',(-0.576683197599,0.,0.816967863265));
#1053 = PCURVE('',#781,#1054);
#1054 = DEFINITIONAL_REPRESENTATION('',(#1055),#1059);
#1055 = LINE('',#1056,#1057);
#1056 = CARTESIAN_POINT('',(0.,33.293843274696));
#1057 = VECTOR('',#1058,1.);
#1058 = DIRECTION('',(1.,0.));
#1059 = ( GEOMETRIC_REPRESENTATION_CONTEXT(2) 
PARAMETRIC_REPRESENTATION_CONTEXT() REPRESENTATION_CONTEXT('2D SPACE',''
  ) );
#1060 = PCURVE('',#1061,#1066);
#1061 = SPHERICAL_SURFACE('',#1062,0.8);
#1062 = AXIS2_PLACEMENT_3D('',#1063,#1064,#1065);
#1063 = CARTESIAN_POINT('',(43.6,-119.,59.6));
#1064 = DIRECTION('',(0.,0.,1.));
#1065 = DIRECTION('',(1.,0.,-0.));
#1066 = DEFINITIONAL_REPRESENTATION('',(#1067),#1075);
#1067 = B_SPLINE_CURVE_WITH_KNOTS('',6,(#1068,#1069,#1070,#1071,#1072,
    #1073,#1074),.UNSPECIFIED.,.F.,.F.,(7,7),(5.977537403125,
    6.28318530718),.PIECEWISE_BEZIER_KNOTS.);
#1068 = CARTESIAN_POINT('',(2.640935797453,0.893233990554));
#1069 = CARTESIAN_POINT('',(2.715686777671,0.913210430028));
#1070 = CARTESIAN_POINT('',(2.794892039283,0.929911306228));
#1071 = CARTESIAN_POINT('',(2.878240448277,0.942896153789));
#1072 = CARTESIAN_POINT('',(2.96492310971,0.951722465761));
#1073 = CARTESIAN_POINT('',(3.053257641308,0.956133374873));
#1074 = CARTESIAN_POINT('',(3.14159265359,0.956133374873));
#1075 = ( GEOMETRIC_REPRESENTATION_CONTEXT(2) 
PARAMETRIC_REPRESENTATION_CONTEXT() REPRESENTATION_CONTEXT('2D SPACE',''
  ) );
#1076 = ORIENTED_EDGE('',*,*,#1077,.F.);
#1077 = EDGE_CURVE('',#1078,#1045,#1080,.T.);
#1078 = VERTEX_POINT('',#1079);
#1079 = CARTESIAN_POINT('',(43.226734581972,-118.2452457828,
    59.661168188246));
#1080 = SURFACE_CURVE('',#1081,(#1086,#1097),.PCURVE_S1.);
#1081 = ELLIPSE('',#1082,0.868125665326,0.8);
#1082 = AXIS2_PLACEMENT_3D('',#1083,#1084,#1085);
#1083 = CARTESIAN_POINT('',(43.6,-119.,59.6));
#1084 = DIRECTION('',(0.82024169303,0.370320006666,0.43596634925));
#1085 = DIRECTION('',(0.15733038003,-0.878814880659,0.450479252632));
#1086 = PCURVE('',#781,#1087);
#1087 = DEFINITIONAL_REPRESENTATION('',(#1088),#1096);
#1088 = B_SPLINE_CURVE_WITH_KNOTS('',6,(#1089,#1090,#1091,#1092,#1093,
    #1094,#1095),.UNSPECIFIED.,.F.,.F.,(7,7),(3.78517113711,
    4.712389870306),.PIECEWISE_BEZIER_KNOTS.);
#1089 = CARTESIAN_POINT('',(5.05031955985,33.024172090086));
#1090 = CARTESIAN_POINT('',(5.204856015383,33.055432650457));
#1091 = CARTESIAN_POINT('',(5.359392470916,33.094421200841));
#1092 = CARTESIAN_POINT('',(5.513928926448,33.139795385998));
#1093 = CARTESIAN_POINT('',(5.668465381981,33.189652653502));
#1094 = CARTESIAN_POINT('',(5.823001837513,33.241748015094));
#1095 = CARTESIAN_POINT('',(5.977538293046,33.293843574696));
#1096 = ( GEOMETRIC_REPRESENTATION_CONTEXT(2) 
PARAMETRIC_REPRESENTATION_CONTEXT() REPRESENTATION_CONTEXT('2D SPACE',''
  ) );
#1097 = PCURVE('',#1098,#1103);
#1098 = CYLINDRICAL_SURFACE('',#1099,0.8);
#1099 = AXIS2_PLACEMENT_3D('',#1100,#1101,#1102);
#1100 = CARTESIAN_POINT('',(43.6,-119.,59.6));
#1101 = DIRECTION('',(0.69477952685,0.68251871167,0.226825080824));
#1102 = DIRECTION('',(-0.700784295098,0.713373234531,1.387778780781E-17)
  );
#1103 = DEFINITIONAL_REPRESENTATION('',(#1104),#1112);
#1104 = B_SPLINE_CURVE_WITH_KNOTS('',6,(#1105,#1106,#1107,#1108,#1109,
    #1110,#1111),.UNSPECIFIED.,.F.,.F.,(7,7),(3.78517113711,
    4.712389870306),.PIECEWISE_BEZIER_KNOTS.);
#1105 = CARTESIAN_POINT('',(-6.039613253961E-13,0.26967118461));
#1106 = CARTESIAN_POINT('',(0.154536455532,0.238410624239));
#1107 = CARTESIAN_POINT('',(0.309072911064,0.199422073855));
#1108 = CARTESIAN_POINT('',(0.463609366597,0.154047888695));
#1109 = CARTESIAN_POINT('',(0.61814582213,0.104190621193));
#1110 = CARTESIAN_POINT('',(0.772682277662,5.209525960182E-02));
#1111 = CARTESIAN_POINT('',(0.927218733195,-3.000000177167E-07));
#1112 = ( GEOMETRIC_REPRESENTATION_CONTEXT(2) 
PARAMETRIC_REPRESENTATION_CONTEXT() REPRESENTATION_CONTEXT('2D SPACE',''
  ) );
#1113 = ORIENTED_EDGE('',*,*,#1114,.F.);
#1114 = EDGE_CURVE('',#1115,#1078,#1117,.T.);
#1115 = VERTEX_POINT('',#1116);
#1116 = CARTESIAN_POINT('',(44.03996415602,-119.2407288907,
    58.976717445638));
#1117 = SURFACE_CURVE('',#1118,(#1123,#1136),.PCURVE_S1.);
#1118 = ELLIPSE('',#1119,0.868125665326,0.8);
#1119 = AXIS2_PLACEMENT_3D('',#1120,#1121,#1122);
#1120 = CARTESIAN_POINT('',(43.6,-119.,59.6));
#1121 = DIRECTION('',(0.82024169303,0.370320006666,0.43596634925));
#1122 = DIRECTION('',(0.15733038003,-0.878814880659,0.450479252632));
#1123 = PCURVE('',#781,#1124);
#1124 = DEFINITIONAL_REPRESENTATION('',(#1125),#1135);
#1125 = B_SPLINE_CURVE_WITH_KNOTS('',8,(#1126,#1127,#1128,#1129,#1130,
    #1131,#1132,#1133,#1134),.UNSPECIFIED.,.F.,.F.,(9,9),(1.570794539073
    ,3.78517113711),.PIECEWISE_BEZIER_KNOTS.);
#1126 = CARTESIAN_POINT('',(2.835942961813,33.293843877352));
#1127 = CARTESIAN_POINT('',(3.112740036568,33.200533218351));
#1128 = CARTESIAN_POINT('',(3.389537111324,33.107222273244));
#1129 = CARTESIAN_POINT('',(3.666334186075,33.024807169495));
#1130 = CARTESIAN_POINT('',(3.943131260843,32.964171907399));
#1131 = CARTESIAN_POINT('',(4.219928335577,32.933570369845));
#1132 = CARTESIAN_POINT('',(4.496725410343,32.93580083019));
#1133 = CARTESIAN_POINT('',(4.773522485096,32.968179918943));
#1134 = CARTESIAN_POINT('',(5.05031955985,33.024172090086));
#1135 = ( GEOMETRIC_REPRESENTATION_CONTEXT(2) 
PARAMETRIC_REPRESENTATION_CONTEXT() REPRESENTATION_CONTEXT('2D SPACE',''
  ) );
#1136 = PCURVE('',#1098,#1137);
#1137 = DEFINITIONAL_REPRESENTATION('',(#1138),#1148);
#1138 = B_SPLINE_CURVE_WITH_KNOTS('',8,(#1139,#1140,#1141,#1142,#1143,
    #1144,#1145,#1146,#1147),.UNSPECIFIED.,.F.,.F.,(9,9),(1.570794539073
    ,3.78517113711),.PIECEWISE_BEZIER_KNOTS.);
#1139 = CARTESIAN_POINT('',(4.068808709141,-6.026563426076E-07));
#1140 = CARTESIAN_POINT('',(4.345605783896,9.331005634504E-02));
#1141 = CARTESIAN_POINT('',(4.622402858647,0.186621001428));
#1142 = CARTESIAN_POINT('',(4.89919993341,0.269036105244));
#1143 = CARTESIAN_POINT('',(5.175997008151,0.329671367009));
#1144 = CARTESIAN_POINT('',(5.452794082921,0.360272904886));
#1145 = CARTESIAN_POINT('',(5.729591157667,0.358042444486));
#1146 = CARTESIAN_POINT('',(6.006388232424,0.325663355753));
#1147 = CARTESIAN_POINT('',(6.283185307179,0.26967118461));
#1148 = ( GEOMETRIC_REPRESENTATION_CONTEXT(2) 
PARAMETRIC_REPRESENTATION_CONTEXT() REPRESENTATION_CONTEXT('2D SPACE',''
  ) );
#1149 = ORIENTED_EDGE('',*,*,#1150,.F.);
#1150 = EDGE_CURVE('',#1022,#1115,#1151,.T.);
#1151 = SURFACE_CURVE('',#1152,(#1157,#1164),.PCURVE_S1.);
#1152 = CIRCLE('',#1153,0.8);
#1153 = AXIS2_PLACEMENT_3D('',#1154,#1155,#1156);
#1154 = CARTESIAN_POINT('',(43.6,-119.,59.6));
#1155 = DIRECTION('',(0.816967863265,0.,0.576683197599));
#1156 = DIRECTION('',(-0.576683197599,0.,0.816967863265));
#1157 = PCURVE('',#781,#1158);
#1158 = DEFINITIONAL_REPRESENTATION('',(#1159),#1163);
#1159 = LINE('',#1160,#1161);
#1160 = CARTESIAN_POINT('',(0.,33.293843274696));
#1161 = VECTOR('',#1162,1.);
#1162 = DIRECTION('',(1.,0.));
#1163 = ( GEOMETRIC_REPRESENTATION_CONTEXT(2) 
PARAMETRIC_REPRESENTATION_CONTEXT() REPRESENTATION_CONTEXT('2D SPACE',''
  ) );
#1164 = PCURVE('',#1061,#1165);
#1165 = DEFINITIONAL_REPRESENTATION('',(#1166),#1199);
#1166 = B_SPLINE_CURVE_WITH_KNOTS('',7,(#1167,#1168,#1169,#1170,#1171,
    #1172,#1173,#1174,#1175,#1176,#1177,#1178,#1179,#1180,#1181,#1182,
    #1183,#1184,#1185,#1186,#1187,#1188,#1189,#1190,#1191,#1192,#1193,
    #1194,#1195,#1196,#1197,#1198),.UNSPECIFIED.,.F.,.F.,(8,6,6,6,6,8),(
    0.,0.354493093692,0.974856007653,1.905400378594,2.370672564064,
    2.835944749535),.UNSPECIFIED.);
#1167 = CARTESIAN_POINT('',(3.14159265359,0.956133374873));
#1168 = CARTESIAN_POINT('',(3.229408408823,0.956133374873));
#1169 = CARTESIAN_POINT('',(3.317224387593,0.951895867138));
#1170 = CARTESIAN_POINT('',(3.403564996747,0.943413802233));
#1171 = CARTESIAN_POINT('',(3.486939886129,0.930891277337));
#1172 = CARTESIAN_POINT('',(3.56636888332,0.914682048126));
#1173 = CARTESIAN_POINT('',(3.641482529044,0.895208542376));
#1174 = CARTESIAN_POINT('',(3.835950660512,0.833753832936));
#1175 = CARTESIAN_POINT('',(3.946242880412,0.785847744096));
#1176 = CARTESIAN_POINT('',(4.042665118964,0.73128039198));
#1177 = CARTESIAN_POINT('',(4.128124809146,0.672031071312));
#1178 = CARTESIAN_POINT('',(4.204892054103,0.6092321772));
#1179 = CARTESIAN_POINT('',(4.274860721097,0.543795731757));
#1180 = CARTESIAN_POINT('',(4.436649070617,0.375223752463));
#1181 = CARTESIAN_POINT('',(4.521898821256,0.269600794596));
#1182 = CARTESIAN_POINT('',(4.600550683748,0.161708032704));
#1183 = CARTESIAN_POINT('',(4.675956402637,5.265174991847E-02));
#1184 = CARTESIAN_POINT('',(4.750765467322,-5.658944540127E-02));
#1185 = CARTESIAN_POINT('',(4.827657613907,-0.165131482194));
#1186 = CARTESIAN_POINT('',(4.951568546411,-0.324857929891));
#1187 = CARTESIAN_POINT('',(4.994300653242,-0.37758565789));
#1188 = CARTESIAN_POINT('',(5.038919297339,-0.429629374699));
#1189 = CARTESIAN_POINT('',(5.085933795861,-0.480789514157));
#1190 = CARTESIAN_POINT('',(5.135958918298,-0.530820767443));
#1191 = CARTESIAN_POINT('',(5.189734461224,-0.579402713749));
#1192 = CARTESIAN_POINT('',(5.306485914842,-0.672790982443));
#1193 = CARTESIAN_POINT('',(5.369460047959,-0.717597215087));
#1194 = CARTESIAN_POINT('',(5.437885137475,-0.760078039189));
#1195 = CARTESIAN_POINT('',(5.512671395874,-0.799673988729));
#1196 = CARTESIAN_POINT('',(5.594831171237,-0.835683428509));
#1197 = CARTESIAN_POINT('',(5.684994510461,-0.867169036556));
#1198 = CARTESIAN_POINT('',(5.782528451043,-0.893233990554));
#1199 = ( GEOMETRIC_REPRESENTATION_CONTEXT(2) 
PARAMETRIC_REPRESENTATION_CONTEXT() REPRESENTATION_CONTEXT('2D SPACE',''
  ) );
#1200 = ORIENTED_EDGE('',*,*,#1021,.F.);
#1201 = ORIENTED_EDGE('',*,*,#983,.T.);
#1202 = ORIENTED_EDGE('',*,*,#896,.T.);
#1203 = ORIENTED_EDGE('',*,*,#761,.T.);
#1204 = ORIENTED_EDGE('',*,*,#938,.T.);
#1205 = ADVANCED_FACE('',(#1206),#1061,.T.);
#1206 = FACE_BOUND('',#1207,.T.);
#1207 = EDGE_LOOP('',(#1208,#1209,#1293));
#1208 = ORIENTED_EDGE('',*,*,#1150,.T.);
#1209 = ORIENTED_EDGE('',*,*,#1210,.F.);
#1210 = EDGE_CURVE('',#1045,#1115,#1211,.T.);
#1211 = SURFACE_CURVE('',#1212,(#1217,#1286),.PCURVE_S1.);
#1212 = CIRCLE('',#1213,0.8);
#1213 = AXIS2_PLACEMENT_3D('',#1214,#1215,#1216);
#1214 = CARTESIAN_POINT('',(43.6,-119.,59.6));
#1215 = DIRECTION('',(0.69477952685,0.68251871167,0.226825080824));
#1216 = DIRECTION('',(-0.700784295098,0.713373234531,-2.775557561563E-17
    ));
#1217 = PCURVE('',#1061,#1218);
#1218 = DEFINITIONAL_REPRESENTATION('',(#1219),#1285);
#1219 = B_SPLINE_CURVE_WITH_KNOTS('',8,(#1220,#1221,#1222,#1223,#1224,
    #1225,#1226,#1227,#1228,#1229,#1230,#1231,#1232,#1233,#1234,#1235,
    #1236,#1237,#1238,#1239,#1240,#1241,#1242,#1243,#1244,#1245,#1246,
    #1247,#1248,#1249,#1250,#1251,#1252,#1253,#1254,#1255,#1256,#1257,
    #1258,#1259,#1260,#1261,#1262,#1263,#1264,#1265,#1266,#1267,#1268,
    #1269,#1270,#1271,#1272,#1273,#1274,#1275,#1276,#1277,#1278,#1279,
    #1280,#1281,#1282,#1283,#1284),.UNSPECIFIED.,.F.,.F.,(9,7,7,7,7,7,7,
    7,7,9),(0.927217843274,1.123567384123,1.307645078669,1.480217917306,
    1.642004953529,1.793680299987,2.078071574597,2.575756305163,
    3.322283401013,4.068810496863),.UNSPECIFIED.);
#1220 = CARTESIAN_POINT('',(2.640935797453,0.893233990554));
#1221 = CARTESIAN_POINT('',(2.655101574422,0.91611477277));
#1222 = CARTESIAN_POINT('',(2.670188143462,0.938883521437));
#1223 = CARTESIAN_POINT('',(2.686317278573,0.961524850155));
#1224 = CARTESIAN_POINT('',(2.703635373269,0.984019883467));
#1225 = CARTESIAN_POINT('',(2.722318713916,1.006345752146));
#1226 = CARTESIAN_POINT('',(2.742584040701,1.028473935368));
#1227 = CARTESIAN_POINT('',(2.764704396259,1.050367449778));
#1228 = CARTESIAN_POINT('',(2.811835760978,1.092235731409));
#1229 = CARTESIAN_POINT('',(2.836578787557,1.112244866365));
#1230 = CARTESIAN_POINT('',(2.863552726214,1.131963533661));
#1231 = CARTESIAN_POINT('',(2.893100257166,1.151340880902));
#1232 = CARTESIAN_POINT('',(2.925648208125,1.170313043109));
#1233 = CARTESIAN_POINT('',(2.961726275685,1.188797523979));
#1234 = CARTESIAN_POINT('',(3.001969616264,1.206684875264));
#1235 = CARTESIAN_POINT('',(3.089420016311,1.239899048307));
#1236 = CARTESIAN_POINT('',(3.136031796973,1.255316024145));
#1237 = CARTESIAN_POINT('',(3.187544703872,1.269957331195));
#1238 = CARTESIAN_POINT('',(3.2445784456,1.283671941465));
#1239 = CARTESIAN_POINT('',(3.307823900026,1.296274676861));
#1240 = CARTESIAN_POINT('',(3.377818616773,1.307534542502));
#1241 = CARTESIAN_POINT('',(3.454577559874,1.317186352242));
#1242 = CARTESIAN_POINT('',(3.614686329563,1.332317956638));
#1243 = CARTESIAN_POINT('',(3.697327468202,1.338020816456));
#1244 = CARTESIAN_POINT('',(3.784411115959,1.341911403529));
#1245 = CARTESIAN_POINT('',(3.874611884385,1.343821757946));
#1246 = CARTESIAN_POINT('',(3.965711213734,1.343640602142));
#1247 = CARTESIAN_POINT('',(4.055157727599,1.341407061412));
#1248 = CARTESIAN_POINT('',(4.141217918548,1.33724959343));
#1249 = CARTESIAN_POINT('',(4.299216841281,1.325801716011));
#1250 = CARTESIAN_POINT('',(4.371704246663,1.318723436829));
#1251 = CARTESIAN_POINT('',(4.439302190053,1.310248116606));
#1252 = CARTESIAN_POINT('',(4.50163072269,1.300554235826));
#1253 = CARTESIAN_POINT('',(4.558799846479,1.2898157714));
#1254 = CARTESIAN_POINT('',(4.61116866465,1.278184828822));
#1255 = CARTESIAN_POINT('',(4.6591261483,1.265789378792));
#1256 = CARTESIAN_POINT('',(4.785551281709,1.228265311052));
#1257 = CARTESIAN_POINT('',(4.853993200605,1.201485174216));
#1258 = CARTESIAN_POINT('',(4.911209179218,1.173109204812));
#1259 = CARTESIAN_POINT('',(4.960088810829,1.143586821534));
#1260 = CARTESIAN_POINT('',(5.00232584112,1.113187340472));
#1261 = CARTESIAN_POINT('',(5.039344338967,1.082110752573));
#1262 = CARTESIAN_POINT('',(5.072113948681,1.050493020787));
#1263 = CARTESIAN_POINT('',(5.152657965315,0.962340242928));
#1264 = CARTESIAN_POINT('',(5.193250719366,0.904902052449));
#1265 = CARTESIAN_POINT('',(5.227254754171,0.846671886429));
#1266 = CARTESIAN_POINT('',(5.256506453992,0.787866740712));
#1267 = CARTESIAN_POINT('',(5.282281874817,0.728650673192));
#1268 = CARTESIAN_POINT('',(5.305382093488,0.669116326981));
#1269 = CARTESIAN_POINT('',(5.326410609314,0.609337933936));
#1270 = CARTESIAN_POINT('',(5.374911004946,0.45941287881));
#1271 = CARTESIAN_POINT('',(5.400349227888,0.369027027815));
#1272 = CARTESIAN_POINT('',(5.423620754874,0.278388561187));
#1273 = CARTESIAN_POINT('',(5.44551029724,0.187589064353));
#1274 = CARTESIAN_POINT('',(5.466607505912,9.669727718107E-02));
#1275 = CARTESIAN_POINT('',(5.4874346319,5.774209235059E-03));
#1276 = CARTESIAN_POINT('',(5.508463469394,-8.512552233871E-02));
#1277 = CARTESIAN_POINT('',(5.552134031113,-0.266736984887));
#1278 = CARTESIAN_POINT('',(5.57477707628,-0.357448467424));
#1279 = CARTESIAN_POINT('',(5.598809422427,-0.447998709477));
#1280 = CARTESIAN_POINT('',(5.625019148061,-0.538291942326));
#1281 = CARTESIAN_POINT('',(5.654191732807,-0.628243876679));
#1282 = CARTESIAN_POINT('',(5.688117580784,-0.717628444454));
#1283 = CARTESIAN_POINT('',(5.728669723921,-0.806240540891));
#1284 = CARTESIAN_POINT('',(5.782528451043,-0.893233990554));
#1285 = ( GEOMETRIC_REPRESENTATION_CONTEXT(2) 
PARAMETRIC_REPRESENTATION_CONTEXT() REPRESENTATION_CONTEXT('2D SPACE',''
  ) );
#1286 = PCURVE('',#1098,#1287);
#1287 = DEFINITIONAL_REPRESENTATION('',(#1288),#1292);
#1288 = LINE('',#1289,#1290);
#1289 = CARTESIAN_POINT('',(0.,0.));
#1290 = VECTOR('',#1291,1.);
#1291 = DIRECTION('',(1.,0.));
#1292 = ( GEOMETRIC_REPRESENTATION_CONTEXT(2) 
PARAMETRIC_REPRESENTATION_CONTEXT() REPRESENTATION_CONTEXT('2D SPACE',''
  ) );
#1293 = ORIENTED_EDGE('',*,*,#1044,.T.);
#1294 = ADVANCED_FACE('',(#1295),#1098,.T.);
#1295 = FACE_BOUND('',#1296,.T.);
#1296 = EDGE_LOOP('',(#1297,#1320,#1424,#1463,#1464,#1465,#1466));
#1297 = ORIENTED_EDGE('',*,*,#1298,.T.);
#1298 = EDGE_CURVE('',#1078,#1299,#1301,.T.);
#1299 = VERTEX_POINT('',#1300);
#1300 = CARTESIAN_POINT('',(60.039372563922,-101.7293014123,65.15));
#1301 = SEAM_CURVE('',#1302,(#1306,#1313),.PCURVE_S1.);
#1302 = LINE('',#1303,#1304);
#1303 = CARTESIAN_POINT('',(43.039372563922,-118.4293014123,59.6));
#1304 = VECTOR('',#1305,1.);
#1305 = DIRECTION('',(0.69477952685,0.68251871167,0.226825080824));
#1306 = PCURVE('',#1098,#1307);
#1307 = DEFINITIONAL_REPRESENTATION('',(#1308),#1312);
#1308 = LINE('',#1309,#1310);
#1309 = CARTESIAN_POINT('',(6.28318530718,-0.));
#1310 = VECTOR('',#1311,1.);
#1311 = DIRECTION('',(0.,1.));
#1312 = ( GEOMETRIC_REPRESENTATION_CONTEXT(2) 
PARAMETRIC_REPRESENTATION_CONTEXT() REPRESENTATION_CONTEXT('2D SPACE',''
  ) );
#1313 = PCURVE('',#1098,#1314);
#1314 = DEFINITIONAL_REPRESENTATION('',(#1315),#1319);
#1315 = LINE('',#1316,#1317);
#1316 = CARTESIAN_POINT('',(0.,-0.));
#1317 = VECTOR('',#1318,1.);
#1318 = DIRECTION('',(0.,1.));
#1319 = ( GEOMETRIC_REPRESENTATION_CONTEXT(2) 
PARAMETRIC_REPRESENTATION_CONTEXT() REPRESENTATION_CONTEXT('2D SPACE',''
  ) );
#1320 = ORIENTED_EDGE('',*,*,#1321,.T.);
#1321 = EDGE_CURVE('',#1299,#1322,#1324,.T.);
#1322 = VERTEX_POINT('',#1323);
#1323 = CARTESIAN_POINT('',(61.160627436078,-102.8706985876,65.15));
#1324 = SURFACE_CURVE('',#1325,(#1330,#1337),.PCURVE_S1.);
#1325 = CIRCLE('',#1326,0.8);
#1326 = AXIS2_PLACEMENT_3D('',#1327,#1328,#1329);
#1327 = CARTESIAN_POINT('',(60.6,-102.3,65.15));
#1328 = DIRECTION('',(-0.69477952685,-0.68251871167,-0.226825080824));
#1329 = DIRECTION('',(-0.700784295098,0.713373234531,-1.387778780781E-17
    ));
#1330 = PCURVE('',#1098,#1331);
#1331 = DEFINITIONAL_REPRESENTATION('',(#1332),#1336);
#1332 = LINE('',#1333,#1334);
#1333 = CARTESIAN_POINT('',(6.28318530718,24.468193639907));
#1334 = VECTOR('',#1335,1.);
#1335 = DIRECTION('',(-1.,-0.));
#1336 = ( GEOMETRIC_REPRESENTATION_CONTEXT(2) 
PARAMETRIC_REPRESENTATION_CONTEXT() REPRESENTATION_CONTEXT('2D SPACE',''
  ) );
#1337 = PCURVE('',#1338,#1343);
#1338 = SPHERICAL_SURFACE('',#1339,0.8);
#1339 = AXIS2_PLACEMENT_3D('',#1340,#1341,#1342);
#1340 = CARTESIAN_POINT('',(60.6,-102.3,65.15));
#1341 = DIRECTION('',(0.,0.,1.));
#1342 = DIRECTION('',(1.,0.,-0.));
#1343 = DEFINITIONAL_REPRESENTATION('',(#1344),#1423);
#1344 = B_SPLINE_CURVE_WITH_KNOTS('',8,(#1345,#1346,#1347,#1348,#1349,
    #1350,#1351,#1352,#1353,#1354,#1355,#1356,#1357,#1358,#1359,#1360,
    #1361,#1362,#1363,#1364,#1365,#1366,#1367,#1368,#1369,#1370,#1371,
    #1372,#1373,#1374,#1375,#1376,#1377,#1378,#1379,#1380,#1381,#1382,
    #1383,#1384,#1385,#1386,#1387,#1388,#1389,#1390,#1391,#1392,#1393,
    #1394,#1395,#1396,#1397,#1398,#1399,#1400,#1401,#1402,#1403,#1404,
    #1405,#1406,#1407,#1408,#1409,#1410,#1411,#1412,#1413,#1414,#1415,
    #1416,#1417,#1418,#1419,#1420,#1421,#1422),.UNSPECIFIED.,.F.,.F.,(9,
    7,7,7,7,7,7,6,7,7,7,9),(0.,0.483966347233,0.967932694466,
    1.290576925955,1.474945058235,1.573274728784,1.678159710703,
    1.790037024749,1.958981478354,2.127925931959,2.46581483917,
    3.14159265359),.UNSPECIFIED.);
#1345 = CARTESIAN_POINT('',(8.630477955364,0.));
#1346 = CARTESIAN_POINT('',(8.616755992135,-5.891900155939E-02));
#1347 = CARTESIAN_POINT('',(8.603033687982,-0.117837960253));
#1348 = CARTESIAN_POINT('',(8.589167474557,-0.176740172517));
#1349 = CARTESIAN_POINT('',(8.575009551215,-0.235608404348));
#1350 = CARTESIAN_POINT('',(8.560403144387,-0.294424375248));
#1351 = CARTESIAN_POINT('',(8.545167538328,-0.353166970782));
#1352 = CARTESIAN_POINT('',(8.52907287722,-0.411809183766));
#1353 = CARTESIAN_POINT('',(8.494536600077,-0.528818384381));
#1354 = CARTESIAN_POINT('',(8.476095584123,-0.587185496508));
#1355 = CARTESIAN_POINT('',(8.456158488897,-0.645376468779));
#1356 = CARTESIAN_POINT('',(8.434335922512,-0.703345862647));
#1357 = CARTESIAN_POINT('',(8.410054559945,-0.761023752884));
#1358 = CARTESIAN_POINT('',(8.38254925342,-0.818317821487));
#1359 = CARTESIAN_POINT('',(8.350664266791,-0.875088105345));
#1360 = CARTESIAN_POINT('',(8.286495329472,-0.968353359394));
#1361 = CARTESIAN_POINT('',(8.257887419147,-1.005298882416));
#1362 = CARTESIAN_POINT('',(8.225666264242,-1.041797897502));
#1363 = CARTESIAN_POINT('',(8.188974610507,-1.077735132179));
#1364 = CARTESIAN_POINT('',(8.146523440788,-1.112945025466));
#1365 = CARTESIAN_POINT('',(8.096717268817,-1.147189777116));
#1366 = CARTESIAN_POINT('',(8.036772440031,-1.180089213221));
#1367 = CARTESIAN_POINT('',(7.920844973419,-1.22856687783));
#1368 = CARTESIAN_POINT('',(7.87417444825,-1.245525726355));
#1369 = CARTESIAN_POINT('',(7.822307081866,-1.26168399427));
#1370 = CARTESIAN_POINT('',(7.764449994431,-1.276875443103));
#1371 = CARTESIAN_POINT('',(7.6998207368,-1.290891935464));
#1372 = CARTESIAN_POINT('',(7.627568883009,-1.303467288666));
#1373 = CARTESIAN_POINT('',(7.54752458542,-1.314279816019));
#1374 = CARTESIAN_POINT('',(7.414241065916,-1.327711230898));
#1375 = CARTESIAN_POINT('',(7.365924598579,-1.331799010425));
#1376 = CARTESIAN_POINT('',(7.315788734279,-1.335259043281));
#1377 = CARTESIAN_POINT('',(7.264056169168,-1.338049092255));
#1378 = CARTESIAN_POINT('',(7.211051083096,-1.340133500774));
#1379 = CARTESIAN_POINT('',(7.157188618469,-1.341487020664));
#1380 = CARTESIAN_POINT('',(7.102937465082,-1.34209737953));
#1381 = CARTESIAN_POINT('',(6.990961509207,-1.341827076525));
#1382 = CARTESIAN_POINT('',(6.933246758376,-1.340844331376));
#1383 = CARTESIAN_POINT('',(6.876167968301,-1.339019897187));
#1384 = CARTESIAN_POINT('',(6.820280127378,-1.336374111389));
#1385 = CARTESIAN_POINT('',(6.766052684941,-1.332943158038));
#1386 = CARTESIAN_POINT('',(6.713825729554,-1.328774931446));
#1387 = CARTESIAN_POINT('',(6.663806203196,-1.323923709396));
#1388 = CARTESIAN_POINT('',(6.565221962714,-1.312598224227));
#1389 = CARTESIAN_POINT('',(6.516975937047,-1.306037399617));
#1390 = CARTESIAN_POINT('',(6.471500227999,-1.298827642322));
#1391 = CARTESIAN_POINT('',(6.428791158107,-1.291036516454));
#1392 = CARTESIAN_POINT('',(6.388756351823,-1.282727817786));
#1393 = CARTESIAN_POINT('',(6.351253519452,-1.273958831726));
#1394 = CARTESIAN_POINT('',(6.263062665522,-1.250918454859));
#1395 = CARTESIAN_POINT('',(6.188739006131,-1.225574009927));
#1396 = CARTESIAN_POINT('',(6.148463833972,-1.209645274536));
#1397 = CARTESIAN_POINT('',(6.112022864423,-1.193155046141));
#1398 = CARTESIAN_POINT('',(6.078891687747,-1.176195760679));
#1399 = CARTESIAN_POINT('',(6.048634268435,-1.158839681898));
#1400 = CARTESIAN_POINT('',(6.020876915314,-1.141145136878));
#1401 = CARTESIAN_POINT('',(5.969740926798,-1.105172984106));
#1402 = CARTESIAN_POINT('',(5.946361602721,-1.086895592099));
#1403 = CARTESIAN_POINT('',(5.924860753262,-1.068373239879));
#1404 = CARTESIAN_POINT('',(5.904984156582,-1.049642565868));
#1405 = CARTESIAN_POINT('',(5.886524267592,-1.030732364006));
#1406 = CARTESIAN_POINT('',(5.86931092099,-1.011665456234));
#1407 = CARTESIAN_POINT('',(5.853202034279,-0.992460564991));
#1408 = CARTESIAN_POINT('',(5.807818863863,-0.934481427141));
#1409 = CARTESIAN_POINT('',(5.781488817149,-0.895342296181));
#1410 = CARTESIAN_POINT('',(5.758119519317,-0.855843011691));
#1411 = CARTESIAN_POINT('',(5.737076377756,-0.816063649963));
#1412 = CARTESIAN_POINT('',(5.717919975521,-0.776058176084));
#1413 = CARTESIAN_POINT('',(5.700317391656,-0.735867290764));
#1414 = CARTESIAN_POINT('',(5.683999724896,-0.695524092634));
#1415 = CARTESIAN_POINT('',(5.638298012488,-0.574109482751));
#1416 = CARTESIAN_POINT('',(5.612159134772,-0.492654074741));
#1417 = CARTESIAN_POINT('',(5.588705965733,-0.410884410075));
#1418 = CARTESIAN_POINT('',(5.567104075405,-0.328898421163));
#1419 = CARTESIAN_POINT('',(5.546765220258,-0.246765020167));
#1420 = CARTESIAN_POINT('',(5.527205146874,-0.164541137054));
#1421 = CARTESIAN_POINT('',(5.508045721446,-8.227050151162E-02));
#1422 = CARTESIAN_POINT('',(5.488885301774,0.));
#1423 = ( GEOMETRIC_REPRESENTATION_CONTEXT(2) 
PARAMETRIC_REPRESENTATION_CONTEXT() REPRESENTATION_CONTEXT('2D SPACE',''
  ) );
#1424 = ORIENTED_EDGE('',*,*,#1425,.F.);
#1425 = EDGE_CURVE('',#1299,#1322,#1426,.T.);
#1426 = SURFACE_CURVE('',#1427,(#1432,#1445),.PCURVE_S1.);
#1427 = ELLIPSE('',#1428,1.021441883528,0.8);
#1428 = AXIS2_PLACEMENT_3D('',#1429,#1430,#1431);
#1429 = CARTESIAN_POINT('',(60.6,-102.3,65.15));
#1430 = DIRECTION('',(0.443548067839,0.435720748994,0.783206575823));
#1431 = DIRECTION('',(0.5587186083,0.548858868154,-0.621761577767));
#1432 = PCURVE('',#1098,#1433);
#1433 = DEFINITIONAL_REPRESENTATION('',(#1434),#1444);
#1434 = B_SPLINE_CURVE_WITH_KNOTS('',8,(#1435,#1436,#1437,#1438,#1439,
    #1440,#1441,#1442,#1443),.UNSPECIFIED.,.F.,.F.,(9,9),(1.570796434558
    ,4.712388813804),.PIECEWISE_BEZIER_KNOTS.);
#1435 = CARTESIAN_POINT('',(1.077632028057E-07,24.468193571468));
#1436 = CARTESIAN_POINT('',(0.392699155169,24.218793030829));
#1437 = CARTESIAN_POINT('',(0.785398202576,23.969390513652));
#1438 = CARTESIAN_POINT('',(1.178097249976,23.778616112308));
#1439 = CARTESIAN_POINT('',(1.570796297385,23.704939440286));
#1440 = CARTESIAN_POINT('',(1.963495344785,23.778616094627));
#1441 = CARTESIAN_POINT('',(2.356194392199,23.969390482875));
#1442 = CARTESIAN_POINT('',(2.748893439603,24.218792993474));
#1443 = CARTESIAN_POINT('',(3.141592487009,24.468193534113));
#1444 = ( GEOMETRIC_REPRESENTATION_CONTEXT(2) 
PARAMETRIC_REPRESENTATION_CONTEXT() REPRESENTATION_CONTEXT('2D SPACE',''
  ) );
#1445 = PCURVE('',#1446,#1451);
#1446 = CYLINDRICAL_SURFACE('',#1447,0.8);
#1447 = AXIS2_PLACEMENT_3D('',#1448,#1449,#1450);
#1448 = CARTESIAN_POINT('',(60.6,-102.3,65.15));
#1449 = DIRECTION('',(0.,0.,1.));
#1450 = DIRECTION('',(1.,0.,-0.));
#1451 = DEFINITIONAL_REPRESENTATION('',(#1452),#1462);
#1452 = B_SPLINE_CURVE_WITH_KNOTS('',8,(#1453,#1454,#1455,#1456,#1457,
    #1458,#1459,#1460,#1461),.UNSPECIFIED.,.F.,.F.,(9,9),(1.570796434558
    ,4.712388813804),.PIECEWISE_BEZIER_KNOTS.);
#1453 = CARTESIAN_POINT('',(2.347292755947,6.843968947123E-08));
#1454 = CARTESIAN_POINT('',(2.739991803353,0.249400609079));
#1455 = CARTESIAN_POINT('',(3.132690850757,0.498803126254));
#1456 = CARTESIAN_POINT('',(3.525389898165,0.689577527569));
#1457 = CARTESIAN_POINT('',(3.918088945553,0.763254199532));
#1458 = CARTESIAN_POINT('',(4.310787992976,0.68957754518));
#1459 = CARTESIAN_POINT('',(4.703487040381,0.498803157023));
#1460 = CARTESIAN_POINT('',(5.096186087787,0.249400646433));
#1461 = CARTESIAN_POINT('',(5.488885135193,1.057944274407E-07));
#1462 = ( GEOMETRIC_REPRESENTATION_CONTEXT(2) 
PARAMETRIC_REPRESENTATION_CONTEXT() REPRESENTATION_CONTEXT('2D SPACE',''
  ) );
#1463 = ORIENTED_EDGE('',*,*,#1298,.F.);
#1464 = ORIENTED_EDGE('',*,*,#1077,.T.);
#1465 = ORIENTED_EDGE('',*,*,#1210,.T.);
#1466 = ORIENTED_EDGE('',*,*,#1114,.T.);
#1467 = ADVANCED_FACE('',(#1468),#1446,.T.);
#1468 = FACE_BOUND('',#1469,.T.);
#1469 = EDGE_LOOP('',(#1470,#1495,#1522,#1523,#1544,#1545));
#1470 = ORIENTED_EDGE('',*,*,#1471,.T.);
#1471 = EDGE_CURVE('',#1472,#1474,#1476,.T.);
#1472 = VERTEX_POINT('',#1473);
#1473 = CARTESIAN_POINT('',(61.4,-102.3,65.15));
#1474 = VERTEX_POINT('',#1475);
#1475 = CARTESIAN_POINT('',(61.4,-102.3,67.15));
#1476 = SEAM_CURVE('',#1477,(#1481,#1488),.PCURVE_S1.);
#1477 = LINE('',#1478,#1479);
#1478 = CARTESIAN_POINT('',(61.4,-102.3,65.15));
#1479 = VECTOR('',#1480,1.);
#1480 = DIRECTION('',(0.,0.,1.));
#1481 = PCURVE('',#1446,#1482);
#1482 = DEFINITIONAL_REPRESENTATION('',(#1483),#1487);
#1483 = LINE('',#1484,#1485);
#1484 = CARTESIAN_POINT('',(6.28318530718,-0.));
#1485 = VECTOR('',#1486,1.);
#1486 = DIRECTION('',(0.,1.));
#1487 = ( GEOMETRIC_REPRESENTATION_CONTEXT(2) 
PARAMETRIC_REPRESENTATION_CONTEXT() REPRESENTATION_CONTEXT('2D SPACE',''
  ) );
#1488 = PCURVE('',#1446,#1489);
#1489 = DEFINITIONAL_REPRESENTATION('',(#1490),#1494);
#1490 = LINE('',#1491,#1492);
#1491 = CARTESIAN_POINT('',(0.,-0.));
#1492 = VECTOR('',#1493,1.);
#1493 = DIRECTION('',(0.,1.));
#1494 = ( GEOMETRIC_REPRESENTATION_CONTEXT(2) 
PARAMETRIC_REPRESENTATION_CONTEXT() REPRESENTATION_CONTEXT('2D SPACE',''
  ) );
#1495 = ORIENTED_EDGE('',*,*,#1496,.F.);
#1496 = EDGE_CURVE('',#1474,#1474,#1497,.T.);
#1497 = SURFACE_CURVE('',#1498,(#1503,#1510),.PCURVE_S1.);
#1498 = CIRCLE('',#1499,0.8);
#1499 = AXIS2_PLACEMENT_3D('',#1500,#1501,#1502);
#1500 = CARTESIAN_POINT('',(60.6,-102.3,67.15));
#1501 = DIRECTION('',(0.,0.,1.));
#1502 = DIRECTION('',(1.,0.,-0.));
#1503 = PCURVE('',#1446,#1504);
#1504 = DEFINITIONAL_REPRESENTATION('',(#1505),#1509);
#1505 = LINE('',#1506,#1507);
#1506 = CARTESIAN_POINT('',(0.,2.));
#1507 = VECTOR('',#1508,1.);
#1508 = DIRECTION('',(1.,0.));
#1509 = ( GEOMETRIC_REPRESENTATION_CONTEXT(2) 
PARAMETRIC_REPRESENTATION_CONTEXT() REPRESENTATION_CONTEXT('2D SPACE',''
  ) );
#1510 = PCURVE('',#1511,#1516);
#1511 = PLANE('',#1512);
#1512 = AXIS2_PLACEMENT_3D('',#1513,#1514,#1515);
#1513 = CARTESIAN_POINT('',(60.6,-102.3,67.15));
#1514 = DIRECTION('',(0.,0.,1.));
#1515 = DIRECTION('',(1.,0.,-0.));
#1516 = DEFINITIONAL_REPRESENTATION('',(#1517),#1521);
#1517 = CIRCLE('',#1518,0.8);
#1518 = AXIS2_PLACEMENT_2D('',#1519,#1520);
#1519 = CARTESIAN_POINT('',(0.,0.));
#1520 = DIRECTION('',(1.,0.));
#1521 = ( GEOMETRIC_REPRESENTATION_CONTEXT(2) 
PARAMETRIC_REPRESENTATION_CONTEXT() REPRESENTATION_CONTEXT('2D SPACE',''
  ) );
#1522 = ORIENTED_EDGE('',*,*,#1471,.F.);
#1523 = ORIENTED_EDGE('',*,*,#1524,.T.);
#1524 = EDGE_CURVE('',#1472,#1299,#1525,.T.);
#1525 = SURFACE_CURVE('',#1526,(#1531,#1538),.PCURVE_S1.);
#1526 = CIRCLE('',#1527,0.8);
#1527 = AXIS2_PLACEMENT_3D('',#1528,#1529,#1530);
#1528 = CARTESIAN_POINT('',(60.6,-102.3,65.15));
#1529 = DIRECTION('',(0.,0.,1.));
#1530 = DIRECTION('',(1.,0.,-0.));
#1531 = PCURVE('',#1446,#1532);
#1532 = DEFINITIONAL_REPRESENTATION('',(#1533),#1537);
#1533 = LINE('',#1534,#1535);
#1534 = CARTESIAN_POINT('',(0.,0.));
#1535 = VECTOR('',#1536,1.);
#1536 = DIRECTION('',(1.,0.));
#1537 = ( GEOMETRIC_REPRESENTATION_CONTEXT(2) 
PARAMETRIC_REPRESENTATION_CONTEXT() REPRESENTATION_CONTEXT('2D SPACE',''
  ) );
#1538 = PCURVE('',#1338,#1539);
#1539 = DEFINITIONAL_REPRESENTATION('',(#1540),#1543);
#1540 = B_SPLINE_CURVE_WITH_KNOTS('',1,(#1541,#1542),.UNSPECIFIED.,.F.,
  .F.,(2,2),(0.,2.347292648184),.PIECEWISE_BEZIER_KNOTS.);
#1541 = CARTESIAN_POINT('',(6.28318530718,0.));
#1542 = CARTESIAN_POINT('',(8.630477955364,0.));
#1543 = ( GEOMETRIC_REPRESENTATION_CONTEXT(2) 
PARAMETRIC_REPRESENTATION_CONTEXT() REPRESENTATION_CONTEXT('2D SPACE',''
  ) );
#1544 = ORIENTED_EDGE('',*,*,#1425,.T.);
#1545 = ORIENTED_EDGE('',*,*,#1546,.T.);
#1546 = EDGE_CURVE('',#1322,#1472,#1547,.T.);
#1547 = SURFACE_CURVE('',#1548,(#1553,#1560),.PCURVE_S1.);
#1548 = CIRCLE('',#1549,0.8);
#1549 = AXIS2_PLACEMENT_3D('',#1550,#1551,#1552);
#1550 = CARTESIAN_POINT('',(60.6,-102.3,65.15));
#1551 = DIRECTION('',(0.,0.,1.));
#1552 = DIRECTION('',(1.,0.,-0.));
#1553 = PCURVE('',#1446,#1554);
#1554 = DEFINITIONAL_REPRESENTATION('',(#1555),#1559);
#1555 = LINE('',#1556,#1557);
#1556 = CARTESIAN_POINT('',(0.,0.));
#1557 = VECTOR('',#1558,1.);
#1558 = DIRECTION('',(1.,0.));
#1559 = ( GEOMETRIC_REPRESENTATION_CONTEXT(2) 
PARAMETRIC_REPRESENTATION_CONTEXT() REPRESENTATION_CONTEXT('2D SPACE',''
  ) );
#1560 = PCURVE('',#1338,#1561);
#1561 = DEFINITIONAL_REPRESENTATION('',(#1562),#1565);
#1562 = B_SPLINE_CURVE_WITH_KNOTS('',1,(#1563,#1564),.UNSPECIFIED.,.F.,
  .F.,(2,2),(5.488885301774,6.28318530718),.PIECEWISE_BEZIER_KNOTS.);
#1563 = CARTESIAN_POINT('',(5.488885301774,0.));
#1564 = CARTESIAN_POINT('',(6.28318530718,0.));
#1565 = ( GEOMETRIC_REPRESENTATION_CONTEXT(2) 
PARAMETRIC_REPRESENTATION_CONTEXT() REPRESENTATION_CONTEXT('2D SPACE',''
  ) );
#1566 = ADVANCED_FACE('',(#1567),#1338,.T.);
#1567 = FACE_BOUND('',#1568,.T.);
#1568 = EDGE_LOOP('',(#1569,#1570,#1571));
#1569 = ORIENTED_EDGE('',*,*,#1321,.F.);
#1570 = ORIENTED_EDGE('',*,*,#1524,.F.);
#1571 = ORIENTED_EDGE('',*,*,#1546,.F.);
#1572 = ADVANCED_FACE('',(#1573),#1511,.T.);
#1573 = FACE_BOUND('',#1574,.T.);
#1574 = EDGE_LOOP('',(#1575));
#1575 = ORIENTED_EDGE('',*,*,#1496,.T.);
#1576 = ( GEOMETRIC_REPRESENTATION_CONTEXT(3) 
GLOBAL_UNCERTAINTY_ASSIGNED_CONTEXT((#1580)) 
GLOBAL_UNIT_ASSIGNED_CONTEXT((#1577,#1578,#1579)) REPRESENTATION_CONTEXT
('Context #1','3D Context with UNIT and UNCERTAINTY') );
#1577 = ( LENGTH_UNIT() NAMED_UNIT(*) SI_UNIT(.MILLI.,.METRE.) );
#1578 = ( NAMED_UNIT(*) PLANE_ANGLE_UNIT() SI_UNIT($,.RADIAN.) );
#1579 = ( NAMED_UNIT(*) SI_UNIT($,.STERADIAN.) SOLID_ANGLE_UNIT() );
#1580 = UNCERTAINTY_MEASURE_WITH_UNIT(LENGTH_MEASURE(2.E-07),#1577,
  'distance_accuracy_value','confusion accuracy');
#1581 = PRODUCT_RELATED_PRODUCT_CATEGORY('part',$,(#7));
ENDSEC;
END-ISO-10303-21;
