ISO-10303-21;
HEADER;
FILE_DESCRIPTION(('Open CASCADE Model'),'2;1');
FILE_NAME('Open CASCADE Shape Model','2026-10-01T17:02:39',('Author'),(
    'Open CASCADE'),'Open CASCADE STEP processor 7.8','Open CASCADE 7.8'
  ,'Unknown');
FILE_SCHEMA(('AUTOMOTIVE_DESIGN { 1 0 10303 214 1 1 1 1 }'));
ENDSEC;
DATA;
#1 = APPLICATION_PROTOCOL_DEFINITION('international standard',
  'automotive_design',2000,#2);
#2 = APPLICATION_CONTEXT(
  'core data for automotive mechanical design processes');
#3 = SHAPE_DEFINITION_REPRESENTATION(#4,#10);
#4 = PRODUCT_DEFINITION_SHAPE('','',#5);
#5 = PRODUCT_DEFINITION('design','',#6,#9);
#6 = PRODUCT_DEFINITION_FORMATION('','',#7);
#7 = PRODUCT('Open CASCADE STEP translator 7.8 57',
  'Open CASCADE STEP translator 7.8 57','',(#8));
#8 = PRODUCT_CONTEXT('',#2,'mechanical');
#9 = PRODUCT_DEFINITION_CONTEXT('part definition',#2,'design');
#10 = ADVANCED_BREP_SHAPE_REPRESENTATION('',(#11,#15),#1382);
#11 = AXIS2_PLACEMENT_3D('',#12,#13,#14);
#12 = CARTESIAN_POINT('',(0.,0.,0.));
#13 = DIRECTION('',(0.,0.,1.));
#14 = DIRECTION('',(1.,0.,-0.));
#15 = MANIFOLD_SOLID_BREP('',#16);
#16 = CLOSED_SHELL('',(#17,#202,#261,#401,#405,#488,#653,#703,#834,#895,
    #1050,#1121,#1270,#1320,#1378));
#17 = ADVANCED_FACE('',(#18),#33,.T.);
#18 = FACE_BOUND('',#19,.T.);
#19 = EDGE_LOOP('',(#20,#56,#95,#118,#145,#146,#180));
#20 = ORIENTED_EDGE('',*,*,#21,.F.);
#21 = EDGE_CURVE('',#22,#24,#26,.T.);
#22 = VERTEX_POINT('',#23);
#23 = CARTESIAN_POINT('',(196.95,-10.69994558193,84.488571946839));
#24 = VERTEX_POINT('',#25);
#25 = CARTESIAN_POINT('',(196.95,-9.5,85.7));
#26 = SURFACE_CURVE('',#27,(#32,#44),.PCURVE_S1.);
#27 = CIRCLE('',#28,1.2);
#28 = AXIS2_PLACEMENT_3D('',#29,#30,#31);
#29 = CARTESIAN_POINT('',(196.95,-9.5,84.5));
#30 = DIRECTION('',(-1.,0.,0.));
#31 = DIRECTION('',(0.,0.,-1.));
#32 = PCURVE('',#33,#38);
#33 = CYLINDRICAL_SURFACE('',#34,1.2);
#34 = AXIS2_PLACEMENT_3D('',#35,#36,#37);
#35 = CARTESIAN_POINT('',(199.95,-9.5,84.5));
#36 = DIRECTION('',(-1.,0.,0.));
#37 = DIRECTION('',(0.,0.,-1.));
#38 = DEFINITIONAL_REPRESENTATION('',(#39),#43);
#39 = LINE('',#40,#41);
#40 = CARTESIAN_POINT('',(0.,3.));
#41 = VECTOR('',#42,1.);
#42 = DIRECTION('',(1.,0.));
#43 = ( GEOMETRIC_REPRESENTATION_CONTEXT(2) 
PARAMETRIC_REPRESENTATION_CONTEXT() REPRESENTATION_CONTEXT('2D SPACE',''
  ) );
#44 = PCURVE('',#45,#50);
#45 = SPHERICAL_SURFACE('',#46,1.2);
#46 = AXIS2_PLACEMENT_3D('',#47,#48,#49);
#47 = CARTESIAN_POINT('',(196.95,-9.5,84.5));
#48 = DIRECTION('',(0.,0.,1.));
#49 = DIRECTION('',(1.,0.,-0.));
#50 = DEFINITIONAL_REPRESENTATION('',(#51),#55);
#51 = LINE('',#52,#53);
#52 = CARTESIAN_POINT('',(4.712388980385,-1.570796326795));
#53 = VECTOR('',#54,1.);
#54 = DIRECTION('',(0.,1.));
#55 = ( GEOMETRIC_REPRESENTATION_CONTEXT(2) 
PARAMETRIC_REPRESENTATION_CONTEXT() REPRESENTATION_CONTEXT('2D SPACE',''
  ) );
#56 = ORIENTED_EDGE('',*,*,#57,.F.);
#57 = EDGE_CURVE('',#58,#22,#60,.T.);
#58 = VERTEX_POINT('',#59);
#59 = CARTESIAN_POINT('',(198.08873904699,-9.5,83.3));
#60 = SURFACE_CURVE('',#61,(#66,#78),.PCURVE_S1.);
#61 = ELLIPSE('',#62,1.654341027144,1.2);
#62 = AXIS2_PLACEMENT_3D('',#63,#64,#65);
#63 = CARTESIAN_POINT('',(196.95,-9.5,84.5));
#64 = DIRECTION('',(-0.725364347683,6.555561158804E-03,-0.688333921674)
  );
#65 = DIRECTION('',(-0.688365137925,-6.907918605511E-03,0.725331453579)
  );
#66 = PCURVE('',#33,#67);
#67 = DEFINITIONAL_REPRESENTATION('',(#68),#77);
#68 = B_SPLINE_CURVE_WITH_KNOTS('',7,(#69,#70,#71,#72,#73,#74,#75,#76),
  .UNSPECIFIED.,.F.,.F.,(8,8),(3.151116175183,4.712389243822),
  .PIECEWISE_BEZIER_KNOTS.);
#69 = CARTESIAN_POINT('',(1.184237892933E-14,1.861260952999));
#70 = CARTESIAN_POINT('',(0.223039009806,1.863679840899));
#71 = CARTESIAN_POINT('',(0.446078019611,1.932189367752));
#72 = CARTESIAN_POINT('',(0.669117029416,2.066583787449));
#73 = CARTESIAN_POINT('',(0.892156039222,2.258648824669));
#74 = CARTESIAN_POINT('',(1.115195049028,2.492011770879));
#75 = CARTESIAN_POINT('',(1.338234058833,2.746005552277));
#76 = CARTESIAN_POINT('',(1.561273068639,3.0000003));
#77 = ( GEOMETRIC_REPRESENTATION_CONTEXT(2) 
PARAMETRIC_REPRESENTATION_CONTEXT() REPRESENTATION_CONTEXT('2D SPACE',''
  ) );
#78 = PCURVE('',#79,#84);
#79 = CYLINDRICAL_SURFACE('',#80,1.2);
#80 = AXIS2_PLACEMENT_3D('',#81,#82,#83);
#81 = CARTESIAN_POINT('',(196.95,-9.5,84.5));
#82 = DIRECTION('',(-5.23068737802E-02,9.510340687309E-03,
    -0.998585772167));
#83 = DIRECTION('',(-0.998630934565,0.,5.230923942959E-02));
#84 = DEFINITIONAL_REPRESENTATION('',(#85),#94);
#85 = B_SPLINE_CURVE_WITH_KNOTS('',7,(#86,#87,#88,#89,#90,#91,#92,#93),
  .UNSPECIFIED.,.F.,.F.,(8,8),(3.151116175183,4.712389243822),
  .PIECEWISE_BEZIER_KNOTS.);
#86 = CARTESIAN_POINT('',(3.150618014522,1.138739047001));
#87 = CARTESIAN_POINT('',(3.373657024327,1.136320159101));
#88 = CARTESIAN_POINT('',(3.596696034133,1.067810632248));
#89 = CARTESIAN_POINT('',(3.819735043937,0.933416212551));
#90 = CARTESIAN_POINT('',(4.042774053746,0.741351175331));
#91 = CARTESIAN_POINT('',(4.265813063549,0.507988229121));
#92 = CARTESIAN_POINT('',(4.488852073355,0.253994447723));
#93 = CARTESIAN_POINT('',(4.711891083161,-3.000000106113E-07));
#94 = ( GEOMETRIC_REPRESENTATION_CONTEXT(2) 
PARAMETRIC_REPRESENTATION_CONTEXT() REPRESENTATION_CONTEXT('2D SPACE',''
  ) );
#95 = ORIENTED_EDGE('',*,*,#96,.F.);
#96 = EDGE_CURVE('',#97,#58,#99,.T.);
#97 = VERTEX_POINT('',#98);
#98 = CARTESIAN_POINT('',(199.95,-9.5,83.3));
#99 = SEAM_CURVE('',#100,(#104,#111),.PCURVE_S1.);
#100 = LINE('',#101,#102);
#101 = CARTESIAN_POINT('',(199.95,-9.5,83.3));
#102 = VECTOR('',#103,1.);
#103 = DIRECTION('',(-1.,0.,0.));
#104 = PCURVE('',#33,#105);
#105 = DEFINITIONAL_REPRESENTATION('',(#106),#110);
#106 = LINE('',#107,#108);
#107 = CARTESIAN_POINT('',(6.28318530718,-0.));
#108 = VECTOR('',#109,1.);
#109 = DIRECTION('',(0.,1.));
#110 = ( GEOMETRIC_REPRESENTATION_CONTEXT(2) 
PARAMETRIC_REPRESENTATION_CONTEXT() REPRESENTATION_CONTEXT('2D SPACE',''
  ) );
#111 = PCURVE('',#33,#112);
#112 = DEFINITIONAL_REPRESENTATION('',(#113),#117);
#113 = LINE('',#114,#115);
#114 = CARTESIAN_POINT('',(0.,-0.));
#115 = VECTOR('',#116,1.);
#116 = DIRECTION('',(0.,1.));
#117 = ( GEOMETRIC_REPRESENTATION_CONTEXT(2) 
PARAMETRIC_REPRESENTATION_CONTEXT() REPRESENTATION_CONTEXT('2D SPACE',''
  ) );
#118 = ORIENTED_EDGE('',*,*,#119,.T.);
#119 = EDGE_CURVE('',#97,#97,#120,.T.);
#120 = SURFACE_CURVE('',#121,(#126,#133),.PCURVE_S1.);
#121 = CIRCLE('',#122,1.2);
#122 = AXIS2_PLACEMENT_3D('',#123,#124,#125);
#123 = CARTESIAN_POINT('',(199.95,-9.5,84.5));
#124 = DIRECTION('',(-1.,0.,0.));
#125 = DIRECTION('',(0.,0.,-1.));
#126 = PCURVE('',#33,#127);
#127 = DEFINITIONAL_REPRESENTATION('',(#128),#132);
#128 = LINE('',#129,#130);
#129 = CARTESIAN_POINT('',(0.,0.));
#130 = VECTOR('',#131,1.);
#131 = DIRECTION('',(1.,0.));
#132 = ( GEOMETRIC_REPRESENTATION_CONTEXT(2) 
PARAMETRIC_REPRESENTATION_CONTEXT() REPRESENTATION_CONTEXT('2D SPACE',''
  ) );
#133 = PCURVE('',#134,#139);
#134 = PLANE('',#135);
#135 = AXIS2_PLACEMENT_3D('',#136,#137,#138);
#136 = CARTESIAN_POINT('',(199.95,-9.5,84.5));
#137 = DIRECTION('',(-1.,0.,0.));
#138 = DIRECTION('',(0.,0.,-1.));
#139 = DEFINITIONAL_REPRESENTATION('',(#140),#144);
#140 = CIRCLE('',#141,1.2);
#141 = AXIS2_PLACEMENT_2D('',#142,#143);
#142 = CARTESIAN_POINT('',(0.,0.));
#143 = DIRECTION('',(1.,0.));
#144 = ( GEOMETRIC_REPRESENTATION_CONTEXT(2) 
PARAMETRIC_REPRESENTATION_CONTEXT() REPRESENTATION_CONTEXT('2D SPACE',''
  ) );
#145 = ORIENTED_EDGE('',*,*,#96,.T.);
#146 = ORIENTED_EDGE('',*,*,#147,.F.);
#147 = EDGE_CURVE('',#148,#58,#150,.T.);
#148 = VERTEX_POINT('',#149);
#149 = CARTESIAN_POINT('',(196.95,-8.300054418067,84.511428053161));
#150 = SURFACE_CURVE('',#151,(#156,#168),.PCURVE_S1.);
#151 = ELLIPSE('',#152,1.654341027144,1.2);
#152 = AXIS2_PLACEMENT_3D('',#153,#154,#155);
#153 = CARTESIAN_POINT('',(196.95,-9.5,84.5));
#154 = DIRECTION('',(-0.725364347683,6.555561158804E-03,-0.688333921674)
  );
#155 = DIRECTION('',(-0.688365137925,-6.907918605511E-03,0.725331453579)
  );
#156 = PCURVE('',#33,#157);
#157 = DEFINITIONAL_REPRESENTATION('',(#158),#167);
#158 = B_SPLINE_CURVE_WITH_KNOTS('',7,(#159,#160,#161,#162,#163,#164,
    #165,#166),.UNSPECIFIED.,.F.,.F.,(8,8),(1.570796063358,
    3.151116175183),.PIECEWISE_BEZIER_KNOTS.);
#159 = CARTESIAN_POINT('',(4.702865195354,3.0000003));
#160 = CARTESIAN_POINT('',(4.928625211329,2.742906895786));
#161 = CARTESIAN_POINT('',(5.154385227304,2.485814567902));
#162 = CARTESIAN_POINT('',(5.380145243279,2.250116878045));
#163 = CARTESIAN_POINT('',(5.605905259254,2.057248779295));
#164 = CARTESIAN_POINT('',(5.831665275229,1.924077299792));
#165 = CARTESIAN_POINT('',(6.057425291204,1.858812555423));
#166 = CARTESIAN_POINT('',(6.28318530718,1.861260952999));
#167 = ( GEOMETRIC_REPRESENTATION_CONTEXT(2) 
PARAMETRIC_REPRESENTATION_CONTEXT() REPRESENTATION_CONTEXT('2D SPACE',''
  ) );
#168 = PCURVE('',#79,#169);
#169 = DEFINITIONAL_REPRESENTATION('',(#170),#179);
#170 = B_SPLINE_CURVE_WITH_KNOTS('',7,(#171,#172,#173,#174,#175,#176,
    #177,#178),.UNSPECIFIED.,.F.,.F.,(8,8),(1.570796063358,
    3.151116175183),.PIECEWISE_BEZIER_KNOTS.);
#171 = CARTESIAN_POINT('',(1.570297902696,-3.000000106113E-07));
#172 = CARTESIAN_POINT('',(1.796057918671,0.257093104214));
#173 = CARTESIAN_POINT('',(2.021817934647,0.514185432097));
#174 = CARTESIAN_POINT('',(2.247577950621,0.749883121956));
#175 = CARTESIAN_POINT('',(2.473337966597,0.942751220704));
#176 = CARTESIAN_POINT('',(2.699097982572,1.075922700208));
#177 = CARTESIAN_POINT('',(2.924857998547,1.141187444577));
#178 = CARTESIAN_POINT('',(3.150618014522,1.138739047001));
#179 = ( GEOMETRIC_REPRESENTATION_CONTEXT(2) 
PARAMETRIC_REPRESENTATION_CONTEXT() REPRESENTATION_CONTEXT('2D SPACE',''
  ) );
#180 = ORIENTED_EDGE('',*,*,#181,.F.);
#181 = EDGE_CURVE('',#24,#148,#182,.T.);
#182 = SURFACE_CURVE('',#183,(#188,#195),.PCURVE_S1.);
#183 = CIRCLE('',#184,1.2);
#184 = AXIS2_PLACEMENT_3D('',#185,#186,#187);
#185 = CARTESIAN_POINT('',(196.95,-9.5,84.5));
#186 = DIRECTION('',(-1.,0.,0.));
#187 = DIRECTION('',(0.,0.,-1.));
#188 = PCURVE('',#33,#189);
#189 = DEFINITIONAL_REPRESENTATION('',(#190),#194);
#190 = LINE('',#191,#192);
#191 = CARTESIAN_POINT('',(0.,3.));
#192 = VECTOR('',#193,1.);
#193 = DIRECTION('',(1.,0.));
#194 = ( GEOMETRIC_REPRESENTATION_CONTEXT(2) 
PARAMETRIC_REPRESENTATION_CONTEXT() REPRESENTATION_CONTEXT('2D SPACE',''
  ) );
#195 = PCURVE('',#45,#196);
#196 = DEFINITIONAL_REPRESENTATION('',(#197),#201);
#197 = LINE('',#198,#199);
#198 = CARTESIAN_POINT('',(1.570796326795,4.712388980385));
#199 = VECTOR('',#200,1.);
#200 = DIRECTION('',(0.,-1.));
#201 = ( GEOMETRIC_REPRESENTATION_CONTEXT(2) 
PARAMETRIC_REPRESENTATION_CONTEXT() REPRESENTATION_CONTEXT('2D SPACE',''
  ) );
#202 = ADVANCED_FACE('',(#203),#45,.T.);
#203 = FACE_BOUND('',#204,.T.);
#204 = EDGE_LOOP('',(#205,#206,#207,#235));
#205 = ORIENTED_EDGE('',*,*,#21,.T.);
#206 = ORIENTED_EDGE('',*,*,#181,.T.);
#207 = ORIENTED_EDGE('',*,*,#208,.F.);
#208 = EDGE_CURVE('',#209,#148,#211,.T.);
#209 = VERTEX_POINT('',#210);
#210 = CARTESIAN_POINT('',(195.75164287852,-9.5,84.562771087316));
#211 = SURFACE_CURVE('',#212,(#217,#228),.PCURVE_S1.);
#212 = CIRCLE('',#213,1.2);
#213 = AXIS2_PLACEMENT_3D('',#214,#215,#216);
#214 = CARTESIAN_POINT('',(196.95,-9.5,84.5));
#215 = DIRECTION('',(-5.23068737802E-02,9.510340687309E-03,
    -0.998585772167));
#216 = DIRECTION('',(-0.998630934565,0.,5.230923942959E-02));
#217 = PCURVE('',#45,#218);
#218 = DEFINITIONAL_REPRESENTATION('',(#219),#227);
#219 = B_SPLINE_CURVE_WITH_KNOTS('',6,(#220,#221,#222,#223,#224,#225,
    #226),.UNSPECIFIED.,.F.,.F.,(7,7),(0.,1.570298166133),
  .PIECEWISE_BEZIER_KNOTS.);
#220 = CARTESIAN_POINT('',(3.14159265359,5.233312410052E-02));
#221 = CARTESIAN_POINT('',(2.879529346695,5.482213585728E-02));
#222 = CARTESIAN_POINT('',(2.617385069772,5.300711864246E-02));
#223 = CARTESIAN_POINT('',(2.355322852172,4.657160415464E-02));
#224 = CARTESIAN_POINT('',(2.093617582756,3.61208451314E-02));
#225 = CARTESIAN_POINT('',(1.832166266129,2.321308625582E-02));
#226 = CARTESIAN_POINT('',(1.570796326795,9.523521593612E-03));
#227 = ( GEOMETRIC_REPRESENTATION_CONTEXT(2) 
PARAMETRIC_REPRESENTATION_CONTEXT() REPRESENTATION_CONTEXT('2D SPACE',''
  ) );
#228 = PCURVE('',#79,#229);
#229 = DEFINITIONAL_REPRESENTATION('',(#230),#234);
#230 = LINE('',#231,#232);
#231 = CARTESIAN_POINT('',(0.,0.));
#232 = VECTOR('',#233,1.);
#233 = DIRECTION('',(1.,0.));
#234 = ( GEOMETRIC_REPRESENTATION_CONTEXT(2) 
PARAMETRIC_REPRESENTATION_CONTEXT() REPRESENTATION_CONTEXT('2D SPACE',''
  ) );
#235 = ORIENTED_EDGE('',*,*,#236,.F.);
#236 = EDGE_CURVE('',#22,#209,#237,.T.);
#237 = SURFACE_CURVE('',#238,(#243,#254),.PCURVE_S1.);
#238 = CIRCLE('',#239,1.2);
#239 = AXIS2_PLACEMENT_3D('',#240,#241,#242);
#240 = CARTESIAN_POINT('',(196.95,-9.5,84.5));
#241 = DIRECTION('',(-5.23068737802E-02,9.510340687309E-03,
    -0.998585772167));
#242 = DIRECTION('',(-0.998630934565,0.,5.230923942959E-02));
#243 = PCURVE('',#45,#244);
#244 = DEFINITIONAL_REPRESENTATION('',(#245),#253);
#245 = B_SPLINE_CURVE_WITH_KNOTS('',6,(#246,#247,#248,#249,#250,#251,
    #252),.UNSPECIFIED.,.F.,.F.,(7,7),(4.711890819723,6.28318530718),
  .PIECEWISE_BEZIER_KNOTS.);
#246 = CARTESIAN_POINT('',(4.712388980385,-9.523521593612E-03));
#247 = CARTESIAN_POINT('',(4.450853207294,4.174728810871E-03));
#248 = CARTESIAN_POINT('',(4.189398209247,1.865341385332E-02));
#249 = CARTESIAN_POINT('',(3.927861953101,3.223454431368E-02));
#250 = CARTESIAN_POINT('',(3.665970252158,4.304266803789E-02));
#251 = CARTESIAN_POINT('',(3.403822234168,4.984253311789E-02));
#252 = CARTESIAN_POINT('',(3.14159265359,5.233312410052E-02));
#253 = ( GEOMETRIC_REPRESENTATION_CONTEXT(2) 
PARAMETRIC_REPRESENTATION_CONTEXT() REPRESENTATION_CONTEXT('2D SPACE',''
  ) );
#254 = PCURVE('',#79,#255);
#255 = DEFINITIONAL_REPRESENTATION('',(#256),#260);
#256 = LINE('',#257,#258);
#257 = CARTESIAN_POINT('',(0.,0.));
#258 = VECTOR('',#259,1.);
#259 = DIRECTION('',(1.,0.));
#260 = ( GEOMETRIC_REPRESENTATION_CONTEXT(2) 
PARAMETRIC_REPRESENTATION_CONTEXT() REPRESENTATION_CONTEXT('2D SPACE',''
  ) );
#261 = ADVANCED_FACE('',(#262),#79,.T.);
#262 = FACE_BOUND('',#263,.T.);
#263 = EDGE_LOOP('',(#264,#304,#343,#364,#365,#366,#367,#368,#369));
#264 = ORIENTED_EDGE('',*,*,#265,.T.);
#265 = EDGE_CURVE('',#266,#268,#270,.T.);
#266 = VERTEX_POINT('',#267);
#267 = CARTESIAN_POINT('',(196.5515212663,-10.5902394208,73.980727558234
    ));
#268 = VERTEX_POINT('',#269);
#269 = CARTESIAN_POINT('',(196.24847873369,-8.209760579191,
    74.019272441766));
#270 = SURFACE_CURVE('',#271,(#276,#283),.PCURVE_S1.);
#271 = CIRCLE('',#272,1.2);
#272 = AXIS2_PLACEMENT_3D('',#273,#274,#275);
#273 = CARTESIAN_POINT('',(196.4,-9.4,74.));
#274 = DIRECTION('',(5.23068737802E-02,-9.510340687312E-03,
    0.998585772167));
#275 = DIRECTION('',(0.126267721917,-0.991866184007,-1.606036813859E-02)
  );
#276 = PCURVE('',#79,#277);
#277 = DEFINITIONAL_REPRESENTATION('',(#278),#282);
#278 = LINE('',#279,#280);
#279 = CARTESIAN_POINT('',(4.585110653182,10.514870422407));
#280 = VECTOR('',#281,1.);
#281 = DIRECTION('',(-1.,-0.));
#282 = ( GEOMETRIC_REPRESENTATION_CONTEXT(2) 
PARAMETRIC_REPRESENTATION_CONTEXT() REPRESENTATION_CONTEXT('2D SPACE',''
  ) );
#283 = PCURVE('',#284,#289);
#284 = SPHERICAL_SURFACE('',#285,1.2);
#285 = AXIS2_PLACEMENT_3D('',#286,#287,#288);
#286 = CARTESIAN_POINT('',(196.4,-9.4,74.));
#287 = DIRECTION('',(0.,0.,1.));
#288 = DIRECTION('',(1.,0.,-0.));
#289 = DEFINITIONAL_REPRESENTATION('',(#290),#303);
#290 = B_SPLINE_CURVE_WITH_KNOTS('',7,(#291,#292,#293,#294,#295,#296,
    #297,#298,#299,#300,#301,#302),.UNSPECIFIED.,.F.,.F.,(8,4,8),(0.,
    1.443517999593,3.14159265359),.UNSPECIFIED.);
#291 = CARTESIAN_POINT('',(4.839011077395,-1.606105864172E-02));
#292 = CARTESIAN_POINT('',(5.044989425974,-2.651359467856E-02));
#293 = CARTESIAN_POINT('',(5.251048181412,-3.617083680689E-02));
#294 = CARTESIAN_POINT('',(5.457254940855,-4.431067199025E-02));
#295 = CARTESIAN_POINT('',(5.663640537944,-5.028277837332E-02));
#296 = CARTESIAN_POINT('',(6.113089048865,-5.762700247181E-02));
#297 = CARTESIAN_POINT('',(6.562652490938,-5.200653458136E-02));
#298 = CARTESIAN_POINT('',(7.011569036483,-3.484809612696E-02));
#299 = CARTESIAN_POINT('',(7.253927920657,-2.294622968542E-02));
#300 = CARTESIAN_POINT('',(7.496112018872,-9.630445738603E-03));
#301 = CARTESIAN_POINT('',(7.738302205758,3.765273955158E-03));
#302 = CARTESIAN_POINT('',(7.980603730985,1.606105864172E-02));
#303 = ( GEOMETRIC_REPRESENTATION_CONTEXT(2) 
PARAMETRIC_REPRESENTATION_CONTEXT() REPRESENTATION_CONTEXT('2D SPACE',''
  ) );
#304 = ORIENTED_EDGE('',*,*,#305,.F.);
#305 = EDGE_CURVE('',#306,#268,#308,.T.);
#306 = VERTEX_POINT('',#307);
#307 = CARTESIAN_POINT('',(195.2257065519,-9.404375213343,
    74.522168488288));
#308 = SURFACE_CURVE('',#309,(#314,#326),.PCURVE_S1.);
#309 = ELLIPSE('',#310,1.286510836884,1.2);
#310 = AXIS2_PLACEMENT_3D('',#311,#312,#313);
#311 = CARTESIAN_POINT('',(196.4,-9.4,74.));
#312 = DIRECTION('',(-0.405916296364,-3.688839556022E-02,-0.913165486984
    ));
#313 = DIRECTION('',(0.90514552573,0.121822490928,-0.407272461573));
#314 = PCURVE('',#79,#315);
#315 = DEFINITIONAL_REPRESENTATION('',(#316),#325);
#316 = B_SPLINE_CURVE_WITH_KNOTS('',7,(#317,#318,#319,#320,#321,#322,
    #323,#324),.UNSPECIFIED.,.F.,.F.,(8,8),(3.268870980792,4.71238897932
    ),.PIECEWISE_BEZIER_KNOTS.);
#317 = CARTESIAN_POINT('',(-3.819167204711E-14,10.05482240873));
#318 = CARTESIAN_POINT('',(0.206216856933,10.066962888354));
#319 = CARTESIAN_POINT('',(0.412433713865,10.101927938351));
#320 = CARTESIAN_POINT('',(0.618650570798,10.15887241128));
#321 = CARTESIAN_POINT('',(0.82486742773,10.23458270267));
#322 = CARTESIAN_POINT('',(1.031084284663,10.323584002795));
#323 = CARTESIAN_POINT('',(1.237301141596,10.419227111824));
#324 = CARTESIAN_POINT('',(1.443517998528,10.514870421913));
#325 = ( GEOMETRIC_REPRESENTATION_CONTEXT(2) 
PARAMETRIC_REPRESENTATION_CONTEXT() REPRESENTATION_CONTEXT('2D SPACE',''
  ) );
#326 = PCURVE('',#327,#332);
#327 = CYLINDRICAL_SURFACE('',#328,1.2);
#328 = AXIS2_PLACEMENT_3D('',#329,#330,#331);
#329 = CARTESIAN_POINT('',(196.4,-9.4,74.));
#330 = DIRECTION('',(-0.704934404989,-7.832604499879E-02,-0.704934404989
    ));
#331 = DIRECTION('',(0.707106781187,0.,-0.707106781187));
#332 = DEFINITIONAL_REPRESENTATION('',(#333),#342);
#333 = B_SPLINE_CURVE_WITH_KNOTS('',7,(#334,#335,#336,#337,#338,#339,
    #340,#341),.UNSPECIFIED.,.F.,.F.,(8,8),(3.268870980792,4.71238897932
    ),.PIECEWISE_BEZIER_KNOTS.);
#334 = CARTESIAN_POINT('',(3.168059151053,0.460048013677));
#335 = CARTESIAN_POINT('',(3.374276007985,0.447907534053));
#336 = CARTESIAN_POINT('',(3.580492864917,0.412942484054));
#337 = CARTESIAN_POINT('',(3.786709721851,0.355998011131));
#338 = CARTESIAN_POINT('',(3.992926578783,0.280287719736));
#339 = CARTESIAN_POINT('',(4.199143435716,0.191286419612));
#340 = CARTESIAN_POINT('',(4.405360292648,9.564331058243E-02));
#341 = CARTESIAN_POINT('',(4.611577149581,4.936282493873E-10));
#342 = ( GEOMETRIC_REPRESENTATION_CONTEXT(2) 
PARAMETRIC_REPRESENTATION_CONTEXT() REPRESENTATION_CONTEXT('2D SPACE',''
  ) );
#343 = ORIENTED_EDGE('',*,*,#344,.F.);
#344 = EDGE_CURVE('',#209,#306,#345,.T.);
#345 = SEAM_CURVE('',#346,(#350,#357),.PCURVE_S1.);
#346 = LINE('',#347,#348);
#347 = CARTESIAN_POINT('',(195.75164287852,-9.5,84.562771087316));
#348 = VECTOR('',#349,1.);
#349 = DIRECTION('',(-5.23068737802E-02,9.510340687309E-03,
    -0.998585772167));
#350 = PCURVE('',#79,#351);
#351 = DEFINITIONAL_REPRESENTATION('',(#352),#356);
#352 = LINE('',#353,#354);
#353 = CARTESIAN_POINT('',(0.,-0.));
#354 = VECTOR('',#355,1.);
#355 = DIRECTION('',(0.,1.));
#356 = ( GEOMETRIC_REPRESENTATION_CONTEXT(2) 
PARAMETRIC_REPRESENTATION_CONTEXT() REPRESENTATION_CONTEXT('2D SPACE',''
  ) );
#357 = PCURVE('',#79,#358);
#358 = DEFINITIONAL_REPRESENTATION('',(#359),#363);
#359 = LINE('',#360,#361);
#360 = CARTESIAN_POINT('',(6.28318530718,-0.));
#361 = VECTOR('',#362,1.);
#362 = DIRECTION('',(0.,1.));
#363 = ( GEOMETRIC_REPRESENTATION_CONTEXT(2) 
PARAMETRIC_REPRESENTATION_CONTEXT() REPRESENTATION_CONTEXT('2D SPACE',''
  ) );
#364 = ORIENTED_EDGE('',*,*,#208,.T.);
#365 = ORIENTED_EDGE('',*,*,#147,.T.);
#366 = ORIENTED_EDGE('',*,*,#57,.T.);
#367 = ORIENTED_EDGE('',*,*,#236,.T.);
#368 = ORIENTED_EDGE('',*,*,#344,.T.);
#369 = ORIENTED_EDGE('',*,*,#370,.F.);
#370 = EDGE_CURVE('',#266,#306,#371,.T.);
#371 = SURFACE_CURVE('',#372,(#377,#389),.PCURVE_S1.);
#372 = ELLIPSE('',#373,1.286510836884,1.2);
#373 = AXIS2_PLACEMENT_3D('',#374,#375,#376);
#374 = CARTESIAN_POINT('',(196.4,-9.4,74.));
#375 = DIRECTION('',(-0.405916296364,-3.688839556022E-02,-0.913165486984
    ));
#376 = DIRECTION('',(0.90514552573,0.121822490928,-0.407272461573));
#377 = PCURVE('',#79,#378);
#378 = DEFINITIONAL_REPRESENTATION('',(#379),#388);
#379 = B_SPLINE_CURVE_WITH_KNOTS('',7,(#380,#381,#382,#383,#384,#385,
    #386,#387),.UNSPECIFIED.,.F.,.F.,(8,8),(1.570796328367,
    3.268870980792),.PIECEWISE_BEZIER_KNOTS.);
#380 = CARTESIAN_POINT('',(4.585110654755,10.514870421677));
#381 = CARTESIAN_POINT('',(4.827692747958,10.402360927025));
#382 = CARTESIAN_POINT('',(5.070274841162,10.289852268377));
#383 = CARTESIAN_POINT('',(5.312856934366,10.188151667132));
#384 = CARTESIAN_POINT('',(5.555439027567,10.108098015819));
#385 = CARTESIAN_POINT('',(5.798021120773,10.057844591299));
#386 = CARTESIAN_POINT('',(6.040603213976,10.040541020663));
#387 = CARTESIAN_POINT('',(6.28318530718,10.05482240873));
#388 = ( GEOMETRIC_REPRESENTATION_CONTEXT(2) 
PARAMETRIC_REPRESENTATION_CONTEXT() REPRESENTATION_CONTEXT('2D SPACE',''
  ) );
#389 = PCURVE('',#327,#390);
#390 = DEFINITIONAL_REPRESENTATION('',(#391),#400);
#391 = B_SPLINE_CURVE_WITH_KNOTS('',7,(#392,#393,#394,#395,#396,#397,
    #398,#399),.UNSPECIFIED.,.F.,.F.,(8,8),(1.570796328367,
    3.268870980792),.PIECEWISE_BEZIER_KNOTS.);
#392 = CARTESIAN_POINT('',(1.469984498628,7.292442205653E-10));
#393 = CARTESIAN_POINT('',(1.712566591831,0.112509495381));
#394 = CARTESIAN_POINT('',(1.955148685035,0.22501815403));
#395 = CARTESIAN_POINT('',(2.197730778239,0.326718755274));
#396 = CARTESIAN_POINT('',(2.440312871441,0.406772406587));
#397 = CARTESIAN_POINT('',(2.682894964646,0.457025831107));
#398 = CARTESIAN_POINT('',(2.925477057849,0.474329401744));
#399 = CARTESIAN_POINT('',(3.168059151053,0.460048013677));
#400 = ( GEOMETRIC_REPRESENTATION_CONTEXT(2) 
PARAMETRIC_REPRESENTATION_CONTEXT() REPRESENTATION_CONTEXT('2D SPACE',''
  ) );
#401 = ADVANCED_FACE('',(#402),#134,.F.);
#402 = FACE_BOUND('',#403,.T.);
#403 = EDGE_LOOP('',(#404));
#404 = ORIENTED_EDGE('',*,*,#119,.F.);
#405 = ADVANCED_FACE('',(#406),#284,.T.);
#406 = FACE_BOUND('',#407,.T.);
#407 = EDGE_LOOP('',(#408,#409,#446));
#408 = ORIENTED_EDGE('',*,*,#265,.F.);
#409 = ORIENTED_EDGE('',*,*,#410,.F.);
#410 = EDGE_CURVE('',#411,#266,#413,.T.);
#411 = VERTEX_POINT('',#412);
#412 = CARTESIAN_POINT('',(197.24852813742,-9.4,73.151471862576));
#413 = SURFACE_CURVE('',#414,(#419,#439),.PCURVE_S1.);
#414 = CIRCLE('',#415,1.2);
#415 = AXIS2_PLACEMENT_3D('',#416,#417,#418);
#416 = CARTESIAN_POINT('',(196.4,-9.4,74.));
#417 = DIRECTION('',(-0.704934404989,-7.832604499879E-02,-0.704934404989
    ));
#418 = DIRECTION('',(0.707106781187,6.938893903907E-18,-0.707106781187)
  );
#419 = PCURVE('',#284,#420);
#420 = DEFINITIONAL_REPRESENTATION('',(#421),#438);
#421 = B_SPLINE_CURVE_WITH_KNOTS('',8,(#422,#423,#424,#425,#426,#427,
    #428,#429,#430,#431,#432,#433,#434,#435,#436,#437),.UNSPECIFIED.,.F.
  ,.F.,(9,7,9),(0.,0.734992248528,1.469984497056),.UNSPECIFIED.);
#422 = CARTESIAN_POINT('',(6.28318530718,-0.785398163397));
#423 = CARTESIAN_POINT('',(6.153654976333,-0.778202033906));
#424 = CARTESIAN_POINT('',(6.026257487409,-0.761418674853));
#425 = CARTESIAN_POINT('',(5.904200707155,-0.735414027638));
#426 = CARTESIAN_POINT('',(5.790212244421,-0.701227329109));
#427 = CARTESIAN_POINT('',(5.684673365035,-0.660368252712));
#428 = CARTESIAN_POINT('',(5.586938584619,-0.614049267649));
#429 = CARTESIAN_POINT('',(5.49611743054,-0.563344374286));
#430 = CARTESIAN_POINT('',(5.326224766755,-0.454914224471));
#431 = CARTESIAN_POINT('',(5.247155049262,-0.397189168654));
#432 = CARTESIAN_POINT('',(5.172929939503,-0.336834920175));
#433 = CARTESIAN_POINT('',(5.102430383083,-0.274547640015));
#434 = CARTESIAN_POINT('',(5.034658551166,-0.21087988031));
#435 = CARTESIAN_POINT('',(4.96873024497,-0.146294734625));
#436 = CARTESIAN_POINT('',(4.903792952359,-8.121647849174E-02));
#437 = CARTESIAN_POINT('',(4.839011077395,-1.606105864171E-02));
#438 = ( GEOMETRIC_REPRESENTATION_CONTEXT(2) 
PARAMETRIC_REPRESENTATION_CONTEXT() REPRESENTATION_CONTEXT('2D SPACE',''
  ) );
#439 = PCURVE('',#327,#440);
#440 = DEFINITIONAL_REPRESENTATION('',(#441),#445);
#441 = LINE('',#442,#443);
#442 = CARTESIAN_POINT('',(0.,0.));
#443 = VECTOR('',#444,1.);
#444 = DIRECTION('',(1.,0.));
#445 = ( GEOMETRIC_REPRESENTATION_CONTEXT(2) 
PARAMETRIC_REPRESENTATION_CONTEXT() REPRESENTATION_CONTEXT('2D SPACE',''
  ) );
#446 = ORIENTED_EDGE('',*,*,#447,.F.);
#447 = EDGE_CURVE('',#268,#411,#448,.T.);
#448 = SURFACE_CURVE('',#449,(#454,#481),.PCURVE_S1.);
#449 = CIRCLE('',#450,1.2);
#450 = AXIS2_PLACEMENT_3D('',#451,#452,#453);
#451 = CARTESIAN_POINT('',(196.4,-9.4,74.));
#452 = DIRECTION('',(-0.704934404989,-7.832604499879E-02,-0.704934404989
    ));
#453 = DIRECTION('',(0.707106781187,6.938893903907E-18,-0.707106781187)
  );
#454 = PCURVE('',#284,#455);
#455 = DEFINITIONAL_REPRESENTATION('',(#456),#480);
#456 = B_SPLINE_CURVE_WITH_KNOTS('',8,(#457,#458,#459,#460,#461,#462,
    #463,#464,#465,#466,#467,#468,#469,#470,#471,#472,#473,#474,#475,
    #476,#477,#478,#479),.UNSPECIFIED.,.F.,.F.,(9,7,7,9),(4.611577150645
    ,5.447381228912,5.865283268046,6.28318530718),.UNSPECIFIED.);
#457 = CARTESIAN_POINT('',(7.980603730985,1.606105864171E-02));
#458 = CARTESIAN_POINT('',(7.906936348232,-5.803110456266E-02));
#459 = CARTESIAN_POINT('',(7.833469465817,-0.132222940656));
#460 = CARTESIAN_POINT('',(7.75896896257,-0.2059007515));
#461 = CARTESIAN_POINT('',(7.682215635208,-0.278462451331));
#462 = CARTESIAN_POINT('',(7.601894881754,-0.349228688933));
#463 = CARTESIAN_POINT('',(7.516566763505,-0.417400191892));
#464 = CARTESIAN_POINT('',(7.424484991504,-0.481892138571));
#465 = CARTESIAN_POINT('',(7.274081495417,-0.571018937439));
#466 = CARTESIAN_POINT('',(7.221899718665,-0.599459468834));
#467 = CARTESIAN_POINT('',(7.167493753293,-0.626456911815));
#468 = CARTESIAN_POINT('',(7.110700837619,-0.651818920338));
#469 = CARTESIAN_POINT('',(7.051400767506,-0.675332456664));
#470 = CARTESIAN_POINT('',(6.989547958693,-0.696768790595));
#471 = CARTESIAN_POINT('',(6.925207162787,-0.715896530477));
#472 = CARTESIAN_POINT('',(6.791978511047,-0.749108841414));
#473 = CARTESIAN_POINT('',(6.723089700406,-0.763193449304));
#474 = CARTESIAN_POINT('',(6.652139369734,-0.774543954285));
#475 = CARTESIAN_POINT('',(6.579472302198,-0.782966224713));
#476 = CARTESIAN_POINT('',(6.505604015071,-0.788307023186));
#477 = CARTESIAN_POINT('',(6.431170579863,-0.790481793966));
#478 = CARTESIAN_POINT('',(6.356833688505,-0.789489740138));
#479 = CARTESIAN_POINT('',(6.28318530718,-0.785398163397));
#480 = ( GEOMETRIC_REPRESENTATION_CONTEXT(2) 
PARAMETRIC_REPRESENTATION_CONTEXT() REPRESENTATION_CONTEXT('2D SPACE',''
  ) );
#481 = PCURVE('',#327,#482);
#482 = DEFINITIONAL_REPRESENTATION('',(#483),#487);
#483 = LINE('',#484,#485);
#484 = CARTESIAN_POINT('',(0.,0.));
#485 = VECTOR('',#486,1.);
#486 = DIRECTION('',(1.,0.));
#487 = ( GEOMETRIC_REPRESENTATION_CONTEXT(2) 
PARAMETRIC_REPRESENTATION_CONTEXT() REPRESENTATION_CONTEXT('2D SPACE',''
  ) );
#488 = ADVANCED_FACE('',(#489),#327,.T.);
#489 = FACE_BOUND('',#490,.T.);
#490 = EDGE_LOOP('',(#491,#556,#595,#616,#617,#618,#619,#620,#621));
#491 = ORIENTED_EDGE('',*,*,#492,.F.);
#492 = EDGE_CURVE('',#493,#495,#497,.T.);
#493 = VERTEX_POINT('',#494);
#494 = CARTESIAN_POINT('',(189.33251783129,-11.3926604816,66.8));
#495 = VERTEX_POINT('',#496);
#496 = CARTESIAN_POINT('',(189.06748216871,-9.007339518392,66.8));
#497 = SURFACE_CURVE('',#498,(#503,#510),.PCURVE_S1.);
#498 = CIRCLE('',#499,1.2);
#499 = AXIS2_PLACEMENT_3D('',#500,#501,#502);
#500 = CARTESIAN_POINT('',(189.2,-10.2,66.8));
#501 = DIRECTION('',(-0.704934404989,-7.832604499879E-02,-0.704934404989
    ));
#502 = DIRECTION('',(0.707106781187,6.938893903907E-18,-0.707106781187)
  );
#503 = PCURVE('',#327,#504);
#504 = DEFINITIONAL_REPRESENTATION('',(#505),#509);
#505 = LINE('',#506,#507);
#506 = CARTESIAN_POINT('',(0.,10.213716267843));
#507 = VECTOR('',#508,1.);
#508 = DIRECTION('',(1.,0.));
#509 = ( GEOMETRIC_REPRESENTATION_CONTEXT(2) 
PARAMETRIC_REPRESENTATION_CONTEXT() REPRESENTATION_CONTEXT('2D SPACE',''
  ) );
#510 = PCURVE('',#511,#516);
#511 = SPHERICAL_SURFACE('',#512,1.2);
#512 = AXIS2_PLACEMENT_3D('',#513,#514,#515);
#513 = CARTESIAN_POINT('',(189.2,-10.2,66.8));
#514 = DIRECTION('',(0.,0.,1.));
#515 = DIRECTION('',(1.,0.,-0.));
#516 = DEFINITIONAL_REPRESENTATION('',(#517),#555);
#517 = B_SPLINE_CURVE_WITH_KNOTS('',8,(#518,#519,#520,#521,#522,#523,
    #524,#525,#526,#527,#528,#529,#530,#531,#532,#533,#534,#535,#536,
    #537,#538,#539,#540,#541,#542,#543,#544,#545,#546,#547,#548,#549,
    #550,#551,#552,#553,#554),.UNSPECIFIED.,.F.,.F.,(9,7,7,7,7,9),(
    1.492629870724,2.278028034121,2.867076656669,3.308863123581,
    3.971542823947,4.634222524314),.UNSPECIFIED.);
#518 = CARTESIAN_POINT('',(4.823046201559,-2.368475785867E-14));
#519 = CARTESIAN_POINT('',(4.753839428184,6.963266523018E-02));
#520 = CARTESIAN_POINT('',(4.684631891338,0.139265079612));
#521 = CARTESIAN_POINT('',(4.614405951184,0.208390652473));
#522 = CARTESIAN_POINT('',(4.542125020041,0.276496868626));
#523 = CARTESIAN_POINT('',(4.466721836498,0.343025831545));
#524 = CARTESIAN_POINT('',(4.386971887995,0.407301887182));
#525 = CARTESIAN_POINT('',(4.301481014676,0.46845492905));
#526 = CARTESIAN_POINT('',(4.139667636766,0.568052777351));
#527 = CARTESIAN_POINT('',(4.066396759408,0.608352705565));
#528 = CARTESIAN_POINT('',(3.988685620814,0.645798195112));
#529 = CARTESIAN_POINT('',(3.906075812592,0.679841782123));
#530 = CARTESIAN_POINT('',(3.818262641089,0.709866562858));
#531 = CARTESIAN_POINT('',(3.725265256849,0.735173853919));
#532 = CARTESIAN_POINT('',(3.627846798728,0.755133543134));
#533 = CARTESIAN_POINT('',(3.451839205073,0.779952858753));
#534 = CARTESIAN_POINT('',(3.374631512846,0.787339856933));
#535 = CARTESIAN_POINT('',(3.296181720936,0.791296379251));
#536 = CARTESIAN_POINT('',(3.217184269075,0.791700964533));
#537 = CARTESIAN_POINT('',(3.138453828055,0.788529771106));
#538 = CARTESIAN_POINT('',(3.060772596852,0.781863201692));
#539 = CARTESIAN_POINT('',(2.984751486943,0.771866766136));
#540 = CARTESIAN_POINT('',(2.799951124412,0.73908047855));
#541 = CARTESIAN_POINT('',(2.693797591716,0.712393468004));
#542 = CARTESIAN_POINT('',(2.593854382504,0.679407080943));
#543 = CARTESIAN_POINT('',(2.500713440184,0.641095075718));
#544 = CARTESIAN_POINT('',(2.413905278991,0.598421872841));
#545 = CARTESIAN_POINT('',(2.332772254031,0.552176220215));
#546 = CARTESIAN_POINT('',(2.256528762772,0.503033799143));
#547 = CARTESIAN_POINT('',(2.112273893406,0.40007986349));
#548 = CARTESIAN_POINT('',(2.044262472644,0.346268434125));
#549 = CARTESIAN_POINT('',(1.979589959401,0.290686460468));
#550 = CARTESIAN_POINT('',(1.917484306554,0.233788997031));
#551 = CARTESIAN_POINT('',(1.857246902917,0.175952567752));
#552 = CARTESIAN_POINT('',(1.798240141866,0.117505078554));
#553 = CARTESIAN_POINT('',(1.739846763003,5.875256128797E-02));
#554 = CARTESIAN_POINT('',(1.681453547969,-1.184237892933E-14));
#555 = ( GEOMETRIC_REPRESENTATION_CONTEXT(2) 
PARAMETRIC_REPRESENTATION_CONTEXT() REPRESENTATION_CONTEXT('2D SPACE',''
  ) );
#556 = ORIENTED_EDGE('',*,*,#557,.F.);
#557 = EDGE_CURVE('',#558,#493,#560,.T.);
#558 = VERTEX_POINT('',#559);
#559 = CARTESIAN_POINT('',(190.39936666583,-10.16101794128,
    66.302310390985));
#560 = SURFACE_CURVE('',#561,(#566,#578),.PCURVE_S1.);
#561 = ELLIPSE('',#562,1.299697867902,1.2);
#562 = AXIS2_PLACEMENT_3D('',#563,#564,#565);
#563 = CARTESIAN_POINT('',(189.2,-10.2,66.8));
#564 = DIRECTION('',(-0.381750726323,-4.241674736921E-02,-0.923291504615
    ));
#565 = DIRECTION('',(-0.917644408799,-0.101960489867,0.384099983735));
#566 = PCURVE('',#327,#567);
#567 = DEFINITIONAL_REPRESENTATION('',(#568),#577);
#568 = B_SPLINE_CURVE_WITH_KNOTS('',7,(#569,#570,#571,#572,#573,#574,
    #575,#576),.UNSPECIFIED.,.F.,.F.,(8,8),(3.219759109661,
    4.712388977743),.PIECEWISE_BEZIER_KNOTS.);
#569 = CARTESIAN_POINT('',(-1.50990331349E-13,9.716026658823));
#570 = CARTESIAN_POINT('',(0.213232838297,9.724338913845));
#571 = CARTESIAN_POINT('',(0.426465676595,9.75905208176));
#572 = CARTESIAN_POINT('',(0.639698514892,9.819546126747));
#573 = CARTESIAN_POINT('',(0.85293135319,9.902273816848));
#574 = CARTESIAN_POINT('',(1.066164191487,10.000818950702));
#575 = CARTESIAN_POINT('',(1.279397029785,10.107267463329));
#576 = CARTESIAN_POINT('',(1.492629868082,10.213716266524));
#577 = ( GEOMETRIC_REPRESENTATION_CONTEXT(2) 
PARAMETRIC_REPRESENTATION_CONTEXT() REPRESENTATION_CONTEXT('2D SPACE',''
  ) );
#578 = PCURVE('',#579,#584);
#579 = CYLINDRICAL_SURFACE('',#580,1.2);
#580 = AXIS2_PLACEMENT_3D('',#581,#582,#583);
#581 = CARTESIAN_POINT('',(189.2,-10.2,66.8));
#582 = DIRECTION('',(0.,0.,-1.));
#583 = DIRECTION('',(-1.,0.,-0.));
#584 = DEFINITIONAL_REPRESENTATION('',(#585),#594);
#585 = B_SPLINE_CURVE_WITH_KNOTS('',7,(#586,#587,#588,#589,#590,#591,
    #592,#593),.UNSPECIFIED.,.F.,.F.,(8,8),(3.219759109661,
    4.712388977743),.PIECEWISE_BEZIER_KNOTS.);
#586 = CARTESIAN_POINT('',(3.109101888487,0.49768960902));
#587 = CARTESIAN_POINT('',(3.322334726784,0.489377353998));
#588 = CARTESIAN_POINT('',(3.535567565082,0.454664186082));
#589 = CARTESIAN_POINT('',(3.748800403378,0.394170141099));
#590 = CARTESIAN_POINT('',(3.962033241679,0.31144245099));
#591 = CARTESIAN_POINT('',(4.175266079973,0.212897317142));
#592 = CARTESIAN_POINT('',(4.388498918272,0.106448804514));
#593 = CARTESIAN_POINT('',(4.601731756569,1.31879573928E-09));
#594 = ( GEOMETRIC_REPRESENTATION_CONTEXT(2) 
PARAMETRIC_REPRESENTATION_CONTEXT() REPRESENTATION_CONTEXT('2D SPACE',''
  ) );
#595 = ORIENTED_EDGE('',*,*,#596,.F.);
#596 = EDGE_CURVE('',#411,#558,#597,.T.);
#597 = SEAM_CURVE('',#598,(#602,#609),.PCURVE_S1.);
#598 = LINE('',#599,#600);
#599 = CARTESIAN_POINT('',(197.24852813742,-9.4,73.151471862576));
#600 = VECTOR('',#601,1.);
#601 = DIRECTION('',(-0.704934404989,-7.832604499879E-02,-0.704934404989
    ));
#602 = PCURVE('',#327,#603);
#603 = DEFINITIONAL_REPRESENTATION('',(#604),#608);
#604 = LINE('',#605,#606);
#605 = CARTESIAN_POINT('',(6.28318530718,-0.));
#606 = VECTOR('',#607,1.);
#607 = DIRECTION('',(0.,1.));
#608 = ( GEOMETRIC_REPRESENTATION_CONTEXT(2) 
PARAMETRIC_REPRESENTATION_CONTEXT() REPRESENTATION_CONTEXT('2D SPACE',''
  ) );
#609 = PCURVE('',#327,#610);
#610 = DEFINITIONAL_REPRESENTATION('',(#611),#615);
#611 = LINE('',#612,#613);
#612 = CARTESIAN_POINT('',(0.,-0.));
#613 = VECTOR('',#614,1.);
#614 = DIRECTION('',(0.,1.));
#615 = ( GEOMETRIC_REPRESENTATION_CONTEXT(2) 
PARAMETRIC_REPRESENTATION_CONTEXT() REPRESENTATION_CONTEXT('2D SPACE',''
  ) );
#616 = ORIENTED_EDGE('',*,*,#410,.T.);
#617 = ORIENTED_EDGE('',*,*,#370,.T.);
#618 = ORIENTED_EDGE('',*,*,#305,.T.);
#619 = ORIENTED_EDGE('',*,*,#447,.T.);
#620 = ORIENTED_EDGE('',*,*,#596,.T.);
#621 = ORIENTED_EDGE('',*,*,#622,.F.);
#622 = EDGE_CURVE('',#495,#558,#623,.T.);
#623 = SURFACE_CURVE('',#624,(#629,#641),.PCURVE_S1.);
#624 = ELLIPSE('',#625,1.299697867902,1.2);
#625 = AXIS2_PLACEMENT_3D('',#626,#627,#628);
#626 = CARTESIAN_POINT('',(189.2,-10.2,66.8));
#627 = DIRECTION('',(-0.381750726323,-4.241674736921E-02,-0.923291504615
    ));
#628 = DIRECTION('',(-0.917644408799,-0.101960489867,0.384099983735));
#629 = PCURVE('',#327,#630);
#630 = DEFINITIONAL_REPRESENTATION('',(#631),#640);
#631 = B_SPLINE_CURVE_WITH_KNOTS('',7,(#632,#633,#634,#635,#636,#637,
    #638,#639),.UNSPECIFIED.,.F.,.F.,(8,8),(1.570795124387,
    3.219759109661),.PIECEWISE_BEZIER_KNOTS.);
#632 = CARTESIAN_POINT('',(4.634221321906,10.213716868102));
#633 = CARTESIAN_POINT('',(4.869787605517,10.096118897903));
#634 = CARTESIAN_POINT('',(5.105353889127,9.978521585005));
#635 = CARTESIAN_POINT('',(5.340920172739,9.871578005704));
#636 = CARTESIAN_POINT('',(5.576486456348,9.785967598805));
#637 = CARTESIAN_POINT('',(5.812052739959,9.729882175262));
#638 = CARTESIAN_POINT('',(6.047619023569,9.706843800125));
#639 = CARTESIAN_POINT('',(6.283185307179,9.716026658823));
#640 = ( GEOMETRIC_REPRESENTATION_CONTEXT(2) 
PARAMETRIC_REPRESENTATION_CONTEXT() REPRESENTATION_CONTEXT('2D SPACE',''
  ) );
#641 = PCURVE('',#579,#642);
#642 = DEFINITIONAL_REPRESENTATION('',(#643),#652);
#643 = B_SPLINE_CURVE_WITH_KNOTS('',7,(#644,#645,#646,#647,#648,#649,
    #650,#651),.UNSPECIFIED.,.F.,.F.,(8,8),(1.570795124387,
    3.219759109661),.PIECEWISE_BEZIER_KNOTS.);
#644 = CARTESIAN_POINT('',(1.460137903214,-6.002585308806E-07));
#645 = CARTESIAN_POINT('',(1.695704186824,0.11759736994));
#646 = CARTESIAN_POINT('',(1.931270470434,0.23519468284));
#647 = CARTESIAN_POINT('',(2.166836754046,0.342138262136));
#648 = CARTESIAN_POINT('',(2.402403037655,0.427748669045));
#649 = CARTESIAN_POINT('',(2.637969321266,0.483834092578));
#650 = CARTESIAN_POINT('',(2.873535604876,0.506872467718));
#651 = CARTESIAN_POINT('',(3.109101888487,0.49768960902));
#652 = ( GEOMETRIC_REPRESENTATION_CONTEXT(2) 
PARAMETRIC_REPRESENTATION_CONTEXT() REPRESENTATION_CONTEXT('2D SPACE',''
  ) );
#653 = ADVANCED_FACE('',(#654),#511,.T.);
#654 = FACE_BOUND('',#655,.T.);
#655 = EDGE_LOOP('',(#656,#657,#681));
#656 = ORIENTED_EDGE('',*,*,#492,.T.);
#657 = ORIENTED_EDGE('',*,*,#658,.F.);
#658 = EDGE_CURVE('',#659,#495,#661,.T.);
#659 = VERTEX_POINT('',#660);
#660 = CARTESIAN_POINT('',(188.,-10.2,66.8));
#661 = SURFACE_CURVE('',#662,(#667,#674),.PCURVE_S1.);
#662 = CIRCLE('',#663,1.2);
#663 = AXIS2_PLACEMENT_3D('',#664,#665,#666);
#664 = CARTESIAN_POINT('',(189.2,-10.2,66.8));
#665 = DIRECTION('',(0.,0.,-1.));
#666 = DIRECTION('',(-1.,0.,-0.));
#667 = PCURVE('',#511,#668);
#668 = DEFINITIONAL_REPRESENTATION('',(#669),#673);
#669 = LINE('',#670,#671);
#670 = CARTESIAN_POINT('',(3.14159265359,0.));
#671 = VECTOR('',#672,1.);
#672 = DIRECTION('',(-1.,0.));
#673 = ( GEOMETRIC_REPRESENTATION_CONTEXT(2) 
PARAMETRIC_REPRESENTATION_CONTEXT() REPRESENTATION_CONTEXT('2D SPACE',''
  ) );
#674 = PCURVE('',#579,#675);
#675 = DEFINITIONAL_REPRESENTATION('',(#676),#680);
#676 = LINE('',#677,#678);
#677 = CARTESIAN_POINT('',(0.,0.));
#678 = VECTOR('',#679,1.);
#679 = DIRECTION('',(1.,0.));
#680 = ( GEOMETRIC_REPRESENTATION_CONTEXT(2) 
PARAMETRIC_REPRESENTATION_CONTEXT() REPRESENTATION_CONTEXT('2D SPACE',''
  ) );
#681 = ORIENTED_EDGE('',*,*,#682,.F.);
#682 = EDGE_CURVE('',#493,#659,#683,.T.);
#683 = SURFACE_CURVE('',#684,(#689,#696),.PCURVE_S1.);
#684 = CIRCLE('',#685,1.2);
#685 = AXIS2_PLACEMENT_3D('',#686,#687,#688);
#686 = CARTESIAN_POINT('',(189.2,-10.2,66.8));
#687 = DIRECTION('',(0.,0.,-1.));
#688 = DIRECTION('',(-1.,0.,-0.));
#689 = PCURVE('',#511,#690);
#690 = DEFINITIONAL_REPRESENTATION('',(#691),#695);
#691 = LINE('',#692,#693);
#692 = CARTESIAN_POINT('',(9.424777960769,0.));
#693 = VECTOR('',#694,1.);
#694 = DIRECTION('',(-1.,0.));
#695 = ( GEOMETRIC_REPRESENTATION_CONTEXT(2) 
PARAMETRIC_REPRESENTATION_CONTEXT() REPRESENTATION_CONTEXT('2D SPACE',''
  ) );
#696 = PCURVE('',#579,#697);
#697 = DEFINITIONAL_REPRESENTATION('',(#698),#702);
#698 = LINE('',#699,#700);
#699 = CARTESIAN_POINT('',(0.,0.));
#700 = VECTOR('',#701,1.);
#701 = DIRECTION('',(1.,0.));
#702 = ( GEOMETRIC_REPRESENTATION_CONTEXT(2) 
PARAMETRIC_REPRESENTATION_CONTEXT() REPRESENTATION_CONTEXT('2D SPACE',''
  ) );
#703 = ADVANCED_FACE('',(#704),#579,.T.);
#704 = FACE_BOUND('',#705,.T.);
#705 = EDGE_LOOP('',(#706,#737,#776,#797,#798,#799,#800,#801,#802));
#706 = ORIENTED_EDGE('',*,*,#707,.T.);
#707 = EDGE_CURVE('',#708,#710,#712,.T.);
#708 = VERTEX_POINT('',#709);
#709 = CARTESIAN_POINT('',(189.2,-11.4,32.4));
#710 = VERTEX_POINT('',#711);
#711 = CARTESIAN_POINT('',(189.2,-9.,32.4));
#712 = SURFACE_CURVE('',#713,(#718,#725),.PCURVE_S1.);
#713 = CIRCLE('',#714,1.2);
#714 = AXIS2_PLACEMENT_3D('',#715,#716,#717);
#715 = CARTESIAN_POINT('',(189.2,-10.2,32.4));
#716 = DIRECTION('',(0.,1.184237892934E-14,1.));
#717 = DIRECTION('',(-4.736951571734E-14,-1.,1.184237892934E-14));
#718 = PCURVE('',#579,#719);
#719 = DEFINITIONAL_REPRESENTATION('',(#720),#724);
#720 = LINE('',#721,#722);
#721 = CARTESIAN_POINT('',(4.712388980385,34.4));
#722 = VECTOR('',#723,1.);
#723 = DIRECTION('',(-1.,-0.));
#724 = ( GEOMETRIC_REPRESENTATION_CONTEXT(2) 
PARAMETRIC_REPRESENTATION_CONTEXT() REPRESENTATION_CONTEXT('2D SPACE',''
  ) );
#725 = PCURVE('',#726,#731);
#726 = SPHERICAL_SURFACE('',#727,1.2);
#727 = AXIS2_PLACEMENT_3D('',#728,#729,#730);
#728 = CARTESIAN_POINT('',(189.2,-10.2,32.4));
#729 = DIRECTION('',(0.,0.,1.));
#730 = DIRECTION('',(1.,0.,-0.));
#731 = DEFINITIONAL_REPRESENTATION('',(#732),#736);
#732 = LINE('',#733,#734);
#733 = CARTESIAN_POINT('',(4.712388980385,0.));
#734 = VECTOR('',#735,1.);
#735 = DIRECTION('',(1.,-0.));
#736 = ( GEOMETRIC_REPRESENTATION_CONTEXT(2) 
PARAMETRIC_REPRESENTATION_CONTEXT() REPRESENTATION_CONTEXT('2D SPACE',''
  ) );
#737 = ORIENTED_EDGE('',*,*,#738,.F.);
#738 = EDGE_CURVE('',#739,#710,#741,.T.);
#739 = VERTEX_POINT('',#740);
#740 = CARTESIAN_POINT('',(188.,-10.2,32.897056274848));
#741 = SURFACE_CURVE('',#742,(#747,#759),.PCURVE_S1.);
#742 = ELLIPSE('',#743,1.298870640351,1.2);
#743 = AXIS2_PLACEMENT_3D('',#744,#745,#746);
#744 = CARTESIAN_POINT('',(189.2,-10.2,32.4));
#745 = DIRECTION('',(-0.382683432365,0.,-0.923879532511));
#746 = DIRECTION('',(0.923879532511,0.,-0.382683432365));
#747 = PCURVE('',#579,#748);
#748 = DEFINITIONAL_REPRESENTATION('',(#749),#758);
#749 = B_SPLINE_CURVE_WITH_KNOTS('',7,(#750,#751,#752,#753,#754,#755,
    #756,#757),.UNSPECIFIED.,.F.,.F.,(8,8),(3.14159265359,4.712388979474
    ),.PIECEWISE_BEZIER_KNOTS.);
#750 = CARTESIAN_POINT('',(0.,33.902943725152));
#751 = CARTESIAN_POINT('',(0.224399475126,33.902943725152));
#752 = CARTESIAN_POINT('',(0.448798950253,33.932145121476));
#753 = CARTESIAN_POINT('',(0.673198425379,33.990543678003));
#754 = CARTESIAN_POINT('',(0.897597900505,34.07455398162));
#755 = CARTESIAN_POINT('',(1.121997375631,34.176922118122));
#756 = CARTESIAN_POINT('',(1.346396850757,34.288460832363));
#757 = CARTESIAN_POINT('',(1.570796325884,34.399999999547));
#758 = ( GEOMETRIC_REPRESENTATION_CONTEXT(2) 
PARAMETRIC_REPRESENTATION_CONTEXT() REPRESENTATION_CONTEXT('2D SPACE',''
  ) );
#759 = PCURVE('',#760,#765);
#760 = CYLINDRICAL_SURFACE('',#761,1.2);
#761 = AXIS2_PLACEMENT_3D('',#762,#763,#764);
#762 = CARTESIAN_POINT('',(189.2,-10.2,32.4));
#763 = DIRECTION('',(-0.707106781187,0.,-0.707106781187));
#764 = DIRECTION('',(-0.707106781187,0.,0.707106781187));
#765 = DEFINITIONAL_REPRESENTATION('',(#766),#775);
#766 = B_SPLINE_CURVE_WITH_KNOTS('',7,(#767,#768,#769,#770,#771,#772,
    #773,#774),.UNSPECIFIED.,.F.,.F.,(8,8),(3.14159265359,4.712388979474
    ),.PIECEWISE_BEZIER_KNOTS.);
#767 = CARTESIAN_POINT('',(0.,0.497056274848));
#768 = CARTESIAN_POINT('',(0.224399475126,0.497056274848));
#769 = CARTESIAN_POINT('',(0.448798950252,0.467854878522));
#770 = CARTESIAN_POINT('',(0.673198425379,0.40945632201));
#771 = CARTESIAN_POINT('',(0.897597900505,0.325446018382));
#772 = CARTESIAN_POINT('',(1.121997375631,0.22307788188));
#773 = CARTESIAN_POINT('',(1.346396850757,0.111539167637));
#774 = CARTESIAN_POINT('',(1.570796325884,4.528999397735E-10));
#775 = ( GEOMETRIC_REPRESENTATION_CONTEXT(2) 
PARAMETRIC_REPRESENTATION_CONTEXT() REPRESENTATION_CONTEXT('2D SPACE',''
  ) );
#776 = ORIENTED_EDGE('',*,*,#777,.F.);
#777 = EDGE_CURVE('',#659,#739,#778,.T.);
#778 = SEAM_CURVE('',#779,(#783,#790),.PCURVE_S1.);
#779 = LINE('',#780,#781);
#780 = CARTESIAN_POINT('',(188.,-10.2,66.8));
#781 = VECTOR('',#782,1.);
#782 = DIRECTION('',(0.,0.,-1.));
#783 = PCURVE('',#579,#784);
#784 = DEFINITIONAL_REPRESENTATION('',(#785),#789);
#785 = LINE('',#786,#787);
#786 = CARTESIAN_POINT('',(0.,-0.));
#787 = VECTOR('',#788,1.);
#788 = DIRECTION('',(0.,1.));
#789 = ( GEOMETRIC_REPRESENTATION_CONTEXT(2) 
PARAMETRIC_REPRESENTATION_CONTEXT() REPRESENTATION_CONTEXT('2D SPACE',''
  ) );
#790 = PCURVE('',#579,#791);
#791 = DEFINITIONAL_REPRESENTATION('',(#792),#796);
#792 = LINE('',#793,#794);
#793 = CARTESIAN_POINT('',(6.28318530718,-0.));
#794 = VECTOR('',#795,1.);
#795 = DIRECTION('',(0.,1.));
#796 = ( GEOMETRIC_REPRESENTATION_CONTEXT(2) 
PARAMETRIC_REPRESENTATION_CONTEXT() REPRESENTATION_CONTEXT('2D SPACE',''
  ) );
#797 = ORIENTED_EDGE('',*,*,#658,.T.);
#798 = ORIENTED_EDGE('',*,*,#622,.T.);
#799 = ORIENTED_EDGE('',*,*,#557,.T.);
#800 = ORIENTED_EDGE('',*,*,#682,.T.);
#801 = ORIENTED_EDGE('',*,*,#777,.T.);
#802 = ORIENTED_EDGE('',*,*,#803,.F.);
#803 = EDGE_CURVE('',#708,#739,#804,.T.);
#804 = SURFACE_CURVE('',#805,(#810,#822),.PCURVE_S1.);
#805 = ELLIPSE('',#806,1.298870640351,1.2);
#806 = AXIS2_PLACEMENT_3D('',#807,#808,#809);
#807 = CARTESIAN_POINT('',(189.2,-10.2,32.4));
#808 = DIRECTION('',(-0.382683432365,0.,-0.923879532511));
#809 = DIRECTION('',(0.923879532511,0.,-0.382683432365));
#810 = PCURVE('',#579,#811);
#811 = DEFINITIONAL_REPRESENTATION('',(#812),#821);
#812 = B_SPLINE_CURVE_WITH_KNOTS('',7,(#813,#814,#815,#816,#817,#818,
    #819,#820),.UNSPECIFIED.,.F.,.F.,(8,8),(1.570795723242,3.14159265359
    ),.PIECEWISE_BEZIER_KNOTS.);
#813 = CARTESIAN_POINT('',(4.712388376831,34.4000003));
#814 = CARTESIAN_POINT('',(4.93678793831,34.288461089894));
#815 = CARTESIAN_POINT('',(5.161187499788,34.176922315086));
#816 = CARTESIAN_POINT('',(5.385587061266,34.074554110943));
#817 = CARTESIAN_POINT('',(5.609986622745,33.990543745422));
#818 = CARTESIAN_POINT('',(5.834386184223,33.932145143954));
#819 = CARTESIAN_POINT('',(6.058785745701,33.902943725152));
#820 = CARTESIAN_POINT('',(6.28318530718,33.902943725152));
#821 = ( GEOMETRIC_REPRESENTATION_CONTEXT(2) 
PARAMETRIC_REPRESENTATION_CONTEXT() REPRESENTATION_CONTEXT('2D SPACE',''
  ) );
#822 = PCURVE('',#760,#823);
#823 = DEFINITIONAL_REPRESENTATION('',(#824),#833);
#824 = B_SPLINE_CURVE_WITH_KNOTS('',7,(#825,#826,#827,#828,#829,#830,
    #831,#832),.UNSPECIFIED.,.F.,.F.,(8,8),(1.570795723242,3.14159265359
    ),.PIECEWISE_BEZIER_KNOTS.);
#825 = CARTESIAN_POINT('',(4.712388376831,-2.999999821895E-07));
#826 = CARTESIAN_POINT('',(4.93678793831,0.111538910106));
#827 = CARTESIAN_POINT('',(5.161187499788,0.22307768492));
#828 = CARTESIAN_POINT('',(5.385587061266,0.325445889064));
#829 = CARTESIAN_POINT('',(5.609986622745,0.409456254595));
#830 = CARTESIAN_POINT('',(5.834386184223,0.467854856047));
#831 = CARTESIAN_POINT('',(6.058785745701,0.497056274848));
#832 = CARTESIAN_POINT('',(6.28318530718,0.497056274848));
#833 = ( GEOMETRIC_REPRESENTATION_CONTEXT(2) 
PARAMETRIC_REPRESENTATION_CONTEXT() REPRESENTATION_CONTEXT('2D SPACE',''
  ) );
#834 = ADVANCED_FACE('',(#835),#726,.T.);
#835 = FACE_BOUND('',#836,.T.);
#836 = EDGE_LOOP('',(#837,#838));
#837 = ORIENTED_EDGE('',*,*,#707,.F.);
#838 = ORIENTED_EDGE('',*,*,#839,.T.);
#839 = EDGE_CURVE('',#708,#710,#840,.T.);
#840 = SURFACE_CURVE('',#841,(#846,#888),.PCURVE_S1.);
#841 = CIRCLE('',#842,1.2);
#842 = AXIS2_PLACEMENT_3D('',#843,#844,#845);
#843 = CARTESIAN_POINT('',(189.2,-10.2,32.4));
#844 = DIRECTION('',(0.707106781187,-2.512147933894E-14,0.707106781187)
  );
#845 = DIRECTION('',(-4.736951571734E-14,-1.,1.184237892934E-14));
#846 = PCURVE('',#726,#847);
#847 = DEFINITIONAL_REPRESENTATION('',(#848),#887);
#848 = B_SPLINE_CURVE_WITH_KNOTS('',7,(#849,#850,#851,#852,#853,#854,
    #855,#856,#857,#858,#859,#860,#861,#862,#863,#864,#865,#866,#867,
    #868,#869,#870,#871,#872,#873,#874,#875,#876,#877,#878,#879,#880,
    #881,#882,#883,#884,#885,#886),.UNSPECIFIED.,.F.,.F.,(8,6,6,6,6,6,8)
  ,(0.,0.589048622548,1.178097245096,1.570796326795,1.963495408494,
    2.356194490192,3.14159265359),.UNSPECIFIED.);
#849 = CARTESIAN_POINT('',(4.712388980385,2.368475785867E-14));
#850 = CARTESIAN_POINT('',(4.771891876878,-5.950289649317E-02));
#851 = CARTESIAN_POINT('',(4.831394212061,-0.119005781875));
#852 = CARTESIAN_POINT('',(4.89158732752,-0.178164652909));
#853 = CARTESIAN_POINT('',(4.953152425085,-0.236634995666));
#854 = CARTESIAN_POINT('',(5.0168244983,-0.294038935636));
#855 = CARTESIAN_POINT('',(5.083412253621,-0.349925782922));
#856 = CARTESIAN_POINT('',(5.224135789081,-0.4575261621));
#857 = CARTESIAN_POINT('',(5.298270007976,-0.509239672906));
#858 = CARTESIAN_POINT('',(5.377037069007,-0.558297661429));
#859 = CARTESIAN_POINT('',(5.461300976516,-0.604010907574));
#860 = CARTESIAN_POINT('',(5.551958869718,-0.645541359022));
#861 = CARTESIAN_POINT('',(5.649478474565,-0.68183486086));
#862 = CARTESIAN_POINT('',(5.822485212675,-0.731961039536));
#863 = CARTESIAN_POINT('',(5.894481578687,-0.749247615986));
#864 = CARTESIAN_POINT('',(5.969102548335,-0.763482035561));
#865 = CARTESIAN_POINT('',(6.045987858115,-0.774381802849));
#866 = CARTESIAN_POINT('',(6.124511261868,-0.781726860118));
#867 = CARTESIAN_POINT('',(6.203848111855,-0.785398163397));
#868 = CARTESIAN_POINT('',(6.362522502504,-0.785398163397));
#869 = CARTESIAN_POINT('',(6.441859352492,-0.781726860118));
#870 = CARTESIAN_POINT('',(6.520382756244,-0.774381802849));
#871 = CARTESIAN_POINT('',(6.597268066024,-0.763482035561));
#872 = CARTESIAN_POINT('',(6.671889035672,-0.749247615986));
#873 = CARTESIAN_POINT('',(6.743885401685,-0.731961039536));
#874 = CARTESIAN_POINT('',(6.882290792172,-0.691860096595));
#875 = CARTESIAN_POINT('',(6.948700299887,-0.669046071361));
#876 = CARTESIAN_POINT('',(7.0121459309,-0.64375964774));
#877 = CARTESIAN_POINT('',(7.072663036317,-0.616304579998));
#878 = CARTESIAN_POINT('',(7.130410897426,-0.586964171127));
#879 = CARTESIAN_POINT('',(7.185610461755,-0.55598804996));
#880 = CARTESIAN_POINT('',(7.344284852403,-0.458820226876));
#881 = CARTESIAN_POINT('',(7.440835350752,-0.388388224986));
#882 = CARTESIAN_POINT('',(7.530096083363,-0.314082660799));
#883 = CARTESIAN_POINT('',(7.614343613651,-0.237197513548));
#884 = CARTESIAN_POINT('',(7.69530625139,-0.158674057072));
#885 = CARTESIAN_POINT('',(7.77464443865,-7.933719532423E-02));
#886 = CARTESIAN_POINT('',(7.853981633975,2.368475785867E-14));
#887 = ( GEOMETRIC_REPRESENTATION_CONTEXT(2) 
PARAMETRIC_REPRESENTATION_CONTEXT() REPRESENTATION_CONTEXT('2D SPACE',''
  ) );
#888 = PCURVE('',#760,#889);
#889 = DEFINITIONAL_REPRESENTATION('',(#890),#894);
#890 = LINE('',#891,#892);
#891 = CARTESIAN_POINT('',(4.712388980385,0.));
#892 = VECTOR('',#893,1.);
#893 = DIRECTION('',(-1.,-0.));
#894 = ( GEOMETRIC_REPRESENTATION_CONTEXT(2) 
PARAMETRIC_REPRESENTATION_CONTEXT() REPRESENTATION_CONTEXT('2D SPACE',''
  ) );
#895 = ADVANCED_FACE('',(#896),#760,.T.);
#896 = FACE_BOUND('',#897,.T.);
#897 = EDGE_LOOP('',(#898,#921,#970,#1011,#1046,#1047,#1048,#1049));
#898 = ORIENTED_EDGE('',*,*,#899,.T.);
#899 = EDGE_CURVE('',#739,#900,#902,.T.);
#900 = VERTEX_POINT('',#901);
#901 = CARTESIAN_POINT('',(185.95147186257,-10.2,30.848528137424));
#902 = SEAM_CURVE('',#903,(#907,#914),.PCURVE_S1.);
#903 = LINE('',#904,#905);
#904 = CARTESIAN_POINT('',(188.35147186257,-10.2,33.248528137424));
#905 = VECTOR('',#906,1.);
#906 = DIRECTION('',(-0.707106781187,0.,-0.707106781187));
#907 = PCURVE('',#760,#908);
#908 = DEFINITIONAL_REPRESENTATION('',(#909),#913);
#909 = LINE('',#910,#911);
#910 = CARTESIAN_POINT('',(6.28318530718,-0.));
#911 = VECTOR('',#912,1.);
#912 = DIRECTION('',(0.,1.));
#913 = ( GEOMETRIC_REPRESENTATION_CONTEXT(2) 
PARAMETRIC_REPRESENTATION_CONTEXT() REPRESENTATION_CONTEXT('2D SPACE',''
  ) );
#914 = PCURVE('',#760,#915);
#915 = DEFINITIONAL_REPRESENTATION('',(#916),#920);
#916 = LINE('',#917,#918);
#917 = CARTESIAN_POINT('',(0.,-0.));
#918 = VECTOR('',#919,1.);
#919 = DIRECTION('',(0.,1.));
#920 = ( GEOMETRIC_REPRESENTATION_CONTEXT(2) 
PARAMETRIC_REPRESENTATION_CONTEXT() REPRESENTATION_CONTEXT('2D SPACE',''
  ) );
#921 = ORIENTED_EDGE('',*,*,#922,.F.);
#922 = EDGE_CURVE('',#923,#900,#925,.T.);
#923 = VERTEX_POINT('',#924);
#924 = CARTESIAN_POINT('',(187.03094010767,-11.35470053837,
    29.769059892324));
#925 = SURFACE_CURVE('',#926,(#931,#938),.PCURVE_S1.);
#926 = CIRCLE('',#927,1.2);
#927 = AXIS2_PLACEMENT_3D('',#928,#929,#930);
#928 = CARTESIAN_POINT('',(186.8,-10.2,30.));
#929 = DIRECTION('',(-0.707106781187,0.,-0.707106781187));
#930 = DIRECTION('',(-0.707106781187,0.,0.707106781187));
#931 = PCURVE('',#760,#932);
#932 = DEFINITIONAL_REPRESENTATION('',(#933),#937);
#933 = LINE('',#934,#935);
#934 = CARTESIAN_POINT('',(0.,3.394112549695));
#935 = VECTOR('',#936,1.);
#936 = DIRECTION('',(1.,0.));
#937 = ( GEOMETRIC_REPRESENTATION_CONTEXT(2) 
PARAMETRIC_REPRESENTATION_CONTEXT() REPRESENTATION_CONTEXT('2D SPACE',''
  ) );
#938 = PCURVE('',#939,#944);
#939 = SPHERICAL_SURFACE('',#940,1.2);
#940 = AXIS2_PLACEMENT_3D('',#941,#942,#943);
#941 = CARTESIAN_POINT('',(186.8,-10.2,30.));
#942 = DIRECTION('',(0.,0.,1.));
#943 = DIRECTION('',(1.,0.,-0.));
#944 = DEFINITIONAL_REPRESENTATION('',(#945),#969);
#945 = B_SPLINE_CURVE_WITH_KNOTS('',8,(#946,#947,#948,#949,#950,#951,
    #952,#953,#954,#955,#956,#957,#958,#959,#960,#961,#962,#963,#964,
    #965,#966,#967,#968),.UNSPECIFIED.,.F.,.F.,(9,7,7,9),(4.436746181168
    ,5.359965744174,5.821575525677,6.28318530718),.UNSPECIFIED.);
#946 = CARTESIAN_POINT('',(4.909784540235,-0.193658300444));
#947 = CARTESIAN_POINT('',(4.825044155787,-0.113641101576));
#948 = CARTESIAN_POINT('',(4.743343585443,-3.207395976941E-02));
#949 = CARTESIAN_POINT('',(4.662904784207,5.010206418007E-02));
#950 = CARTESIAN_POINT('',(4.582113478766,0.132102727758));
#951 = CARTESIAN_POINT('',(4.499374648814,0.213149897684));
#952 = CARTESIAN_POINT('',(4.413021399738,0.292392393577));
#953 = CARTESIAN_POINT('',(4.3210067132,0.368736331419));
#954 = CARTESIAN_POINT('',(4.17137763542,0.476670872585));
#955 = CARTESIAN_POINT('',(4.119566803576,0.51155240669));
#956 = CARTESIAN_POINT('',(4.065562280645,0.545150204349));
#957 = CARTESIAN_POINT('',(4.009104296712,0.577255694066));
#958 = CARTESIAN_POINT('',(3.949942946383,0.6076293149));
#959 = CARTESIAN_POINT('',(3.887868704109,0.635999968558));
#960 = CARTESIAN_POINT('',(3.822763038887,0.662073431685));
#961 = CARTESIAN_POINT('',(3.686575217833,0.709026025042));
#962 = CARTESIAN_POINT('',(3.615492383424,0.729905441295));
#963 = CARTESIAN_POINT('',(3.541465282009,0.747888748253));
#964 = CARTESIAN_POINT('',(3.464684755271,0.762675727046));
#965 = CARTESIAN_POINT('',(3.38557233271,0.773982947114));
#966 = CARTESIAN_POINT('',(3.304795815084,0.781593118102));
#967 = CARTESIAN_POINT('',(3.22319450528,0.785398163397));
#968 = CARTESIAN_POINT('',(3.14159265359,0.785398163397));
#969 = ( GEOMETRIC_REPRESENTATION_CONTEXT(2) 
PARAMETRIC_REPRESENTATION_CONTEXT() REPRESENTATION_CONTEXT('2D SPACE',''
  ) );
#970 = ORIENTED_EDGE('',*,*,#971,.F.);
#971 = EDGE_CURVE('',#972,#923,#974,.T.);
#972 = VERTEX_POINT('',#973);
#973 = CARTESIAN_POINT('',(186.56905989232,-9.045299461621,
    30.230940107676));
#974 = SURFACE_CURVE('',#975,(#980,#993),.PCURVE_S1.);
#975 = ELLIPSE('',#976,1.371862681477,1.2);
#976 = AXIS2_PLACEMENT_3D('',#977,#978,#979);
#977 = CARTESIAN_POINT('',(186.8,-10.2,30.));
#978 = DIRECTION('',(-0.288778449507,0.131897679101,-0.948266845011));
#979 = DIRECTION('',(-0.93785391723,-0.23806947793,0.252493472421));
#980 = PCURVE('',#760,#981);
#981 = DEFINITIONAL_REPRESENTATION('',(#982),#992);
#982 = B_SPLINE_CURVE_WITH_KNOTS('',8,(#983,#984,#985,#986,#987,#988,
    #989,#990,#991),.UNSPECIFIED.,.F.,.F.,(9,9),(1.570795875565,
    4.712388977487),.PIECEWISE_BEZIER_KNOTS.);
#983 = CARTESIAN_POINT('',(1.295153076349,3.394112849689));
#984 = CARTESIAN_POINT('',(1.687852214089,3.133032234216));
#985 = CARTESIAN_POINT('',(2.080551351828,2.871949484134));
#986 = CARTESIAN_POINT('',(2.473250489564,2.672240519578));
#987 = CARTESIAN_POINT('',(2.865949627292,2.595113287247));
#988 = CARTESIAN_POINT('',(3.258648765051,2.672240377238));
#989 = CARTESIAN_POINT('',(3.651347902786,2.871949235434));
#990 = CARTESIAN_POINT('',(4.04404704053,3.133031932295));
#991 = CARTESIAN_POINT('',(4.43674617827,3.394112547769));
#992 = ( GEOMETRIC_REPRESENTATION_CONTEXT(2) 
PARAMETRIC_REPRESENTATION_CONTEXT() REPRESENTATION_CONTEXT('2D SPACE',''
  ) );
#993 = PCURVE('',#994,#999);
#994 = CYLINDRICAL_SURFACE('',#995,1.2);
#995 = AXIS2_PLACEMENT_3D('',#996,#997,#998);
#996 = CARTESIAN_POINT('',(186.8,-10.2,30.));
#997 = DIRECTION('',(0.201904410588,0.230747897815,-0.951835078487));
#998 = DIRECTION('',(-6.938893903907E-18,-0.971850105689,-0.235600025622
    ));
#999 = DEFINITIONAL_REPRESENTATION('',(#1000),#1010);
#1000 = B_SPLINE_CURVE_WITH_KNOTS('',8,(#1001,#1002,#1003,#1004,#1005,
    #1006,#1007,#1008,#1009),.UNSPECIFIED.,.F.,.F.,(9,9),(1.570795875565
    ,4.712388977487),.PIECEWISE_BEZIER_KNOTS.);
#1001 = CARTESIAN_POINT('',(2.943808324276,-2.999938359949E-07));
#1002 = CARTESIAN_POINT('',(3.336507462016,0.261080315479));
#1003 = CARTESIAN_POINT('',(3.729206599753,0.522163065561));
#1004 = CARTESIAN_POINT('',(4.121905737486,0.7218720301));
#1005 = CARTESIAN_POINT('',(4.514604875236,0.79899926246));
#1006 = CARTESIAN_POINT('',(4.907304012961,0.721872172441));
#1007 = CARTESIAN_POINT('',(5.300003150714,0.522163314262));
#1008 = CARTESIAN_POINT('',(5.692702288457,0.2610806174));
#1009 = CARTESIAN_POINT('',(6.085401426197,1.926750314851E-09));
#1010 = ( GEOMETRIC_REPRESENTATION_CONTEXT(2) 
PARAMETRIC_REPRESENTATION_CONTEXT() REPRESENTATION_CONTEXT('2D SPACE',''
  ) );
#1011 = ORIENTED_EDGE('',*,*,#1012,.F.);
#1012 = EDGE_CURVE('',#900,#972,#1013,.T.);
#1013 = SURFACE_CURVE('',#1014,(#1019,#1026),.PCURVE_S1.);
#1014 = CIRCLE('',#1015,1.2);
#1015 = AXIS2_PLACEMENT_3D('',#1016,#1017,#1018);
#1016 = CARTESIAN_POINT('',(186.8,-10.2,30.));
#1017 = DIRECTION('',(-0.707106781187,0.,-0.707106781187));
#1018 = DIRECTION('',(-0.707106781187,0.,0.707106781187));
#1019 = PCURVE('',#760,#1020);
#1020 = DEFINITIONAL_REPRESENTATION('',(#1021),#1025);
#1021 = LINE('',#1022,#1023);
#1022 = CARTESIAN_POINT('',(0.,3.394112549695));
#1023 = VECTOR('',#1024,1.);
#1024 = DIRECTION('',(1.,0.));
#1025 = ( GEOMETRIC_REPRESENTATION_CONTEXT(2) 
PARAMETRIC_REPRESENTATION_CONTEXT() REPRESENTATION_CONTEXT('2D SPACE',''
  ) );
#1026 = PCURVE('',#939,#1027);
#1027 = DEFINITIONAL_REPRESENTATION('',(#1028),#1045);
#1028 = B_SPLINE_CURVE_WITH_KNOTS('',8,(#1029,#1030,#1031,#1032,#1033,
    #1034,#1035,#1036,#1037,#1038,#1039,#1040,#1041,#1042,#1043,#1044),
  .UNSPECIFIED.,.F.,.F.,(9,7,9),(0.,0.647576763789,1.295153527579),
  .UNSPECIFIED.);
#1029 = CARTESIAN_POINT('',(3.14159265359,0.785398163397));
#1030 = CARTESIAN_POINT('',(3.027116173336,0.785398163397));
#1031 = CARTESIAN_POINT('',(2.912640906687,0.777909512367));
#1032 = CARTESIAN_POINT('',(2.800442049795,0.762933788611));
#1033 = CARTESIAN_POINT('',(2.692850489177,0.740881844181));
#1034 = CARTESIAN_POINT('',(2.591270504861,0.712618429228));
#1035 = CARTESIAN_POINT('',(2.495874817914,0.67903918284));
#1036 = CARTESIAN_POINT('',(2.406465835309,0.640975865244));
#1037 = CARTESIAN_POINT('',(2.238601573184,0.557350395595));
#1038 = CARTESIAN_POINT('',(2.160147509672,0.511788031661));
#1039 = CARTESIAN_POINT('',(2.086671382222,0.463211525827));
#1040 = CARTESIAN_POINT('',(2.017412472421,0.412253809488));
#1041 = CARTESIAN_POINT('',(1.951609652698,0.359426736427));
#1042 = CARTESIAN_POINT('',(1.888566942507,0.305149034659));
#1043 = CARTESIAN_POINT('',(1.827631597546,0.249785012623));
#1044 = CARTESIAN_POINT('',(1.768191886645,0.193658300444));
#1045 = ( GEOMETRIC_REPRESENTATION_CONTEXT(2) 
PARAMETRIC_REPRESENTATION_CONTEXT() REPRESENTATION_CONTEXT('2D SPACE',''
  ) );
#1046 = ORIENTED_EDGE('',*,*,#899,.F.);
#1047 = ORIENTED_EDGE('',*,*,#738,.T.);
#1048 = ORIENTED_EDGE('',*,*,#839,.F.);
#1049 = ORIENTED_EDGE('',*,*,#803,.T.);
#1050 = ADVANCED_FACE('',(#1051),#939,.T.);
#1051 = FACE_BOUND('',#1052,.T.);
#1052 = EDGE_LOOP('',(#1053,#1054,#1095,#1120));
#1053 = ORIENTED_EDGE('',*,*,#1012,.T.);
#1054 = ORIENTED_EDGE('',*,*,#1055,.F.);
#1055 = EDGE_CURVE('',#1056,#972,#1058,.T.);
#1056 = VERTEX_POINT('',#1057);
#1057 = CARTESIAN_POINT('',(186.8,-11.36622012682,29.717279969254));
#1058 = SURFACE_CURVE('',#1059,(#1064,#1088),.PCURVE_S1.);
#1059 = CIRCLE('',#1060,1.2);
#1060 = AXIS2_PLACEMENT_3D('',#1061,#1062,#1063);
#1061 = CARTESIAN_POINT('',(186.8,-10.2,30.));
#1062 = DIRECTION('',(0.201904410588,0.230747897815,-0.951835078487));
#1063 = DIRECTION('',(-1.387778780781E-17,-0.971850105689,
    -0.235600025622));
#1064 = PCURVE('',#939,#1065);
#1065 = DEFINITIONAL_REPRESENTATION('',(#1066),#1087);
#1066 = B_SPLINE_CURVE_WITH_KNOTS('',7,(#1067,#1068,#1069,#1070,#1071,
    #1072,#1073,#1074,#1075,#1076,#1077,#1078,#1079,#1080,#1081,#1082,
    #1083,#1084,#1085,#1086),.UNSPECIFIED.,.F.,.F.,(8,6,6,8),(0.,
    0.735952193876,1.839880484691,2.943808775506),.UNSPECIFIED.);
#1067 = CARTESIAN_POINT('',(4.712388980385,-0.237835927457));
#1068 = CARTESIAN_POINT('',(4.606435629119,-0.259063355161));
#1069 = CARTESIAN_POINT('',(4.499210254895,-0.277291629841));
#1070 = CARTESIAN_POINT('',(4.390744087058,-0.292090253459));
#1071 = CARTESIAN_POINT('',(4.281213998774,-0.303084844971));
#1072 = CARTESIAN_POINT('',(4.170954872337,-0.310013189772));
#1073 = CARTESIAN_POINT('',(4.060402343572,-0.312757467003));
#1074 = CARTESIAN_POINT('',(3.784311298035,-0.309245436256));
#1075 = CARTESIAN_POINT('',(3.61892023494,-0.297802472715));
#1076 = CARTESIAN_POINT('',(3.45517079963,-0.277133026825));
#1077 = CARTESIAN_POINT('',(3.294422290672,-0.248102964294));
#1078 = CARTESIAN_POINT('',(3.137000218452,-0.212261856399));
#1079 = CARTESIAN_POINT('',(2.982433006405,-0.171267385241));
#1080 = CARTESIAN_POINT('',(2.677332236774,-8.246434176614E-02));
#1081 = CARTESIAN_POINT('',(2.526797949512,-3.465518113844E-02));
#1082 = CARTESIAN_POINT('',(2.377433748843,1.481957861043E-02));
#1083 = CARTESIAN_POINT('',(2.228003353981,6.41533081662E-02));
#1084 = CARTESIAN_POINT('',(2.077219255926,0.111585720979));
#1085 = CARTESIAN_POINT('',(1.924073519205,0.155298850491));
#1086 = CARTESIAN_POINT('',(1.768191886645,0.193658300444));
#1087 = ( GEOMETRIC_REPRESENTATION_CONTEXT(2) 
PARAMETRIC_REPRESENTATION_CONTEXT() REPRESENTATION_CONTEXT('2D SPACE',''
  ) );
#1088 = PCURVE('',#994,#1089);
#1089 = DEFINITIONAL_REPRESENTATION('',(#1090),#1094);
#1090 = LINE('',#1091,#1092);
#1091 = CARTESIAN_POINT('',(0.,0.));
#1092 = VECTOR('',#1093,1.);
#1093 = DIRECTION('',(1.,0.));
#1094 = ( GEOMETRIC_REPRESENTATION_CONTEXT(2) 
PARAMETRIC_REPRESENTATION_CONTEXT() REPRESENTATION_CONTEXT('2D SPACE',''
  ) );
#1095 = ORIENTED_EDGE('',*,*,#1096,.F.);
#1096 = EDGE_CURVE('',#923,#1056,#1097,.T.);
#1097 = SURFACE_CURVE('',#1098,(#1103,#1113),.PCURVE_S1.);
#1098 = CIRCLE('',#1099,1.2);
#1099 = AXIS2_PLACEMENT_3D('',#1100,#1101,#1102);
#1100 = CARTESIAN_POINT('',(186.8,-10.2,30.));
#1101 = DIRECTION('',(0.201904410588,0.230747897815,-0.951835078487));
#1102 = DIRECTION('',(-1.387778780781E-17,-0.971850105689,
    -0.235600025622));
#1103 = PCURVE('',#939,#1104);
#1104 = DEFINITIONAL_REPRESENTATION('',(#1105),#1112);
#1105 = B_SPLINE_CURVE_WITH_KNOTS('',5,(#1106,#1107,#1108,#1109,#1110,
    #1111),.UNSPECIFIED.,.F.,.F.,(6,6),(6.085401429095,6.28318530718),
  .PIECEWISE_BEZIER_KNOTS.);
#1106 = CARTESIAN_POINT('',(4.909784540235,-0.193658300444));
#1107 = CARTESIAN_POINT('',(4.870684877971,-0.203279969868));
#1108 = CARTESIAN_POINT('',(4.831400768799,-0.212540744822));
#1109 = CARTESIAN_POINT('',(4.791924600139,-0.221407717768));
#1110 = CARTESIAN_POINT('',(4.752253268904,-0.229849239992));
#1111 = CARTESIAN_POINT('',(4.712388980385,-0.237835927457));
#1112 = ( GEOMETRIC_REPRESENTATION_CONTEXT(2) 
PARAMETRIC_REPRESENTATION_CONTEXT() REPRESENTATION_CONTEXT('2D SPACE',''
  ) );
#1113 = PCURVE('',#994,#1114);
#1114 = DEFINITIONAL_REPRESENTATION('',(#1115),#1119);
#1115 = LINE('',#1116,#1117);
#1116 = CARTESIAN_POINT('',(0.,0.));
#1117 = VECTOR('',#1118,1.);
#1118 = DIRECTION('',(1.,0.));
#1119 = ( GEOMETRIC_REPRESENTATION_CONTEXT(2) 
PARAMETRIC_REPRESENTATION_CONTEXT() REPRESENTATION_CONTEXT('2D SPACE',''
  ) );
#1120 = ORIENTED_EDGE('',*,*,#922,.T.);
#1121 = ADVANCED_FACE('',(#1122),#994,.T.);
#1122 = FACE_BOUND('',#1123,.T.);
#1123 = EDGE_LOOP('',(#1124,#1172,#1193,#1194,#1195,#1196,#1197,#1238));
#1124 = ORIENTED_EDGE('',*,*,#1125,.F.);
#1125 = EDGE_CURVE('',#1126,#1128,#1130,.T.);
#1126 = VERTEX_POINT('',#1127);
#1127 = CARTESIAN_POINT('',(189.6,-8.166220126826,16.517279969254));
#1128 = VERTEX_POINT('',#1129);
#1129 = CARTESIAN_POINT('',(189.6,-5.833779873174,17.082720030746));
#1130 = SURFACE_CURVE('',#1131,(#1136,#1143),.PCURVE_S1.);
#1131 = CIRCLE('',#1132,1.2);
#1132 = AXIS2_PLACEMENT_3D('',#1133,#1134,#1135);
#1133 = CARTESIAN_POINT('',(189.6,-7.,16.8));
#1134 = DIRECTION('',(0.201904410588,0.230747897815,-0.951835078487));
#1135 = DIRECTION('',(-1.387778780781E-17,-0.971850105689,
    -0.235600025622));
#1136 = PCURVE('',#994,#1137);
#1137 = DEFINITIONAL_REPRESENTATION('',(#1138),#1142);
#1138 = LINE('',#1139,#1140);
#1139 = CARTESIAN_POINT('',(0.,13.867948658688));
#1140 = VECTOR('',#1141,1.);
#1141 = DIRECTION('',(1.,0.));
#1142 = ( GEOMETRIC_REPRESENTATION_CONTEXT(2) 
PARAMETRIC_REPRESENTATION_CONTEXT() REPRESENTATION_CONTEXT('2D SPACE',''
  ) );
#1143 = PCURVE('',#1144,#1149);
#1144 = SPHERICAL_SURFACE('',#1145,1.2);
#1145 = AXIS2_PLACEMENT_3D('',#1146,#1147,#1148);
#1146 = CARTESIAN_POINT('',(189.6,-7.,16.8));
#1147 = DIRECTION('',(0.,0.,1.));
#1148 = DIRECTION('',(1.,0.,-0.));
#1149 = DEFINITIONAL_REPRESENTATION('',(#1150),#1171);
#1150 = B_SPLINE_CURVE_WITH_KNOTS('',7,(#1151,#1152,#1153,#1154,#1155,
    #1156,#1157,#1158,#1159,#1160,#1161,#1162,#1163,#1164,#1165,#1166,
    #1167,#1168,#1169,#1170),.UNSPECIFIED.,.F.,.F.,(8,6,6,8),(0.,
    0.785398163397,1.963495408494,3.14159265359),.UNSPECIFIED.);
#1151 = CARTESIAN_POINT('',(4.712388980385,-0.237835927457));
#1152 = CARTESIAN_POINT('',(4.599317006169,-0.260489549351));
#1153 = CARTESIAN_POINT('',(4.484796527282,-0.279727345669));
#1154 = CARTESIAN_POINT('',(4.368864606456,-0.295026714322));
#1155 = CARTESIAN_POINT('',(4.251749605833,-0.305936159681));
#1156 = CARTESIAN_POINT('',(4.133883942563,-0.31215594786));
#1157 = CARTESIAN_POINT('',(4.015819052095,-0.313580008582));
#1158 = CARTESIAN_POINT('',(3.721377819755,-0.305377696146));
#1159 = CARTESIAN_POINT('',(3.545365156165,-0.289869963448));
#1160 = CARTESIAN_POINT('',(3.371651539285,-0.264066651433));
#1161 = CARTESIAN_POINT('',(3.201725924541,-0.229244253432));
#1162 = CARTESIAN_POINT('',(3.035571265442,-0.187442581718));
#1163 = CARTESIAN_POINT('',(2.87232940538,-0.140727408512));
#1164 = CARTESIAN_POINT('',(2.549259821605,-4.177410973728E-02));
#1165 = CARTESIAN_POINT('',(2.389432294681,1.046527742354E-02));
#1166 = CARTESIAN_POINT('',(2.230095750135,6.332190495809E-02));
#1167 = CARTESIAN_POINT('',(2.069702071985,0.114612967189));
#1168 = CARTESIAN_POINT('',(1.906753245949,0.162190958819));
#1169 = CARTESIAN_POINT('',(1.740404288118,0.203855494616));
#1170 = CARTESIAN_POINT('',(1.570796326795,0.237835927457));
#1171 = ( GEOMETRIC_REPRESENTATION_CONTEXT(2) 
PARAMETRIC_REPRESENTATION_CONTEXT() REPRESENTATION_CONTEXT('2D SPACE',''
  ) );
#1172 = ORIENTED_EDGE('',*,*,#1173,.F.);
#1173 = EDGE_CURVE('',#1056,#1126,#1174,.T.);
#1174 = SEAM_CURVE('',#1175,(#1179,#1186),.PCURVE_S1.);
#1175 = LINE('',#1176,#1177);
#1176 = CARTESIAN_POINT('',(186.8,-11.36622012682,29.717279969254));
#1177 = VECTOR('',#1178,1.);
#1178 = DIRECTION('',(0.201904410588,0.230747897815,-0.951835078487));
#1179 = PCURVE('',#994,#1180);
#1180 = DEFINITIONAL_REPRESENTATION('',(#1181),#1185);
#1181 = LINE('',#1182,#1183);
#1182 = CARTESIAN_POINT('',(6.28318530718,-0.));
#1183 = VECTOR('',#1184,1.);
#1184 = DIRECTION('',(0.,1.));
#1185 = ( GEOMETRIC_REPRESENTATION_CONTEXT(2) 
PARAMETRIC_REPRESENTATION_CONTEXT() REPRESENTATION_CONTEXT('2D SPACE',''
  ) );
#1186 = PCURVE('',#994,#1187);
#1187 = DEFINITIONAL_REPRESENTATION('',(#1188),#1192);
#1188 = LINE('',#1189,#1190);
#1189 = CARTESIAN_POINT('',(0.,-0.));
#1190 = VECTOR('',#1191,1.);
#1191 = DIRECTION('',(0.,1.));
#1192 = ( GEOMETRIC_REPRESENTATION_CONTEXT(2) 
PARAMETRIC_REPRESENTATION_CONTEXT() REPRESENTATION_CONTEXT('2D SPACE',''
  ) );
#1193 = ORIENTED_EDGE('',*,*,#1055,.T.);
#1194 = ORIENTED_EDGE('',*,*,#971,.T.);
#1195 = ORIENTED_EDGE('',*,*,#1096,.T.);
#1196 = ORIENTED_EDGE('',*,*,#1173,.T.);
#1197 = ORIENTED_EDGE('',*,*,#1198,.F.);
#1198 = EDGE_CURVE('',#1199,#1126,#1201,.T.);
#1199 = VERTEX_POINT('',#1200);
#1200 = CARTESIAN_POINT('',(190.55032690131,-7.,18.));
#1201 = SURFACE_CURVE('',#1202,(#1207,#1220),.PCURVE_S1.);
#1202 = ELLIPSE('',#1203,1.547965507974,1.2);
#1203 = AXIS2_PLACEMENT_3D('',#1204,#1205,#1206);
#1204 = CARTESIAN_POINT('',(189.6,-7.,16.8));
#1205 = DIRECTION('',(0.775211071447,0.148829077856,-0.613919946158));
#1206 = DIRECTION('',(-0.631702299114,0.182639748295,-0.753388961717));
#1207 = PCURVE('',#994,#1208);
#1208 = DEFINITIONAL_REPRESENTATION('',(#1209),#1219);
#1209 = B_SPLINE_CURVE_WITH_KNOTS('',8,(#1210,#1211,#1212,#1213,#1214,
    #1215,#1216,#1217,#1218),.UNSPECIFIED.,.F.,.F.,(9,9),(2.903756726132
    ,4.712388980385),.PIECEWISE_BEZIER_KNOTS.);
#1210 = CARTESIAN_POINT('',(4.474553052927,12.917621757378));
#1211 = CARTESIAN_POINT('',(4.700632084709,12.865537154778));
#1212 = CARTESIAN_POINT('',(4.92671111649,12.868964505329));
#1213 = CARTESIAN_POINT('',(5.152790148275,12.93195930191));
#1214 = CARTESIAN_POINT('',(5.378869180053,13.052529713081));
#1215 = CARTESIAN_POINT('',(5.604948211837,13.221951228981));
#1216 = CARTESIAN_POINT('',(5.831027243616,13.425804228275));
#1217 = CARTESIAN_POINT('',(6.057106275398,13.646876515498));
#1218 = CARTESIAN_POINT('',(6.28318530718,13.867948658688));
#1219 = ( GEOMETRIC_REPRESENTATION_CONTEXT(2) 
PARAMETRIC_REPRESENTATION_CONTEXT() REPRESENTATION_CONTEXT('2D SPACE',''
  ) );
#1220 = PCURVE('',#1221,#1226);
#1221 = CYLINDRICAL_SURFACE('',#1222,1.2);
#1222 = AXIS2_PLACEMENT_3D('',#1223,#1224,#1225);
#1223 = CARTESIAN_POINT('',(189.6,-7.,16.8));
#1224 = DIRECTION('',(1.,0.,0.));
#1225 = DIRECTION('',(-0.,0.,1.));
#1226 = DEFINITIONAL_REPRESENTATION('',(#1227),#1237);
#1227 = B_SPLINE_CURVE_WITH_KNOTS('',8,(#1228,#1229,#1230,#1231,#1232,
    #1233,#1234,#1235,#1236),.UNSPECIFIED.,.F.,.F.,(9,9),(2.903756726132
    ,4.712388980385),.PIECEWISE_BEZIER_KNOTS.);
#1228 = CARTESIAN_POINT('',(5.625129991434E-14,0.95032690131));
#1229 = CARTESIAN_POINT('',(0.226079031782,1.002411503909));
#1230 = CARTESIAN_POINT('',(0.452158063564,0.998984153345));
#1231 = CARTESIAN_POINT('',(0.678237095341,0.935989356739));
#1232 = CARTESIAN_POINT('',(0.904316127132,0.815418945542));
#1233 = CARTESIAN_POINT('',(1.130395158902,0.645997429697));
#1234 = CARTESIAN_POINT('',(1.356474190691,0.44214443041));
#1235 = CARTESIAN_POINT('',(1.582553222471,0.22107214319));
#1236 = CARTESIAN_POINT('',(1.808632254252,0.));
#1237 = ( GEOMETRIC_REPRESENTATION_CONTEXT(2) 
PARAMETRIC_REPRESENTATION_CONTEXT() REPRESENTATION_CONTEXT('2D SPACE',''
  ) );
#1238 = ORIENTED_EDGE('',*,*,#1239,.F.);
#1239 = EDGE_CURVE('',#1128,#1199,#1240,.T.);
#1240 = SURFACE_CURVE('',#1241,(#1246,#1258),.PCURVE_S1.);
#1241 = ELLIPSE('',#1242,1.547965507974,1.2);
#1242 = AXIS2_PLACEMENT_3D('',#1243,#1244,#1245);
#1243 = CARTESIAN_POINT('',(189.6,-7.,16.8));
#1244 = DIRECTION('',(0.775211071447,0.148829077856,-0.613919946158));
#1245 = DIRECTION('',(-0.631702299114,0.182639748295,-0.753388961717));
#1246 = PCURVE('',#994,#1247);
#1247 = DEFINITIONAL_REPRESENTATION('',(#1248),#1257);
#1248 = B_SPLINE_CURVE_WITH_KNOTS('',7,(#1249,#1250,#1251,#1252,#1253,
    #1254,#1255,#1256),.UNSPECIFIED.,.F.,.F.,(8,8),(1.57079630048,
    2.903756726132),.PIECEWISE_BEZIER_KNOTS.);
#1249 = CARTESIAN_POINT('',(3.141592627275,13.86794868442));
#1250 = CARTESIAN_POINT('',(3.332015545225,13.681742992313));
#1251 = CARTESIAN_POINT('',(3.522438463175,13.49553750893));
#1252 = CARTESIAN_POINT('',(3.712861381127,13.320358806768));
#1253 = CARTESIAN_POINT('',(3.903284299075,13.167241372314));
#1254 = CARTESIAN_POINT('',(4.093707217027,13.045565107696));
#1255 = CARTESIAN_POINT('',(4.284130134977,12.961491823209));
#1256 = CARTESIAN_POINT('',(4.474553052927,12.917621757378));
#1257 = ( GEOMETRIC_REPRESENTATION_CONTEXT(2) 
PARAMETRIC_REPRESENTATION_CONTEXT() REPRESENTATION_CONTEXT('2D SPACE',''
  ) );
#1258 = PCURVE('',#1221,#1259);
#1259 = DEFINITIONAL_REPRESENTATION('',(#1260),#1269);
#1260 = B_SPLINE_CURVE_WITH_KNOTS('',7,(#1261,#1262,#1263,#1264,#1265,
    #1266,#1267,#1268),.UNSPECIFIED.,.F.,.F.,(8,8),(1.57079630048,
    2.903756726132),.PIECEWISE_BEZIER_KNOTS.);
#1261 = CARTESIAN_POINT('',(4.950224881527,-2.573233359726E-08));
#1262 = CARTESIAN_POINT('',(5.140647799477,0.186205666375));
#1263 = CARTESIAN_POINT('',(5.331070717428,0.372411149758));
#1264 = CARTESIAN_POINT('',(5.521493635378,0.547589851918));
#1265 = CARTESIAN_POINT('',(5.711916553328,0.700707286378));
#1266 = CARTESIAN_POINT('',(5.902339471279,0.822383550989));
#1267 = CARTESIAN_POINT('',(6.092762389229,0.906456835478));
#1268 = CARTESIAN_POINT('',(6.28318530718,0.95032690131));
#1269 = ( GEOMETRIC_REPRESENTATION_CONTEXT(2) 
PARAMETRIC_REPRESENTATION_CONTEXT() REPRESENTATION_CONTEXT('2D SPACE',''
  ) );
#1270 = ADVANCED_FACE('',(#1271),#1144,.T.);
#1271 = FACE_BOUND('',#1272,.T.);
#1272 = EDGE_LOOP('',(#1273,#1297,#1298));
#1273 = ORIENTED_EDGE('',*,*,#1274,.F.);
#1274 = EDGE_CURVE('',#1126,#1275,#1277,.T.);
#1275 = VERTEX_POINT('',#1276);
#1276 = CARTESIAN_POINT('',(189.6,-7.,15.6));
#1277 = SURFACE_CURVE('',#1278,(#1283,#1290),.PCURVE_S1.);
#1278 = CIRCLE('',#1279,1.2);
#1279 = AXIS2_PLACEMENT_3D('',#1280,#1281,#1282);
#1280 = CARTESIAN_POINT('',(189.6,-7.,16.8));
#1281 = DIRECTION('',(1.,0.,0.));
#1282 = DIRECTION('',(-0.,0.,1.));
#1283 = PCURVE('',#1144,#1284);
#1284 = DEFINITIONAL_REPRESENTATION('',(#1285),#1289);
#1285 = LINE('',#1286,#1287);
#1286 = CARTESIAN_POINT('',(4.712388980385,1.570796326795));
#1287 = VECTOR('',#1288,1.);
#1288 = DIRECTION('',(0.,-1.));
#1289 = ( GEOMETRIC_REPRESENTATION_CONTEXT(2) 
PARAMETRIC_REPRESENTATION_CONTEXT() REPRESENTATION_CONTEXT('2D SPACE',''
  ) );
#1290 = PCURVE('',#1221,#1291);
#1291 = DEFINITIONAL_REPRESENTATION('',(#1292),#1296);
#1292 = LINE('',#1293,#1294);
#1293 = CARTESIAN_POINT('',(0.,0.));
#1294 = VECTOR('',#1295,1.);
#1295 = DIRECTION('',(1.,0.));
#1296 = ( GEOMETRIC_REPRESENTATION_CONTEXT(2) 
PARAMETRIC_REPRESENTATION_CONTEXT() REPRESENTATION_CONTEXT('2D SPACE',''
  ) );
#1297 = ORIENTED_EDGE('',*,*,#1125,.T.);
#1298 = ORIENTED_EDGE('',*,*,#1299,.F.);
#1299 = EDGE_CURVE('',#1275,#1128,#1300,.T.);
#1300 = SURFACE_CURVE('',#1301,(#1306,#1313),.PCURVE_S1.);
#1301 = CIRCLE('',#1302,1.2);
#1302 = AXIS2_PLACEMENT_3D('',#1303,#1304,#1305);
#1303 = CARTESIAN_POINT('',(189.6,-7.,16.8));
#1304 = DIRECTION('',(1.,0.,0.));
#1305 = DIRECTION('',(-0.,0.,1.));
#1306 = PCURVE('',#1144,#1307);
#1307 = DEFINITIONAL_REPRESENTATION('',(#1308),#1312);
#1308 = LINE('',#1309,#1310);
#1309 = CARTESIAN_POINT('',(1.570796326795,-4.712388980385));
#1310 = VECTOR('',#1311,1.);
#1311 = DIRECTION('',(-0.,1.));
#1312 = ( GEOMETRIC_REPRESENTATION_CONTEXT(2) 
PARAMETRIC_REPRESENTATION_CONTEXT() REPRESENTATION_CONTEXT('2D SPACE',''
  ) );
#1313 = PCURVE('',#1221,#1314);
#1314 = DEFINITIONAL_REPRESENTATION('',(#1315),#1319);
#1315 = LINE('',#1316,#1317);
#1316 = CARTESIAN_POINT('',(0.,0.));
#1317 = VECTOR('',#1318,1.);
#1318 = DIRECTION('',(1.,0.));
#1319 = ( GEOMETRIC_REPRESENTATION_CONTEXT(2) 
PARAMETRIC_REPRESENTATION_CONTEXT() REPRESENTATION_CONTEXT('2D SPACE',''
  ) );
#1320 = ADVANCED_FACE('',(#1321),#1221,.T.);
#1321 = FACE_BOUND('',#1322,.T.);
#1322 = EDGE_LOOP('',(#1323,#1346,#1373,#1374,#1375,#1376,#1377));
#1323 = ORIENTED_EDGE('',*,*,#1324,.T.);
#1324 = EDGE_CURVE('',#1199,#1325,#1327,.T.);
#1325 = VERTEX_POINT('',#1326);
#1326 = CARTESIAN_POINT('',(193.6,-7.,18.));
#1327 = SEAM_CURVE('',#1328,(#1332,#1339),.PCURVE_S1.);
#1328 = LINE('',#1329,#1330);
#1329 = CARTESIAN_POINT('',(189.6,-7.,18.));
#1330 = VECTOR('',#1331,1.);
#1331 = DIRECTION('',(1.,0.,0.));
#1332 = PCURVE('',#1221,#1333);
#1333 = DEFINITIONAL_REPRESENTATION('',(#1334),#1338);
#1334 = LINE('',#1335,#1336);
#1335 = CARTESIAN_POINT('',(6.28318530718,-0.));
#1336 = VECTOR('',#1337,1.);
#1337 = DIRECTION('',(0.,1.));
#1338 = ( GEOMETRIC_REPRESENTATION_CONTEXT(2) 
PARAMETRIC_REPRESENTATION_CONTEXT() REPRESENTATION_CONTEXT('2D SPACE',''
  ) );
#1339 = PCURVE('',#1221,#1340);
#1340 = DEFINITIONAL_REPRESENTATION('',(#1341),#1345);
#1341 = LINE('',#1342,#1343);
#1342 = CARTESIAN_POINT('',(0.,-0.));
#1343 = VECTOR('',#1344,1.);
#1344 = DIRECTION('',(0.,1.));
#1345 = ( GEOMETRIC_REPRESENTATION_CONTEXT(2) 
PARAMETRIC_REPRESENTATION_CONTEXT() REPRESENTATION_CONTEXT('2D SPACE',''
  ) );
#1346 = ORIENTED_EDGE('',*,*,#1347,.F.);
#1347 = EDGE_CURVE('',#1325,#1325,#1348,.T.);
#1348 = SURFACE_CURVE('',#1349,(#1354,#1361),.PCURVE_S1.);
#1349 = CIRCLE('',#1350,1.2);
#1350 = AXIS2_PLACEMENT_3D('',#1351,#1352,#1353);
#1351 = CARTESIAN_POINT('',(193.6,-7.,16.8));
#1352 = DIRECTION('',(1.,0.,0.));
#1353 = DIRECTION('',(-0.,0.,1.));
#1354 = PCURVE('',#1221,#1355);
#1355 = DEFINITIONAL_REPRESENTATION('',(#1356),#1360);
#1356 = LINE('',#1357,#1358);
#1357 = CARTESIAN_POINT('',(0.,4.));
#1358 = VECTOR('',#1359,1.);
#1359 = DIRECTION('',(1.,0.));
#1360 = ( GEOMETRIC_REPRESENTATION_CONTEXT(2) 
PARAMETRIC_REPRESENTATION_CONTEXT() REPRESENTATION_CONTEXT('2D SPACE',''
  ) );
#1361 = PCURVE('',#1362,#1367);
#1362 = PLANE('',#1363);
#1363 = AXIS2_PLACEMENT_3D('',#1364,#1365,#1366);
#1364 = CARTESIAN_POINT('',(193.6,-7.,16.8));
#1365 = DIRECTION('',(1.,0.,0.));
#1366 = DIRECTION('',(-0.,0.,1.));
#1367 = DEFINITIONAL_REPRESENTATION('',(#1368),#1372);
#1368 = CIRCLE('',#1369,1.2);
#1369 = AXIS2_PLACEMENT_2D('',#1370,#1371);
#1370 = CARTESIAN_POINT('',(0.,0.));
#1371 = DIRECTION('',(1.,0.));
#1372 = ( GEOMETRIC_REPRESENTATION_CONTEXT(2) 
PARAMETRIC_REPRESENTATION_CONTEXT() REPRESENTATION_CONTEXT('2D SPACE',''
  ) );
#1373 = ORIENTED_EDGE('',*,*,#1324,.F.);
#1374 = ORIENTED_EDGE('',*,*,#1198,.T.);
#1375 = ORIENTED_EDGE('',*,*,#1274,.T.);
#1376 = ORIENTED_EDGE('',*,*,#1299,.T.);
#1377 = ORIENTED_EDGE('',*,*,#1239,.T.);
#1378 = ADVANCED_FACE('',(#1379),#1362,.T.);
#1379 = FACE_BOUND('',#1380,.T.);
#1380 = EDGE_LOOP('',(#1381));
#1381 = ORIENTED_EDGE('',*,*,#1347,.T.);
#1382 = ( GEOMETRIC_REPRESENTATION_CONTEXT(3) 
GLOBAL_UNCERTAINTY_ASSIGNED_CONTEXT((#1386)) 
GLOBAL_UNIT_ASSIGNED_CONTEXT((#1383,#1384,#1385)) REPRESENTATION_CONTEXT
('Context #1','3D Context with UNIT and UNCERTAINTY') );
#1383 = ( LENGTH_UNIT() NAMED_UNIT(*) SI_UNIT(.MILLI.,.METRE.) );
#1384 = ( NAMED_UNIT(*) PLANE_ANGLE_UNIT() SI_UNIT($,.RADIAN.) );
#1385 = ( NAMED_UNIT(*) SI_UNIT($,.STERADIAN.) SOLID_ANGLE_UNIT() );
#1386 = UNCERTAINTY_MEASURE_WITH_UNIT(LENGTH_MEASURE(2.E-07),#1383,
  'distance_accuracy_value','confusion accuracy');
#1387 = PRODUCT_RELATED_PRODUCT_CATEGORY('part',$,(#7));
ENDSEC;
END-ISO-10303-21;
